<?xml version="1.0" encoding="utf-8"?>
<!-- Generator: Adobe Illustrator 17.0.0, SVG Export Plug-In . SVG Version: 6.00 Build 0)  -->
<!DOCTYPE svg PUBLIC "-//W3C//DTD SVG 1.1//EN" "http://www.w3.org/Graphics/SVG/1.1/DTD/svg11.dtd">
<svg version="1.1" id="Слой_1" xmlns="http://www.w3.org/2000/svg" xmlns:xlink="http://www.w3.org/1999/xlink" x="0px" y="0px"
	 width="17px" height="16.999px" viewBox="0 0 17 16.999" enable-background="new 0 0 17 16.999" xml:space="preserve">
<path fill-rule="evenodd" clip-rule="evenodd" fill="#ffffff" d="M16,16.999H1c-0.552,0-1-0.448-1-1.001v-13c0-0.552,0.448-1,1-1h2
	V0.998C3,0.447,3.448,0,4,0h1c0.552,0,1,0.447,1,0.998v1.001h5V0.998C11,0.447,11.448,0,12,0h1c0.552,0,1,0.447,1,0.998v1.001h2
	c0.552,0,1,0.448,1,1v13C17,16.552,16.552,16.999,16,16.999z M9,15.998h3v-3H9V15.998z M9,11.999h3v-3H9V11.999z M1,15.998h3v-3H1
	V15.998z M1,11.999h3v-3H1V11.999z M1,4.999V8h3V4.999H1z M5,0.998H4v2h1V0.998z M8,4.999H5V8h3V4.999z M8,8.999H5v3h3V8.999z
	 M8,12.999H5v3h3V12.999z M9,4.999V8h3V4.999H9z M13,0.998h-1v2h1V0.998z M16,4.999h-3V8h3V4.999z M16,8.999h-3v3h3V8.999z
	 M16,12.999h-3v3h3V12.999z"/>
</svg>
