<?xml version="1.0" encoding="UTF-8" standalone="no"?>
<svg width="26px" height="30px" viewBox="0 0 26 30" version="1.1" xmlns="http://www.w3.org/2000/svg" xmlns:xlink="http://www.w3.org/1999/xlink">
    <!-- Generator: Sketch 42 (36781) - http://www.bohemiancoding.com/sketch -->
    <title>noun_631628_cc</title>
    <desc>Created with Sketch.</desc>
    <defs></defs>
    <g id="Page-1" stroke="none" stroke-width="1" fill="none" fill-rule="evenodd">
        <g id="noun_631628_cc" fill-rule="nonzero" fill="#00B967">
            <g id="Group">
                <path d="M11.4031242,16.4225862 C11.1188235,16.4225862 10.9347843,16.4481034 10.8260261,16.4737931 L10.8260261,20.2151724 C10.9347843,20.2405172 11.1103268,20.2405172 11.2692157,20.2405172 C12.4232418,20.2489655 13.1758824,19.6043103 13.1758824,18.2382759 C13.1840392,17.0506897 12.4985229,16.4225862 11.4031242,16.4225862 Z" id="Shape"></path>
                <path d="M24.3995556,12.2134483 L24.3995556,7.66258621 C24.3995556,7.65931034 24.3985359,7.6562069 24.3981961,7.65293103 C24.3978562,7.6212069 24.3947974,7.58982759 24.3891895,7.55896552 C24.3878301,7.55310345 24.3857908,7.54810345 24.3846013,7.54258621 C24.3789935,7.51758621 24.3713464,7.49344828 24.3623399,7.46965517 C24.3587712,7.45982759 24.3543529,7.45068966 24.3504444,7.4412069 C24.341098,7.42103448 24.330902,7.40172414 24.3190065,7.38293103 C24.3142484,7.37517241 24.31,7.36706897 24.304732,7.35965517 C24.2879085,7.33517241 24.2695556,7.31172414 24.2483137,7.29 L17.4674118,0.329137931 C17.4670719,0.32862069 17.466732,0.328275862 17.4660523,0.327931034 C17.4636732,0.325517241 17.4611242,0.324137931 17.4587451,0.321551724 C17.4392026,0.302068966 17.4179608,0.284655172 17.3960392,0.268965517 C17.3880523,0.263275862 17.3795556,0.258275862 17.3712288,0.253103448 C17.3532157,0.241724138 17.3345229,0.231551724 17.3154902,0.222241379 C17.3059739,0.218103448 17.2971373,0.213448276 17.2871111,0.209655172 C17.2619608,0.199137931 17.2356209,0.191206897 17.209281,0.184827586 C17.2052026,0.183965517 17.2012941,0.182586207 17.1972157,0.181724138 C17.1676471,0.175862069 17.1373987,0.173275862 17.1073203,0.172586207 C17.1034118,0.172413793 17.0996732,0.17137931 17.0957647,0.17137931 L2.16462745,0.17137931 C1.8759085,0.17137931 1.6419085,0.408793103 1.6419085,0.701724138 L1.6419085,12.2132759 L0,12.2132759 L0,23.9810345 L1.64207843,23.9810345 L1.64207843,29.3255172 C1.64207843,29.6182759 1.8759085,29.8556897 2.16479739,29.8556897 L23.8770065,29.8556897 C24.1653856,29.8556897 24.3993856,29.6182759 24.3993856,29.3255172 L24.3993856,23.9810345 L25.9862353,23.9810345 L25.9862353,12.2134483 L24.3995556,12.2134483 L24.3995556,12.2134483 Z M17.6179739,1.99293103 L22.6249281,7.13258621 L17.6179739,7.13258621 L17.6179739,1.99293103 L17.6179739,1.99293103 Z M23.3539477,28.7953448 L2.68734641,28.7953448 L2.68734641,23.9808621 L23.3539477,23.9808621 L23.3539477,28.7953448 Z M7.03784314,20.2068966 C7.42257516,20.2068966 7.84894118,20.122069 8.09993464,20.0201724 L8.29230065,21.0298276 C8.05813072,21.1484483 7.53133333,21.2756897 6.84564706,21.2756897 C4.89717647,21.2756897 3.89371242,20.0455172 3.89371242,18.4163793 C3.89371242,16.4651724 5.26508497,15.3789655 6.97105882,15.3789655 C7.63176471,15.3789655 8.13341176,15.515 8.3592549,15.6339655 L8.09993464,16.6603448 C7.84078431,16.5498276 7.48120261,16.4484483 7.02951634,16.4484483 C6.01772549,16.4484483 5.23160784,17.0677586 5.23160784,18.3405172 C5.23143791,19.4856897 5.90047059,20.2068966 7.03784314,20.2068966 Z M9.54658824,21.1656897 L9.54658824,15.5487931 C10.0147582,15.4727586 10.6253333,15.4301724 11.2692157,15.4301724 C12.339634,15.4301724 13.033817,15.6253448 13.577268,16.0410345 C14.1625229,16.4822414 14.5306013,17.1867241 14.5306013,18.1960345 C14.5306013,19.2906897 14.1375425,20.0456897 13.5939216,20.5124138 C13.0001699,21.012931 12.0969673,21.2505172 10.9932418,21.2505172 C10.3327059,21.2503448 9.86436601,21.2081034 9.54658824,21.1656897 Z M19.5817386,19.5789655 C19.757281,20.2237931 19.9329935,20.9703448 20.0417516,21.1912069 L18.7368235,21.1912069 C18.6448889,21.03 18.5113203,20.5632759 18.3441046,19.8591379 C18.1933725,19.1462069 17.9512157,18.9510345 17.4324052,18.9427586 L17.0480131,18.9427586 L17.0480131,21.1912069 L15.7850588,21.1912069 L15.7850588,15.5487931 C16.1946013,15.4808621 16.8051765,15.4301724 17.482366,15.4301724 C18.3187843,15.4301724 18.9042092,15.5574138 19.3055948,15.8796552 C19.6401961,16.1510345 19.8240654,16.5498276 19.8240654,17.0758621 C19.8240654,17.8053448 19.3142614,18.3062069 18.829098,18.4841379 L18.829098,18.5094828 C19.2221569,18.6710345 19.4396732,19.052931 19.5817386,19.5789655 Z M23.3539477,12.2134483 L2.68734641,12.2134483 L2.68734641,1.23206897 L16.5728758,1.23206897 L16.5728758,7.66258621 C16.5728758,7.95551724 16.8067059,8.19293103 17.0954248,8.19293103 L23.3539477,8.19293103 L23.3539477,12.2134483 L23.3539477,12.2134483 Z" id="Shape"></path>
                <path d="M17.6249412,16.3889655 C17.3156601,16.3889655 17.1399477,16.4141379 17.0480131,16.4313793 L17.0480131,18.0093103 L17.5494902,18.0093103 C18.1852157,18.0093103 18.561451,17.6868966 18.561451,17.1863793 C18.5616209,16.6603448 18.2105359,16.3972414 17.6249412,16.3889655 Z" id="Shape"></path>
            </g>
        </g>
    </g>
</svg>