<?xml version="1.0" encoding="UTF-8" standalone="no"?>
<svg width="26px" height="30px" viewBox="0 0 26 30" version="1.1" xmlns="http://www.w3.org/2000/svg" xmlns:xlink="http://www.w3.org/1999/xlink">
    <!-- Generator: Sketch 42 (36781) - http://www.bohemiancoding.com/sketch -->
    <title>noun_631649_cc</title>
    <desc>Created with Sketch.</desc>
    <defs></defs>
    <g id="Page-1" stroke="none" stroke-width="1" fill="none" fill-rule="evenodd">
        <g id="noun_631649_cc" fill-rule="nonzero" fill="#88BB38">
            <g id="Group">
                <path d="M10.8070519,17.2886705 C10.8070519,16.7595954 10.4496364,16.4439884 9.81837662,16.4439884 C9.56090909,16.4439884 9.38616883,16.4694798 9.29483117,16.4951445 L9.29483117,18.1933526 C9.40305195,18.2188439 9.53592208,18.227341 9.7185974,18.227341 C10.3915584,18.227341 10.8070519,17.8773988 10.8070519,17.2886705 Z" id="Shape"></path>
                <path d="M24.3253636,12.2269942 L24.3253636,7.65 C24.3253636,7.6467052 24.3245195,7.64358382 24.3241818,7.64028902 C24.3236753,7.6083815 24.320974,7.57682081 24.3152338,7.54578035 C24.3138831,7.53988439 24.3118571,7.53485549 24.3106753,7.52930636 C24.3051039,7.50416185 24.2975065,7.47988439 24.2885584,7.45595376 C24.2848442,7.44606936 24.2806234,7.4367052 24.2765714,7.42734104 C24.2674545,7.40705202 24.2571558,7.38763006 24.2455065,7.36872832 C24.2407792,7.36092486 24.2365584,7.35277457 24.2313247,7.34531792 C24.2146104,7.32069364 24.1963766,7.29710983 24.1752727,7.27526012 L17.4382338,0.27416185 C17.4378961,0.273641618 17.4375584,0.273294798 17.4368831,0.272947977 C17.4346883,0.270520231 17.4321558,0.268959538 17.4297922,0.266531792 C17.4102078,0.246936416 17.3894416,0.229421965 17.3673247,0.213641618 C17.3593896,0.207919075 17.3511169,0.202890173 17.3428442,0.197687861 C17.3251169,0.186242775 17.3065455,0.176011561 17.2874675,0.166647399 C17.2781818,0.162485549 17.2690649,0.157803468 17.2592727,0.153988439 C17.2341169,0.143583815 17.2082857,0.135433526 17.1819481,0.129190751 C17.1780649,0.128323699 17.174013,0.126936416 17.169961,0.126069364 C17.1405844,0.12017341 17.1103636,0.117572254 17.0804805,0.116878613 C17.0765974,0.116705202 17.0728831,0.11566474 17.069,0.11566474 L2.23498701,0.11566474 C1.94814286,0.11566474 1.71583117,0.354450867 1.71583117,0.649075145 L1.71583117,12.2271676 L0.0844155844,12.2271676 L0.0844155844,24.062948 L1.71583117,24.062948 L1.71583117,29.4384971 C1.71583117,29.732948 1.94814286,29.9717341 2.23498701,29.9717341 L23.8062078,29.9717341 C24.0928831,29.9717341 24.3253636,29.732948 24.3253636,29.4384971 L24.3253636,24.062948 L25.9019091,24.062948 L25.9019091,12.2271676 L24.3253636,12.2271676 L24.3253636,12.2269942 Z M17.5883247,1.94722543 L22.5625974,7.1165896 L17.5883247,7.1165896 L17.5883247,1.94722543 L17.5883247,1.94722543 Z M23.2868831,28.9049133 L2.75431169,28.9049133 L2.75431169,24.0627746 L23.2868831,24.0627746 L23.2868831,28.9049133 Z M3.65350649,21.2139884 L3.79498701,20.1643353 C3.96938961,20.2241618 4.1935974,20.2668208 4.44296104,20.2668208 C4.97444156,20.2668208 5.30687013,20.0191908 5.30687013,19.1231792 L5.30687013,15.5051445 L6.56972727,15.5051445 L6.56972727,19.1403468 C6.56972727,20.7787283 5.80542857,21.3504624 4.57566234,21.3504624 C4.28493506,21.3506358 3.9027013,21.2994798 3.65350649,21.2139884 Z M8.04041558,21.2568208 L8.04041558,15.5819653 C8.43075325,15.5136416 8.97928571,15.462659 9.75185714,15.462659 C10.5327013,15.462659 11.0893377,15.6163006 11.4632987,15.9234104 C11.8205455,16.213526 12.0614675,16.6914451 12.0614675,17.2546821 C12.0614675,17.8179191 11.8787922,18.2956647 11.5463636,18.6199422 C11.1143247,19.0380347 10.4746234,19.2258382 9.72687013,19.2258382 C9.56090909,19.2258382 9.41132468,19.217341 9.29483117,19.2003468 L9.29483117,21.2568208 L8.04041558,21.2568208 Z M16.1159481,20.2669942 C16.4068442,20.2669942 16.6394935,20.2328324 16.7391039,20.1816763 L16.7391039,18.9785549 L15.875026,18.9785549 L15.875026,17.9630636 L17.9604286,17.9630636 L17.9604286,20.9925434 C17.5700909,21.1290173 16.8306104,21.3168208 16.0912987,21.3168208 C15.0693636,21.3168208 14.3297143,21.0523699 13.8147792,20.5401156 C13.2996753,20.0452023 13.0172208,19.2941618 13.0254935,18.4493064 C13.0339351,16.5379769 14.387961,15.4456647 16.2241688,15.4456647 C16.9469351,15.4456647 17.5035714,15.5908092 17.7777532,15.7272832 L17.5118442,16.7684393 C17.2045714,16.6317919 16.8223377,16.5208092 16.2074545,16.5208092 C15.1522597,16.5208092 14.3547013,17.1352023 14.3547013,18.3811561 C14.3547013,19.5671098 15.0776364,20.2669942 16.1159481,20.2669942 Z M23.2868831,12.2269942 L2.75431169,12.2269942 L2.75431169,1.18231214 L16.5496753,1.18231214 L16.5496753,7.65 C16.5496753,7.94462428 16.781987,8.1834104 17.0688312,8.1834104 L23.2867143,8.1834104 L23.2867143,12.2269942 L23.2868831,12.2269942 Z" id="Shape"></path>
            </g>
        </g>
    </g>
</svg>