<?xml version="1.0" encoding="UTF-8" standalone="no"?>
<svg width="26px" height="30px" viewBox="0 0 26 30" version="1.1" xmlns="http://www.w3.org/2000/svg" xmlns:xlink="http://www.w3.org/1999/xlink">
    <!-- Generator: Sketch 42 (36781) - http://www.bohemiancoding.com/sketch -->
    <title>noun_631656_cc</title>
    <desc>Created with Sketch.</desc>
    <defs></defs>
    <g id="Page-1" stroke="none" stroke-width="1" fill="none" fill-rule="evenodd">
        <g id="noun_631656_cc" fill-rule="nonzero" fill="#797979">
            <g id="Group">
                <path d="M24.3997255,12.2134483 L24.3997255,7.66258621 C24.3997255,7.65931034 24.3987059,7.6562069 24.398366,7.65293103 C24.3980261,7.6212069 24.3949673,7.58982759 24.3893595,7.55896552 C24.388,7.55310345 24.3859608,7.54810345 24.3847712,7.54258621 C24.3791634,7.51758621 24.3715163,7.49344828 24.3625098,7.46965517 C24.3589412,7.45982759 24.3545229,7.45068966 24.3506144,7.4412069 C24.341268,7.42103448 24.3310719,7.40172414 24.3191765,7.38293103 C24.3144183,7.37517241 24.3101699,7.36706897 24.304902,7.35965517 C24.2880784,7.33517241 24.2697255,7.31172414 24.2484837,7.29 L17.4675817,0.329137931 C17.4672418,0.32862069 17.466902,0.328275862 17.4662222,0.327931034 C17.4638431,0.325517241 17.4612941,0.324137931 17.458915,0.321551724 C17.4393725,0.302068966 17.4181307,0.284655172 17.3962092,0.268965517 C17.3882222,0.263275862 17.3797255,0.258275862 17.3713987,0.253103448 C17.3533856,0.241724138 17.3346928,0.231551724 17.3156601,0.222241379 C17.3061438,0.218103448 17.2973072,0.213448276 17.287281,0.209655172 C17.2621307,0.199137931 17.2357908,0.191206897 17.209451,0.184827586 C17.2053725,0.183965517 17.2014641,0.182586207 17.1973856,0.181724138 C17.167817,0.175862069 17.1375686,0.173275862 17.1074902,0.172586207 C17.1035817,0.172413793 17.0998431,0.17137931 17.0959346,0.17137931 L2.16479739,0.17137931 C1.87607843,0.17137931 1.64207843,0.408793103 1.64207843,0.701724138 L1.64207843,12.2132759 L0,12.2132759 L0,23.9810345 L1.64207843,23.9810345 L1.64207843,29.3255172 C1.64207843,29.6182759 1.8759085,29.8556897 2.16479739,29.8556897 L23.8771765,29.8556897 C24.1655556,29.8556897 24.3995556,29.6182759 24.3995556,29.3255172 L24.3995556,23.9810345 L25.9864052,23.9810345 L25.9864052,12.2134483 L24.3997255,12.2134483 Z M17.6181438,1.99293103 L22.625098,7.13258621 L17.6181438,7.13258621 L17.6181438,1.99293103 L17.6181438,1.99293103 Z M23.3541176,28.7953448 L2.68734641,28.7953448 L2.68734641,23.9808621 L23.3541176,23.9808621 L23.3541176,28.7953448 Z M2.8472549,18.31 C2.8472549,16.6381034 3.8994902,15.3884483 5.52287582,15.3884483 C7.21151634,15.3884483 8.13324183,16.6712069 8.13324183,18.2106897 C8.13324183,20.0398276 7.04022222,21.1487931 5.43315033,21.1487931 C3.80177778,21.1487931 2.8472549,19.8991379 2.8472549,18.31 Z M12.1380915,20.0977586 C12.4235817,20.0977586 12.6519739,20.0646552 12.7500261,20.015 L12.7500261,18.847931 L11.9015425,18.847931 L11.9015425,17.862931 L13.9492549,17.862931 L13.9492549,20.8012069 C13.5657124,20.9336207 12.8397516,21.1156897 12.1136209,21.1156897 C11.1103268,21.1156897 10.384366,20.8591379 9.87864052,20.3625862 C9.3727451,19.8825862 9.0955817,19.1541379 9.10356863,18.3346552 C9.11172549,16.4806897 10.4414641,15.4213793 12.2441307,15.4213793 C12.9537778,15.4213793 13.5004575,15.562069 13.769634,15.6946552 L13.5086144,16.7043103 C13.2068105,16.5717241 12.8315948,16.4641379 12.2279869,16.4641379 C11.1918954,16.4641379 10.4088366,17.06 10.4088366,18.2684483 C10.4086667,19.4191379 11.1184837,20.0977586 12.1380915,20.0977586 Z M18.1087451,20.0977586 C18.3944052,20.0977586 18.6226275,20.0646552 18.7206797,20.015 L18.7206797,18.847931 L17.872366,18.847931 L17.872366,17.862931 L19.9199085,17.862931 L19.9199085,20.8012069 C19.5365359,20.9336207 18.8105752,21.1156897 18.0844444,21.1156897 C17.0811503,21.1156897 16.3550196,20.8591379 15.8492941,20.3625862 C15.3433987,19.8825862 15.0662353,19.1541379 15.0742222,18.3346552 C15.0823791,16.4806897 16.4121176,15.4213793 18.2147843,15.4213793 C18.9246013,15.4213793 19.4711111,15.562069 19.7404575,15.6946552 L19.4794379,16.7043103 C19.177634,16.5717241 18.8024183,16.4641379 18.1986405,16.4641379 C17.162549,16.4641379 16.3794902,17.06 16.3794902,18.2684483 C16.3793203,19.4191379 17.0891373,20.0977586 18.1087451,20.0977586 Z M23.3541176,12.2134483 L2.68734641,12.2134483 L2.68734641,1.23206897 L16.5728758,1.23206897 L16.5728758,7.66258621 C16.5728758,7.95551724 16.8067059,8.19293103 17.0954248,8.19293103 L23.3539477,8.19293103 L23.3539477,12.2134483 L23.3541176,12.2134483 Z" id="Shape"></path>
                <path d="M6.81998693,18.252069 C6.81998693,17.2505172 6.34688889,16.3898276 5.49024837,16.3898276 C4.6500915,16.3898276 4.1605098,17.2008621 4.1605098,18.285 C4.1605098,19.3775862 4.66640523,20.1474138 5.49840523,20.1474138 C6.33873203,20.1474138 6.81998693,19.3362069 6.81998693,18.252069 Z" id="Shape"></path>
            </g>
        </g>
    </g>
</svg>