<?xml version="1.0" encoding="UTF-8" standalone="no"?>
<svg width="26px" height="30px" viewBox="0 0 26 30" version="1.1" xmlns="http://www.w3.org/2000/svg" xmlns:xlink="http://www.w3.org/1999/xlink">
    <!-- Generator: Sketch 42 (36781) - http://www.bohemiancoding.com/sketch -->
    <title>noun_631663_cc</title>
    <desc>Created with Sketch.</desc>
    <defs></defs>
    <g id="Page-1" stroke="none" stroke-width="1" fill="none" fill-rule="evenodd">
        <g id="noun_631663_cc" fill-rule="nonzero" fill="#FF664D">
            <g id="Group">
                <path d="M5.30688889,17.2091379 C5.30688889,16.6958621 4.95614379,16.3898276 4.33605229,16.3898276 C4.08318954,16.3898276 3.91189542,16.4146552 3.82216993,16.4394828 L3.82216993,18.0865517 C3.92820915,18.1113793 4.05871895,18.1194828 4.23816993,18.1194828 C4.89887582,18.1196552 5.30688889,17.7803448 5.30688889,17.2091379 Z" id="Shape"></path>
                <path d="M24.3997255,12.2134483 L24.3997255,7.66258621 C24.3997255,7.65931034 24.3987059,7.6562069 24.398366,7.65293103 C24.3980261,7.6212069 24.3949673,7.58982759 24.3893595,7.55896552 C24.388,7.55310345 24.3859608,7.54810345 24.3847712,7.54258621 C24.3791634,7.51758621 24.3715163,7.49344828 24.3625098,7.46965517 C24.3589412,7.45982759 24.3545229,7.45068966 24.3506144,7.4412069 C24.341268,7.42103448 24.3310719,7.40172414 24.3191765,7.38293103 C24.3144183,7.37517241 24.3101699,7.36706897 24.304902,7.35965517 C24.2880784,7.33517241 24.2697255,7.31172414 24.2484837,7.29 L17.4675817,0.329137931 C17.4672418,0.32862069 17.466902,0.328275862 17.4662222,0.327931034 C17.4638431,0.325517241 17.4612941,0.324137931 17.458915,0.321551724 C17.4393725,0.302068966 17.4181307,0.284655172 17.3962092,0.268965517 C17.3882222,0.263275862 17.3797255,0.258275862 17.3713987,0.253103448 C17.3533856,0.241724138 17.3346928,0.231551724 17.3156601,0.222241379 C17.3061438,0.218103448 17.2973072,0.213448276 17.287281,0.209655172 C17.2621307,0.199137931 17.2357908,0.191206897 17.209451,0.184827586 C17.2053725,0.183965517 17.2014641,0.182586207 17.1973856,0.181724138 C17.167817,0.175862069 17.1375686,0.173275862 17.1074902,0.172586207 C17.1035817,0.172413793 17.0998431,0.17137931 17.0959346,0.17137931 L2.16479739,0.17137931 C1.87607843,0.17137931 1.64207843,0.408793103 1.64207843,0.701724138 L1.64207843,12.2132759 L0,12.2132759 L0,23.9810345 L1.64207843,23.9810345 L1.64207843,29.3255172 C1.64207843,29.6182759 1.8759085,29.8556897 2.16479739,29.8556897 L23.8771765,29.8556897 C24.1655556,29.8556897 24.3995556,29.6182759 24.3995556,29.3255172 L24.3995556,23.9810345 L25.9864052,23.9810345 L25.9864052,12.2134483 L24.3997255,12.2134483 Z M17.6181438,1.99293103 L22.625098,7.13258621 L17.6181438,7.13258621 L17.6181438,1.99293103 L17.6181438,1.99293103 Z M2.59031373,15.5539655 C2.97368627,15.4877586 3.51203922,15.4381034 4.27079739,15.4381034 C5.03754248,15.4381034 5.58422222,15.5868966 5.95128105,15.885 C6.30202614,16.1663793 6.5387451,16.6298276 6.5387451,17.1760345 C6.5387451,17.7224138 6.35929412,18.1858621 6.03301961,18.5003448 C5.60869281,18.9060345 4.98061438,19.0881034 4.24649673,19.0881034 C4.08335948,19.0881034 3.93653595,19.0796552 3.82233987,19.0631034 L3.82233987,21.0577586 L2.59048366,21.0577586 L2.59048366,15.5539655 L2.59031373,15.5539655 Z M23.3541176,28.7953448 L2.68734641,28.7953448 L2.68734641,23.9808621 L23.3541176,23.9808621 L23.3541176,28.7953448 Z M11.1470327,17.1098276 L11.1470327,15.4793103 L12.2891634,15.4793103 L12.2891634,21.0577586 L10.9838954,21.0577586 L9.80913725,18.9058621 C9.48286275,18.31 9.12396078,17.5898276 8.85461438,16.9360345 L8.83014379,16.9443103 C8.86277124,17.6808621 8.87908497,18.4672414 8.87908497,19.3775862 L8.87908497,21.0577586 L7.73712418,21.0577586 L7.73712418,15.4793103 L9.18904575,15.4793103 L10.3311765,17.5236207 C10.657451,18.1112069 10.9837255,18.8063793 11.2284314,19.4355172 L11.252902,19.4355172 C11.1715033,18.6989655 11.1470327,17.9458621 11.1470327,17.1098276 Z M16.5548627,20.0977586 C16.8405229,20.0977586 17.0687451,20.0646552 17.1667974,20.015 L17.1667974,18.847931 L16.3184837,18.847931 L16.3184837,17.862931 L18.3660261,17.862931 L18.3660261,20.8012069 C17.9826536,20.9336207 17.2566928,21.1156897 16.5305621,21.1156897 C15.527268,21.1156897 14.8011373,20.8591379 14.2954118,20.3625862 C13.7895163,19.8825862 13.5123529,19.1541379 13.5203399,18.3346552 C13.5284967,16.4806897 14.8582353,15.4213793 16.660902,15.4213793 C17.370719,15.4213793 17.9172288,15.562069 18.1865752,15.6946552 L17.9255556,16.7043103 C17.6237516,16.5717241 17.2485359,16.4641379 16.6447582,16.4641379 C15.6086667,16.4641379 14.8256078,17.06 14.8256078,18.2684483 C14.8256078,19.4191379 15.5352549,20.0977586 16.5548627,20.0977586 Z M23.3541176,12.2134483 L2.68734641,12.2134483 L2.68734641,1.23206897 L16.5728758,1.23206897 L16.5728758,7.66258621 C16.5728758,7.95551724 16.8067059,8.19293103 17.0954248,8.19293103 L23.3539477,8.19293103 L23.3539477,12.2134483 L23.3541176,12.2134483 Z" id="Shape"></path>
            </g>
        </g>
    </g>
</svg>