<svg xmlns="http://www.w3.org/2000/svg" width="15" height="45" viewBox="0 0 15 45"><g fill="none" fill-rule="evenodd"><path fill="#D0011B" d="M9.334 7.778l3.11-3.111L10.89 3.11 7.778 6.222l-3.111-3.11L3.11 4.666l3.111 3.111-3.11 3.111 1.555 1.556 3.111-3.111 3.111 3.11 1.556-1.555z"/><path fill="#4990E2" d="M4 43l3-4H1z"/><path fill="#2F6EB8" d="M11 43l3-4H8z"/><path fill="#4990E2" d="M4 33l3 4H1z"/><path fill="#2E6EB8" d="M11 33l3 4H8z"/><path fill="#EC2B43" d="M9.334 23.778l3.11-3.111-1.555-1.556-3.111 3.112-3.111-3.112-1.556 1.556 3.111 3.111-3.111 3.111 1.556 1.556 3.11-3.111 3.112 3.111 1.556-1.556z"/></g></svg>