<svg width="40" height="40" viewBox="0 0 40 40" fill="none" xmlns="http://www.w3.org/2000/svg">
    <g clip-path="url(#clip0)">
        <path d="M7.03522 30.9335C6.47522 30.9335 5.93689 31.0733 5.45929 31.3358C2.94342 28.1107 1.5625 24.1043 1.5625 20C1.5625 9.83337 9.83337 1.5625 20 1.5625C21.236 1.5625 22.4713 1.68549 23.6719 1.9281C24.0942 2.01355 24.5068 1.74011 24.5923 1.31714C24.6777 0.894165 24.4043 0.482178 23.9813 0.396423C22.6791 0.133362 21.3397 0 20 0C14.6579 0 9.63531 2.08038 5.85785 5.85785C2.08038 9.63531 0 14.6579 0 20C0 24.4937 1.52588 28.8791 4.30389 32.3947C3.94623 32.9291 3.75397 33.5571 3.75397 34.2148C3.75397 35.0912 4.09546 35.9152 4.71527 36.5347C5.33478 37.1545 6.15875 37.496 7.03522 37.496C7.91168 37.496 8.73566 37.1545 9.35547 36.5347C9.97528 35.9152 10.3165 35.0909 10.3165 34.2145C10.3165 33.3383 9.97528 32.514 9.35547 31.8945C8.73566 31.2747 7.91168 30.9335 7.03522 30.9335ZM8.25043 35.43C7.92603 35.7547 7.4942 35.9335 7.03522 35.9335C6.57623 35.9335 6.14471 35.7547 5.82001 35.43C5.4953 35.1053 5.31647 34.6738 5.31647 34.2148C5.31647 33.7555 5.4953 33.324 5.82001 32.9993C6.14441 32.6746 6.57623 32.496 7.03522 32.496C7.4942 32.496 7.92572 32.6749 8.25043 32.9993C8.57513 33.324 8.75397 33.7555 8.75397 34.2148C8.75397 34.6738 8.57513 35.1053 8.25043 35.43Z" fill="#{$brand-1}" stroke="#{$brand-1}" stroke-width="0.2"/>
        <path d="M35.6948 7.60431C36.5441 6.3302 36.4077 4.58826 35.2843 3.4649C34.6645 2.8454 33.8406 2.50391 32.9641 2.50391C32.0876 2.50391 31.2636 2.8454 30.6438 3.4649C30.024 4.08472 29.6828 4.90869 29.6828 5.78516C29.6828 6.66162 30.024 7.4856 30.6438 8.10541C31.2636 8.72522 32.0876 9.06641 32.9641 9.06641C33.5241 9.06641 34.0624 8.92664 34.54 8.66418C37.0559 11.8896 38.4368 15.8956 38.4368 19.9999C38.4368 30.1666 30.1659 38.4374 19.9993 38.4374C18.7756 38.4374 17.5518 38.3169 16.3625 38.0789C15.9396 37.9943 15.5279 38.2687 15.443 38.6917C15.3585 39.1149 15.6328 39.5263 16.0558 39.6111C17.3458 39.869 18.6727 39.9999 19.9993 39.9999C25.3414 39.9999 30.364 37.9196 34.1415 34.1421C37.9189 30.3646 39.9993 25.342 39.9993 19.9999C39.9993 15.5059 38.4731 11.1202 35.6948 7.60431ZM31.7489 7.00067C31.4242 6.67596 31.2453 6.24445 31.2453 5.78516C31.2453 5.32617 31.4242 4.89465 31.7489 4.56995C32.0733 4.24524 32.5051 4.06641 32.9641 4.06641C33.4231 4.06641 33.8549 4.24524 34.1796 4.56995C34.8495 5.24011 34.8495 6.33051 34.1796 7.00067C33.8549 7.32507 33.4231 7.50391 32.9641 7.50391C32.5048 7.50391 32.0733 7.32507 31.7489 7.00067Z" fill="#{$brand-1}" stroke="#{$brand-1}" stroke-width="0.2"/>
        <path d="M16.7764 33.4375C16.7764 33.869 17.1264 34.2188 17.5576 34.2188H22.4426C22.8741 34.2188 23.2238 33.869 23.2238 33.4375V31.9229C24.251 31.6464 25.2331 31.2393 26.1559 30.7077L27.2253 31.777C27.3718 31.9235 27.5704 32.0059 27.778 32.0059C27.9849 32.0059 28.1838 31.9235 28.3303 31.7767L31.7831 28.3215C32.088 28.0164 32.088 27.5217 31.7831 27.2168L30.715 26.1487C31.2466 25.2258 31.6537 24.2438 31.9302 23.2166H33.439C33.8705 23.2166 34.2202 22.8668 34.2202 22.4353V17.5504C34.2202 17.1188 33.8705 16.7691 33.439 16.7691H31.9299C31.6534 15.7422 31.2466 14.7601 30.715 13.8373L31.7773 12.775C31.9238 12.6285 32.0062 12.4295 32.0062 12.2223C32.0059 12.0151 31.9235 11.8161 31.777 11.6696L28.3215 8.21686C28.0166 7.91199 27.5219 7.91199 27.2167 8.21716L26.1559 9.27826C25.2331 8.74664 24.251 8.33954 23.2238 8.06305V6.5625C23.2238 6.13098 22.8741 5.78125 22.4426 5.78125H17.5576C17.1264 5.78125 16.7764 6.13098 16.7764 6.5625V8.06335C15.7495 8.33954 14.7674 8.74664 13.8445 9.27826L12.7834 8.21716C12.4786 7.91229 11.9839 7.91199 11.6787 8.21686L8.22351 11.6699C8.07672 11.8164 7.99432 12.0151 7.99432 12.2223C7.99432 12.4295 8.07672 12.6285 8.22321 12.775L9.28552 13.8373C8.75391 14.7601 8.3468 15.7419 8.07031 16.7691H6.56427C6.13275 16.7691 5.78302 17.1188 5.78302 17.55L5.78027 22.435C5.77997 22.6422 5.86237 22.8412 6.00885 22.9877C6.15534 23.1342 6.354 23.2166 6.56152 23.2166H8.07031C8.3468 24.2438 8.75391 25.2258 9.28552 26.1487L8.21741 27.2168C7.91254 27.5217 7.91223 28.0164 8.21741 28.3215L11.6702 31.7767C11.8167 31.9232 12.0153 32.0059 12.2225 32.0059H12.2228C12.4301 32.0059 12.6287 31.9235 12.7752 31.777L13.8442 30.7077C14.7674 31.2393 15.7495 31.6464 16.7764 31.9229V33.4375ZM14.1506 29.0646C13.8415 28.8647 13.4347 28.9081 13.1741 29.1684L12.2228 30.1196L9.87451 27.7695L10.8248 26.8188C11.0851 26.5585 11.1285 26.1517 10.9286 25.8426C10.2203 24.7464 9.72223 23.5449 9.44879 22.2711C9.37128 21.9113 9.05328 21.6541 8.68494 21.6541H7.34308L7.34491 18.3316H8.68494C9.05328 18.3316 9.37128 18.0746 9.44879 17.7145C9.72223 16.441 10.2203 15.2396 10.9286 14.1434C11.1285 13.8342 11.0851 13.4274 10.8248 13.1671L9.88062 12.2226L12.2308 9.87427L13.1741 10.8179C13.4347 11.0782 13.8412 11.1212 14.1506 10.9216C15.2465 10.2133 16.448 9.71527 17.7218 9.44183C18.0816 9.36432 18.3389 9.04602 18.3389 8.67798V7.34375H21.6613V8.67767C21.6613 9.04602 21.9183 9.36432 22.2784 9.44153C23.5519 9.71527 24.7537 10.213 25.8495 10.9213C26.1587 11.1212 26.5655 11.0782 26.8258 10.8176L27.7694 9.87427L30.1196 12.2226L29.1754 13.1668C28.9147 13.4274 28.8717 13.8342 29.0716 14.1434C29.7799 15.2396 30.2776 16.441 30.5514 17.7145C30.6286 18.0746 30.9469 18.3316 31.3152 18.3316H32.6577V21.6541H31.3152C30.9469 21.6541 30.6289 21.9113 30.5514 22.2711C30.278 23.5446 29.7799 24.7464 29.0716 25.8423C28.8717 26.1517 28.915 26.5585 29.1754 26.8188L30.1257 27.7692L27.7773 30.1193L26.8261 29.1684C26.5655 28.9078 26.1587 28.8647 25.8495 29.0646C24.7534 29.7729 23.5519 30.2707 22.2784 30.5444C21.9183 30.6219 21.6613 30.9399 21.6613 31.3083V32.6562H18.3389V31.3083C18.3389 30.9402 18.0816 30.6219 17.7218 30.5444C16.4483 30.271 15.2468 29.7729 14.1506 29.0646Z" fill="#{$brand-1}" stroke="#{$brand-1}" stroke-width="0.2"/>
        <path d="M26.4557 20.0003C26.4557 16.4407 23.5599 13.5449 20.0003 13.5449C16.4407 13.5449 13.5449 16.4407 13.5449 20.0003C13.5449 23.5599 16.4407 26.4557 20.0003 26.4557C23.5599 26.4557 26.4557 23.5599 26.4557 20.0003ZM15.1074 20.0003C15.1074 17.3022 17.3022 15.1074 20.0003 15.1074C22.6984 15.1074 24.8932 17.3026 24.8932 20.0003C24.8932 22.6981 22.6984 24.8932 20.0003 24.8932C17.3022 24.8932 15.1074 22.6984 15.1074 20.0003Z" fill="#{$brand-1}" stroke="#{$brand-1}" stroke-width="0.2"/>
        <path d="M27.1934 2.95404C27.399 2.95404 27.6005 2.87042 27.7457 2.72516C27.891 2.57898 27.9746 2.37756 27.9746 2.17188C27.9746 1.96741 27.8913 1.76569 27.7457 1.61951C27.6005 1.47424 27.399 1.39062 27.1934 1.39062C26.9871 1.39062 26.7866 1.47424 26.6413 1.61951C26.4957 1.76569 26.4121 1.96649 26.4121 2.17188C26.4121 2.37817 26.4957 2.57898 26.6413 2.72516C26.7866 2.87042 26.9871 2.95404 27.1934 2.95404Z" fill="#{$brand-1}" stroke="#{$brand-1}" stroke-width="0.2"/>
        <path d="M12.8408 37.0586C12.6354 37.0586 12.4337 37.1422 12.2885 37.2875C12.1432 37.4327 12.0596 37.6345 12.0596 37.8398C12.0596 38.0461 12.1432 38.2469 12.2885 38.3922C12.4337 38.5375 12.6354 38.6211 12.8408 38.6211C13.0462 38.6211 13.2479 38.5375 13.3932 38.3922C13.5385 38.2469 13.6221 38.0452 13.6221 37.8398C13.6221 37.6345 13.5385 37.4327 13.3932 37.2875C13.2479 37.1422 13.0462 37.0586 12.8408 37.0586Z" fill="#{$brand-1}" stroke="#{$brand-1}" stroke-width="0.2"/>
    </g>
    <defs>
        <clipPath id="clip0">
            <rect width="40" height="40" fill="white"/>
        </clipPath>
    </defs>
</svg>
