<svg width="64" height="64" viewBox="0 0 64 64" fill="none" xmlns="http://www.w3.org/2000/svg">
    <g clip-path="url(#clip0)">
        <path d="M47.7093 36.2096C42.2177 39.3801 35.1705 37.4919 32 32.0003C28.8294 26.5088 30.7177 19.4616 36.2093 16.291C41.7008 13.1205 48.748 15.0088 51.9186 20.5003C55.0891 25.9919 53.2008 33.0391 47.7093 36.2096ZM36.976 17.6189C32.2167 20.3667 30.5802 26.4744 33.3279 31.2336C36.0756 35.9929 42.1834 37.6294 46.9426 34.8817C51.7018 32.134 53.3384 26.0262 50.5907 21.267C47.8429 16.5078 41.7352 14.8712 36.976 17.6189Z" fill="#{$brand-1}"/>
        <path d="M17.2422 49.374C17.0238 49.5001 16.7542 49.5115 16.5238 49.3992C16.2631 49.2727 16.0965 49.0103 16.0929 48.7203C16.0876 48.5241 15.9885 46.7532 14.1609 46.5071C13.9102 46.473 13.6924 46.3181 13.5789 46.0924C13.4654 45.8667 13.4696 45.5996 13.5913 45.3779C13.6137 45.334 14.2204 44.14 13.4089 42.7344C12.5813 41.301 11.2242 41.255 11.2101 41.2552C10.9573 41.2497 10.7239 41.1198 10.5851 40.9087C10.4471 40.6971 10.4212 40.4314 10.517 40.1973C11.2386 38.4386 9.63509 37.4584 9.56634 37.4175C9.31767 37.269 9.17371 36.9935 9.19449 36.7045C9.2146 36.4158 9.3968 36.1609 9.66363 36.0512C13.8957 34.2841 17.6801 38.0314 17.8392 38.1918C17.8856 38.2385 17.9259 38.2914 17.9588 38.3485L19.5382 41.084C19.5719 41.1424 19.5973 41.2048 19.6153 41.2697C19.6724 41.4836 20.9679 46.5396 17.3242 49.3196C17.2979 49.3401 17.2701 49.3579 17.2422 49.374ZM15.2548 45.2063C16.3274 45.6059 16.954 46.403 17.2906 47.1931C18.8056 45.1481 18.2733 42.2941 18.1539 41.7531L16.6854 39.2095C16.2773 38.8307 14.0334 36.8746 11.4925 37.1473C12.0063 37.8334 12.3815 38.7729 12.1918 39.8996C12.9476 40.1369 13.9974 40.687 14.7368 41.9678C15.4763 43.2485 15.4278 44.4327 15.2548 45.2063Z" fill="#{$brand-1}"/>
        <path d="M47.7088 36.2099L33.1019 44.6432C27.6103 47.8137 20.5631 45.9255 17.3926 40.4339C14.222 34.9423 16.1103 27.8952 21.6019 24.7246L36.2088 16.2913C36.5753 16.0797 37.0445 16.2054 37.2561 16.5719C37.4677 16.9384 37.342 17.4076 36.9755 17.6192C32.2163 20.3669 30.5797 26.4747 33.3274 31.2339C36.0752 35.9931 42.183 37.6297 46.9422 34.882C47.3087 34.6704 47.7779 34.7961 47.9895 35.1626C48.2011 35.5291 48.0753 35.9983 47.7088 36.2099ZM22.3685 26.0525C17.6093 28.8002 15.9728 34.908 18.7205 39.6672C21.4682 44.4264 27.576 46.063 32.3352 43.3153L41.9771 37.7485C38.0003 37.7482 34.127 35.6855 31.9995 32.0006C29.872 28.3156 30.0224 23.93 32.0105 20.4857L22.3685 26.0525Z" fill="#{$brand-1}"/>
        <path d="M28.5763 26.0105L22.5742 29.4758C22.2077 29.6874 21.7385 29.5617 21.5269 29.1952C21.3153 28.8287 21.441 28.3595 21.8075 28.1479L27.8096 24.6826C28.1761 24.471 28.6453 24.5967 28.8569 24.9632C29.0685 25.3297 28.9428 25.7989 28.5763 26.0105Z" fill="#{$brand-1}"/>
        <path d="M21.0958 39.1818C21.0958 39.1818 21.0952 39.1822 21.0945 39.1826C20.7276 39.3935 20.2587 39.2668 20.0478 38.8999C18.493 36.1963 18.3548 33.715 19.6237 31.3145C19.8222 30.9406 20.2859 30.7977 20.6601 30.995C21.0347 31.1931 21.1776 31.6568 20.9796 32.0314C19.9619 33.9548 20.0886 35.8947 21.3772 38.1359C21.5878 38.5021 21.4623 38.9702 21.0958 39.1818Z" fill="#{$brand-1}"/>
        <path d="M46.0704 20.3376C44.0566 21.5002 41.473 20.8079 40.3103 18.7942C39.712 17.7577 39.5905 16.5017 39.9775 15.3488L40.1318 14.8878L40.6151 14.831C43.0812 14.5421 45.6249 15.0778 47.7786 16.3396L48.1998 16.586L48.1548 17.0724C48.0278 18.4364 47.2489 19.6572 46.0704 20.3376ZM41.3169 16.307C41.2249 16.9037 41.3343 17.501 41.6382 18.0275C42.3781 19.3089 44.0223 19.7495 45.3037 19.0097C45.9119 18.6585 46.3529 18.0791 46.54 17.408C44.9328 16.5778 43.112 16.1948 41.3169 16.307Z" fill="#{$brand-1}"/>
        <path d="M44.3044 37.5074L43.8974 37.5768C41.5151 37.9846 39.0159 37.6225 36.8588 36.5574L36.4896 36.3748L36.4375 35.9658C36.2235 34.2763 37.0379 32.634 38.5125 31.7826C40.5263 30.62 43.1099 31.3123 44.2726 33.3261C44.9473 34.4946 45.0191 35.881 44.4707 37.1299L44.3044 37.5074ZM37.9388 35.369C39.5788 36.0874 41.4186 36.3531 43.2037 36.1298C43.3938 35.4411 43.305 34.7168 42.9447 34.0927C42.2048 32.8113 40.5606 32.3707 39.2792 33.1105C38.4592 33.584 37.9604 34.442 37.9388 35.369Z" fill="#{$brand-1}"/>
        <path d="M38.2557 27.5049C36.791 28.3505 34.9122 27.8471 34.0665 26.3824C33.2209 24.9177 33.7243 23.0389 35.189 22.1932C36.6537 21.3476 38.5325 21.851 39.3782 23.3157C40.2238 24.7804 39.7204 26.6592 38.2557 27.5049ZM35.9557 23.5211C35.2233 23.944 34.9716 24.8834 35.3944 25.6157C35.8173 26.3481 36.7567 26.5998 37.489 26.177C38.2214 25.7541 38.4731 24.8147 38.0503 24.0824C37.6274 23.35 36.688 23.0983 35.9557 23.5211Z" fill="#{$brand-1}"/>
        <path d="M48.3455 29.6455C46.8808 30.4911 45.002 29.9877 44.1564 28.523C43.3107 27.0583 43.8142 25.1795 45.2789 24.3339C46.7435 23.4882 48.6224 23.9917 49.468 25.4563C50.3136 26.921 49.8102 28.7998 48.3455 29.6455ZM46.0455 25.6618C45.3132 26.0846 45.0615 27.024 45.4843 27.7563C45.9071 28.4887 46.8465 28.7404 47.5789 28.3176C48.3112 27.8948 48.5629 26.9553 48.1401 26.223C47.7173 25.4907 46.7779 25.2389 46.0455 25.6618Z" fill="#{$brand-1}"/>
    </g>
    <defs>
        <clipPath id="clip0">
            <rect width="46" height="46" fill="white" transform="translate(0.581055 23.582) rotate(-30)"/>
        </clipPath>
    </defs>
</svg>
