<svg width="40" height="40" viewBox="0 0 40 40" fill="none" xmlns="http://www.w3.org/2000/svg">
    <path d="M27.6027 19.4002H12.3683C12.0448 19.4002 11.7822 19.1384 11.7822 18.8144V16.9068C11.7822 15.2685 13.5941 14.127 15.2206 14.127H17.4562C17.7797 14.127 18.0422 14.3887 18.0422 14.7127C18.0422 15.0365 17.7797 15.2988 17.4562 15.2988H15.2206C14.0766 15.2988 12.9544 16.0954 12.9544 16.9068V18.2283H27.0169V16.6557C27.0169 15.9707 26.0395 15.2988 25.0433 15.2988H22.5148C22.1914 15.2988 21.9288 15.0365 21.9288 14.7127C21.9288 14.3887 22.1914 14.127 22.5148 14.127H25.0433C26.5312 14.127 28.1888 15.1652 28.1888 16.6557V18.8144C28.1888 19.1384 27.9262 19.4002 27.6027 19.4002Z" fill="#{$brand-1}" stroke="#{$brand-1}" stroke-width="0.4"/>
    <path d="M25.2603 10.3183C25.2444 10.3183 25.2284 10.3178 25.212 10.3167C24.8893 10.2899 24.6493 10.0072 24.6758 9.68422L24.9687 6.1083C24.9668 4.08966 23.4053 2.40819 21.4867 2.40819H18.4858C16.5672 2.40819 15.0056 4.08966 15.0056 6.15604L15.2967 9.68422C15.3232 10.0072 15.0832 10.2899 14.7605 10.3167C14.4392 10.34 14.1554 10.1026 14.1291 9.78051L13.8359 6.20405C13.8341 3.44325 15.9208 1.23633 18.4858 1.23633H21.4867C24.0517 1.23633 26.1384 3.44325 26.1384 6.15604L25.8434 9.78051C25.8184 10.0866 25.5623 10.3183 25.2603 10.3183Z" fill="#{$brand-1}" stroke="#{$brand-1}" stroke-width="0.4"/>
    <path d="M19.9862 15.8849C18.2962 15.8849 16.7614 15.2592 15.8822 14.2112C14.816 12.9399 14.127 11.1723 14.127 9.7078V7.34638C14.127 6.34994 14.1495 5.77407 14.6127 5.51818C15.0266 5.28778 15.4174 5.53481 15.762 5.75181C16.2204 6.04068 16.9127 6.47681 18.0432 6.47681C18.9563 6.47681 20.0541 6.19732 21.1155 5.92776C22.8305 5.49244 24.3116 5.11585 25.2061 5.81189C25.6307 6.14207 25.8455 6.65812 25.8455 7.34638V9.70807C25.8455 11.1723 25.1567 12.9399 24.0903 14.2112C23.2111 15.2592 21.6768 15.8849 19.9862 15.8849ZM15.3055 6.84776C15.3015 6.97892 15.2988 7.14226 15.2988 7.34638V9.7078C15.2988 10.8947 15.8943 12.4018 16.7799 13.4581C17.4298 14.2322 18.6583 14.7128 19.9862 14.7128C21.3142 14.7128 22.5427 14.2322 23.1928 13.4581C24.0782 12.4018 24.6737 10.8947 24.6737 9.7078V7.34638C24.6737 7.03819 24.6106 6.833 24.4867 6.73698C24.0442 6.39259 22.6419 6.74959 21.4041 7.06367C20.2724 7.35067 19.103 7.6484 18.0432 7.6484C16.7247 7.6484 15.8366 7.17418 15.3055 6.84776Z" fill="#{$brand-1}" stroke="#{$brand-1}" stroke-width="0.4"/>
    <path d="M17.0565 38.7364H1.82239C1.49865 38.7364 1.23633 38.4741 1.23633 38.1503V36.243C1.23633 34.6044 3.04816 33.4629 4.67466 33.4629H6.91028C7.23375 33.4629 7.49607 33.7249 7.49607 34.049C7.49607 34.3727 7.23375 34.635 6.91028 34.635H4.67466C3.53069 34.635 2.40819 35.4316 2.40819 36.243V37.5645H16.4708V35.9914C16.4708 35.3064 15.4934 34.635 14.4975 34.635H11.9689C11.6455 34.635 11.3831 34.3727 11.3831 34.049C11.3831 33.7249 11.6455 33.4629 11.9689 33.4629H14.4975C15.9853 33.4629 17.6429 34.5014 17.6429 35.9914V38.1503C17.6429 38.4741 17.3803 38.7364 17.0565 38.7364Z" fill="#{$brand-1}" stroke="#{$brand-1}" stroke-width="0.4"/>
    <path d="M14.7131 29.6542C14.6976 29.6542 14.681 29.6537 14.6649 29.6526C14.3419 29.6253 14.1021 29.3428 14.129 29.0202L14.4219 25.4437C14.4197 23.4251 12.8584 21.7441 10.9398 21.7441H7.93895C6.01982 21.7441 4.45878 23.4251 4.45878 25.492L4.7498 29.0202C4.77635 29.3428 4.53629 29.6258 4.21362 29.6526C3.88881 29.6786 3.60852 29.4391 3.58196 29.1165L3.28906 25.54C3.28692 22.7792 5.37368 20.5723 7.93895 20.5723H10.9398C13.5048 20.5723 15.5916 22.7792 15.5916 25.492L15.2965 29.1165C15.2716 29.4225 15.0152 29.6542 14.7131 29.6542Z" fill="#{$brand-1}" stroke="#{$brand-1}" stroke-width="0.4"/>
    <path d="M9.43937 35.2205C7.74877 35.2205 6.21455 34.5953 5.33505 33.5468C4.2686 32.2754 3.58008 30.5078 3.58008 29.0439V26.6822C3.58008 25.686 3.60234 25.1102 4.06583 24.8543C4.47916 24.6236 4.87076 24.8707 5.21515 25.0876C5.67301 25.3765 6.36582 25.8129 7.49638 25.8129C8.40886 25.8129 9.50696 25.5334 10.5686 25.2639C12.2839 24.8285 13.7644 24.4512 14.6592 25.1477C15.0833 25.4779 15.2987 25.9937 15.2987 26.6825V29.0439C15.2987 30.5084 14.6096 32.2754 13.5434 33.5473C12.6639 34.5953 11.1294 35.2205 9.43937 35.2205ZM4.75811 26.1839C4.75462 26.315 4.75194 26.4781 4.75194 26.6822V29.0439C4.75194 30.2308 5.34685 31.7379 6.23279 32.7942C6.88242 33.5682 8.11114 34.0489 9.43937 34.0489C10.7673 34.0489 11.9958 33.5682 12.6457 32.7942C13.5314 31.7379 14.1268 30.2308 14.1268 29.0439V26.6822C14.1268 26.3743 14.0638 26.1691 13.9396 26.0731C13.497 25.7282 12.0948 26.0857 10.8572 26.3995C9.72556 26.6868 8.55612 26.9842 7.49638 26.9842C6.1778 26.9842 5.28945 26.5103 4.75811 26.1839Z" fill="#{$brand-1}" stroke="#{$brand-1}" stroke-width="0.4"/>
    <path d="M38.15 38.7364H22.9159C22.5921 38.7364 22.3301 38.4741 22.3301 38.1503V36.243C22.3301 34.6044 24.1419 33.4629 25.7679 33.4629H28.0032C28.3267 33.4629 28.589 33.7249 28.589 34.049C28.589 34.3727 28.3267 34.635 28.0032 34.635H25.7679C24.6239 34.635 23.5017 35.4316 23.5017 36.243V37.5645H37.5642V35.9914C37.5642 35.3064 36.5871 34.635 35.5909 34.635H33.0621C32.7387 34.635 32.4763 34.3727 32.4763 34.049C32.4763 33.7249 32.7387 33.4629 33.0621 33.4629H35.5909C37.0788 33.4629 38.7361 34.5014 38.7361 35.9914V38.1503C38.7361 38.4741 38.4738 38.7364 38.15 38.7364Z" fill="#{$brand-1}" stroke="#{$brand-1}" stroke-width="0.4"/>
    <path d="M35.8074 29.6542C35.7914 29.6542 35.7753 29.6537 35.7592 29.6526C35.4362 29.6253 35.1962 29.3428 35.2227 29.0202L35.5156 25.4437C35.5137 23.4251 33.9527 21.7441 32.0336 21.7441H29.0332C27.1141 21.7441 25.5531 23.4251 25.5531 25.492L25.8435 29.0202C25.8704 29.3428 25.6306 29.6258 25.3076 29.6526C24.9834 29.6786 24.7025 29.4391 24.676 29.1165L24.3828 25.54C24.3809 22.7792 26.4677 20.5723 29.0332 20.5723H32.0336C34.5988 20.5723 36.6856 22.7792 36.6856 25.492L36.3906 29.1165C36.3653 29.4225 36.1095 29.6542 35.8074 29.6542Z" fill="#{$brand-1}" stroke="#{$brand-1}" stroke-width="0.4"/>
    <path d="M30.5331 35.2205C28.8431 35.2205 27.3086 34.5953 26.4291 33.5468C25.3629 32.2754 24.6738 30.5078 24.6738 29.0439V26.6822C24.6738 25.686 24.6964 25.1102 25.1601 24.8543C25.5742 24.6236 25.9648 24.8707 26.3094 25.0876C26.7673 25.3765 27.4598 25.8129 28.5901 25.8129C29.5031 25.8129 30.6012 25.5334 31.6623 25.2639C33.3776 24.8285 34.8582 24.4512 35.7535 25.1477C36.1776 25.4779 36.3927 25.9937 36.3927 26.6825V29.0439C36.3927 30.5084 35.7039 32.2754 34.6377 33.5473C33.7579 34.5953 32.2237 35.2205 30.5331 35.2205ZM25.8524 26.1839C25.8484 26.315 25.8457 26.4781 25.8457 26.6822V29.0439C25.8457 30.2308 26.4411 31.7379 27.3268 32.7942C27.9767 33.5682 29.2052 34.0489 30.5331 34.0489C31.8614 34.0489 33.0901 33.5682 33.7397 32.7942C34.6256 31.7379 35.2206 30.2308 35.2206 29.0439V26.6822C35.2206 26.3743 35.1578 26.1691 35.0336 26.0731C34.5913 25.7282 33.189 26.0857 31.9515 26.3995C30.8196 26.6868 29.6501 26.9842 28.5907 26.9842C27.2716 26.9842 26.3837 26.5103 25.8524 26.1839Z" fill="#{$brand-1}" stroke="#{$brand-1}" stroke-width="0.4"/>
    <path d="M19.9855 26.4317C19.662 26.4317 19.3994 26.1696 19.3994 25.8456V20.5724C19.3994 20.2484 19.662 19.9863 19.9855 19.9863C20.309 19.9863 20.5715 20.2484 20.5715 20.5724V25.8456C20.5715 26.1696 20.309 26.4317 19.9855 26.4317Z" fill="#{$brand-1}" stroke="#{$brand-1}" stroke-width="0.4"/>
    <path d="M22.916 29.3615C22.7661 29.3615 22.6161 29.3041 22.5019 29.1898L19.9862 26.6742L17.4706 29.1898C17.242 29.4184 16.8711 29.4184 16.6423 29.1898C16.4135 28.9611 16.4135 28.5898 16.6423 28.3613L19.5718 25.4316C19.8009 25.2025 20.1716 25.2025 20.4006 25.4316L23.3301 28.3613C23.5589 28.5898 23.5589 28.9611 23.3301 29.1898C23.2159 29.3041 23.0657 29.3615 22.916 29.3615Z" fill="#{$brand-1}" stroke="#{$brand-1}" stroke-width="0.4"/>
</svg>
