<svg width="36" height="36" viewBox="0 0 36 36" fill="none" xmlns="http://www.w3.org/2000/svg">
    <g clip-path="url(#clip0)">
        <path d="M31.7932 5.3988C31.7932 5.06747 31.5245 4.79883 31.1932 4.79883H14.3939C14.0626 4.79883 13.7939 5.06747 13.7939 5.3988V7.7987C13.7939 8.13003 14.0626 8.39868 14.3939 8.39868C14.7253 8.39868 14.9939 8.13003 14.9939 7.7987V5.99878H30.5932V9.59862H17.3938C17.0625 9.59862 16.7938 9.86727 16.7938 10.1986C16.7938 10.5299 17.0625 10.7986 17.3938 10.7986H31.1932C31.5245 10.7986 31.7932 10.5299 31.7932 10.1986V5.3988Z" fill="#{$brand-1}" stroke="#{$brand-1}" stroke-width="0.4"/>
        <path d="M24.5934 14.3992C24.9247 14.3992 25.1933 14.1305 25.1933 13.7992C25.1933 13.4679 24.9247 13.1992 24.5934 13.1992H20.9935C20.6622 13.1992 20.3936 13.4679 20.3936 13.7992V17.399C20.3936 17.7304 20.6622 17.999 20.9935 17.999H24.5934C24.9247 17.999 25.1933 17.7304 25.1933 17.399C25.1933 17.0677 24.9247 16.7991 24.5934 16.7991H21.5935V14.3992H24.5934Z" fill="#{$brand-1}" stroke="#{$brand-1}" stroke-width="0.4"/>
        <path d="M31.793 13.7992C31.793 13.4679 31.5243 13.1992 31.193 13.1992H27.5931C27.2618 13.1992 26.9932 13.4679 26.9932 13.7992V17.399C26.9932 17.7304 27.2618 17.999 27.5931 17.999H31.193C31.5243 17.999 31.793 17.7304 31.793 17.399V13.7992ZM30.593 16.7991H28.1931V14.3992H30.593V16.7991Z" fill="#{$brand-1}" stroke="#{$brand-1}" stroke-width="0.4"/>
        <path d="M25.1933 20.3988C25.1933 20.0675 24.9247 19.7988 24.5934 19.7988H20.9935C20.6622 19.7988 20.3936 20.0675 20.3936 20.3988V23.9986C20.3936 24.33 20.6622 24.5986 20.9935 24.5986H24.5934C24.9247 24.5986 25.1933 24.33 25.1933 23.9986V20.3988ZM23.9934 23.3987H21.5935V20.9988H23.9934V23.3987Z" fill="#{$brand-1}" stroke="#{$brand-1}" stroke-width="0.4"/>
        <path d="M24.5934 26.3984H20.9935C20.6622 26.3984 20.3936 26.6671 20.3936 26.9984V30.5983C20.3936 30.9296 20.6622 31.1982 20.9935 31.1982H24.5934C24.9247 31.1982 25.1933 30.9296 25.1933 30.5983V26.9984C25.1933 26.6671 24.9247 26.3984 24.5934 26.3984ZM23.9934 29.9983H21.5935V27.5984H23.9934V29.9983Z" fill="#{$brand-1}" stroke="#{$brand-1}" stroke-width="0.4"/>
        <path d="M31.193 19.7988H27.5931C27.2618 19.7988 26.9932 20.0675 26.9932 20.3988V30.5984C26.9932 30.9297 27.2618 31.1983 27.5931 31.1983H31.193C31.5243 31.1983 31.793 30.9297 31.793 30.5984V20.3988C31.793 20.0675 31.5243 19.7988 31.193 19.7988ZM30.593 29.9984H28.1931V20.9988H30.593V29.9984Z" fill="#{$brand-1}" stroke="#{$brand-1}" stroke-width="0.4"/>
        <path d="M28.7938 8.39917C29.1252 8.39917 29.3938 8.13053 29.3938 7.79919C29.3938 7.46786 29.1252 7.19922 28.7938 7.19922H26.3939C26.0626 7.19922 25.7939 7.46786 25.7939 7.79919C25.7939 8.13053 26.0626 8.39917 26.3939 8.39917H28.7938Z" fill="#{$brand-1}" stroke="#{$brand-1}" stroke-width="0.4"/>
        <path d="M23.993 8.39917C24.3244 8.39917 24.593 8.13053 24.593 7.79919C24.593 7.46786 24.3244 7.19922 23.993 7.19922H21.5931C21.2618 7.19922 20.9932 7.46786 20.9932 7.79919C20.9932 8.13053 21.2618 8.39917 21.5931 8.39917H23.993Z" fill="#{$brand-1}" stroke="#{$brand-1}" stroke-width="0.4"/>
        <path d="M32.9927 0H12.5936C10.9367 0 9.59375 1.3432 9.59375 2.99987V7.79966C9.59375 8.131 9.86239 8.39964 10.1937 8.39964C10.5251 8.39964 10.7937 8.131 10.7937 7.79966V2.99987C10.7937 2.00587 11.5996 1.19995 12.5936 1.19995H32.9927C33.9867 1.19995 34.7927 2.00587 34.7927 2.99987V32.9986C34.7927 33.9926 33.9867 34.7985 32.9927 34.7985H16.7934C16.4621 34.7985 16.1935 35.0671 16.1935 35.3985C16.1935 35.7298 16.4621 35.9984 16.7934 35.9984H32.9927C34.6494 35.9984 35.9926 34.6552 35.9926 32.9986V2.99987C35.9926 1.3432 34.6494 0 32.9927 0Z" fill="#{$brand-1}" stroke="#{$brand-1}" stroke-width="0.4"/>
        <path d="M17.3936 13.7992V17.399C17.3936 17.7304 17.6622 17.999 17.9935 17.999C18.3249 17.999 18.5935 17.7304 18.5935 17.399V13.7992C18.5935 13.4679 18.3249 13.1992 17.9935 13.1992C17.6622 13.1992 17.3936 13.4679 17.3936 13.7992Z" fill="#{$brand-1}" stroke="#{$brand-1}" stroke-width="0.4"/>
        <path d="M9.59424 23.3983C10.2569 23.3983 10.7942 23.9356 10.7942 24.5983C10.7942 24.9296 11.0628 25.1982 11.3942 25.1982C11.7255 25.1982 11.9941 24.9296 11.9941 24.5983C11.9933 23.5047 11.2533 22.5499 10.1942 22.2763V20.9984C10.1942 20.6671 9.92557 20.3984 9.59424 20.3984C9.2629 20.3984 8.99426 20.6671 8.99426 20.9984V22.2763C7.82742 22.5813 7.06836 23.7045 7.22041 24.9009C7.37216 26.097 8.38843 26.9946 9.59424 26.9982C10.2569 26.9982 10.7942 27.5354 10.7942 28.1981C10.7942 28.8608 10.2569 29.3981 9.59424 29.3981C8.93157 29.3981 8.39429 28.8608 8.39429 28.1981C8.39429 27.8668 8.12565 27.5981 7.79431 27.5981C7.46298 27.5981 7.19434 27.8668 7.19434 28.1981C7.19521 29.2917 7.93522 30.2465 8.99426 30.5201V31.798C8.99426 32.1293 9.2629 32.3979 9.59424 32.3979C9.92557 32.3979 10.1942 32.1293 10.1942 31.798V30.5201C11.3608 30.2151 12.1201 29.0919 11.9681 27.8955C11.816 26.6993 10.8 25.8017 9.59424 25.7982C8.93157 25.7982 8.39429 25.2609 8.39429 24.5983C8.39429 23.9356 8.93157 23.3983 9.59424 23.3983Z" fill="#{$brand-1}" stroke="#{$brand-1}" stroke-width="0.4"/>
        <path d="M17.9155 31.1992C18.081 30.9109 17.9817 30.543 17.6934 30.3772C17.4051 30.2117 17.0372 30.311 16.8714 30.5992C15.1169 33.6466 11.6494 35.2783 8.18289 34.6886C4.71634 34.0986 1.98423 31.4116 1.33621 27.9553C0.688488 24.499 2.26225 21.0049 5.27999 19.1997H13.9075C16.4396 20.7152 17.9908 23.4485 17.9934 26.3994C17.9934 26.7308 18.262 26.9994 18.5934 26.9994C18.9247 26.9994 19.1934 26.7308 19.1934 26.3994C19.191 23.4388 17.8229 20.6449 15.4854 18.8277C16.0174 18.4184 16.2776 17.7473 16.1604 17.0867C16.0429 16.4257 15.5677 15.8849 14.9276 15.684C15.3583 15.1505 15.5932 14.4855 15.5935 13.8V12.0001C15.592 11.0025 14.9739 10.1099 14.0405 9.75807C13.1072 9.40594 12.0534 9.66813 11.3937 10.416C10.9381 9.89957 10.2825 9.60368 9.59377 9.60368C8.90503 9.60368 8.24939 9.89957 7.79385 10.416C7.13411 9.66813 6.08034 9.40594 5.14699 9.75807C4.21363 10.1099 3.59549 11.0025 3.59403 12.0001V13.8C3.59432 14.4855 3.82927 15.1505 4.25992 15.684C3.61981 15.8849 3.14434 16.4257 3.02716 17.0867C2.90997 17.7473 3.17012 18.4184 3.70213 18.8277C0.645423 21.2085 -0.680204 25.1936 0.340749 28.9309C1.36199 32.6684 4.52973 35.4257 8.37214 35.9217C12.2148 36.4176 15.9787 34.555 17.9155 31.1992ZM4.79397 12.0001C4.79397 11.3374 5.33126 10.8001 5.99392 10.8001C6.65659 10.8001 7.19387 11.3374 7.19387 12.0001C7.19387 12.3314 7.46251 12.6 7.79385 12.6C8.12518 12.6 8.39382 12.3314 8.39382 12.0001C8.39382 11.3374 8.9311 10.8001 9.59377 10.8001C10.2564 10.8001 10.7937 11.3374 10.7937 12.0001C10.7937 12.3314 11.0624 12.6 11.3937 12.6C11.725 12.6 11.9937 12.3314 11.9937 12.0001C11.9937 11.3374 12.5309 10.8001 13.1936 10.8001C13.8563 10.8001 14.3936 11.3374 14.3936 12.0001V13.8C14.3936 14.794 13.5876 15.5999 12.5936 15.5999H6.5939C5.5999 15.5999 4.79397 14.794 4.79397 13.8V12.0001ZM4.79397 16.7998H14.3936C14.7249 16.7998 14.9935 17.0685 14.9935 17.3998C14.9935 17.7312 14.7249 17.9998 14.3936 17.9998H4.79397C4.46264 17.9998 4.194 17.7312 4.194 17.3998C4.194 17.0685 4.46264 16.7998 4.79397 16.7998Z" fill="#{$brand-1}" stroke="#{$brand-1}" stroke-width="0.4"/>
    </g>
    <defs>
        <clipPath id="clip0">
            <rect width="36" height="36" fill="white"/>
        </clipPath>
    </defs>
</svg>
