<svg width="40" height="40" viewBox="0 0 40 40" fill="none" xmlns="http://www.w3.org/2000/svg">
    <g clip-path="url(#clip0)">
        <path d="M18.4506 26.054H18.4546C19.4773 25.7162 20.4486 25.2389 21.3409 24.6355C26.8481 20.9501 28.3249 13.498 24.6395 7.99073C20.954 2.48349 13.5019 1.00676 7.99468 4.69214C2.48744 8.37752 1.01062 15.8297 4.69608 21.3369C5.75745 22.923 7.18186 24.233 8.85107 25.1581L8.85374 25.1575C9.79271 25.6829 10.7996 26.0763 11.846 26.3266H11.8514C12.7733 26.5544 13.7195 26.6688 14.669 26.6673C15.9544 26.6697 17.2317 26.4625 18.4506 26.054ZM12.1653 25.0321C11.2346 24.8103 10.3391 24.4606 9.50432 23.9929C6.11632 22.1116 4.01175 18.544 4.00367 14.6687C3.99992 8.77847 8.77183 4.00039 14.6622 3.99656C20.5525 3.99281 25.3306 8.76472 25.3344 14.6551C25.3366 18.2181 23.5595 21.5471 20.5976 23.5277C19.8058 24.0634 18.9437 24.4871 18.0359 24.7868H18.0313C16.1398 25.415 14.11 25.5 12.1727 25.0321H12.1653Z" fill="#{$brand-1}"/>
        <path d="M28.7934 10.77C26.6429 2.96533 18.5726 -1.61819 10.768 0.532294C2.96337 2.68286 -1.62015 10.753 0.530341 18.5577C1.49256 22.0499 3.7137 25.062 6.76549 27.0134C4.72966 31.7286 6.90172 37.2015 11.6169 39.2374C12.7909 39.7443 14.0569 40.0036 15.3358 39.9991C18.6616 40.0109 21.7392 38.241 23.4014 35.3603C24.6699 35.7821 25.9976 35.9979 27.3343 35.9996C34.3243 36.0048 39.9949 30.3424 40 23.3524C40.0047 16.9199 35.1837 11.5069 28.7934 10.77ZM1.33749 14.6688C1.33966 7.30596 7.31026 1.33894 14.6732 1.34111C20.8247 1.34294 26.1763 5.55351 27.6256 11.5319C27.877 12.5585 28.003 13.6119 28.0009 14.6688C27.9984 19.0139 25.8786 23.0852 22.3202 25.5788C21.6295 26.0712 20.8913 26.4932 20.1165 26.8386C19.2375 27.2333 18.3179 27.5304 17.3742 27.7245C17.0653 27.7876 16.7553 27.8392 16.4443 27.8792L16.419 27.8825C15.8391 27.9625 15.2544 28.0019 14.6692 28.0005C7.30626 28.0005 1.33749 22.0317 1.33749 14.6688ZM15.3358 38.6659C10.9316 38.6794 7.3505 35.1202 7.33692 30.7161C7.33367 29.6735 7.53498 28.6403 7.92935 27.6752C10.0019 28.783 12.3192 29.3533 14.6692 29.3337C15.1635 29.3318 15.6576 29.304 16.149 29.2503C17.1376 31.1209 18.5776 32.7149 20.3385 33.8878C20.5958 34.0598 20.8598 34.2171 21.1257 34.3677L21.3357 34.4837C21.5703 34.6104 21.8076 34.7303 22.0469 34.8403C22.0763 34.8537 22.1049 34.871 22.1343 34.8843C20.6819 37.2435 18.1061 38.6763 15.3358 38.6659ZM27.3343 34.6663C25.9605 34.6699 24.5978 34.4198 23.3148 33.9284C22.5271 33.6323 21.7762 33.2463 21.0771 32.7779C20.7525 32.5601 20.4396 32.3254 20.1398 32.0747C20.0879 32.032 20.0352 31.9907 19.9839 31.9473C19.7006 31.7047 19.4306 31.4481 19.1726 31.1801C19.122 31.1274 19.0726 31.0735 19.0233 31.0195C18.7644 30.7416 18.5197 30.4508 18.2901 30.1482C18.2681 30.1196 18.2487 30.0889 18.2274 30.0602C18.0074 29.7616 17.8024 29.4526 17.6122 29.133C17.5948 29.1044 17.5762 29.0764 17.5595 29.0477L17.6062 29.037C17.6728 29.0244 17.7335 29.007 17.7975 28.9937C18.0441 28.9397 18.2907 28.8804 18.5354 28.8137C18.6354 28.7864 18.7354 28.7564 18.8347 28.7271C19.0533 28.6627 19.2709 28.5924 19.4873 28.5164C19.5799 28.4838 19.6732 28.4531 19.7666 28.4185C20.0672 28.3065 20.3665 28.1878 20.6611 28.0558C21.5153 27.6752 22.3292 27.21 23.0908 26.6673H23.0942C27.7456 23.4078 30.092 17.7521 29.1141 12.1571C35.2897 13.1558 39.4865 18.9718 38.4878 25.1474C37.6021 30.6234 32.8813 34.6523 27.3343 34.6663Z" fill="#{$brand-1}"/>
        <path d="M15.3358 35.9987C12.392 35.9954 10.0064 33.6098 10.0031 30.666H8.66992C8.674 34.3458 11.656 37.3278 15.3358 37.3319C16.3649 37.3347 17.3804 37.0964 18.3007 36.636L17.7061 35.4428C16.9702 35.8105 16.1584 36.0009 15.3358 35.9987Z" fill="#{$brand-1}"/>
        <path d="M28.0011 30.666H26.668V33.3324H28.0011V30.666Z" fill="#{$brand-1}"/>
        <path d="M21.7555 31.6597L22.9102 32.3262L24.2431 30.0169L23.0884 29.3504L21.7555 31.6597Z" fill="#{$brand-1}"/>
        <path d="M30.4237 30.0191L31.7568 32.3281L32.9114 31.6615L31.5782 29.3525L30.4237 30.0191Z" fill="#{$brand-1}"/>
        <path d="M33.3511 27.5809L35.6602 28.9141L36.3267 27.7595L34.0177 26.4264L33.3511 27.5809Z" fill="#{$brand-1}"/>
        <path d="M37.3333 22.668H34.667V24.0011H37.3333V22.668Z" fill="#{$brand-1}"/>
        <path d="M36.3256 18.9144L35.6592 17.7598L33.3499 19.0927L34.0163 20.2473L36.3256 18.9144Z" fill="#{$brand-1}"/>
        <path d="M30.4215 16.6519L31.5762 17.3184L32.9091 15.009L31.7544 14.3426L30.4215 16.6519Z" fill="#{$brand-1}"/>
        <path d="M18.0026 21.3341C18.0026 20.9659 17.7042 20.6675 17.3361 20.6675H15.3363V8.00236C15.3362 7.63423 15.0378 7.33585 14.6696 7.33594C14.4928 7.33594 14.3234 7.40618 14.1984 7.53108L11.1988 10.5307C10.9431 10.7955 10.9504 11.2175 11.2152 11.4733C11.4735 11.7227 11.8831 11.7227 12.1414 11.4733L14.0031 9.61149V20.6675H12.0034C11.6353 20.6675 11.3368 20.9659 11.3368 21.3341C11.3368 21.7022 11.6353 22.0006 12.0034 22.0006H17.3361C17.7042 22.0006 18.0026 21.7023 18.0026 21.3341Z" fill="#{$brand-1}"/>
    </g>
    <defs>
        <clipPath id="clip0">
            <rect width="40" height="40" fill="white"/>
        </clipPath>
    </defs>
</svg>
