<svg width="42" height="42" viewBox="0 0 42 42" fill="none" xmlns="http://www.w3.org/2000/svg">
    <path d="M28.6753 17.3116C28.668 17.2901 28.6594 17.2691 28.6494 17.2486C28.6378 17.2132 28.6235 17.1788 28.6067 17.1457C28.5918 17.1233 28.5757 17.1019 28.5584 17.0813C28.5401 17.0535 28.5197 17.0269 28.4975 17.0022C28.4768 16.9838 28.455 16.9665 28.4324 16.9504C28.4102 16.9302 28.3868 16.9113 28.3624 16.8937L21.3624 12.6937C21.1406 12.5604 20.8632 12.5604 20.6414 12.6937L13.6414 16.8937C13.6155 16.9107 13.5909 16.9297 13.5679 16.9504C13.5451 16.9665 13.5231 16.9838 13.5021 17.0022C13.4803 17.0269 13.4602 17.0531 13.4419 17.0806C13.4241 17.1012 13.4078 17.1229 13.3929 17.1457C13.3765 17.178 13.3625 17.2114 13.3509 17.2458C13.3409 17.2675 13.332 17.2897 13.3243 17.3123C13.3079 17.3713 13.2997 17.4323 13.2998 17.4936V24.4936C13.2999 24.7393 13.4287 24.9669 13.6393 25.0935L20.6393 29.2935L20.647 29.297L20.6547 29.3026C20.6914 29.3216 20.7299 29.3374 20.7695 29.3495C20.7856 29.3551 20.801 29.3642 20.8178 29.3691C20.937 29.4017 21.0627 29.4017 21.1818 29.3691C21.1986 29.3642 21.214 29.3551 21.2301 29.3495C21.2697 29.3374 21.3081 29.3216 21.3449 29.3026L21.3526 29.297L21.3603 29.2935L28.3603 25.0935C28.5709 24.9669 28.6997 24.7393 28.6998 24.4936V17.4936C28.6999 17.4322 28.6916 17.3709 28.6753 17.3116ZM20.9998 14.1098L23.139 15.3936L17.4998 18.7774L15.3606 17.4936L20.9998 14.1098ZM20.2998 27.4567L14.6998 24.0967V18.7298L20.2998 22.0898V27.4567ZM20.9998 20.8774L18.8606 19.5936L24.4998 16.2098L26.639 17.4936L20.9998 20.8774ZM27.2998 24.0974L21.6998 27.4574V22.0898L27.2998 18.7298V24.0974Z" fill="#{$brand-1}"/>
    <path d="M21.5598 0.272255C21.3054 -0.0370566 20.8484 -0.081419 20.5391 0.17303C20.5028 0.20278 20.4696 0.23603 20.4398 0.272255L18.3398 3.07225L19.4598 3.91225L20.2998 2.79225V8.39224H21.6998V2.79225L22.5398 3.91225L23.6598 3.07225L21.5598 0.272255Z" fill="#{$brand-1}"/>
    <path d="M22.5398 38.0737L21.6998 39.1937V33.5938H20.2998V39.1937L19.4598 38.0737L18.3398 38.9137L20.4398 41.7137C20.6718 42.0231 21.1105 42.0857 21.4198 41.8537C21.4729 41.8139 21.52 41.7668 21.5598 41.7137L23.6598 38.9137L22.5398 38.0737Z" fill="#{$brand-1}"/>
    <path d="M21.6998 9.79297H20.2998V11.193H21.6998V9.79297Z" fill="#{$brand-1}"/>
    <path d="M21.6998 30.793H20.2998V32.193H21.6998V30.793Z" fill="#{$brand-1}"/>
    <path d="M8.40003 20.292H2.80005L3.92004 19.452L3.08005 18.332L0.280052 20.432C-0.0292603 20.664 -0.0919101 21.1027 0.140052 21.412C0.179864 21.465 0.227027 21.5122 0.280052 21.552L3.08005 23.652L3.92004 22.532L2.80005 21.692H8.40003V20.292Z" fill="#{$brand-1}"/>
    <path d="M41.8596 20.572C41.8198 20.519 41.7726 20.4718 41.7196 20.432L38.9196 18.332L38.0796 19.452L39.1996 20.292H33.5996V21.692H39.1996L38.0796 22.532L38.9196 23.652L41.7196 21.552C42.0289 21.3201 42.0916 20.8813 41.8596 20.572Z" fill="#{$brand-1}"/>
    <path d="M11.1998 20.293H9.7998V21.693H11.1998V20.293Z" fill="#{$brand-1}"/>
    <path d="M32.1998 20.293H30.7998V21.693H32.1998V20.293Z" fill="#{$brand-1}"/>
    <path d="M12.5853 11.5887L8.62609 7.62953L10.0114 7.82693L10.2095 6.44093L6.74519 5.94323C6.36282 5.88645 6.00678 6.15043 5.95 6.5329C5.93985 6.60106 5.93985 6.67036 5.95 6.73843L6.44489 10.2027L7.83089 10.0046L7.63349 8.61933L11.5927 12.5785L12.5853 11.5887Z" fill="#{$brand-1}"/>
    <path d="M36.0489 35.2469L35.554 31.7826L34.1666 31.9821L34.364 33.3674L30.4048 29.4082L29.415 30.398L33.3742 34.3572L31.9903 34.1584L31.7922 35.5444L35.2565 36.0393C35.2894 36.044 35.3227 36.0464 35.3559 36.0463C35.7425 36.0464 36.0559 35.733 36.056 35.3464C36.0561 35.3131 36.0536 35.2799 36.0489 35.2469Z" fill="#{$brand-1}"/>
    <path d="M13.5759 12.5784L12.5859 13.5684L13.5759 14.5583L14.5658 13.5684L13.5759 12.5784Z" fill="#{$brand-1}"/>
    <path d="M28.4245 27.4261L27.4346 28.416L28.4245 29.406L29.4144 28.416L28.4245 27.4261Z" fill="#{$brand-1}"/>
    <path d="M8.62285 34.3572L12.582 30.398L11.595 29.4082L7.63586 33.3674L7.83326 31.9821L6.44726 31.784L5.94956 35.2483C5.8947 35.6309 6.16035 35.9857 6.54307 36.0406C6.57606 36.0453 6.60931 36.0477 6.64256 36.0477C6.67581 36.0478 6.70906 36.0454 6.74196 36.0407L10.2063 35.5458L10.0082 34.1598L8.62285 34.3572Z" fill="#{$brand-1}"/>
    <path d="M35.8494 6.1431C35.6942 5.98621 35.4734 5.91263 35.2551 5.945L31.7908 6.4399L31.9889 7.8259L33.3742 7.6285L29.415 11.5877L30.4048 12.5775L34.364 8.6183L34.1666 10.0022L35.5526 10.2017L36.0475 6.7374C36.0788 6.51918 36.0054 6.29903 35.8494 6.1431Z" fill="#{$brand-1}"/>
    <path d="M13.5759 27.4261L12.5859 28.416L13.5759 29.406L14.5658 28.416L13.5759 27.4261Z" fill="#{$brand-1}"/>
    <path d="M28.4245 12.5745L27.4346 13.5645L28.4245 14.5544L29.4144 13.5645L28.4245 12.5745Z" fill="#{$brand-1}"/>
</svg>
