<?xml version="1.0" encoding="utf-8"?>
<!-- Generator: Adobe Illustrator 19.2.1, SVG Export Plug-In . SVG Version: 6.00 Build 0)  -->
<svg version="1.1" id="Слой_1" xmlns="http://www.w3.org/2000/svg" xmlns:xlink="http://www.w3.org/1999/xlink" x="0px" y="0px"
	 viewBox="0 0 31.6 31.5" width="30px" height="30px" style="enable-background:new 0 0 31.6 31.5;" xml:space="preserve">
<style type="text/css">
	.st0{fill:#FFFFFF;}
</style>
<g>
	<g id="Icon_Search">
		<path class="st0" d="M12.9,25.8C5.8,25.8,0,20,0,12.9S5.8,0,12.9,0s12.9,5.8,12.9,12.9S20,25.8,12.9,25.8z M12.9,1.8
			c-6.1,0-11.1,5-11.1,11.1S6.8,24,12.9,24S24,19,24,12.9S19,1.8,12.9,1.8z"/>
		
			<rect x="25.4" y="19.9" transform="matrix(0.7071 -0.7071 0.7071 0.7071 -10.8394 26.3588)" class="st0" width="2" height="12.7"/>
	</g>
	<rect x="5.9" y="11.8" class="st0" width="14" height="2"/>
	<rect x="11.9" y="5.8" class="st0" width="2" height="14"/>
</g>
</svg>
