<svg xmlns="http://www.w3.org/2000/svg" width="13" height="13" viewBox="0 0 13 13">
  <defs>
    <style>
      .cls-1 {
        fill: #006c2b;
        fill-rule: evenodd;
      }
    </style>
  </defs>
  <path id="Ok_Circle_Icon" data-name="Ok Circle Icon" class="cls-1" d="M521.5,1974a6.5,6.5,0,1,1,6.5-6.5A6.5,6.5,0,0,1,521.5,1974Zm0-11.38a4.875,4.875,0,1,0,4.875,4.88A4.881,4.881,0,0,0,521.5,1962.62Zm0.049,6.96a1.211,1.211,0,0,1-1.723,0l-1.338-1.49a0.826,0.826,0,0,1,0-1.16,0.808,0.808,0,0,1,1.149,0l1.051,1.2,2.676-2.83a0.806,0.806,0,0,1,1.148,0,0.826,0.826,0,0,1,0,1.16Z" transform="translate(-515 -1961)"/>
</svg>
