<svg xmlns="http://www.w3.org/2000/svg" width="9.5" height="9" viewBox="0 0 9.5 9">
  <defs>
    <style>
      .cls-1 {
        fill: #d8dee0;
        fill-rule: evenodd;
      }
    </style>
  </defs>
  <path id="Star_Filled_Icon_копия" data-name="Star Filled Icon копия" class="cls-1" d="M577.54,1878a0.652,0.652,0,0,1-.356-0.11,0.6,0.6,0,0,1-.227-0.64l0.691-2.55-2.074-1.66a0.59,0.59,0,0,1-.2-0.65,0.606,0.606,0,0,1,.544-0.41l2.666-.14,0.955-2.46a0.609,0.609,0,0,1,1.128,0l0.955,2.46,2.666,0.14a0.606,0.606,0,0,1,.544.41,0.59,0.59,0,0,1-.2.65l-2.074,1.66,0.692,2.55a0.6,0.6,0,0,1-.228.64,0.628,0.628,0,0,1-.684.02l-2.239-1.44-2.239,1.44A0.638,0.638,0,0,1,577.54,1878Z" transform="translate(-575.375 -1869)"/>
</svg>
