<?xml version="1.0" encoding="utf-8"?>
<!-- Generator: Adobe Illustrator 17.0.0, SVG Export Plug-In . SVG Version: 6.00 Build 0)  -->
<!DOCTYPE svg PUBLIC "-//W3C//DTD SVG 1.1//EN" "http://www.w3.org/Graphics/SVG/1.1/DTD/svg11.dtd">
<svg version="1.1" id="Слой_1" xmlns="http://www.w3.org/2000/svg" xmlns:xlink="http://www.w3.org/1999/xlink" x="0px" y="0px"
	 width="14px" height="12.002px" viewBox="0 0 14 12.002" enable-background="new 0 0 14 12.002" xml:space="preserve">
<path fill-rule="evenodd" clip-rule="evenodd" fill="#656d78" d="M13.852,4.852c-0.099,0.099-0.216,0.148-0.352,0.148
	c-0.135,0-0.253-0.049-0.352-0.148l-1.375-1.375L6.68,8.571C6.628,8.624,6.568,8.65,6.5,8.65c-0.068,0-0.128-0.026-0.18-0.078
	L5.43,7.681c-0.052-0.052-0.078-0.112-0.078-0.18c0-0.068,0.026-0.128,0.078-0.18l5.094-5.094L9.148,0.852C9.05,0.753,9,0.635,9,0.5
	c0-0.135,0.05-0.253,0.149-0.351C9.247,0.049,9.365,0,9.5,0h4c0.135,0,0.253,0.049,0.352,0.148C13.95,0.247,14,0.364,14,0.5v4.001
	C14,4.636,13.95,4.753,13.852,4.852z M7.75,2h-5.5C1.906,2,1.612,2.122,1.367,2.368C1.122,2.612,1,2.906,1,3.25v6.501
	c0,0.344,0.122,0.638,0.367,0.883c0.245,0.245,0.539,0.367,0.883,0.367h6.5c0.344,0,0.638-0.122,0.883-0.367
	C9.878,10.389,10,10.095,10,9.751v-2.5c0-0.073,0.023-0.133,0.07-0.18c0.047-0.047,0.107-0.07,0.18-0.07h0.5
	c0.073,0,0.133,0.023,0.18,0.07C10.977,7.118,11,7.178,11,7.251v2.5c0,0.62-0.22,1.15-0.66,1.59c-0.44,0.44-0.97,0.66-1.59,0.66
	h-6.5c-0.62,0-1.15-0.22-1.59-0.66C0.22,10.901,0,10.371,0,9.751V3.25c0-0.62,0.22-1.15,0.66-1.59C1.1,1.22,1.63,1,2.25,1h5.5
	c0.073,0,0.133,0.023,0.18,0.07C7.977,1.117,8,1.177,8,1.25v0.5c0,0.073-0.023,0.133-0.07,0.18C7.883,1.977,7.823,2,7.75,2z"/>
</svg>
