<svg width="22" height="22" viewBox="0 0 22 22" fill="none" xmlns="http://www.w3.org/2000/svg">
<g clip-path="url(#clip0_440_1812)">
<path d="M17.3866 13.6285C16.9362 13.1595 16.3929 12.9088 15.8171 12.9088C15.246 12.9088 14.6981 13.1549 14.2291 13.6239L12.7619 15.0865C12.6412 15.0215 12.5204 14.9611 12.4044 14.9008C12.2372 14.8172 12.0793 14.7383 11.9447 14.6547C10.5703 13.7817 9.32123 12.6441 8.12327 11.1722C7.54287 10.4386 7.15283 9.82105 6.8696 9.19421C7.25034 8.84597 7.60323 8.48379 7.94683 8.13555C8.07684 8.00554 8.20685 7.87089 8.33686 7.74087C9.31195 6.76579 9.31195 5.50283 8.33686 4.52775L7.06926 3.26014C6.92532 3.1162 6.77673 2.96761 6.63743 2.81903C6.35884 2.53115 6.06631 2.23398 5.7645 1.95538C5.31411 1.50963 4.77549 1.27283 4.20901 1.27283C3.64254 1.27283 3.09463 1.50963 2.63031 1.95538C2.62567 1.96003 2.62567 1.96003 2.62102 1.96467L1.04232 3.55731C0.447981 4.15164 0.109023 4.87599 0.0347313 5.71642C-0.0767067 7.07225 0.322613 8.33521 0.629067 9.16171C1.38127 11.1908 2.50494 13.0713 4.18115 15.0865C6.2149 17.5149 8.66189 19.4326 11.4571 20.7838C12.5251 21.2899 13.9506 21.8889 15.5432 21.991C15.6407 21.9957 15.7428 22.0003 15.8357 22.0003C16.9083 22.0003 17.8091 21.6149 18.5149 20.8488C18.5195 20.8395 18.5288 20.8348 18.5334 20.8256C18.7749 20.533 19.0535 20.2684 19.346 19.9851C19.5457 19.7948 19.75 19.5951 19.9496 19.3861C20.4093 18.9079 20.6508 18.3507 20.6508 17.7796C20.6508 17.2038 20.4047 16.6513 19.9357 16.1869L17.3866 13.6285ZM19.0488 18.5179C19.0442 18.5179 19.0442 18.5225 19.0488 18.5179C18.8678 18.7129 18.682 18.8893 18.4824 19.0843C18.1806 19.3722 17.8741 19.674 17.5862 20.013C17.1173 20.5145 16.5647 20.7513 15.8404 20.7513C15.7707 20.7513 15.6964 20.7513 15.6268 20.7466C14.2477 20.6584 12.9662 20.1198 12.005 19.6601C9.37695 18.3878 7.06926 16.5816 5.15159 14.2925C3.56825 12.3841 2.50958 10.6197 1.80845 8.72524C1.37663 7.56907 1.21876 6.66828 1.28841 5.81857C1.33484 5.27531 1.54379 4.82491 1.92918 4.43952L3.51253 2.85618C3.74005 2.64259 3.98149 2.5265 4.2183 2.5265C4.51083 2.5265 4.74763 2.70295 4.89621 2.85153C4.90086 2.85618 4.9055 2.86082 4.91014 2.86546C5.19338 3.13013 5.46269 3.40408 5.74593 3.6966C5.88987 3.84519 6.03845 3.99377 6.18704 4.147L7.45465 5.41461C7.94683 5.90679 7.94683 6.36183 7.45465 6.85401C7.31999 6.98867 7.18998 7.12332 7.05533 7.25333C6.66529 7.65265 6.29383 8.02411 5.88987 8.38629C5.88058 8.39557 5.8713 8.40022 5.86665 8.4095C5.46733 8.80882 5.54163 9.19885 5.62521 9.46352C5.62985 9.47745 5.63449 9.49138 5.63913 9.50531C5.96881 10.3039 6.43313 11.0562 7.1389 11.9523L7.14355 11.9569C8.42509 13.5357 9.77627 14.7661 11.2668 15.7087C11.4571 15.8294 11.6521 15.9269 11.8379 16.0198C12.005 16.1034 12.1629 16.1823 12.2976 16.2659C12.3161 16.2752 12.3347 16.2891 12.3533 16.2984C12.5111 16.3773 12.6597 16.4145 12.813 16.4145C13.1983 16.4145 13.4398 16.173 13.5187 16.0941L15.1067 14.5061C15.2646 14.3482 15.5153 14.1578 15.8079 14.1578C16.0957 14.1578 16.3325 14.3389 16.4765 14.4968C16.4811 14.5014 16.4811 14.5014 16.4858 14.5061L19.0442 17.0645C19.5225 17.5381 19.5225 18.0257 19.0488 18.5179Z" fill="#FFB900"/>
<path d="M11.889 5.23343C13.1055 5.43773 14.2106 6.01349 15.0929 6.89571C15.9751 7.77793 16.5462 8.88302 16.7551 10.0996C16.8062 10.406 17.0709 10.6196 17.3727 10.6196C17.4098 10.6196 17.4423 10.615 17.4795 10.6103C17.8231 10.5546 18.0506 10.2296 17.9949 9.88596C17.7442 8.41405 17.0477 7.07215 15.9844 6.00885C14.9211 4.94554 13.5792 4.24906 12.1072 3.99832C11.7636 3.9426 11.4433 4.17012 11.3829 4.50908C11.3225 4.84804 11.5454 5.17771 11.889 5.23343Z" fill="#FFB900"/>
<path d="M21.974 9.70485C21.5607 7.28107 20.4185 5.07553 18.6633 3.32038C16.9082 1.56523 14.7026 0.422989 12.2789 0.0097396C11.9399 -0.0506227 11.6195 0.18154 11.5592 0.520497C11.5034 0.864098 11.731 1.18448 12.0746 1.24484C14.2383 1.61166 16.2117 2.63782 17.7811 4.2026C19.3505 5.77201 20.3721 7.7454 20.7389 9.90915C20.79 10.2156 21.0546 10.4292 21.3564 10.4292C21.3936 10.4292 21.4261 10.4246 21.4632 10.4199C21.8022 10.3688 22.0343 10.0438 21.974 9.70485Z" fill="#FFB900"/>
</g>
<defs>
<clipPath id="clip0_440_1812">
<rect width="22" height="22" fill="white"/>
</clipPath>
</defs>
</svg>
