<svg width="100" height="100" viewBox="0 0 100 100" fill="none" xmlns="http://www.w3.org/2000/svg">
<path d="M16.1717 0.48822C14.3553 1.44525 13.6717 2.87103 13.6717 5.664V7.61713H9.99983C5.85921 7.61713 4.86311 7.81244 3.65218 8.789C3.26155 9.14056 2.69515 9.82416 2.38265 10.3124L1.8553 11.2304L1.79671 46.1718C1.77718 69.1796 1.81624 81.3476 1.95296 81.8164C2.24593 82.9101 3.18343 84.082 4.23811 84.707L5.17561 85.2539L26.9725 85.3124L48.7694 85.3515L49.7069 86.9726C52.4412 91.6796 56.0936 95.0781 61.0545 97.4999C64.5701 99.1992 67.1483 99.8242 71.2889 99.9414C75.0389 100.059 77.3826 99.7656 80.3319 98.8281C82.617 98.1054 85.5076 96.6406 87.5194 95.1953C89.453 93.789 92.3826 90.7812 93.6912 88.8671C99.7264 79.9023 99.7264 68.2226 93.7108 59.4335C92.4412 57.5781 89.6678 54.6484 88.0858 53.496L86.9139 52.6367V32.3242C86.9139 9.27729 87.0116 10.8203 85.3514 9.1601C84.0037 7.81244 83.1834 7.61713 78.6912 7.61713H75.0389L74.9608 5.4101C74.9022 3.33978 74.8631 3.12494 74.3162 2.2265C73.9061 1.58197 73.3787 1.05463 72.6561 0.624939C71.7381 0.078064 71.4256 -6.10352e-05 70.2733 -6.10352e-05C68.7108 -6.10352e-05 67.7537 0.351501 66.8358 1.23041C65.6834 2.32416 65.3709 3.164 65.2733 5.50775L65.1756 7.61713H44.3358H23.4959L23.3983 5.50775C23.3006 3.164 22.9881 2.32416 21.8358 1.23041C20.9178 0.33197 19.9608 -6.10352e-05 18.4178 -6.10352e-05C17.4022 0.0194702 16.8748 0.136658 16.1717 0.48822ZM19.2381 3.43744C19.9998 3.73041 20.117 4.4726 20.117 9.25775C20.117 11.7773 20.0389 14.0624 19.9217 14.3359C19.7069 14.9218 18.7303 15.4687 18.2225 15.2929C18.0272 15.2343 17.6756 14.9999 17.4412 14.7851C16.992 14.3945 16.992 14.3163 16.992 9.29681C16.992 4.35541 17.0116 4.21869 17.4217 3.76947C17.8319 3.32025 18.5741 3.18353 19.2381 3.43744ZM71.2303 3.74994C71.6795 4.1601 71.6795 4.19916 71.6795 9.27728C71.6795 14.3163 71.6795 14.3945 71.2498 14.7851C70.5662 15.4101 70.0975 15.4687 69.3944 15.039C68.9647 14.7851 68.7303 14.4726 68.6522 14.0234C68.5936 13.6718 68.5545 11.289 68.5936 8.73041C68.6522 4.1015 68.6522 4.06244 69.1209 3.69135C69.7264 3.20306 70.6639 3.2226 71.2303 3.74994ZM13.6717 12.9296C13.6717 14.6288 13.7498 15.0976 14.1405 15.9179C14.9412 17.6562 16.4451 18.5937 18.4569 18.6132C19.8436 18.6132 20.9178 18.2031 21.8358 17.3242C22.9881 16.2304 23.3006 15.3906 23.3983 13.0273L23.4959 10.9374H44.3358H65.1951L65.2733 13.0273C65.3514 15.371 65.6639 16.2109 66.8358 17.3242C67.7537 18.2031 68.828 18.6132 70.2147 18.6132C72.2264 18.5937 73.7303 17.6562 74.5311 15.9179C74.9217 15.0976 74.9998 14.6288 74.9998 12.9296V10.9374H78.6326H82.2655L82.9295 11.6015L83.5936 12.2656V17.2656V22.2656H44.3358H5.07796V17.2656V12.2656L5.74202 11.6015L6.40608 10.9374H10.0389H13.6717V12.9296ZM83.5936 38.0859C83.5936 45.0976 83.5155 50.5859 83.4178 50.5859C83.3201 50.5859 82.7342 50.3515 82.1092 50.0781C81.4647 49.7851 79.9412 49.2968 78.7108 48.9843C75.7811 48.2226 71.1326 48.0273 68.0662 48.5156C62.7342 49.3945 57.8709 51.8945 54.0037 55.7617C51.1326 58.6132 49.16 61.7187 47.7733 65.5859C46.0741 70.332 45.9178 76.289 47.3826 81.582L47.4998 82.0312H26.8553H6.21077L5.64436 81.4648L5.07796 80.8984V53.2421V25.5859H44.3358H83.5936V38.0859ZM70.703 53.164C70.703 55.039 71.0741 55.664 72.1873 55.664C73.5936 55.664 74.0233 55.0195 74.0233 52.9296V51.5234L75.0584 51.6601C78.9061 52.1484 83.6326 54.121 86.2303 56.3476L87.0116 57.0117L85.9373 58.0859C84.9998 59.0624 84.8631 59.2773 84.8631 59.9804C84.8631 60.9765 85.4491 61.5234 86.4842 61.5234C87.0897 61.5234 87.3631 61.3476 88.3006 60.4296L89.3944 59.3359L90.2733 60.4882C91.953 62.6953 93.2811 65.2929 94.0037 67.7929C94.2576 68.6132 94.9217 72.0117 94.9217 72.3828C94.9217 72.4218 94.2186 72.4609 93.3787 72.4609C92.0116 72.4609 91.7576 72.5195 91.2889 72.9296C90.5272 73.5742 90.5272 74.6679 91.2889 75.3124C91.7576 75.7226 92.0116 75.7812 93.3787 75.7812H94.9608L94.8436 76.3281C94.785 76.621 94.6873 77.246 94.6287 77.7343C94.16 81.0351 92.3826 85.1562 90.2147 87.8906L89.4139 88.9062L88.3006 87.8124C87.4217 86.9531 87.0701 86.7187 86.5819 86.7187C85.703 86.7187 85.3709 86.8945 85.0389 87.539C84.6092 88.3789 84.8241 89.0039 85.9764 90.1757C87.1483 91.3671 87.1678 91.289 85.0389 92.7734C82.2264 94.7265 78.4569 96.1718 75.1561 96.582L74.0233 96.7187V95.3124C74.0233 93.3398 73.5545 92.5976 72.285 92.5781C71.8553 92.5781 71.4451 92.7343 71.1522 93.0078C70.7616 93.3789 70.703 93.6132 70.703 95.0585C70.703 96.9531 70.8397 96.8749 68.1639 96.3671C64.9022 95.7617 61.328 94.1601 58.6522 92.1289C58.0858 91.6992 57.617 91.3085 57.617 91.2499C57.617 91.1914 58.1053 90.6445 58.6912 90.0195C59.5311 89.1406 59.7655 88.7499 59.7655 88.2812C59.7655 87.4218 59.0037 86.7187 58.1053 86.7187C57.4998 86.7187 57.2069 86.8945 56.2498 87.7929L55.117 88.8867L54.1209 87.539C52.8319 85.8007 51.5233 83.3007 50.8787 81.3671C50.3319 79.707 49.8045 77.2851 49.8045 76.3476V75.7812H51.328C52.3631 75.7812 52.9686 75.6835 53.2616 75.4882C54.1405 74.8632 53.9842 73.1249 53.0076 72.6757C52.7342 72.5585 51.8944 72.4609 51.1326 72.4609H49.7459L49.8826 71.2304C50.2147 67.9687 51.8944 63.7695 54.0037 60.8789L55.1366 59.3359L56.2303 60.4296C57.2069 61.4062 57.4217 61.5234 58.1444 61.5234C58.7889 61.5234 59.0428 61.4257 59.3553 61.0156C60.0584 60.1171 59.9022 59.4921 58.6522 58.164L57.5389 56.9921L58.0076 56.621C58.8084 55.996 60.5858 54.8046 61.5233 54.2578C63.6522 53.0468 68.242 51.621 70.1756 51.582L70.703 51.5624V53.164Z" fill="#033550"/>
<path d="M10 30.5273C9.57031 30.9766 9.57031 31.0938 9.57031 37.1289V43.3008L10.0195 43.7109C10.4688 44.1406 10.5859 44.1406 16.582 44.1406H22.6758L23.1445 43.6523L23.6328 43.1836V37.1094V31.0352L23.1445 30.5664L22.6758 30.0781H16.543H10.4102L10 30.5273ZM20.3125 37.1094V40.8203H16.6016H12.8906V37.1094V33.3984H16.6016H20.3125V37.1094Z" fill="#033550"/>
<path d="M28.75 30.2149C28.6133 30.2734 28.3789 30.5664 28.2227 30.8594C27.9883 31.3281 27.9297 32.4805 27.9297 37.1094C27.9297 43.0469 28.0078 43.7109 28.8086 44.0234C28.9844 44.082 31.8359 44.1406 35.1563 44.1406C40.7813 44.1406 41.1914 44.1211 41.6211 43.7695L42.0898 43.3984V37.1094V30.8203L41.6211 30.4492C41.1914 30.0977 40.8008 30.0781 35.0781 30.0977C31.7383 30.0977 28.8867 30.1563 28.75 30.2149ZM38.8672 37.1094V40.8203H35.0586H31.25V37.1094V33.3984H35.0586H38.8672V37.1094Z" fill="#033550"/>
<path d="M47.0508 30.4492L46.582 30.8203V37.1094V43.3984L47.0508 43.7695C47.4805 44.1211 47.8906 44.1406 53.5938 44.1406C60.1367 44.1211 60.1367 44.1211 60.5469 43.0859C60.8203 42.3633 60.8203 31.8555 60.5469 31.1328C60.1367 30.0977 60.1367 30.0977 53.5938 30.0781C47.8906 30.0781 47.4805 30.0977 47.0508 30.4492ZM57.4219 37.1094V40.8203H53.6133H49.8047V37.1094V33.3984H53.6133H57.4219V37.1094Z" fill="#033550"/>
<path d="M65.5273 30.5664L65.0391 31.0352V37.1094V43.1836L65.5273 43.6523L65.9961 44.1406H72.1289H78.2617L78.6719 43.6914C79.1016 43.2422 79.1016 43.125 79.1016 37.0898V30.918L78.6523 30.5078C78.2031 30.0781 78.0859 30.0781 72.0898 30.0781H65.9961L65.5273 30.5664ZM75.7812 37.1094V40.8203H72.0703H68.3594V37.1094V33.3984H72.0703H75.7812V37.1094Z" fill="#033550"/>
<path d="M10.4492 46.8948C9.57031 47.383 9.57031 47.4416 9.57031 53.8284C9.57031 59.5315 9.58984 59.9416 9.94141 60.3713L10.3125 60.8401L16.2305 60.8987C22.5391 60.9573 23.0273 60.8987 23.418 60.0393C23.5547 59.7073 23.6328 57.637 23.6328 53.7112V47.8713L23.1641 47.3244L22.6953 46.7776L16.7578 46.7385C12.6758 46.6994 10.7227 46.758 10.4492 46.8948ZM20.3125 53.8088V57.6174H16.6016H12.8906V53.8088V50.0002H16.6016H20.3125V53.8088Z" fill="#033550"/>
<path d="M28.9065 46.9336C27.969 47.4219 27.93 47.7148 27.969 54.0625L28.0276 60L28.5745 60.4687L29.1214 60.9375H35.0784H41.055L41.6214 60.3711L42.1878 59.8047V53.8281V47.8711L41.719 47.3242L41.2503 46.7773L35.3128 46.7187C30.8206 46.6797 29.2776 46.7383 28.9065 46.9336ZM38.8675 53.8086V57.6172H35.0589H31.2503V53.8086V50H35.0589H38.8675V53.8086Z" fill="#033550"/>
<path d="M10.0781 63.8867L9.57031 64.2773V70.5273C9.57031 76.5039 9.58984 76.7773 9.96094 77.1484C10.332 77.5195 10.6055 77.5391 16.582 77.5391H22.832L23.2227 77.0312C23.6133 76.5234 23.6328 76.2891 23.6328 70.4688V64.4336L23.1445 63.9648L22.6758 63.4766H16.6406C10.8203 63.4766 10.5859 63.4961 10.0781 63.8867ZM20.3125 70.5078V74.2188H16.6016H12.8906V70.5078V66.7969H16.6016H20.3125V70.5078Z" fill="#033550"/>
<path d="M28.5743 63.9453L28.0274 64.4141L27.9688 70.1562C27.9298 73.3008 27.9688 76.0742 28.0274 76.3281C28.086 76.5625 28.3009 76.9336 28.5157 77.1484C28.8868 77.5195 29.1993 77.5391 35.0392 77.5391C40.7813 77.5391 41.1915 77.5195 41.6212 77.168L42.0899 76.7969L42.1485 70.957C42.1876 67.7539 42.1485 64.9414 42.0899 64.707C42.0313 64.4727 41.797 64.082 41.5626 63.8672C41.1524 63.4961 40.8985 63.4766 35.1368 63.4766H29.1212L28.5743 63.9453ZM38.8673 70.5078V74.2188H35.0587H31.2501V70.5078V66.7969H35.0587H38.8673V70.5078Z" fill="#033550"/>
<path d="M71.2105 59.9801L70.7027 60.3707V65.0387V69.7067L70.0191 70.0387C68.5152 70.7418 67.4019 72.9684 67.6558 74.7457C67.9683 77.1285 69.8043 78.7301 72.2457 78.7301C74.0621 78.7496 75.4293 77.9684 76.4058 76.4059L76.7964 75.7809H80.4879C84.1597 75.7809 84.1988 75.7809 84.6675 75.2926C85.273 74.7067 85.3121 73.6715 84.7847 73.027C84.4136 72.5582 84.3355 72.5582 80.4879 72.4996C77.48 72.4606 76.5621 72.3825 76.5621 72.1871C76.5621 71.816 75.2339 70.3317 74.5894 69.9996L74.023 69.7067V65.2535V60.7809L73.5152 60.1754C72.9097 59.4332 71.9918 59.3746 71.2105 59.9801Z" fill="white"/>
</svg>
