<svg width="100" height="100" viewBox="0 0 100 100" fill="none" xmlns="http://www.w3.org/2000/svg">
<path d="M65.332 4.80484C61.9531 5.33218 58.5937 7.61734 57.1484 10.3712L56.582 11.4455L55.6836 11.2892C53.8867 10.9962 48.1836 10.8791 45.9961 11.1134C36.3086 12.1486 27.7539 16.0353 21.0156 22.4806C9.80467 33.1642 5.33201 48.7697 9.21873 63.7697C12.7734 77.5392 23.0859 88.5744 36.6015 93.0666C55.332 99.3166 75.7812 91.8361 86.0547 75.0002C91.1719 66.6213 93.2031 56.1134 91.6015 46.3869C90.8789 41.9338 89.8437 38.672 87.8906 34.6681C85.6445 30.0587 82.7344 26.0548 79.082 22.5783L77.3242 20.8986L77.6367 19.6877C78.7109 15.6252 77.8711 11.5627 75.3906 8.5939C74.3359 7.32437 71.9726 5.7814 70.3711 5.27359C69.1015 4.88297 66.4453 4.64859 65.332 4.80484ZM70.332 8.55484C71.875 9.29703 73.6328 11.0548 74.3164 12.5587C76.3086 16.8947 74.043 23.3791 68.3789 29.5314L66.875 31.172L65.3711 29.4923C60.6836 24.3166 58.2617 18.9064 58.8086 14.8634C59.043 13.1447 59.7461 11.7384 60.957 10.4494C62.8711 8.41812 64.4336 7.77359 67.1875 7.87125C68.789 7.92984 69.2187 8.00797 70.332 8.55484ZM48.4375 22.9494V31.8361H41.7969C37.4804 31.8361 35.1562 31.758 35.1562 31.6408C35.1562 31.1916 36.8359 26.8752 37.7929 24.9025C40.3906 19.4923 43.8476 15.6837 47.2656 14.4533C47.8515 14.258 48.3594 14.0822 48.3984 14.0627C48.418 14.0627 48.4375 18.0666 48.4375 22.9494ZM54.4336 14.1798L55.6055 14.3166L55.7226 16.4845C55.7812 17.9884 55.9765 19.1798 56.3281 20.3712C57.2461 23.4377 59.375 27.2267 61.8945 30.215C62.5586 30.9962 63.0859 31.6798 63.0859 31.7384C63.0859 31.797 60.4883 31.8361 57.3242 31.8361H51.5625V22.9494V14.0627H52.4219C52.8711 14.0627 53.789 14.1212 54.4336 14.1798ZM39.7656 16.2306C36.9726 19.2384 33.9258 25.0783 32.4023 30.3127L31.9531 31.8361H24.5508H17.1484L17.4805 31.2892C17.6758 30.9962 18.3789 30.0587 19.043 29.1994C24.082 22.715 30.8594 18.047 38.7695 15.6056C39.7461 15.3127 40.6054 15.0587 40.7031 15.0587C40.7812 15.0392 40.3711 15.5666 39.7656 16.2306ZM77.6562 25.4298C79.375 27.2072 80.9375 29.0627 82.0117 30.6252L82.832 31.8361H76.6211H70.4297L71.1133 31.0939C72.539 29.59 74.6875 26.5627 75.5664 24.8439C75.8008 24.3947 76.0547 24.0236 76.1328 24.0236C76.2109 24.0236 76.8945 24.6681 77.6562 25.4298ZM31.0547 35.0978C31.0547 35.2931 30.9179 35.9767 30.7812 36.6213C30.3125 38.6134 29.707 42.9298 29.4922 45.8986C29.375 47.4611 29.2383 49.3752 29.1797 50.1369L29.0625 51.5627H20H10.9375V50.6252C10.9375 47.1681 12.5586 40.84 14.4531 36.758L15.4101 34.7658H23.2226C30.5469 34.7658 31.0547 34.7853 31.0547 35.0978ZM48.4375 43.1642V51.5627H40.2929H32.1679L32.3047 48.8088C32.3633 47.2853 32.5976 44.6681 32.8125 42.9884C33.1836 40.1173 34.082 35.2931 34.2969 34.922C34.3554 34.8439 37.5586 34.7658 41.4258 34.7658H48.4375V43.1642ZM65.7031 34.922C65.918 35.2931 66.8164 40.1173 67.1875 42.9884C67.4023 44.6681 67.6367 47.2853 67.6953 48.8088L67.832 51.5627H59.707H51.5625V43.1642V34.7658H58.5742C62.4414 34.7658 65.6445 34.8439 65.7031 34.922ZM85.4492 36.5822C87.2461 40.3322 88.6914 45.7619 88.9844 49.7463L89.1211 51.5627H80.0195H70.9375L70.8203 50.3322C70.7812 49.6681 70.625 47.7345 70.5078 46.0158C70.2734 42.8908 69.8047 39.3752 69.2383 36.758C69.082 35.9767 68.9453 35.1955 68.9453 35.0392C68.9453 34.8048 70.0976 34.7658 76.7773 34.7658H84.5898L85.4492 36.5822ZM29.1797 56.0939C29.6094 61.9533 29.7461 63.4767 30.0976 65.7228C30.3125 67.1095 30.6445 68.9845 30.8398 69.8634L31.1914 71.4845H23.3008H15.4101L14.5117 69.59C12.7148 65.7228 11.289 60.3908 10.9961 56.465L10.8789 54.6877H19.9805H29.0625L29.1797 56.0939ZM48.4375 63.0861V71.4845H41.4258C37.5586 71.4845 34.3554 71.4259 34.3164 71.3283C34.2578 71.2502 33.9844 70.0978 33.7109 68.7502C33.0469 65.4884 32.4609 60.8205 32.3047 57.4416L32.1679 54.6877H40.2929H48.4375V63.0861ZM67.6953 57.4416C67.539 60.8205 66.9531 65.4884 66.289 68.7502C66.0156 70.0978 65.7422 71.2502 65.6836 71.3283C65.6445 71.4259 62.4414 71.4845 58.5742 71.4845H51.5625V63.0861V54.6877H59.707H67.832L67.6953 57.4416ZM89.0625 55.4689C89.0625 56.8361 88.4765 60.5666 87.8906 62.7736C87.2461 65.2931 86.5039 67.383 85.3906 69.7658L84.5898 71.4845H76.6992H68.8086L69.082 70.2931C69.6094 68.0275 70.293 63.0666 70.5078 60.0978C70.625 58.4572 70.7617 56.5822 70.8203 55.8986L70.9375 54.6877H80H89.0625V55.4689ZM32.3828 75.8791C33.9062 81.0353 36.875 86.7775 39.6484 89.9025C40.2148 90.508 40.5859 91.0158 40.4883 91.0158C40.3906 91.0158 39.6094 90.8009 38.75 90.547C30.3125 87.9884 22.7148 82.4806 17.7734 75.2931L17.168 74.4142H24.5703H31.9531L32.3828 75.8791ZM48.4375 83.2033C48.4375 90.9377 48.3984 91.9923 48.1445 91.9923C47.5781 91.9923 45.4101 90.8791 44.1992 89.9611C41.0351 87.5783 37.9687 82.6369 35.8594 76.6017C35.4687 75.4884 35.1562 74.5314 35.1562 74.4923C35.1562 74.4533 38.1445 74.4142 41.7969 74.4142H48.4375V83.2033ZM64.8437 74.4923C64.8437 74.5314 64.5312 75.4689 64.1406 76.5627C61.5039 84.1798 57.7539 89.3556 53.418 91.4259C51.3672 92.4025 51.5625 93.2423 51.5625 83.2033V74.4142H58.2031C61.8555 74.4142 64.8437 74.4533 64.8437 74.4923ZM82.4023 75.0392C77.1094 82.6564 69.4922 88.1642 60.8008 90.7033L59.1992 91.1525L60.1758 90.0588C61.4453 88.6525 63.1836 86.0939 64.2969 83.9845C65.3125 82.1095 67.1875 77.4806 67.6953 75.6252L68.0273 74.4142H75.4297H82.832L82.4023 75.0392Z" fill="white"/>
<path d="M64.7273 10.918C63.5164 11.4648 62.4031 12.5781 61.9148 13.7109C61.5633 14.5312 61.5047 14.9805 61.5633 16.1914C61.6414 17.8906 62.0125 18.7695 63.0476 19.8242C64.1023 20.8984 65.2547 21.3672 66.8953 21.3672C70.0203 21.3672 72.2859 19.1211 72.3054 16.0156C72.325 13.7695 71.2117 11.9336 69.239 11.0156C67.989 10.4102 65.9187 10.3711 64.7273 10.918ZM67.8719 13.75C69.1219 14.2773 69.6687 15.7812 69.0437 16.9922C68.0867 18.8477 65.7039 18.8281 64.7273 16.9531C64.1414 15.8398 64.7273 14.2773 65.8797 13.7695C66.6804 13.418 67.0515 13.418 67.8719 13.75Z" fill="#FFB900"/>
</svg>
