<svg width="100" height="100" viewBox="0 0 100 100" fill="none" xmlns="http://www.w3.org/2000/svg">
<path d="M23.4375 50C23.4375 49.0729 23.1626 48.1666 22.6475 47.3958C22.1324 46.6249 21.4004 46.0241 20.5438 45.6693C19.6873 45.3145 18.7448 45.2217 17.8355 45.4026C16.9262 45.5834 16.091 46.0299 15.4354 46.6854C14.7799 47.341 14.3334 48.1762 14.1526 49.0855C13.9717 49.9948 14.0645 50.9373 14.4193 51.7938C14.7741 52.6504 15.3749 53.3825 16.1458 53.8975C16.9166 54.4126 17.8229 54.6875 18.75 54.6875C19.9928 54.6861 21.1842 54.1918 22.063 53.313C22.9418 52.4343 23.4361 51.2428 23.4375 50ZM17.1875 50C17.1875 49.691 17.2791 49.3889 17.4508 49.1319C17.6225 48.875 17.8665 48.6747 18.1521 48.5564C18.4376 48.4382 18.7517 48.4072 19.0548 48.4675C19.3579 48.5278 19.6363 48.6766 19.8549 48.8952C20.0734 49.1137 20.2222 49.3921 20.2825 49.6952C20.3428 49.9983 20.3118 50.3124 20.1936 50.598C20.0753 50.8835 19.875 51.1275 19.6181 51.2992C19.3611 51.4709 19.059 51.5625 18.75 51.5625C18.3357 51.562 17.9386 51.3973 17.6457 51.1044C17.3527 50.8114 17.188 50.4143 17.1875 50Z" fill="white"/>
<path d="M60.9375 62.5C60.9375 61.5729 60.6626 60.6666 60.1475 59.8958C59.6325 59.1249 58.9004 58.5241 58.0438 58.1693C57.1873 57.8145 56.2448 57.7217 55.3355 57.9026C54.4262 58.0834 53.591 58.5299 52.9354 59.1854C52.2799 59.841 51.8334 60.6762 51.6526 61.5855C51.4717 62.4948 51.5645 63.4373 51.9193 64.2938C52.2741 65.1504 52.8749 65.8825 53.6458 66.3975C54.4166 66.9126 55.3229 67.1875 56.25 67.1875C57.4928 67.1861 58.6843 66.6918 59.563 65.813C60.4418 64.9343 60.9361 63.7428 60.9375 62.5ZM54.6875 62.5C54.6875 62.191 54.7791 61.8889 54.9508 61.6319C55.1225 61.375 55.3666 61.1747 55.6521 61.0564C55.9376 60.9382 56.2517 60.9072 56.5548 60.9675C56.8579 61.0278 57.1363 61.1766 57.3549 61.3951C57.5734 61.6137 57.7222 61.8921 57.7825 62.1952C57.8428 62.4983 57.8118 62.8124 57.6936 63.0979C57.5753 63.3835 57.375 63.6275 57.1181 63.7992C56.8611 63.9709 56.559 64.0625 56.25 64.0625C55.8357 64.062 55.4386 63.8973 55.1457 63.6043C54.8527 63.3114 54.688 62.9143 54.6875 62.5Z" fill="white"/>
<path d="M76.5625 25C77.7986 25 79.007 24.6334 80.0348 23.9467C81.0626 23.2599 81.8637 22.2838 82.3368 21.1418C82.8098 19.9997 82.9336 18.7431 82.6924 17.5307C82.4513 16.3183 81.856 15.2047 80.9819 14.3306C80.1078 13.4565 78.9942 12.8613 77.7818 12.6201C76.5694 12.3789 75.3128 12.5027 74.1707 12.9758C73.0287 13.4488 72.0526 14.2499 71.3658 15.2777C70.6791 16.3055 70.3125 17.5139 70.3125 18.75C70.3144 20.407 70.9734 21.9957 72.1451 23.1674C73.3168 24.3391 74.9055 24.9981 76.5625 25ZM76.5625 15.625C77.1806 15.625 77.7848 15.8083 78.2987 16.1517C78.8126 16.495 79.2131 16.9831 79.4496 17.5541C79.6862 18.1251 79.748 18.7535 79.6275 19.3597C79.5069 19.9659 79.2093 20.5227 78.7722 20.9597C78.3352 21.3968 77.7784 21.6944 77.1722 21.815C76.566 21.9355 75.9376 21.8737 75.3666 21.6371C74.7956 21.4006 74.3075 21.0001 73.9642 20.4862C73.6208 19.9723 73.4375 19.3681 73.4375 18.75C73.4385 17.9215 73.768 17.1272 74.3539 16.5414C74.9397 15.9555 75.734 15.626 76.5625 15.625Z" fill="white"/>
<path d="M96.875 26.5625H87.7539C89.6621 23.4941 90.625 20.8789 90.625 18.75C90.625 15.0204 89.1434 11.4435 86.5062 8.80631C83.869 6.16908 80.2921 4.6875 76.5625 4.6875C72.8329 4.6875 69.256 6.16908 66.6188 8.80631C63.9816 11.4435 62.5 15.0204 62.5 18.75C62.5 20.8789 63.4629 23.4941 65.3711 26.5625H3.125C2.7106 26.5625 2.31317 26.7271 2.02015 27.0201C1.72712 27.3132 1.5625 27.7106 1.5625 28.125V90.625C1.5625 91.0394 1.72712 91.4368 2.02015 91.7299C2.31317 92.0229 2.7106 92.1875 3.125 92.1875H96.875C97.2894 92.1875 97.6868 92.0229 97.9799 91.7299C98.2729 91.4368 98.4375 91.0394 98.4375 90.625V28.125C98.4375 27.7106 98.2729 27.3132 97.9799 27.0201C97.6868 26.7271 97.2894 26.5625 96.875 26.5625ZM76.5625 7.8125C79.4623 7.8157 82.2425 8.96907 84.2929 11.0196C86.3434 13.07 87.4968 15.8502 87.5 18.75C87.5 21.168 85.4121 25.0566 81.623 29.7012C79.6855 32.0723 77.7285 34.125 76.5625 35.3047C75.3965 34.125 73.4395 32.0723 71.502 29.7012C67.7129 25.0566 65.625 21.168 65.625 18.75C65.6282 15.8502 66.7816 13.07 68.8321 11.0196C70.8825 8.96907 73.6627 7.8157 76.5625 7.8125ZM42.1875 29.6875H67.5234C68.0137 30.3418 68.5404 31.0137 69.1035 31.7031C69.4121 32.082 69.7227 32.4531 70.0293 32.8125H42.1875V29.6875ZM4.6875 29.6875H32.8125V60.9375H24.5234C27.0645 57.4316 29.6875 53.0684 29.6875 50C29.6875 47.0992 28.5352 44.3172 26.484 42.266C24.4328 40.2148 21.6508 39.0625 18.75 39.0625C15.8492 39.0625 13.0672 40.2148 11.016 42.266C8.96484 44.3172 7.8125 47.0992 7.8125 50C7.8125 53.0684 10.4355 57.4316 12.9766 60.9375H4.6875V29.6875ZM20.2402 61.4121C20.1659 61.4883 20.0998 61.5721 20.043 61.6621C19.6035 62.2148 19.168 62.7441 18.75 63.2422C18.332 62.7461 17.8984 62.2188 17.4609 61.668C17.4013 61.572 17.3312 61.4829 17.252 61.4023C14.1777 57.4961 10.9375 52.5586 10.9375 50C10.9375 47.928 11.7606 45.9409 13.2257 44.4757C14.6909 43.0106 16.678 42.1875 18.75 42.1875C20.822 42.1875 22.8091 43.0106 24.2743 44.4757C25.7394 45.9409 26.5625 47.928 26.5625 50C26.5625 52.5586 23.3184 57.502 20.2402 61.4121ZM32.8125 89.0625H4.6875V70.3125H32.8125V89.0625ZM95.3125 89.0625H42.1875V82.8125H95.3125V89.0625ZM95.3125 73.4375H62.0234C64.5645 69.9316 67.1875 65.5684 67.1875 62.5C67.1875 59.5992 66.0352 56.8172 63.984 54.766C61.9328 52.7148 59.1508 51.5625 56.25 51.5625C53.3492 51.5625 50.5672 52.7148 48.516 54.766C46.4648 56.8172 45.3125 59.5992 45.3125 62.5C45.3125 65.5684 47.9355 69.9316 50.4766 73.4375H42.1875V42.1875H95.3125V73.4375ZM57.7402 73.9121C57.6659 73.9883 57.5998 74.0721 57.543 74.1621C57.1035 74.7148 56.668 75.2441 56.25 75.7422C55.832 75.2461 55.3984 74.7188 54.9609 74.168C54.9013 74.072 54.8312 73.9829 54.7519 73.9023C51.6777 69.9961 48.4375 65.0586 48.4375 62.5C48.4375 60.428 49.2606 58.4409 50.7257 56.9757C52.1909 55.5106 54.178 54.6875 56.25 54.6875C58.322 54.6875 60.3091 55.5106 61.7743 56.9757C63.2394 58.4409 64.0625 60.428 64.0625 62.5C64.0625 65.0586 60.8184 70.002 57.7402 73.9121ZM95.3125 39.0625H40.625C40.2106 39.0625 39.8132 39.2271 39.5201 39.5201C39.2271 39.8132 39.0625 40.2106 39.0625 40.625V75C39.0625 75.4144 39.2271 75.8118 39.5201 76.1049C39.8132 76.3979 40.2106 76.5625 40.625 76.5625H52.877C53.9668 77.9082 54.8144 78.8652 55.0879 79.168C55.2342 79.3314 55.4133 79.4622 55.6135 79.5517C55.8138 79.6412 56.0307 79.6875 56.25 79.6875C56.4693 79.6875 56.6862 79.6412 56.8865 79.5517C57.0867 79.4622 57.2658 79.3314 57.4121 79.168C57.6856 78.8652 58.5332 77.9082 59.623 76.5625H95.3125V79.6875H40.625C40.2106 79.6875 39.8132 79.8521 39.5201 80.1451C39.2271 80.4382 39.0625 80.8356 39.0625 81.25V89.0625H35.9375V68.75C35.9375 68.3356 35.7729 67.9382 35.4799 67.6451C35.1868 67.3521 34.7894 67.1875 34.375 67.1875H4.6875V64.0625H15.377C16.4668 65.4082 17.3145 66.3652 17.5879 66.668C17.7342 66.8314 17.9133 66.9622 18.1135 67.0517C18.3138 67.1412 18.5307 67.1875 18.75 67.1875C18.9693 67.1875 19.1862 67.1412 19.3865 67.0517C19.5867 66.9622 19.7658 66.8314 19.9121 66.668C20.1855 66.3652 21.0332 65.4082 22.123 64.0625H34.375C34.7894 64.0625 35.1868 63.8979 35.4799 63.6049C35.7729 63.3118 35.9375 62.9144 35.9375 62.5V29.6875H39.0625V34.375C39.0625 34.7894 39.2271 35.1868 39.5201 35.4799C39.8132 35.7729 40.2106 35.9375 40.625 35.9375H72.8281C74.334 37.5371 75.4121 38.5625 75.4883 38.6348C75.7785 38.9095 76.1629 39.0626 76.5625 39.0626C76.9621 39.0626 77.3465 38.9095 77.6367 38.6348C77.7129 38.5625 78.791 37.5371 80.2969 35.9375H95.3125V39.0625ZM95.3125 32.8125H83.0957C83.4023 32.4531 83.7129 32.082 84.0215 31.7031C84.584 31.013 85.1107 30.3411 85.6016 29.6875H95.3125V32.8125Z" fill="#033550"/>
</svg>
