<svg width="100" height="100" viewBox="0 0 100 100" fill="none" xmlns="http://www.w3.org/2000/svg">
<path d="M75 64.3313V60.9375C75 60.5231 74.8354 60.1257 74.5424 59.8326C74.2493 59.5396 73.8519 59.375 73.4375 59.375C73.0231 59.375 72.6257 59.5396 72.3327 59.8326C72.0396 60.1257 71.875 60.5231 71.875 60.9375V64.3313C70.8325 64.6998 69.9538 65.4251 69.3943 66.3789C68.8348 67.3326 68.6305 68.4535 68.8175 69.5433C69.0045 70.6332 69.5707 71.6218 70.4162 72.3345C71.2616 73.0473 72.3317 73.4382 73.4375 73.4382C74.5433 73.4382 75.6134 73.0473 76.4588 72.3345C77.3043 71.6218 77.8705 70.6332 78.0575 69.5433C78.2445 68.4535 78.0402 67.3326 77.4807 66.3789C76.9212 65.4251 76.0425 64.6998 75 64.3313ZM73.4375 70.3125C73.1285 70.3125 72.8264 70.2209 72.5694 70.0492C72.3125 69.8775 72.1122 69.6335 71.9939 69.3479C71.8757 69.0624 71.8447 68.7483 71.905 68.4452C71.9653 68.1421 72.1141 67.8637 72.3327 67.6451C72.5512 67.4266 72.8296 67.2778 73.1327 67.2175C73.4358 67.1572 73.7499 67.1882 74.0354 67.3064C74.321 67.4247 74.565 67.625 74.7367 67.8819C74.9084 68.1389 75 68.441 75 68.75C74.9995 69.1643 74.8348 69.5614 74.5419 69.8543C74.2489 70.1473 73.8518 70.312 73.4375 70.3125Z" fill="white"/>
<path d="M73.4375 50C69.7291 50 66.104 51.0997 63.0206 53.1599C59.9371 55.2202 57.5339 58.1486 56.1148 61.5747C54.6956 65.0008 54.3243 68.7708 55.0478 72.4079C55.7713 76.0451 57.557 79.386 60.1793 82.0082C62.8015 84.6305 66.1424 86.4162 69.7796 87.1397C73.4167 87.8632 77.1867 87.4919 80.6128 86.0727C84.0389 84.6536 86.9673 82.2504 89.0276 79.1669C91.0878 76.0835 92.1875 72.4584 92.1875 68.75C92.1819 63.7789 90.2047 59.013 86.6896 55.4979C83.1745 51.9828 78.4086 50.0056 73.4375 50ZM73.4375 84.375C70.3472 84.375 67.3262 83.4586 64.7567 81.7417C62.1872 80.0248 60.1845 77.5845 59.0019 74.7294C57.8193 71.8743 57.5098 68.7327 58.1127 65.7017C58.7156 62.6708 60.2038 59.8867 62.389 57.7015C64.5742 55.5163 67.3583 54.0281 70.3892 53.4252C73.4202 52.8223 76.5618 53.1318 79.4169 54.3144C82.272 55.497 84.7123 57.4997 86.4292 60.0692C88.1461 62.6387 89.0625 65.6597 89.0625 68.75C89.0578 72.8926 87.4101 76.8641 84.4808 79.7933C81.5516 82.7226 77.5801 84.3703 73.4375 84.375Z" fill="#FFB900"/>
<path d="M91.0391 51.0137L93.75 48.3027L94.9883 49.543C95.1334 49.6881 95.3058 49.8033 95.4955 49.8819C95.6851 49.9604 95.8884 50.0009 96.0937 50.0009C96.299 50.0009 96.5023 49.9604 96.692 49.8819C96.8817 49.8033 97.054 49.6881 97.1992 49.543C97.3444 49.3978 97.4595 49.2255 97.5381 49.0358C97.6167 48.8461 97.6571 48.6428 97.6571 48.4375C97.6571 48.2322 97.6167 48.0289 97.5381 47.8392C97.4595 47.6496 97.3444 47.4772 97.1992 47.332L92.5117 42.6445C92.2185 42.3513 91.8209 42.1866 91.4062 42.1866C90.9916 42.1866 90.594 42.3513 90.3008 42.6445C90.0076 42.9377 89.8429 43.3354 89.8429 43.75C89.8429 44.1646 90.0076 44.5623 90.3008 44.8555L91.541 46.0938L88.6836 48.9512C84.741 45.9016 79.973 44.1072 74.998 43.8008C74.998 43.7832 75 43.7676 75 43.75V42.1875H78.125C78.5394 42.1875 78.9368 42.0229 79.2299 41.7299C79.5229 41.4368 79.6875 41.0394 79.6875 40.625V35.9375C79.6875 35.5231 79.5229 35.1257 79.2299 34.8326C78.9368 34.5396 78.5394 34.375 78.125 34.375H68.75C68.3356 34.375 67.9382 34.5396 67.6451 34.8326C67.3521 35.1257 67.1875 35.5231 67.1875 35.9375V40.625C67.1875 41.0394 67.3521 41.4368 67.6451 41.7299C67.9382 42.0229 68.3356 42.1875 68.75 42.1875H71.875V43.75C71.875 43.7676 71.877 43.7832 71.877 43.8008C69.1931 43.9653 66.5539 44.5649 64.0625 45.5762V7.8125C64.0625 7.3981 63.8979 7.00067 63.6049 6.70765C63.3118 6.41462 62.9144 6.25 62.5 6.25H3.125C2.7106 6.25 2.31317 6.41462 2.02015 6.70765C1.72712 7.00067 1.5625 7.3981 1.5625 7.8125V64.0625C1.5625 64.4769 1.72712 64.8743 2.02015 65.1674C2.31317 65.4604 2.7106 65.625 3.125 65.625H48.6328C48.0986 69.8407 48.6478 74.123 50.2284 78.0675C51.809 82.0121 54.369 85.4886 57.6665 88.1689C60.964 90.8492 64.8903 92.6448 69.0745 93.3861C73.2588 94.1274 77.563 93.79 81.5806 92.4057C85.5982 91.0214 89.1967 88.6359 92.0363 85.4745C94.8758 82.3131 96.8627 78.4801 97.8093 74.3374C98.756 70.1948 98.6311 65.8792 97.4465 61.7983C96.2619 57.7173 94.0567 54.0056 91.0391 51.0137ZM70.3125 39.0625V37.5H76.5625V39.0625H70.3125ZM23.4375 9.375H42.1875V39.4941L33.5879 34.5801C33.3516 34.4457 33.0844 34.375 32.8125 34.375C32.5406 34.375 32.2734 34.4457 32.0371 34.5801L23.4375 39.4941V9.375ZM48.9062 62.5H4.6875V9.375H20.3125V42.1875C20.3123 42.4613 20.3841 42.7303 20.5207 42.9676C20.6572 43.2049 20.8537 43.4022 21.0904 43.5396C21.3272 43.6771 21.5959 43.75 21.8697 43.7509C22.1435 43.7518 22.4127 43.6808 22.6504 43.5449L32.8125 37.7363L42.9746 43.5449C43.2123 43.6808 43.4815 43.7518 43.7553 43.7509C44.0291 43.75 44.2978 43.6771 44.5346 43.5396C44.7713 43.4022 44.9678 43.2049 45.1043 42.9676C45.2409 42.7303 45.3127 42.4613 45.3125 42.1875V9.375H60.9375V47.1055C58.0601 48.7724 55.5426 50.9945 53.5312 53.6426C51.5198 56.2907 50.0546 59.3121 49.2207 62.5313C49.1171 62.5109 49.0118 62.5004 48.9062 62.5ZM73.4375 90.625C69.111 90.625 64.8817 89.3421 61.2844 86.9384C57.6871 84.5348 54.8833 81.1183 53.2276 77.1212C51.572 73.1241 51.1388 68.7257 51.9828 64.4824C52.8269 60.2391 54.9103 56.3413 57.9695 53.282C61.0288 50.2228 64.9266 48.1394 69.1699 47.2953C73.4132 46.4513 77.8116 46.8845 81.8087 48.5401C85.8058 50.1958 89.2222 52.9996 91.6259 56.5969C94.0295 60.1942 95.3125 64.4235 95.3125 68.75C95.3061 74.5497 92.9994 80.11 88.8984 84.2109C84.7975 88.3119 79.2372 90.6186 73.4375 90.625Z" fill="white"/>
</svg>
