<svg width="60" height="60" viewBox="0 0 60 60" fill="none" xmlns="http://www.w3.org/2000/svg">
<path d="M58.281 29.3055C57.326 29.3055 56.562 30.0695 56.562 31.0245V46.6611C56.562 50.9141 53.0985 54.3649 48.8582 54.3649H11.1418C6.88879 54.3649 3.43803 50.9014 3.43803 46.6611V30.7698C3.43803 29.8148 2.67402 29.0508 1.71902 29.0508C0.764007 29.0508 0 29.8148 0 30.7698V46.6611C0 52.8114 5.00424 57.8029 11.1418 57.8029H48.8582C55.0085 57.8029 60 52.7987 60 46.6611V31.0245C60 30.0822 59.236 29.3055 58.281 29.3055Z" fill="white"/>
<path d="M28.7899 44.153C29.121 44.4841 29.5666 44.6623 29.9996 44.6623C30.4325 44.6623 30.8782 44.4968 31.2093 44.153L42.1346 33.2277C42.8094 32.5528 42.8094 31.4705 42.1346 30.7956C41.4597 30.1207 40.3773 30.1207 39.7025 30.7956L31.7186 38.7922V3.9153C31.7186 2.9603 30.9546 2.19629 29.9996 2.19629C29.0446 2.19629 28.2806 2.9603 28.2806 3.9153V38.7922L20.2839 30.7956C19.6091 30.1207 18.5267 30.1207 17.8519 30.7956C17.177 31.4705 17.177 32.5528 17.8519 33.2277L28.7899 44.153Z" fill="#FFB900"/>
</svg>
