<svg width="100" height="100" viewBox="0 0 100 100" fill="none" xmlns="http://www.w3.org/2000/svg">
<path d="M96.875 21.8748H68.6836C68.2923 17.1888 66.1543 12.8209 62.6936 9.63724C59.233 6.45355 54.7023 4.68652 50 4.68652C45.2977 4.68652 40.767 6.45355 37.3063 9.63724C33.8457 12.8209 31.7077 17.1888 31.3164 21.8748H25C24.5856 21.8748 24.1882 22.0395 23.8951 22.3325C23.6021 22.6255 23.4375 23.0229 23.4375 23.4373V49.3084L18.1035 54.6873H3.125C2.7106 54.6873 2.31317 54.852 2.02015 55.145C1.72712 55.438 1.5625 55.8354 1.5625 56.2498V82.8123C1.5625 83.2267 1.72712 83.6242 2.02015 83.9172C2.31317 84.2102 2.7106 84.3748 3.125 84.3748H18.1035L20.7695 87.0428C21.0629 87.3356 21.4605 87.5 21.875 87.4998H23.4375V95.3123C23.4375 95.7267 23.6021 96.1242 23.8951 96.4172C24.1882 96.7102 24.5856 96.8748 25 96.8748H96.875C97.2894 96.8748 97.6868 96.7102 97.9799 96.4172C98.2729 96.1242 98.4375 95.7267 98.4375 95.3123V23.4373C98.4375 23.0229 98.2729 22.6255 97.9799 22.3325C97.6868 22.0395 97.2894 21.8748 96.875 21.8748ZM70.3125 24.9998V51.994L61.7129 47.0799C61.4766 46.9455 61.2094 46.8748 60.9375 46.8748C60.6656 46.8748 60.3984 46.9455 60.1621 47.0799L51.5625 51.994V42.1209C55.9777 41.746 60.118 39.8218 63.2512 36.6886C66.3845 33.5553 68.3087 29.415 68.6836 24.9998H70.3125ZM50 7.81235C53.0903 7.81235 56.1113 8.72874 58.6808 10.4456C61.2503 12.1625 63.253 14.6028 64.4356 17.4579C65.6182 20.313 65.9277 23.4547 65.3248 26.4856C64.7219 29.5166 63.2337 32.3007 61.0485 34.4859C58.8633 36.6711 56.0792 38.1592 53.0483 38.7621C50.0173 39.365 46.8757 39.0556 44.0206 37.873C41.1655 36.6903 38.7252 34.6876 37.0083 32.1181C35.2914 29.5486 34.375 26.5277 34.375 23.4373C34.3798 19.2948 36.0276 15.3233 38.9568 12.3941C41.886 9.4649 45.8575 7.81716 50 7.81235ZM4.6875 57.8123H18.75C19.1645 57.8125 19.5621 57.6481 19.8555 57.3553L23.4375 53.7635V57.1209L18.1035 62.4998H4.6875V57.8123ZM22.5215 84.3748L19.8555 81.7069C19.5621 81.4141 19.1645 81.2497 18.75 81.2498H4.6875V65.6248H18.75C19.1645 65.625 19.5621 65.4606 19.8555 65.1678L30.2734 54.6268C30.5664 54.334 30.9637 54.1695 31.3779 54.1695C31.7922 54.1695 32.1894 54.334 32.4824 54.6268C32.6277 54.7714 32.7431 54.9433 32.8218 55.1326C32.9006 55.3219 32.9412 55.5249 32.9414 55.7299C32.9416 55.9349 32.9013 56.138 32.8229 56.3274C32.7445 56.5168 32.6294 56.6889 32.4844 56.8338C32.4746 56.8456 32.4648 56.8553 32.4551 56.8651L29.6133 59.8612C29.4028 60.0828 29.2619 60.3612 29.208 60.662C29.1542 60.9629 29.1897 61.2729 29.3103 61.5537C29.4309 61.8346 29.6312 62.0739 29.8864 62.2421C30.1416 62.4102 30.4405 62.4998 30.7461 62.4998H48.4375C48.8519 62.4998 49.2493 62.6645 49.5424 62.9575C49.8354 63.2505 50 63.6479 50 64.0623C50 64.4767 49.8354 64.8742 49.5424 65.1672C49.2493 65.4602 48.8519 65.6248 48.4375 65.6248H35.9375C35.5231 65.6248 35.1257 65.7895 34.8326 66.0825C34.5396 66.3755 34.375 66.7729 34.375 67.1873C34.375 67.6017 34.5396 67.9992 34.8326 68.2922C35.1257 68.5852 35.5231 68.7498 35.9375 68.7498H54.6875C54.8928 68.7496 55.0961 68.7898 55.2858 68.8682C55.4755 68.9466 55.6478 69.0617 55.793 69.2069C55.9381 69.352 56.0532 69.5244 56.1316 69.7141C56.2101 69.9038 56.2503 70.1071 56.25 70.3123C56.2494 70.7266 56.0846 71.1237 55.7917 71.4166C55.4988 71.7095 55.1017 71.8743 54.6875 71.8748H35.9375C35.5231 71.8748 35.1257 72.0395 34.8326 72.3325C34.5396 72.6255 34.375 73.0229 34.375 73.4373C34.375 73.8517 34.5396 74.2492 34.8326 74.5422C35.1257 74.8352 35.5231 74.9998 35.9375 74.9998H48.4375C48.8519 74.9998 49.2493 75.1645 49.5424 75.4575C49.8354 75.7505 50 76.1479 50 76.5623C50 76.9767 49.8354 77.3742 49.5424 77.6672C49.2493 77.9602 48.8519 78.1248 48.4375 78.1248H35.9375C35.5231 78.1248 35.1257 78.2895 34.8326 78.5825C34.5396 78.8755 34.375 79.2729 34.375 79.6873C34.375 80.1017 34.5396 80.4992 34.8326 80.7922C35.1257 81.0852 35.5231 81.2498 35.9375 81.2498H45.3125C45.7269 81.2498 46.1243 81.4145 46.4174 81.7075C46.7104 82.0005 46.875 82.3979 46.875 82.8123C46.875 83.2267 46.7104 83.6242 46.4174 83.9172C46.1243 84.2102 45.7269 84.3748 45.3125 84.3748H22.5215ZM95.3125 93.7498H26.5625V87.4998H45.3125C46.0773 87.5 46.8305 87.3131 47.5064 86.9552C48.1823 86.5974 48.7604 86.0796 49.1901 85.447C49.6199 84.8144 49.8883 84.0862 49.9719 83.326C50.0556 82.5658 49.9519 81.7967 49.6699 81.0858C50.2919 80.916 50.8722 80.6199 51.3745 80.2158C51.8769 79.8118 52.2906 79.3084 52.5897 78.7373C52.8888 78.1662 53.067 77.5395 53.113 76.8965C53.1591 76.2534 53.0721 75.6078 52.8574 74.9998H54.6875C55.9307 74.9998 57.123 74.506 58.0021 73.6269C58.8811 72.7478 59.375 71.5555 59.375 70.3123C59.375 69.0691 58.8811 67.8769 58.0021 66.9978C57.123 66.1187 55.9307 65.6248 54.6875 65.6248H52.8574C53.1071 64.9178 53.1836 64.1611 53.0804 63.4184C52.9773 62.6757 52.6975 61.9685 52.2645 61.3563C51.8315 60.7441 51.258 60.2446 50.5921 59.8998C49.9262 59.5551 49.1874 59.375 48.4375 59.3748H34.3809L34.707 59.0311C35.5723 58.1468 36.0529 56.9562 36.044 55.719C36.0351 54.4818 35.5374 53.2983 34.6595 52.4265C33.7815 51.5547 32.5945 51.0654 31.3573 51.0653C30.12 51.0651 28.9329 51.5541 28.0547 52.4256L26.5625 53.9432V24.9998H31.3164C31.6913 29.415 33.6155 33.5553 36.7488 36.6886C39.882 39.8218 44.0223 41.746 48.4375 42.1209V54.6873C48.4373 54.9611 48.5091 55.2301 48.6457 55.4674C48.7822 55.7048 48.9787 55.902 49.2154 56.0395C49.4522 56.177 49.7209 56.2498 49.9947 56.2507C50.2685 56.2517 50.5377 56.1806 50.7754 56.0448L60.9375 50.2362L71.0996 56.0448C71.3373 56.1806 71.6065 56.2517 71.8803 56.2507C72.1541 56.2498 72.4228 56.177 72.6596 56.0395C72.8963 55.902 73.0928 55.7048 73.2293 55.4674C73.3659 55.2301 73.4377 54.9611 73.4375 54.6873V24.9998H95.3125V93.7498Z" fill="white"/>
<path d="M70.3125 76.5625C69.8981 76.5625 69.5007 76.7271 69.2076 77.0201C68.9146 77.3132 68.75 77.7106 68.75 78.125V89.0625C68.75 89.4769 68.9146 89.8743 69.2076 90.1674C69.5007 90.4604 69.8981 90.625 70.3125 90.625H90.625C91.0394 90.625 91.4368 90.4604 91.7299 90.1674C92.0229 89.8743 92.1875 89.4769 92.1875 89.0625V78.125C92.1875 77.7106 92.0229 77.3132 91.7299 77.0201C91.4368 76.7271 91.0394 76.5625 90.625 76.5625H70.3125ZM89.0625 87.5H71.875V79.6875H89.0625V87.5Z" fill="white"/>
<path d="M41.25 26.2501L47.5 30.9376C47.8152 31.174 48.2082 31.2826 48.6001 31.2416C48.992 31.2006 49.354 31.013 49.6135 30.7165L60.551 18.2165C60.8239 17.9046 60.9617 17.4971 60.9341 17.0836C60.9065 16.6701 60.7158 16.2845 60.4039 16.0116C60.092 15.7387 59.6845 15.6009 59.271 15.6285C58.8575 15.656 58.4719 15.8468 58.199 16.1586L48.2158 27.568L43.125 23.7501C42.9608 23.6269 42.7741 23.5374 42.5753 23.4864C42.3765 23.4355 42.1697 23.4242 41.9665 23.4533C41.7634 23.4823 41.568 23.551 41.3914 23.6556C41.2149 23.7601 41.0606 23.8984 40.9375 24.0626C40.8144 24.2267 40.7248 24.4135 40.6739 24.6123C40.623 24.811 40.6117 25.0179 40.6407 25.221C40.6697 25.4242 40.7385 25.6196 40.843 25.7961C40.9476 25.9727 41.0858 26.1269 41.25 26.2501Z" fill="#FFB900"/>
</svg>
