<svg width="100" height="100" viewBox="0 0 100 100" fill="none" xmlns="http://www.w3.org/2000/svg">
<path d="M42.2856 8.20312L35.4302 15.0391H27.4028C22.9888 15.0391 19.2192 15.0977 19.0435 15.1562C18.2036 15.4883 18.1646 15.9766 18.1646 24.2773V32.168L13.4771 36.7969C9.76611 40.4688 8.78955 41.543 8.69189 42.0508C8.6333 42.3828 8.61377 55.0977 8.6333 70.2734L8.69189 97.8906L9.16064 98.2617C9.60986 98.6328 10.5278 98.6328 50.0005 98.6328C89.4731 98.6328 90.3911 98.6328 90.8403 98.2617L91.3091 97.8906L91.3677 70.2734C91.3872 55.0977 91.3677 42.3828 91.3091 42.0508C91.2114 41.543 90.2349 40.4688 86.5239 36.7969L81.8364 32.168V24.2773C81.8364 15.9766 81.7974 15.4883 80.9575 15.1562C80.7817 15.0977 77.0122 15.0391 72.5981 15.0391H64.5708L57.7153 8.20312L50.8599 1.36719H50.0005H49.1411L42.2856 8.20312ZM54.981 10.1562L59.8638 15.0391H50.0005H40.1372L45.02 10.1562C47.6958 7.46094 49.9419 5.27344 50.0005 5.27344C50.0591 5.27344 52.3052 7.46094 54.981 10.1562ZM78.4966 34.6094V51.0742L64.356 65.0391C56.5825 72.7148 50.1177 79.0039 50.0005 79.0039C49.8833 79.0039 43.4185 72.7148 35.645 65.0391L21.5044 51.0742V34.6094L21.4849 18.1641H50.0005H78.5161L78.4966 34.6094ZM18.1646 42.3242V47.7539L15.3911 44.9609L12.5981 42.168L15.3325 39.5508C16.8364 38.1055 18.0864 36.9336 18.1255 36.9141C18.145 36.9141 18.1646 39.3555 18.1646 42.3242ZM87.3052 42.168C87.3052 42.2461 86.0747 43.5156 84.5708 45.0195L81.8364 47.7539V42.3047V36.875L84.5708 39.4727C86.0747 40.8984 87.3052 42.1094 87.3052 42.168ZM31.1138 65.1953L36.3677 70.4492L24.5708 81.4648C18.0864 87.5195 12.5786 92.6562 12.3442 92.8516L11.9146 93.2227V69.7266V46.25L18.9067 53.0859C22.7349 56.8555 28.2427 62.3047 31.1138 65.1953ZM88.0474 81.4648L87.9888 93.2227L75.8013 81.8164L63.6138 70.4102L75.8013 58.3398L87.9888 46.2695L88.0474 58.0078C88.0669 64.4531 88.0669 75.0195 88.0474 81.4648ZM50.0005 83.1055C50.7622 83.1055 50.8989 82.9687 56.0161 77.8906L61.231 72.6953L73.3794 84.043L85.5083 95.4102L67.7544 95.4687C57.9888 95.4883 42.0122 95.4883 32.2466 95.4687L14.4927 95.4102L26.6216 84.043L38.77 72.6953L43.9849 77.8906C49.102 82.9687 49.2388 83.1055 50.0005 83.1055Z" fill="white"/>
<path d="M27.4218 24.6484C26.7382 24.9609 26.3866 26.0547 26.6796 26.8554C27.0311 27.7539 26.5038 27.7343 49.9999 27.7343C72.7928 27.7343 72.5975 27.7343 73.1835 26.9726C73.7108 26.3086 73.3397 25 72.5194 24.6289C71.8749 24.3359 28.0272 24.3554 27.4218 24.6484Z" fill="#FFB900"/>
<path d="M27.0506 33.6914C26.4451 34.2773 26.4256 35.1172 26.9725 35.8203L27.3631 36.3281H49.9998H72.6365L73.0272 35.8203C73.574 35.1172 73.5545 34.2773 72.949 33.6914L72.4803 33.2031H49.9998H27.5193L27.0506 33.6914Z" fill="#FFB900"/>
<path d="M26.9725 42.5C26.4256 43.2031 26.4451 44.043 27.0506 44.6289L27.5193 45.1172H49.9998H72.4803L72.949 44.6289C73.5545 44.043 73.574 43.2031 73.0272 42.5L72.6365 41.9922H49.9998H27.3631L26.9725 42.5Z" fill="#FFB900"/>
</svg>
