<svg width="175" height="56" xmlns="http://www.w3.org/2000/svg" xmlns:xlink="http://www.w3.org/1999/xlink"><defs><linearGradient x1="0%" y1="0%" x2="102%" y2="101%" id="b"><stop stop-color="#25D3FD" offset="0%"/><stop stop-color="#4038C9" offset="100%"/></linearGradient><circle id="a" cx="28" cy="28" r="28"/><path d="M51.065 19.312c-2.993 0-5.991 1.819-8.046 3.875V7.938a24.674 24.674 0 0 1 8.393 11.4c-.116-.005-.228-.023-.347-.023v-.003zm-25.411 6.22v17.607c-1.583 1.7-3.837 3.641-6.242 3.641-5.87 0-7.334-7.866-7.334-12.444 0-4.4 1.582-12.5 7.334-12.5 2.405 0 4.927 1.993 6.51 3.7h-.268v-.004zm7.383-18.547v1.7c4.166.294 4.738.059 4.738 5.168v35.1h.616l4.051-3.99a18.6 18.6 0 0 0 1.95 1.884c-8.76 7.671-21.671 8.237-31.069 1.361a9.71 9.71 0 0 0 4.562 1.1c3.051 0 5.6-1.819 7.769-3.991v3.614h9.286v-1.97c-3.989-.469-3.989-.821-3.989-6.338V3.642L20.937 6.985v1.7c4.165.294 4.718.059 4.718 5.168v9.272c-2.406-2.054-4.835-3.815-8.18-3.815-4.165 0-10.971 3.7-10.971 15.142a18.534 18.534 0 0 0 3.015 10.336C1.557 36.049.816 22.923 7.745 13.345 14.674 3.765 27.372.36 38.164 5.188l-5.127 1.797zm9.975 18.605c1.467-1.584 3.3-3.167 5.589-3.167a6.412 6.412 0 0 1 4.005 1.362 24.648 24.648 0 0 1-6.687 21.622 19.925 19.925 0 0 1-2.907-2.15V25.59z" id="c"/></defs><g fill="none" fill-rule="evenodd"><use fill="#1173B9" xlink:href="#a"/><use fill="url(#b)" xlink:href="#a"/><circle fill="#FFF" fill-rule="nonzero" cx="28" cy="28" r="26"/><use fill="#1173B9" xlink:href="#c"/><use fill="url(#b)" xlink:href="#c"/><path d="M72.639 19.371a4.725 4.725 0 0 1-.635 2.6c-.53.54-1.28.805-2.031.717a2.262 2.262 0 0 1-2.114-1.028 8.055 8.055 0 0 1-.616-3.783v-3.495a7.323 7.323 0 0 1 .66-3.447 2.264 2.264 0 0 1 2.12-1.047 2.379 2.379 0 0 1 2.025.743 4.98 4.98 0 0 1 .6 2.7H76.4a7.679 7.679 0 0 0-1.784-4.85 5.959 5.959 0 0 0-4.593-1.691 5.917 5.917 0 0 0-4.8 2.063 8.907 8.907 0 0 0-1.723 5.871v3.11a9.142 9.142 0 0 0 1.67 5.884 5.822 5.822 0 0 0 4.805 2.063 6.277 6.277 0 0 0 4.621-1.625 6.913 6.913 0 0 0 1.777-4.786h-3.734v.001zM89.623 7.044h-12.81v3.11h4.494v15.374h3.745V10.154h4.57v-3.11h.001zm4.58 0h-4l5.281 13.241-.178.673a2.893 2.893 0 0 1-.628 1.422 1.584 1.584 0 0 1-1.073.317 3.525 3.525 0 0 1-.825-.051l.063 3.1.889.051h.408a3.8 3.8 0 0 0 2.393-.863 7.5 7.5 0 0 0 1.86-3.034l5.066-14.854h-4.013l-2.488 8.214-2.755-8.216zM118.88 22.43h-1.917V7.044h-10.626l-.52 8.62a22.325 22.325 0 0 1-.661 4.355 5.117 5.117 0 0 1-1.282 2.412h-1.231l.2 7.63h3.529v-4.533h8.747v4.545h3.428l.333-7.643zm-9.293-7.185l.3-5.091h3.351V22.43h-5.357a18.219 18.219 0 0 0 1.7-7.185h.006zm14.166 4.05V7.044h-3.746v18.484h3.746L129.2 13.29v12.238h3.732V7.044H129.2l-5.447 12.251zm22.138 6.233V7.044h-5.548a6.052 6.052 0 0 0-4.374 1.485 5.6 5.6 0 0 0-1.542 4.228 5.423 5.423 0 0 0 2.285 4.773l-3.275 8h4.024l2.729-6.652h1.956v6.652h3.745v-.002zm-5.6-15.374h1.854v5.815h-1.727a2.034 2.034 0 0 1-1.7-.692 3.612 3.612 0 0 1-.546-2.228c0-1.93.707-2.895 2.12-2.895h-.001zM74.2 31.359H63.828v18.484h6.157a5.948 5.948 0 0 0 4.3-1.695 5.85 5.85 0 0 0 1.625-4.3 5.624 5.624 0 0 0-1.663-4.259A6.191 6.191 0 0 0 69.782 38h-2.209v-3.531H74.2v-3.11zM69.858 41.1a2.116 2.116 0 0 1 1.707.768c.43.561.647 1.255.616 1.961.032.75-.19 1.49-.628 2.1a2.05 2.05 0 0 1-1.72.819h-2.26V41.1h2.285zm20.542-2a8.964 8.964 0 0 0-1.8-5.9 6.68 6.68 0 0 0-9.763.038 9.088 9.088 0 0 0-1.765 5.948v3.161a8.5 8.5 0 0 0 1.8 5.707 6.147 6.147 0 0 0 4.885 2.046 6.078 6.078 0 0 0 4.881-2.057 8.622 8.622 0 0 0 1.762-5.779V39.1zm-3.745 3.275a6.743 6.743 0 0 1-.724 3.485 2.392 2.392 0 0 1-2.171 1.124 2.454 2.454 0 0 1-2.234-1.149 6.872 6.872 0 0 1-.724-3.574v-3.285a7.212 7.212 0 0 1 .736-3.574 2.626 2.626 0 0 1 4.405.044c.547 1.16.792 2.44.711 3.72v3.212l.001-.003zm11.995.965a6.124 6.124 0 0 0 4.469-1.574 5.72 5.72 0 0 0 1.612-4.291 6.121 6.121 0 0 0-1.631-4.415 5.777 5.777 0 0 0-4.374-1.7h-6.3v18.483h3.732v-6.5h2.488l.004-.003zm-2.488-8.874h2.6a1.913 1.913 0 0 1 1.6.832c.429.65.64 1.422.6 2.2a3.094 3.094 0 0 1-.584 2.031 2.032 2.032 0 0 1-1.651.7h-2.569v-5.76l.004-.003zm23.42 4.634a8.968 8.968 0 0 0-1.8-5.9 6.68 6.68 0 0 0-9.763.038 9.085 9.085 0 0 0-1.765 5.948v3.161a8.5 8.5 0 0 0 1.8 5.707 6.147 6.147 0 0 0 4.888 2.038 6.077 6.077 0 0 0 4.881-2.057 8.623 8.623 0 0 0 1.758-5.776V39.1h.001zm-3.745 3.275a6.747 6.747 0 0 1-.723 3.485 2.394 2.394 0 0 1-2.171 1.124 2.455 2.455 0 0 1-2.235-1.149 6.878 6.878 0 0 1-.723-3.574v-3.285a7.213 7.213 0 0 1 .736-3.574 2.626 2.626 0 0 1 4.405.044 7.59 7.59 0 0 1 .711 3.72v3.212-.003zm11.893 7.465a6.082 6.082 0 0 0 4.285-1.371 5.272 5.272 0 0 0 1.479-4.062 4.9 4.9 0 0 0-.673-2.647 3.235 3.235 0 0 0-1.917-1.428 3.673 3.673 0 0 0 1.7-1.485 4.55 4.55 0 0 0 .622-2.425 4.7 4.7 0 0 0-1.5-3.777 6.591 6.591 0 0 0-4.4-1.289h-5.713v18.487h6.119l-.002-.003zm.241-8.036c1.2.043 1.8.893 1.8 2.552a2.676 2.676 0 0 1-.52 1.765c-.385.431-.947.66-1.524.622h-2.387v-4.936h2.628l.003-.003zm-2.628-7.338h1.981c.602-.057 1.2.141 1.65.546a2.6 2.6 0 0 1 .508 1.8 1.975 1.975 0 0 1-2.2 2.273h-1.943v-4.616l.004-.003zm23.214 4.634a8.963 8.963 0 0 0-1.8-5.9 6.68 6.68 0 0 0-9.763.038 9.09 9.09 0 0 0-1.764 5.948v3.161a8.49 8.49 0 0 0 1.8 5.707 6.147 6.147 0 0 0 4.888 2.038 6.077 6.077 0 0 0 4.881-2.057 8.623 8.623 0 0 0 1.759-5.776V39.1h-.001zm-3.745 3.275a6.746 6.746 0 0 1-.724 3.485 2.393 2.393 0 0 1-2.171 1.124 2.453 2.453 0 0 1-2.234-1.149 6.867 6.867 0 0 1-.724-3.574v-3.285a7.213 7.213 0 0 1 .741-3.576 2.626 2.626 0 0 1 4.406.044 7.6 7.6 0 0 1 .711 3.72v3.212l-.005-.001zM161 31.359h-10.377v18.484h3.733V34.469H161v-3.11zm13.805 7.741a8.962 8.962 0 0 0-1.8-5.9 6.68 6.68 0 0 0-9.763.038 9.09 9.09 0 0 0-1.765 5.948v3.161a8.5 8.5 0 0 0 1.8 5.707 6.147 6.147 0 0 0 4.888 2.038 6.077 6.077 0 0 0 4.881-2.057 8.623 8.623 0 0 0 1.758-5.776V39.1h.001zm-3.745 3.275a6.737 6.737 0 0 1-.723 3.485 2.393 2.393 0 0 1-2.171 1.124 2.456 2.456 0 0 1-2.235-1.149 6.878 6.878 0 0 1-.723-3.574v-3.285a7.213 7.213 0 0 1 .736-3.574 2.626 2.626 0 0 1 4.405.044 7.59 7.59 0 0 1 .711 3.72v3.212-.003z" fill="#000" fill-rule="nonzero"/></g></svg>