<svg width="97" height="31" xmlns="http://www.w3.org/2000/svg" xmlns:xlink="http://www.w3.org/1999/xlink"><defs><linearGradient x1="0%" y1="0%" x2="102%" y2="101%" id="b"><stop stop-color="#25D3FD" offset="0%"/><stop stop-color="#4038C9" offset="100%"/></linearGradient><ellipse id="a" cx="15.501" cy="15.501" rx="15.501" ry="15.501"/><path d="M28.27 10.691c-1.657 0-3.317 1.007-4.455 2.145V4.394a13.66 13.66 0 0 1 4.647 6.312c-.065-.003-.127-.013-.192-.013v-.002zm-14.068 3.444v9.747c-.876.94-2.124 2.015-3.456 2.015-3.25 0-4.06-4.354-4.06-6.889 0-2.435.876-6.92 4.06-6.92 1.332 0 2.728 1.104 3.604 2.049h-.148v-.002zM18.29 3.867v.941c2.307.163 2.623.033 2.623 2.861V27.1h.341l2.243-2.208c.334.373.695.722 1.08 1.042a13.768 13.768 0 0 1-17.2.754 5.384 5.384 0 0 0 2.525.609c1.69 0 3.1-1.007 4.301-2.21v2.001h5.14v-1.09c-2.208-.26-2.208-.455-2.208-3.51V2.017l-5.543 1.85v.942c2.305.163 2.612.033 2.612 2.861v5.133c-1.332-1.137-2.677-2.112-4.529-2.112-2.306 0-6.073 2.048-6.073 8.383a10.26 10.26 0 0 0 1.669 5.722A13.82 13.82 0 0 1 21.128 2.872l-2.839.995zm5.522 10.3c.813-.877 1.827-1.754 3.095-1.754a3.55 3.55 0 0 1 2.217.754 13.645 13.645 0 0 1-3.702 11.97 11.03 11.03 0 0 1-1.61-1.19v-9.78z" id="c"/></defs><g fill="none" fill-rule="evenodd"><use fill="#1173B9" xlink:href="#a"/><use fill="url(#b)" xlink:href="#a"/><ellipse fill="#FFF" fill-rule="nonzero" cx="15.501" cy="15.501" rx="14.394" ry="14.394"/><use fill="#1173B9" xlink:href="#c"/><use fill="url(#b)" xlink:href="#c"/><path d="M40.213 10.724a2.616 2.616 0 0 1-.352 1.44 1.355 1.355 0 0 1-1.124.396 1.252 1.252 0 0 1-1.17-.569 4.46 4.46 0 0 1-.341-2.094V7.962a4.054 4.054 0 0 1 .365-1.908 1.253 1.253 0 0 1 1.174-.58c.418-.05.834.103 1.12.411.25.457.366.975.333 1.495h2.077a4.251 4.251 0 0 0-.988-2.685 3.299 3.299 0 0 0-2.542-.936A3.276 3.276 0 0 0 36.107 4.9a4.93 4.93 0 0 0-.953 3.25v1.722a5.061 5.061 0 0 0 .924 3.257 3.223 3.223 0 0 0 2.66 1.142 3.475 3.475 0 0 0 2.558-.9 3.827 3.827 0 0 0 .984-2.649h-2.067zM49.615 3.9h-7.091v1.72h2.488v8.511h2.073v-8.51h2.53V3.9zm2.536 0h-2.215l2.924 7.33-.099.372c-.041.29-.162.562-.347.788a.877.877 0 0 1-.594.175c-.153.009-.306 0-.457-.028l.035 1.716.492.028h.226a2.104 2.104 0 0 0 1.325-.478 4.152 4.152 0 0 0 1.03-1.68l2.804-8.222h-2.222l-1.377 4.547L52.15 3.9zm13.661 8.517h-1.061V3.9h-5.883l-.288 4.772a12.36 12.36 0 0 1-.366 2.41 2.833 2.833 0 0 1-.71 1.336h-.68l.11 4.224h1.954v-2.51h4.842v2.516h1.898l.184-4.23zM60.667 8.44l.166-2.819h1.856v6.796h-2.966a10.08 10.08 0 0 0 .941-3.977h.003zm7.843 2.242V3.9h-2.074v10.232h2.074l3.015-6.775v6.775h2.066V3.9h-2.066l-3.015 6.782zm12.255 3.45V3.9h-3.071a3.35 3.35 0 0 0-2.422.822 3.1 3.1 0 0 0-.853 2.34 3.002 3.002 0 0 0 1.265 2.643l-1.813 4.428h2.227l1.511-3.682h1.083v3.682h2.073zm-3.1-8.51h1.026V8.84h-.956a1.126 1.126 0 0 1-.94-.383 2 2 0 0 1-.303-1.233c0-1.069.391-1.603 1.174-1.603zM41.077 17.36h-5.742v10.233h3.409a3.293 3.293 0 0 0 2.38-.938 3.239 3.239 0 0 0 .9-2.38 3.113 3.113 0 0 0-.92-2.359 3.427 3.427 0 0 0-2.473-.88h-1.223v-1.954h3.67V17.36zm-2.404 5.393a1.17 1.17 0 0 1 .945.425c.238.31.359.695.341 1.086a1.85 1.85 0 0 1-.347 1.162c-.224.299-.58.468-.952.454h-1.252v-3.127h1.265zm11.372-1.107a4.962 4.962 0 0 0-.996-3.266 3.698 3.698 0 0 0-5.405.02 5.031 5.031 0 0 0-.977 3.293v1.75a4.706 4.706 0 0 0 .997 3.16 3.403 3.403 0 0 0 2.704 1.132 3.365 3.365 0 0 0 2.702-1.138c.7-.914 1.047-2.05.975-3.2v-1.751zm-2.073 1.813a3.733 3.733 0 0 1-.4 1.93c-.257.411-.718.65-1.202.621a1.359 1.359 0 0 1-1.237-.636 3.804 3.804 0 0 1-.401-1.978v-1.819a3.993 3.993 0 0 1 .407-1.978 1.454 1.454 0 0 1 2.439.024c.303.642.439 1.35.394 2.06v1.777-.001zm6.64.534a3.39 3.39 0 0 0 2.475-.871 3.168 3.168 0 0 0 .892-2.376 3.389 3.389 0 0 0-.903-2.444 3.198 3.198 0 0 0-2.421-.941h-3.488v10.232h2.066v-3.598h1.377l.003-.002zm-1.377-4.913h1.44c.353-.004.686.17.885.461.238.36.354.787.333 1.218.027.401-.087.799-.324 1.124a1.125 1.125 0 0 1-.914.388h-1.422v-3.189l.002-.002zm12.966 2.566a4.965 4.965 0 0 0-.997-3.266 3.698 3.698 0 0 0-5.405.02 5.03 5.03 0 0 0-.977 3.293v1.75a4.706 4.706 0 0 0 .997 3.16 3.403 3.403 0 0 0 2.706 1.128 3.364 3.364 0 0 0 2.702-1.139 4.773 4.773 0 0 0 .973-3.197v-1.75zm-2.074 1.813a3.735 3.735 0 0 1-.4 1.93c-.256.41-.717.65-1.202.621a1.36 1.36 0 0 1-1.237-.636 3.808 3.808 0 0 1-.4-1.978v-1.819a3.993 3.993 0 0 1 .407-1.978 1.454 1.454 0 0 1 2.439.024c.303.642.438 1.35.393 2.06v1.777-.001zm6.584 4.132a3.367 3.367 0 0 0 2.373-.759c.581-.598.88-1.416.818-2.248a2.713 2.713 0 0 0-.372-1.466 1.79 1.79 0 0 0-1.062-.79c.393-.169.722-.456.942-.822.238-.407.357-.872.344-1.343a2.602 2.602 0 0 0-.83-2.09 3.649 3.649 0 0 0-2.436-.714h-3.163v10.234h3.387v-.002zm.134-4.448c.664.023.996.494.996 1.412.023.35-.08.696-.288.978a1.039 1.039 0 0 1-.843.344h-1.322v-2.733h1.455l.002-.001zM69.39 19.08h1.097c.333-.03.664.079.913.303.214.285.314.64.281.996a1.093 1.093 0 0 1-1.218 1.258h-1.075v-2.555l.002-.002zm12.851 2.566a4.962 4.962 0 0 0-.996-3.266 3.698 3.698 0 0 0-5.405.02 5.032 5.032 0 0 0-.977 3.293v1.75a4.7 4.7 0 0 0 .997 3.16 3.403 3.403 0 0 0 2.706 1.128 3.364 3.364 0 0 0 2.702-1.139 4.772 4.772 0 0 0 .974-3.197v-1.75zm-2.073 1.813a3.735 3.735 0 0 1-.4 1.93c-.257.41-.718.65-1.203.621a1.358 1.358 0 0 1-1.236-.636 3.802 3.802 0 0 1-.401-1.978v-1.819a3.993 3.993 0 0 1 .41-1.98 1.454 1.454 0 0 1 2.44.025c.302.642.437 1.35.393 2.06v1.777h-.003zm8.962-6.099h-5.745v10.233h2.066v-8.511h3.679V17.36zm7.642 4.286a4.961 4.961 0 0 0-.996-3.266 3.698 3.698 0 0 0-5.405.02 5.032 5.032 0 0 0-.977 3.293v1.75a4.706 4.706 0 0 0 .996 3.16 3.403 3.403 0 0 0 2.706 1.128 3.364 3.364 0 0 0 2.702-1.139c.7-.914 1.045-2.05.973-3.197v-1.75h.001zm-2.073 1.813a3.73 3.73 0 0 1-.4 1.93c-.257.41-.718.65-1.202.621a1.36 1.36 0 0 1-1.238-.636 3.808 3.808 0 0 1-.4-1.978v-1.819a3.993 3.993 0 0 1 .408-1.978 1.454 1.454 0 0 1 2.438.024c.303.642.439 1.35.394 2.06v1.777-.001z" fill="#000" fill-rule="nonzero"/></g></svg>