<svg width="100" height="47" fill="none" xmlns="http://www.w3.org/2000/svg"><g clip-path="url(#clip0_668_2326)" fill="#fff"><path d="M23.497 26.42l-.671 4.619h.195l2.795-4.62h2.172l-3.44 4.962c.817.487 1.133 1.804 1.378 3.381.183 1.253.304 2.05.476 2.619h-1.807c-.133-.455-.293-1.48-.426-2.504-.195-1.318-.453-2.13-1.355-2.13h-.22l-.66 4.634H20.19l1.574-10.961h1.733zm5.625 7.806c0 .927.34 1.544.951 1.544.965 0 1.5-1.87 1.5-3.235 0-.732-.23-1.512-.939-1.512-1.012 0-1.524 1.967-1.512 3.203zm4.27-1.708c0 2.912-1.488 5.042-3.563 5.042-1.514 0-2.526-1.317-2.526-3.285 0-2.765 1.44-5.025 3.563-5.025 1.599 0 2.526 1.464 2.526 3.268zm2.551 2.878a.99.99 0 0 0 .805.39c.94 0 1.672-1.787 1.672-3.35 0-.633-.197-1.3-.77-1.3-.658 0-1.268.992-1.488 2.553l-.22 1.707zM33.44 40.6l1.147-8.098c.134-.944.281-2.26.354-3.073h1.574l-.11 1.154h.026c.487-.862 1.194-1.333 1.915-1.333 1.293 0 1.916 1.382 1.916 3.009 0 2.764-1.379 5.3-3.454 5.3-.488 0-.902-.162-1.11-.324h-.025l-.488 3.365H33.44zm8.505-7.935h2.282v-.163c0-.813-.465-1.48-1.342-1.48-.477 0-.94.13-1.245.293l-.294-1.61a3.798 3.798 0 0 1 1.77-.455c1.856 0 2.843 1.496 2.843 3.74 0 2.7-1.33 4.57-3.672 4.57-.746 0-1.344-.21-1.807-.553l.414-1.642c.33.211.844.39 1.416.39.867 0 1.538-.553 1.757-1.594h-2.33l.208-1.496zm7.455-3.236l-.464 3.268h.171l2.002-3.268h2.062l-2.612 3.544c.562.31.842 1.203 1.001 2.359.122.714.243 1.528.391 2.048h-1.734c-.121-.39-.22-1.186-.34-1.886-.184-.959-.416-1.431-.99-1.431h-.147l-.475 3.317h-1.709l1.135-7.951h1.71zm7.577 7.707c-.38.245-.989.407-1.696.407-1.477 0-2.514-1.187-2.514-3.252 0-2.83 1.622-5.041 3.892-5.041.513 0 .952.13 1.221.276l-.439 1.79a1.598 1.598 0 0 0-.805-.196c-1.246 0-2.027 1.415-2.027 2.91 0 1.09.525 1.643 1.172 1.643.513 0 .878-.162 1.184-.325l.011 1.788zm1.83-7.333c.475-.31 1.195-.553 1.927-.553 1.293 0 1.989.846 1.989 2.18 0 1.397-.916 2.096-2.026 2.699-.659.39-1.098.699-1.098 1.154 0 .325.172.553.61.553.623 0 1.244-.341 1.635-.619l.197 1.66c-.563.39-1.393.683-2.112.666-1.318 0-2.147-.747-2.147-2.178 0-1.66 1.085-2.262 2.122-2.83.586-.325 1.111-.618 1.111-1.04 0-.31-.244-.521-.647-.538-.5 0-.988.196-1.38.424l-.18-1.578zm8.661 1.285a1.988 1.988 0 0 0-.475-.065c-1.135 0-1.965 1.853-1.965 3.334 0 .78.232 1.316.72 1.316.525 0 1.171-.796 1.44-2.749l.28-1.836zm-.512 6.293c.012-.471.05-1.008.085-1.578h-.036c-.55 1.318-1.306 1.757-2.002 1.757-1.073 0-1.805-1.107-1.805-2.765 0-2.684 1.33-5.545 4.27-5.545.708 0 1.478.179 1.978.39l-.634 4.162c-.147 1.026-.257 2.587-.232 3.579h-1.624zm4.929-1.985c.196.245.464.39.806.39.938 0 1.672-1.787 1.672-3.35 0-.633-.195-1.3-.77-1.3-.658 0-1.269.992-1.488 2.553l-.22 1.707zM69.384 40.6l1.147-8.098c.134-.944.28-2.26.353-3.073h1.575l-.11 1.154h.025c.489-.862 1.196-1.333 1.915-1.333 1.294 0 1.916 1.382 1.916 3.009 0 2.764-1.379 5.3-3.452 5.3-.49 0-.904-.162-1.112-.324h-.024l-.489 3.365h-1.744zm11.787-9.512a2.008 2.008 0 0 0-.476-.065c-1.135 0-1.965 1.853-1.965 3.334 0 .78.23 1.316.72 1.316.524 0 1.171-.796 1.439-2.749l.282-1.836zm-.513 6.293c.012-.471.049-1.008.085-1.578h-.036c-.55 1.318-1.305 1.757-2 1.757-1.076 0-1.808-1.107-1.808-2.765 0-2.684 1.33-5.545 4.272-5.545.708 0 1.476.179 1.977.39l-.635 4.162c-.147 1.026-.257 2.587-.232 3.579h-1.623zm5.794-7.952l-.413 2.927h1.817l.416-2.927h1.756l-1.135 7.951h-1.758l.464-3.219H85.78l-.45 3.22h-1.759l1.124-7.952h1.756zm3.918 7.951l.743-5.366c.134-1.008.231-1.886.305-2.585h1.513l-.11 1.285h.025c.536-1.025 1.27-1.464 2.038-1.464.951 0 1.367.796 1.416 1.496.537-1.025 1.281-1.496 2.05-1.496.927 0 1.464.78 1.464 2.13 0 .342-.048.96-.11 1.366l-.646 4.635h-1.697l.598-4.342c.049-.325.086-.667.086-.976 0-.553-.184-.943-.598-.943-.586 0-1.16 1.057-1.392 2.65l-.5 3.61H93.86l.61-4.374c.05-.325.085-.634.085-.91 0-.538-.135-.976-.56-.976-.599 0-1.222 1.122-1.442 2.682l-.487 3.579H90.37z"/><path d="M14.943 18.942l2.97-.046 1.273 1.251.01.001 1.763 1.735-6.158 6.047.142-8.988zM13.06 29.637l-.037.036L2.321 19.166l.037-.037 10.872-.162-.169 10.67zM24.158 7.822h-4.804l.014-5.396.006-.007 5.546 5.403h-.762zm-6.507-3.71l-.01 3.71h-3.768l3.778-3.71zm24.63 7.949c-.005-.004-.46-.357-.969-.871a3.941 3.941 0 0 1-.29-.426c-.572-.903-1.806-2.583-4.258-2.583-2.211 0-3.692 1.73-4.785 2.874-.22.23-.497.522-.686.688L19.374.042l-7.923 7.78H6.634l1.713 1.682h16.646s1.018-.018 1.446.157c.616.254 1.278.914 1.925 1.543.8.775 1.345 1.328 1.775 1.702l.023.023h.002c.46.397.79.582 1.154.582.667 0 1.161-.52 1.912-1.305.943-.988 2.066-2.343 3.534-2.343 1.5 0 2.299.992 2.804 1.79.176.278.328.52.515.708.123.126.244.241.358.348-.18.17-.365.367-.532.581-3.065 3.94-6.812 9.032-11.323 9.032h-5.652l3.929-3.857h-6.96l-1.9-1.866h5.313l1.714-1.682H13.86l1.713 1.682h.008l.652.64-12.135.182 6.156-6.045 1.706 1.675h11.628L25.3 11.37H7.838l-7.94 7.796 13.126 12.887 8.196-8.05h7.366c6.931 0 11.38-8.379 12.685-9.691.44-.443.965-.897.97-.9l.95-.65-.91-.701z"/><path d="M38.486 12.559a.496.496 0 0 0-.5-.491.495.495 0 0 0-.5.491c0 .27.224.49.5.49.275 0 .5-.22.5-.49z"/></g><defs><clipPath id="clip0_668_2326"><path fill="#fff" d="M0 0h100v47H0z"/></clipPath></defs></svg>