<svg width="100" height="41" fill="none" xmlns="http://www.w3.org/2000/svg"><g clip-path="url(#clip0_668_1699)" fill="#022132"><path d="M23.497 26.42l-.672 4.62h.195l2.795-4.62h2.173l-3.44 4.96c.816.488 1.133 1.805 1.377 3.382.183 1.253.305 2.05.476 2.619h-1.806c-.134-.455-.293-1.48-.427-2.504-.195-1.318-.452-2.13-1.355-2.13h-.22l-.659 4.634H20.19l1.575-10.961h1.733zm5.624 7.806c0 .927.34 1.544.952 1.544.965 0 1.5-1.87 1.5-3.235 0-.732-.23-1.512-.94-1.512-1.011 0-1.524 1.967-1.512 3.203zm4.271-1.708c0 2.912-1.489 5.042-3.563 5.042-1.514 0-2.526-1.317-2.526-3.285 0-2.765 1.44-5.025 3.563-5.025 1.598 0 2.526 1.464 2.526 3.268zm2.55 2.878a.99.99 0 0 0 .805.39c.94 0 1.672-1.787 1.672-3.35 0-.633-.197-1.3-.77-1.3-.658 0-1.268.992-1.488 2.553l-.22 1.707zM33.44 40.6l1.146-8.098c.134-.944.281-2.26.354-3.073h1.574l-.11 1.154h.026c.487-.862 1.194-1.333 1.915-1.333 1.293 0 1.916 1.382 1.916 3.009 0 2.764-1.379 5.3-3.454 5.3-.488 0-.902-.162-1.11-.325h-.025l-.488 3.366H33.44zm8.504-7.936h2.282v-.162c0-.813-.464-1.48-1.342-1.48-.476 0-.94.13-1.245.293l-.294-1.61c.49-.26 1.1-.455 1.771-.455 1.856 0 2.843 1.496 2.843 3.74 0 2.7-1.33 4.57-3.673 4.57-.745 0-1.343-.21-1.806-.553l.414-1.642c.33.211.843.39 1.416.39.867 0 1.537-.553 1.757-1.594h-2.33l.207-1.497zm7.456-3.235l-.465 3.268h.172l2.002-3.268h2.061l-2.612 3.544c.563.31.842 1.203 1.002 2.359.121.714.243 1.528.39 2.049h-1.733c-.122-.39-.22-1.187-.341-1.887-.183-.959-.416-1.43-.99-1.43h-.146l-.475 3.317h-1.71l1.136-7.952H49.4zm7.577 7.707c-.38.245-.989.407-1.696.407-1.477 0-2.514-1.187-2.514-3.252 0-2.83 1.622-5.041 3.892-5.041.513 0 .952.13 1.221.276l-.439 1.789a1.598 1.598 0 0 0-.805-.195c-1.246 0-2.027 1.415-2.027 2.91 0 1.09.525 1.643 1.172 1.643.513 0 .878-.162 1.184-.325l.011 1.788zm1.83-7.333c.475-.31 1.194-.553 1.927-.553 1.293 0 1.988.845 1.988 2.18 0 1.397-.915 2.096-2.025 2.699-.659.39-1.098.699-1.098 1.154 0 .325.171.553.61.553.622 0 1.244-.342 1.634-.619l.197 1.66c-.562.39-1.392.683-2.111.666-1.319 0-2.148-.747-2.148-2.178 0-1.66 1.085-2.262 2.123-2.83.585-.325 1.11-.618 1.11-1.041 0-.309-.244-.52-.646-.537-.501 0-.989.195-1.38.424l-.181-1.578zm8.661 1.285a1.987 1.987 0 0 0-.475-.065c-1.135 0-1.965 1.853-1.965 3.334 0 .78.232 1.316.72 1.316.524 0 1.17-.796 1.439-2.749l.28-1.836zm-.512 6.293c.012-.472.049-1.008.084-1.578h-.035c-.55 1.318-1.307 1.757-2.002 1.757-1.073 0-1.806-1.107-1.806-2.765 0-2.684 1.33-5.545 4.27-5.545.708 0 1.479.179 1.98.39l-.636 4.162c-.146 1.026-.257 2.587-.232 3.579h-1.623zm4.928-1.985c.196.245.464.39.806.39.939 0 1.672-1.787 1.672-3.35 0-.633-.195-1.3-.77-1.3-.658 0-1.269.992-1.488 2.553l-.22 1.707zM69.383 40.6l1.147-8.098c.134-.944.28-2.26.353-3.073h1.575l-.11 1.154h.025c.489-.862 1.196-1.333 1.915-1.333 1.294 0 1.916 1.382 1.916 3.009 0 2.764-1.379 5.3-3.452 5.3-.49 0-.904-.162-1.112-.325h-.024l-.489 3.366h-1.744zm11.788-9.512a2.008 2.008 0 0 0-.476-.065c-1.135 0-1.965 1.853-1.965 3.334 0 .78.23 1.316.72 1.316.524 0 1.171-.796 1.439-2.749l.282-1.836zm-.513 6.293c.012-.472.049-1.008.085-1.578h-.036c-.55 1.318-1.305 1.757-2 1.757-1.076 0-1.808-1.107-1.808-2.765 0-2.684 1.33-5.545 4.272-5.545.708 0 1.476.179 1.977.39l-.635 4.162c-.147 1.026-.257 2.587-.232 3.579h-1.623zm5.794-7.952l-.413 2.927h1.817l.416-2.927h1.756l-1.135 7.952h-1.758l.464-3.22H85.78l-.45 3.22h-1.759l1.124-7.952h1.756zm3.916 7.951l.745-5.366c.133-1.008.23-1.886.304-2.585h1.513l-.11 1.285h.025c.536-1.026 1.27-1.464 2.038-1.464.952 0 1.367.796 1.416 1.496.537-1.025 1.281-1.496 2.05-1.496.927 0 1.464.78 1.464 2.13 0 .342-.048.96-.11 1.366l-.646 4.635H97.36l.598-4.342c.049-.325.086-.667.086-.976 0-.553-.184-.943-.598-.943-.586 0-1.16 1.057-1.392 2.65l-.5 3.61h-1.696l.61-4.374a6.3 6.3 0 0 0 .085-.911c0-.537-.135-.975-.56-.975-.599 0-1.221 1.122-1.442 2.682l-.487 3.579h-1.696z"/><path d="M14.942 18.942l2.97-.046 1.274 1.251.01.002 1.763 1.734L14.8 27.93l.142-8.988zm-1.881 10.695l-.037.036L2.32 19.166l.037-.037 10.872-.162-.17 10.67zM24.158 7.822h-4.805l.015-5.396.006-.007 5.546 5.403h-.762zm-6.508-3.71l-.01 3.71h-3.767l3.777-3.71zm24.63 7.95c-.005-.005-.46-.358-.968-.872a3.941 3.941 0 0 1-.29-.426c-.572-.903-1.806-2.583-4.258-2.583-2.212 0-3.692 1.73-4.786 2.874-.219.23-.496.522-.686.688L19.375.043 11.45 7.821H6.633l1.714 1.682h16.645s1.019-.018 1.446.157c.616.254 1.278.914 1.926 1.543.8.775 1.345 1.328 1.774 1.702l.023.023h.002c.461.397.791.582 1.154.582.668 0 1.162-.52 1.912-1.305.943-.988 2.066-2.343 3.535-2.343 1.5 0 2.298.992 2.803 1.79.176.278.329.52.516.709.123.125.244.24.357.347-.179.17-.364.367-.531.581-3.066 3.94-6.812 9.032-11.323 9.032h-5.653l3.93-3.857h-6.96l-1.901-1.866h5.314l1.713-1.682H13.86l1.713 1.682h.009l.651.64-12.134.183 6.156-6.046 1.705 1.676h11.628L25.3 11.37H7.837l-7.939 7.796 13.126 12.887 8.196-8.049h7.366c6.93 0 11.38-8.38 12.684-9.692.44-.443.966-.897.97-.9l.95-.65-.91-.7z"/><path d="M38.486 12.56a.496.496 0 0 0-.5-.492.495.495 0 0 0-.5.491c0 .27.223.49.5.49.274 0 .5-.22.5-.49z"/></g><defs><clipPath id="clip0_668_1699"><path fill="#fff" d="M0 0h100v47H0z"/></clipPath></defs></svg>