<svg width="38" height="52" xmlns="http://www.w3.org/2000/svg"><path d="M19 1.284c9.778 0 17.716 8.361 17.716 18.623 0 6.632-2.944 13.61-7.867 20.544a69.915 69.915 0 0 1-7.43 8.797c-.385.384-.689.676-.891.864a2.242 2.242 0 0 1-1.528.604 2.242 2.242 0 0 1-1.527-.604c-.203-.188-.507-.48-.892-.864a69.914 69.914 0 0 1-7.43-8.797C4.228 33.517 1.284 26.54 1.284 19.907 1.284 9.645 9.222 1.284 19 1.284zm0 11.462c-3.395 0-6.156 2.734-6.156 6.09 0 3.355 2.76 6.09 6.156 6.09 3.395 0 6.156-2.735 6.156-6.09 0-3.356-2.76-6.09-6.156-6.09z" stroke="#ffffff" stroke-width="1.433" fill="#033550"/></svg>