<?xml version="1.0" encoding="utf-8"?>
<!DOCTYPE svg PUBLIC "-//W3C//DTD SVG 1.1//EN" "http://www.w3.org/Graphics/SVG/1.1/DTD/svg11.dtd">
<svg width="19" height="19" viewBox="0 0 19 19" fill="none" xmlns="http://www.w3.org/2000/svg">
    <path d="M14.4848 11.549C14.133 11.1827 13.7087 10.9869 13.259 10.9869C12.8129 10.9869 12.385 11.1791 12.0187 11.5454L10.8727 12.6878C10.7784 12.637 10.6841 12.5899 10.5934 12.5428C10.4628 12.4775 10.3395 12.4158 10.2344 12.3505C9.16086 11.6687 8.18528 10.7802 7.2496 9.63053C6.79626 9.05751 6.49162 8.57516 6.27039 8.08556C6.56778 7.81356 6.84341 7.53068 7.11178 7.25867C7.21333 7.15713 7.31488 7.05195 7.41642 6.95041C8.17803 6.1888 8.17803 5.20235 7.41642 4.44074L6.42634 3.45066C6.31391 3.33823 6.19786 3.22218 6.08906 3.10612C5.87146 2.88127 5.64298 2.64916 5.40724 2.43156C5.05545 2.0834 4.63476 1.89844 4.1923 1.89844C3.74985 1.89844 3.3219 2.0834 2.95923 2.43156C2.9556 2.43519 2.9556 2.43519 2.95198 2.43881L1.71891 3.68277C1.25469 4.14698 0.989942 4.71274 0.931915 5.36917C0.844875 6.42816 1.15677 7.41462 1.39613 8.06017C1.98365 9.64503 2.86131 11.1138 4.17054 12.6878C5.75903 14.5846 7.67029 16.0824 9.85356 17.1378C10.6877 17.5331 11.8011 18.0009 13.045 18.0807C13.1212 18.0843 13.201 18.0879 13.2735 18.0879C14.1113 18.0879 14.8149 17.7869 15.3661 17.1885C15.3697 17.1813 15.377 17.1777 15.3806 17.1704C15.5692 16.9419 15.7868 16.7352 16.0153 16.514C16.1712 16.3653 16.3308 16.2093 16.4868 16.0461C16.8458 15.6726 17.0344 15.2374 17.0344 14.7913C17.0344 14.3416 16.8422 13.91 16.4759 13.5473L14.4848 11.549ZM15.7832 15.3679C15.7796 15.3679 15.7796 15.3716 15.7832 15.3679C15.6417 15.5203 15.4967 15.6581 15.3407 15.8104C15.105 16.0352 14.8656 16.271 14.6408 16.5357C14.2745 16.9274 13.8429 17.1124 13.2771 17.1124C13.2227 17.1124 13.1647 17.1124 13.1103 17.1087C12.0332 17.0398 11.0322 16.6191 10.2815 16.2601C8.2288 15.2664 6.42634 13.8556 4.92852 12.0677C3.69182 10.5771 2.86494 9.19895 2.31731 7.71926C1.98003 6.81622 1.85672 6.11264 1.91112 5.44896C1.94739 5.02464 2.11059 4.67285 2.4116 4.37184L3.6483 3.13514C3.82601 2.96831 4.0146 2.87764 4.19956 2.87764C4.42804 2.87764 4.613 3.01546 4.72905 3.13151C4.73268 3.13514 4.73631 3.13876 4.73993 3.14239C4.96116 3.34911 5.17151 3.56308 5.39274 3.79157C5.50516 3.90762 5.62122 4.02367 5.73727 4.14335L6.72735 5.13344C7.11178 5.51787 7.11178 5.87328 6.72735 6.25771C6.62218 6.36288 6.52063 6.46806 6.41546 6.56961C6.11082 6.8815 5.82068 7.17163 5.50516 7.45452C5.49791 7.46177 5.49066 7.4654 5.48703 7.47265C5.17513 7.78454 5.23316 8.08918 5.29844 8.29591C5.30207 8.30679 5.30569 8.31767 5.30932 8.32855C5.56682 8.95234 5.92948 9.53986 6.48074 10.2398L6.48437 10.2434C7.48533 11.4765 8.5407 12.4376 9.70486 13.1738C9.85355 13.2681 10.0059 13.3442 10.1509 13.4168C10.2815 13.4821 10.4048 13.5437 10.51 13.609C10.5245 13.6162 10.539 13.6271 10.5535 13.6344C10.6768 13.696 10.7929 13.725 10.9125 13.725C11.2136 13.725 11.4021 13.5365 11.4638 13.4748L12.7041 12.2345C12.8274 12.1112 13.0233 11.9625 13.2518 11.9625C13.4766 11.9625 13.6616 12.1039 13.774 12.2272C13.7776 12.2309 13.7776 12.2309 13.7813 12.2345L15.7796 14.2328C16.1531 14.6027 16.1531 14.9835 15.7832 15.3679Z" fill="#{$brand-1}" stroke="#{$brand-1}" stroke-width="0.2"/>
    <path d="M10.1911 4.99274C11.1413 5.15231 12.0044 5.60202 12.6935 6.29109C13.3826 6.98016 13.8287 7.84331 13.9919 8.7935C14.0317 9.03286 14.2385 9.19969 14.4742 9.19969C14.5032 9.19969 14.5286 9.19606 14.5576 9.19243C14.826 9.14891 15.0037 8.89505 14.9602 8.62667C14.7643 7.47701 14.2203 6.4289 13.3898 5.59839C12.5593 4.76788 11.5112 4.22388 10.3615 4.02804C10.0932 3.98452 9.84293 4.16223 9.79578 4.42697C9.74864 4.69172 9.92272 4.94922 10.1911 4.99274Z" fill="#{$brand-1}" stroke="#{$brand-1}" stroke-width="0.2"/>
    <path d="M18.068 8.48427C17.7452 6.59115 16.853 4.86847 15.4821 3.49759C14.1112 2.1267 12.3886 1.23454 10.4954 0.911761C10.2307 0.864614 9.98046 1.04595 9.93331 1.3107C9.88979 1.57907 10.0675 1.82931 10.3359 1.87646C12.0259 2.16297 13.5672 2.96446 14.7931 4.18666C16.0189 5.41247 16.8168 6.95381 17.1033 8.64385C17.1432 8.88321 17.3499 9.05004 17.5856 9.05004C17.6146 9.05004 17.64 9.04641 17.669 9.04278C17.9338 9.00289 18.1151 8.74902 18.068 8.48427Z" fill="#{$brand-1}" stroke="#{$brand-1}" stroke-width="0.2"/>
</svg>

