<?xml version="1.0" encoding="utf-8"?>
<!DOCTYPE svg PUBLIC "-//W3C//DTD SVG 1.1//EN" "http://www.w3.org/Graphics/SVG/1.1/DTD/svg11.dtd">
<svg width="18" height="14" viewBox="0 0 18 14" fill="none" xmlns="http://www.w3.org/2000/svg">
    <path d="M14.573 10.4854C14.5016 10.4854 14.4302 10.4592 14.3745 10.4064L11.0348 7.27332C10.9181 7.1642 10.9123 6.98021 11.022 6.86354C11.1317 6.74572 11.3145 6.74049 11.4324 6.85077L14.7721 9.98388C14.8888 10.093 14.8946 10.277 14.7849 10.3937C14.7274 10.4546 14.6508 10.4854 14.573 10.4854Z" fill="#{$brand-1}" stroke="#{$brand-1}" stroke-width="0.5"/>
    <path d="M3.42526 10.4867C3.34807 10.4867 3.27087 10.4559 3.21341 10.3949C3.10371 10.2783 3.10952 10.0943 3.22618 9.98517L6.56708 6.85206C6.68432 6.74295 6.86832 6.74759 6.97744 6.86483C7.08714 6.9815 7.08133 7.16549 6.96467 7.27461L3.62377 10.4077C3.56805 10.4605 3.49666 10.4867 3.42526 10.4867Z" fill="#{$brand-1}" stroke="#{$brand-1}" stroke-width="0.5"/>
    <path d="M16.5489 13.3981H1.45105C0.651232 13.3981 0 12.7474 0 11.947V2.05261C0 1.25221 0.651232 0.601562 1.45105 0.601562H16.5489C17.3488 0.601562 18 1.25221 18 2.05261V11.947C18 12.7474 17.3488 13.3981 16.5489 13.3981ZM1.45105 1.18198C0.971043 1.18198 0.58042 1.57261 0.58042 2.05261V11.947C0.58042 12.427 0.971043 12.8177 1.45105 12.8177H16.5489C17.029 12.8177 17.4196 12.427 17.4196 11.947V2.05261C17.4196 1.57261 17.029 1.18198 16.5489 1.18198H1.45105Z" fill="#{$brand-1}" stroke="#{$brand-1}" stroke-width="0.5"/>
    <path d="M8.99968 8.45855C8.6137 8.45855 8.22772 8.33028 7.93403 8.07431L0.481429 1.57302C0.360702 1.46797 0.347933 1.28456 0.452989 1.16325C0.559206 1.04252 0.742038 1.03149 0.862765 1.13539L8.31536 7.6361C8.68625 7.95939 9.31311 7.95939 9.68342 7.6361L17.1267 1.14583C17.2469 1.04078 17.4297 1.05239 17.5365 1.1737C17.6416 1.295 17.6294 1.47784 17.5086 1.58347L10.0653 8.07373C9.77106 8.33028 9.38566 8.45855 8.99968 8.45855Z" fill="#{$brand-1}" stroke="#{$brand-1}" stroke-width="0.5"/>
</svg>
