<svg xmlns="http://www.w3.org/2000/svg" width="18" height="18" viewBox="-2 -2 30 30">
    <g fill="#{$link-color}" fill-rule="nonzero">
        <path d="M24.872 12.5C24.872 5.673 19.327.128 12.5.128S.128 5.673.128 12.5 5.673 24.872 12.5 24.872 24.872 19.327 24.872 12.5zm-23.398 0C1.474 6.442 6.41 1.474 12.5 1.474S23.526 6.442 23.526 12.5 18.558 23.526 12.5 23.526 1.474 18.558 1.474 12.5z"/>
        <path d="M14.359 9.968a1.884 1.884 0 0 1-1.186 1.827c-.833.32-1.378 1.154-1.378 2.083v.449h1.346v-.449c0-.352.224-.705.513-.833a3.204 3.204 0 0 0 2.02-3.141c-.065-1.635-1.443-3.013-3.078-3.077-.833-.064-1.699.256-2.34.865a3.197 3.197 0 0 0-.993 2.34h1.346c0-.513.192-.994.577-1.346.385-.353.865-.545 1.378-.513a1.857 1.857 0 0 1 1.795 1.795z"/>
        <circle cx="12.5" cy="16.827" r="1"/>
    </g>
</svg>