<svg width="17" height="21" viewBox="0 0 17 21" fill="none" xmlns="http://www.w3.org/2000/svg">
    <path d="M8.43114 11.2377C8.45081 11.2377 8.47048 11.2377 8.49409 11.2377C8.50196 11.2377 8.50983 11.2377 8.5177 11.2377C8.5295 11.2377 8.54524 11.2377 8.55704 11.2377C9.70987 11.2181 10.6424 10.8128 11.3309 10.0377C12.8457 8.33009 12.5939 5.40278 12.5664 5.12342C12.468 3.0263 11.4765 2.02299 10.6581 1.55477C10.0482 1.2046 9.33609 1.01574 8.54131 1H8.51376C8.50983 1 8.50196 1 8.49803 1H8.47442C8.03768 1 7.17995 1.07082 6.35762 1.53904C5.53137 2.00725 4.52412 3.01056 4.42575 5.12342C4.39821 5.40278 4.1464 8.33009 5.66121 10.0377C6.34582 10.8128 7.27831 11.2181 8.43114 11.2377ZM5.47628 5.22179C5.47628 5.20998 5.48022 5.19818 5.48022 5.19031C5.61006 2.36923 7.61275 2.06627 8.47048 2.06627H8.48622C8.49409 2.06627 8.50589 2.06627 8.5177 2.06627C9.58003 2.08987 11.386 2.52268 11.508 5.19031C11.508 5.20211 11.508 5.21392 11.5119 5.22179C11.5158 5.24933 11.7913 7.92483 10.5401 9.3334C10.0443 9.89211 9.3833 10.1675 8.51376 10.1754C8.5059 10.1754 8.50196 10.1754 8.49409 10.1754C8.48622 10.1754 8.48229 10.1754 8.47442 10.1754C7.60881 10.1675 6.94387 9.89211 6.45205 9.3334C5.2048 7.9327 5.47235 5.24539 5.47628 5.22179Z" fill="#{$brand-1}" stroke="#{$brand-1}" stroke-width="0.2"/>
    <path d="M16.5793 16.0931C16.5793 16.0891 16.5793 16.0852 16.5793 16.0813C16.5793 16.0498 16.5753 16.0183 16.5753 15.9829C16.5517 15.2038 16.5006 13.3821 14.793 12.7998C14.7812 12.7959 14.7654 12.792 14.7536 12.788C12.9791 12.3355 11.5037 11.3126 11.4879 11.3008C11.2479 11.1316 10.9174 11.1906 10.7482 11.4306C10.5791 11.6706 10.6381 12.0011 10.8781 12.1703C10.945 12.2175 12.5109 13.3074 14.4703 13.811C15.3871 14.1376 15.4894 15.1173 15.5169 16.0144C15.5169 16.0498 15.5169 16.0813 15.5209 16.1127C15.5248 16.4668 15.5012 17.0138 15.4382 17.3285C14.8008 17.6905 12.3024 18.9417 8.50161 18.9417C4.71656 18.9417 2.20237 17.6866 1.56104 17.3246C1.49809 17.0098 1.47054 16.4629 1.47841 16.1088C1.47841 16.0773 1.48235 16.0458 1.48235 16.0104C1.50989 15.1134 1.61219 14.1336 2.52894 13.8071C4.48835 13.3035 6.05431 12.2096 6.1212 12.1664C6.36121 11.9972 6.42022 11.6667 6.25104 11.4267C6.08185 11.1867 5.75135 11.1276 5.51134 11.2968C5.4956 11.3086 4.02801 12.3316 2.24565 12.7841C2.22991 12.788 2.21811 12.792 2.20631 12.7959C0.498707 13.3821 0.447558 15.2039 0.423951 15.979C0.423951 16.0144 0.423951 16.0458 0.420016 16.0773C0.420016 16.0813 0.420016 16.0852 0.420016 16.0891C0.416082 16.2937 0.412147 17.3443 0.620679 17.8715C0.660025 17.9738 0.730847 18.0603 0.825276 18.1194C0.943313 18.1981 3.77226 20.0001 8.50554 20.0001C13.2388 20.0001 16.0678 18.1941 16.1858 18.1194C16.2763 18.0603 16.3511 17.9738 16.3904 17.8715C16.5871 17.3482 16.5832 16.2977 16.5793 16.0931Z" fill="#{$brand-1}" stroke="#{$brand-1}" stroke-width="0.2"/>
</svg>