<svg width="100" height="41" viewBox="0 0 100 41" fill="none" xmlns="http://www.w3.org/2000/svg">
<g clip-path="url(#clip0_668_1699)">
<path d="M23.4967 26.42L22.825 31.0391H23.0203L25.8154 26.42H27.9877L24.5471 31.3805C25.364 31.8682 25.6808 33.1849 25.925 34.7624C26.1084 36.0148 26.2299 36.8111 26.4013 37.3806H24.5947C24.4613 36.9257 24.3017 35.9014 24.1684 34.877C23.973 33.5591 23.7158 32.7464 22.8131 32.7464H22.5939L21.9342 37.3806H20.1895L21.7639 26.42H23.4967Z" fill="#fff"/>
<path d="M29.1213 34.2257C29.1213 35.153 29.4619 35.7704 30.0728 35.7704C31.0375 35.7704 31.5734 33.9006 31.5734 32.5347C31.5734 31.8027 31.3424 31.0227 30.6338 31.0227C29.6215 31.0227 29.1094 32.9896 29.1213 34.2257ZM33.392 32.5183C33.392 35.4301 31.9033 37.5596 29.8287 37.5596C28.315 37.5596 27.3027 36.2428 27.3027 34.2748C27.3027 31.5103 28.7426 29.2499 30.866 29.2499C32.4642 29.2499 33.392 30.714 33.392 32.5183Z" fill="#fff"/>
<path d="M35.9416 35.3962C36.1369 35.6406 36.4049 35.7868 36.7467 35.7868C37.6863 35.7868 38.4187 33.9988 38.4187 32.4365C38.4187 31.8027 38.2222 31.1361 37.6494 31.1361C36.9908 31.1361 36.3811 32.1278 36.1607 33.6889L35.9416 35.3962ZM33.4395 40.6L34.5863 32.502C34.7197 31.5583 34.8674 30.2415 34.94 29.4288H36.5144L36.4049 30.583H36.4299C36.917 29.7212 37.6244 29.2499 38.3449 29.2499C39.6382 29.2499 40.2611 30.6321 40.2611 32.2587C40.2611 35.0232 38.882 37.5596 36.8074 37.5596C36.3191 37.5596 35.9047 37.397 35.6975 37.2345H35.6724L35.1842 40.6H33.4395Z" fill="#fff"/>
<path d="M41.9443 32.6645H44.2262C44.2262 32.6002 44.2262 32.5511 44.2262 32.502C44.2262 31.6893 43.7617 31.0227 42.884 31.0227C42.4076 31.0227 41.9443 31.1525 41.6395 31.315L41.3453 29.7048C41.8348 29.4452 42.4445 29.2499 43.1162 29.2499C44.9717 29.2499 45.959 30.7456 45.959 32.9896C45.959 35.6897 44.6287 37.5596 42.2861 37.5596C41.5406 37.5596 40.9428 37.3491 40.4795 37.0065L40.8939 35.3646C41.2238 35.5763 41.7371 35.7552 42.31 35.7552C43.1769 35.7552 43.8474 35.2021 44.0666 34.1613H41.7371L41.9443 32.6645Z" fill="#fff"/>
<path d="M49.3996 29.4288L48.9351 32.6972H49.1066L51.1086 29.4288H53.1701L50.5584 32.9732C51.1205 33.2831 51.4004 34.1765 51.5599 35.3319C51.6814 36.0464 51.8029 36.8603 51.9506 37.3806H50.2166C50.0951 36.9901 49.9975 36.1937 49.876 35.4944C49.6926 34.5355 49.4603 34.0631 48.8863 34.0631H48.7398L48.2646 37.3806H46.5557L47.6906 29.4288H49.3996Z" fill="#fff"/>
<path d="M56.9765 37.1363C56.5978 37.3807 55.9881 37.5432 55.2807 37.5432C53.8039 37.5432 52.7666 36.3563 52.7666 34.2911C52.7666 31.4612 54.3886 29.2499 56.6586 29.2499C57.1718 29.2499 57.6113 29.3797 57.8805 29.5259L57.441 31.315C57.2326 31.2016 56.9884 31.1198 56.6359 31.1198C55.3902 31.1198 54.609 32.5347 54.609 34.0304C54.609 35.1202 55.1342 35.6734 55.7808 35.6734C56.2941 35.6734 56.6586 35.5108 56.9646 35.3483L56.9765 37.1363Z" fill="#fff"/>
<path d="M58.8066 29.803C59.2818 29.4931 60.0011 29.2499 60.7336 29.2499C62.0269 29.2499 62.7224 30.0954 62.7224 31.4296C62.7224 32.8271 61.8066 33.5264 60.6966 34.1286C60.0381 34.5192 59.5986 34.8279 59.5986 35.2828C59.5986 35.6079 59.7701 35.8359 60.2084 35.8359C60.8312 35.8359 61.4529 35.4944 61.8435 35.2173L62.04 36.8767C61.4779 37.2672 60.6478 37.5596 59.9285 37.5432C58.6101 37.5432 57.7812 36.796 57.7812 35.3646C57.7812 33.7053 58.8662 33.103 59.9035 32.5347C60.4894 32.2096 61.0146 31.9173 61.0146 31.494C61.0146 31.1852 60.7705 30.9736 60.3679 30.9572C59.8666 30.9572 59.3795 31.1525 58.9877 31.3805L58.8066 29.803Z" fill="#fff"/>
<path d="M67.4679 31.0882C67.3345 31.0543 67.1631 31.0227 66.9928 31.0227C65.8578 31.0227 65.0277 32.8762 65.0277 34.3566C65.0277 35.1366 65.26 35.6734 65.7482 35.6734C66.2722 35.6734 66.9189 34.877 67.1869 32.9241L67.4679 31.0882ZM66.9558 37.3807C66.9677 36.9094 67.0047 36.3726 67.0404 35.8032H67.0047C66.4545 37.1211 65.6982 37.5596 65.0027 37.5596C63.9297 37.5596 63.1973 36.4533 63.1973 34.7951C63.1973 32.1114 64.5275 29.2499 67.4679 29.2499C68.1753 29.2499 68.9459 29.4288 69.4461 29.6405L68.8113 33.8023C68.6648 34.8279 68.5541 36.389 68.5791 37.3807H66.9558Z" fill="#fff"/>
<path d="M71.8838 35.3962C72.0803 35.6406 72.3482 35.7868 72.69 35.7868C73.6285 35.7868 74.3621 33.9988 74.3621 32.4365C74.3621 31.8027 74.1668 31.1361 73.5927 31.1361C72.9342 31.1361 72.3232 32.1278 72.1041 33.6889L71.8838 35.3962ZM69.3828 40.6L70.5297 32.502C70.6643 31.5583 70.8095 30.2415 70.8834 29.4288H72.4578L72.3482 30.583H72.3732C72.8615 29.7212 73.5689 29.2499 74.2882 29.2499C75.5816 29.2499 76.2044 30.6321 76.2044 32.2587C76.2044 35.0232 74.8254 37.5596 72.7519 37.5596C72.2625 37.5596 71.848 37.397 71.6396 37.2345H71.6158L71.1275 40.6H69.3828Z" fill="#fff"/>
<path d="M81.1713 31.0882C81.0367 31.0543 80.8652 31.0227 80.6949 31.0227C79.56 31.0227 78.7299 32.8762 78.7299 34.3566C78.7299 35.1366 78.9609 35.6734 79.4504 35.6734C79.9744 35.6734 80.6211 34.877 80.889 32.9241L81.1713 31.0882ZM80.658 37.3807C80.6699 36.9094 80.7068 36.3726 80.7425 35.8032H80.7068C80.1566 37.1211 79.4016 37.5596 78.7061 37.5596C77.6306 37.5596 76.8994 36.4533 76.8994 34.7951C76.8994 32.1114 78.2297 29.2499 81.1713 29.2499C81.8787 29.2499 82.6468 29.4288 83.1482 29.6405L82.5135 33.8023C82.3658 34.8279 82.2562 36.389 82.2812 37.3807H80.658Z" fill="#fff"/>
<path d="M86.4519 29.4288L86.0387 32.3558H87.856L88.2717 29.4288H90.0283L88.8933 37.3806H87.1355L87.5988 34.1613H85.7814L85.3301 37.3806H83.5723L84.6965 29.4288H86.4519Z" fill="#fff"/>
<path d="M90.3682 37.3807L91.1125 32.0143C91.2459 31.0063 91.3435 30.1281 91.4174 29.4288H92.9299L92.8203 30.714H92.8453C93.3812 29.6884 94.1148 29.2499 94.883 29.2499C95.8345 29.2499 96.2502 30.0463 96.299 30.7456C96.8361 29.7212 97.5804 29.2499 98.3486 29.2499C99.2763 29.2499 99.8134 30.0299 99.8134 31.3805C99.8134 31.722 99.7646 32.3394 99.7039 32.7464L99.0572 37.3807H97.3601L97.958 33.0387C98.0068 32.7136 98.0437 32.3722 98.0437 32.0635C98.0437 31.5103 97.8603 31.1198 97.4459 31.1198C96.8599 31.1198 96.2859 32.1769 96.0537 33.7708L95.5547 37.3807H93.8576L94.4685 33.006C94.5174 32.6809 94.5531 32.3722 94.5531 32.095C94.5531 31.5583 94.4185 31.1198 93.9922 31.1198C93.3943 31.1198 92.7715 32.2424 92.5511 33.8023L92.064 37.3807H90.3682Z" fill="#fff"/>
<path d="M14.9423 18.9417L17.9124 18.8961L19.1855 20.1474L19.1951 20.1485L20.9588 21.8827L14.8005 27.9296L14.9423 18.9417ZM13.0606 29.6369L13.0237 29.6732L2.32079 19.1663L2.35771 19.1288L13.2297 18.9675L13.0606 29.6369ZM24.1577 7.82203H19.3535L19.3678 2.42648L19.3737 2.41946L24.9199 7.82203H24.1577ZM17.6504 4.11273L17.6409 7.82203H13.8728L17.6504 4.11273ZM42.2801 12.0611C42.2753 12.0575 41.8204 11.7044 41.3118 11.1899C41.2535 11.1314 41.1249 10.9279 41.0212 10.7642C40.4496 9.86144 39.2158 8.18103 36.7637 8.18103C34.5521 8.18103 33.0718 9.91055 31.9785 11.0554C31.7594 11.2858 31.4819 11.5769 31.2925 11.743L19.3737 0.042099L11.4505 7.82203H6.63315L8.34689 9.50361H24.9925C24.9925 9.50361 26.0108 9.48607 26.4383 9.66148C27.054 9.91523 27.7162 10.5748 28.364 11.2039C29.1643 11.9792 29.7086 12.5323 30.1385 12.9065L30.1612 12.9287H30.1635C30.6244 13.3263 30.9543 13.5111 31.3175 13.5111C31.9845 13.5111 32.4787 12.9919 33.229 12.2061C34.1722 11.2179 35.2953 9.86261 36.7637 9.86261C38.2642 9.86261 39.0622 10.8554 39.5671 11.6529C39.7434 11.9313 39.8958 12.1733 40.0828 12.3616C40.2055 12.4867 40.3269 12.6025 40.4401 12.7089C40.2614 12.8796 40.0756 13.0761 39.9089 13.2901C36.8435 17.2309 33.0968 22.3224 28.5856 22.3224H22.9334L26.8623 18.4646H19.9025L18.0018 16.5994H23.3157L25.0294 14.9167H13.8597L15.5723 16.5994H15.5806L16.232 17.2391L4.09766 17.4215L10.2536 11.3758L11.959 13.0515H23.5872L25.2998 11.37H7.83718L-0.101562 19.1663L13.0237 32.0529L21.2197 24.004H28.5856C35.5168 24.004 39.9661 15.6242 41.2701 14.3121C41.7108 13.8689 42.236 13.4152 42.2408 13.4129L43.1899 12.7627L42.2801 12.0611Z" fill="#fff"/>
<path d="M38.4855 12.5592C38.4855 12.2879 38.2604 12.0681 37.9853 12.0681C37.709 12.0681 37.4863 12.2879 37.4863 12.5592C37.4863 12.8294 37.709 13.0492 37.9853 13.0492C38.2604 13.0492 38.4855 12.8294 38.4855 12.5592Z" fill="#fff"/>
</g>
<defs>
<clipPath id="clip0_668_1699">
<rect width="100" height="47" fill="white"/>
</clipPath>
</defs>
</svg>
