<?xml version="1.0" encoding="UTF-8" standalone="no"?>
<svg width="15px" height="13px" viewBox="0 0 15 13" version="1.1" xmlns="http://www.w3.org/2000/svg" xmlns:xlink="http://www.w3.org/1999/xlink" xmlns:sketch="http://www.bohemiancoding.com/sketch/ns">
    <!-- Generator: Sketch 3.2.2 (9983) - http://www.bohemiancoding.com/sketch -->
    <title>noun_712390_cc</title>
    <desc>Created with Sketch.</desc>
    <defs></defs>
    <g id="Page-1" stroke="none" stroke-width="1" fill="none" fill-rule="evenodd" sketch:type="MSPage">
        <g id="noun_712390_cc" sketch:type="MSLayerGroup" fill="#{$link-color-hover}">
            <g id="Page-1" sketch:type="MSShapeGroup">
                <g id="noun_712390_cc">
                    <g id="Group">
                        <path d="M8.05555556,12.1521739 L1.08333333,12.1521739 L1.08333333,0.847826087 L8.05555556,0.847826087 L8.05555556,3.9 C8.05555556,4.12608696 8.25,4.32391304 8.47222222,4.32391304 L8.47222222,4.32391304 C8.69444444,4.32391304 8.88888889,4.12608696 8.88888889,3.9 L8.88888889,0 L0.25,0 L0.25,13 L8.88888889,13 L8.88888889,9.1 C8.88888889,8.87391304 8.69444444,8.67608696 8.47222222,8.67608696 L8.47222222,8.67608696 C8.25,8.67608696 8.05555556,8.87391304 8.05555556,9.1 L8.05555556,12.1521739 L8.05555556,12.1521739 Z" id="Shape"></path>
                        <path d="M10.8611111,3.16521739 L10.8611111,3.16521739 C10.6944444,3.33478261 10.6944444,3.58913043 10.8611111,3.75869565 L13.1388889,6.07608696 L5.11111111,6.07608696 C4.88888889,6.07608696 4.69444444,6.27391304 4.69444444,6.5 L4.69444444,6.5 C4.69444444,6.72608696 4.88888889,6.92391304 5.11111111,6.92391304 L13.1666667,6.92391304 L10.8888889,9.24130435 C10.7222222,9.41086957 10.7222222,9.66521739 10.8888889,9.83478261 L10.8888889,9.83478261 C11.0555556,10.0043478 11.3055556,10.0043478 11.4722222,9.83478261 L14.75,6.5 L11.4722222,3.16521739 C11.3055556,2.99565217 11.0277778,2.99565217 10.8611111,3.16521739 L10.8611111,3.16521739 Z" id="Shape"></path>
                    </g>
                </g>
            </g>
        </g>
    </g>
</svg>