<svg xmlns="http://www.w3.org/2000/svg" width="50" height="50" viewBox="0 0 50 50">
    <g fill="none" fill-rule="evenodd">
        <path fill="#{$brand-1}" d="M25 40a9 9 0 1 1 0-18 9 9 0 0 1 0 18zm0-6a3 3 0 1 0 0-6 3 3 0 0 0 0 6z"/>
        <path fill="#000" fill-rule="nonzero" d="M25 27c-2.206 0-4 1.794-4 4s1.794 4 4 4 4-1.794 4-4-1.794-4-4-4zm0 6c-1.103 0-2-.897-2-2s.897-2 2-2 2 .897 2 2-.897 2-2 2zM13.962 14h23.076c.531 0 .962-.448.962-1s-.43-1-.962-1H13.962c-.532 0-.962.448-.962 1s.43 1 .962 1zM16.2 21c.442 0 .8-.448.8-1s-.358-1-.8-1h-2.4c-.442 0-.8.448-.8 1s.358 1 .8 1h2.4zM36.2 19h-2.4c-.442 0-.8.448-.8 1s.358 1 .8 1h2.4c.442 0 .8-.448.8-1s-.358-1-.8-1z"/>
        <circle cx="25" cy="1" r="1" fill="#000" fill-rule="nonzero"/>
        <path fill="#000" fill-rule="nonzero" d="M49.023 0H29.395a.977.977 0 0 0 0 1.953h18.652v31.152h-13.48a9.75 9.75 0 0 0 0-3.906h8.304c.54 0 .977-.437.977-.976V7.129a.977.977 0 0 0-.977-.977H7.13a.977.977 0 0 0-.977.977v21.094c0 .539.438.976.977.975h8.303a9.769 9.769 0 0 0 0 3.907H1.953V1.953h18.652a.977.977 0 1 0 0-1.953H.977A.977.977 0 0 0 0 .977v33.105c0 .54.437.977.977.977h15.075a9.793 9.793 0 0 0 2.112 3.059v10.905a.976.976 0 0 0 1.413.874L25 47.186l5.423 2.71a.976.976 0 0 0 1.413-.873V38.118a9.796 9.796 0 0 0 2.112-3.06h15.075c.54 0 .977-.437.977-.976V.977A.977.977 0 0 0 49.023 0zM8.105 8.105h33.79v19.141h-7.947A9.786 9.786 0 0 0 25 21.386a9.787 9.787 0 0 0-8.949 5.86H8.105V8.106zM25.437 45.22a.977.977 0 0 0-.874 0l-4.446 2.223v-7.84a9.73 9.73 0 0 0 9.766 0v7.84l-4.446-2.223zM25 38.965c-4.281 0-7.813-3.483-7.813-7.813 0-4.324 3.525-7.812 7.813-7.812 4.28 0 7.813 3.48 7.813 7.812 0 4.306-3.509 7.813-7.813 7.813z"/>
    </g>
</svg>
