<svg xmlns="http://www.w3.org/2000/svg" width="19" height="17.781" viewBox="0 0 19 17.781">
  <defs>
    <style>
      .cls-1 {
        fill: #d8dee0;
        fill-rule: evenodd;
      }
    </style>
  </defs>
  <path id="Star_Filled_Icon_копия" data-name="Star Filled Icon копия" class="cls-1" d="M1127.93,330.786a1.216,1.216,0,0,1-.71-0.227,1.181,1.181,0,0,1-.46-1.265l1.39-5.029-4.15-3.274a1.194,1.194,0,0,1-.39-1.287,1.212,1.212,0,0,1,1.09-.817l5.32-.271,1.91-4.865a1.213,1.213,0,0,1,2.25,0l1.91,4.865,5.32,0.271a1.212,1.212,0,0,1,1.09.817,1.194,1.194,0,0,1-.39,1.287l-4.15,3.274,1.39,5.029a1.165,1.165,0,0,1-.46,1.265,1.217,1.217,0,0,1-1.36.036l-4.48-2.842-4.47,2.842A1.2,1.2,0,0,1,1127.93,330.786Z" transform="translate(-1123.56 -313)"/>
</svg>
