<svg xmlns="http://www.w3.org/2000/svg" width="19" height="17.781" viewBox="0 0 19 17.781">
  <defs>
    <style>
      .cls-1 {
        fill: #f26101;
        fill-rule: evenodd;
      }
    </style>
  </defs>
  <path id="Star_Filled_Icon" data-name="Star Filled Icon" class="cls-1" d="M1047.35,330.786a1.216,1.216,0,0,1-.71-0.227,1.176,1.176,0,0,1-.45-1.265l1.38-5.029-4.14-3.274a1.161,1.161,0,0,1-.39-1.287,1.189,1.189,0,0,1,1.08-.817l5.33-.271,1.9-4.865a1.221,1.221,0,0,1,2.26,0l1.9,4.865,5.33,0.271a1.189,1.189,0,0,1,1.08.817,1.177,1.177,0,0,1-.39,1.287l-4.14,3.274,1.38,5.029a1.176,1.176,0,0,1-.45,1.265,1.234,1.234,0,0,1-1.37.036l-4.47-2.842-4.47,2.842A1.232,1.232,0,0,1,1047.35,330.786Z" transform="translate(-1042.97 -313)"/>
</svg>
