<svg width="22" height="22" viewBox="0 0 22 22" fill="none" xmlns="http://www.w3.org/2000/svg">
<path d="M18.2042 4.50943H17.6388V3.25098C17.6388 1.45907 16.1797 0 14.3878 0H7.56212C5.77021 0 4.31114 1.45907 4.31114 3.25098V4.50943H3.79591C2.00399 4.50943 0.544922 5.9685 0.544922 7.76041V13.0039C0.544922 14.7959 2.00399 16.2549 3.79591 16.2549H4.30658V20.3768C4.30658 21.2705 5.03611 22 5.92979 22H16.011C16.9047 22 17.6342 21.2705 17.6342 20.3768V16.2549H18.2042C19.9961 16.2549 21.4552 14.7959 21.4552 13.0039V7.76041C21.4552 5.9685 19.9961 4.50943 18.2042 4.50943ZM5.53767 3.25098C5.53767 2.13845 6.44503 1.23109 7.55756 1.23109H14.3787C15.4912 1.23109 16.3986 2.13845 16.3986 3.25098V4.50943H5.53767V3.25098ZM16.4032 20.3859C16.4032 20.6002 16.2253 20.778 16.011 20.778H5.92979C5.71549 20.778 5.53767 20.6002 5.53767 20.3859V13.5876H16.4032V20.3859ZM20.2241 13.0085C20.2241 14.121 19.3167 15.0284 18.2042 15.0284H17.6388V13.5876H18.4504C18.7924 13.5876 19.066 13.314 19.066 12.972C19.066 12.6301 18.7924 12.3565 18.4504 12.3565H3.40378C3.06181 12.3565 2.78824 12.6301 2.78824 12.972C2.78824 13.314 3.06181 13.5876 3.40378 13.5876H4.31114V15.0284H3.79591C2.68337 15.0284 1.77601 14.121 1.77601 13.0085V7.76497C1.77601 6.65244 2.68337 5.74508 3.79591 5.74508H18.2042C19.3167 5.74508 20.2241 6.65244 20.2241 7.76497V13.0085Z" fill="#FFB900"/>
<path d="M7.02863 16.6154H14.8666C15.2085 16.6154 15.4821 16.3418 15.4821 15.9998C15.4821 15.6579 15.2085 15.3843 14.8666 15.3843H7.02863C6.68666 15.3843 6.41309 15.6579 6.41309 15.9998C6.41309 16.3418 6.69122 16.6154 7.02863 16.6154Z" fill="#FFB900"/>
<path d="M14.917 17.9009H7.07453C6.73256 17.9009 6.45898 18.1745 6.45898 18.5164C6.45898 18.8584 6.73256 19.132 7.07453 19.132H14.9125C15.2544 19.132 15.528 18.8584 15.528 18.5164C15.528 18.1745 15.2544 17.9009 14.917 17.9009Z" fill="#FFB900"/>
<path d="M18.1901 6.92627H16.9407C16.5988 6.92627 16.3252 7.19984 16.3252 7.54181C16.3252 7.88378 16.5988 8.15736 16.9407 8.15736H18.1901C18.532 8.15736 18.8056 7.88378 18.8056 7.54181C18.8056 7.19984 18.532 6.92627 18.1901 6.92627Z" fill="#FFB900"/>
</svg>
