<svg width="22" height="23" viewBox="0 0 22 23" fill="none" xmlns="http://www.w3.org/2000/svg">
<g clip-path="url(#clip0_813_7912)">
<path d="M19.3143 3.12891H2.69025C1.20629 3.12891 0 4.3352 0 5.81916V17.181C0 18.665 1.20629 19.8713 2.69025 19.8713H19.3097C20.7937 19.8713 22 18.665 22 17.181V5.82371C22.0046 4.33975 20.7983 3.12891 19.3143 3.12891ZM20.7755 17.181C20.7755 17.9868 20.12 18.6423 19.3143 18.6423H2.69025C1.88454 18.6423 1.22905 17.9868 1.22905 17.181V5.82371C1.22905 5.018 1.88454 4.36251 2.69025 4.36251H19.3097C20.1155 4.36251 20.771 5.018 20.771 5.82371V17.181H20.7755Z" fill="#FFB900"/>
<path d="M13.8748 11.3591L19.2553 6.53397C19.5057 6.30637 19.5285 5.91944 19.3009 5.66453C19.0733 5.41417 18.6863 5.39141 18.4314 5.61901L11.0116 12.2786L9.56405 10.9859C9.5595 10.9813 9.55494 10.9768 9.55494 10.9722C9.52308 10.9403 9.49122 10.913 9.4548 10.8857L3.56446 5.61446C3.30955 5.38685 2.92262 5.40961 2.69502 5.66453C2.46742 5.91944 2.49018 6.30637 2.7451 6.53397L8.18933 11.4001L2.76786 16.4756C2.52205 16.7078 2.50839 17.0947 2.74054 17.3451C2.86345 17.4725 3.02732 17.5408 3.19119 17.5408C3.34141 17.5408 3.49163 17.4862 3.60998 17.3769L9.1134 12.2286L10.6065 13.5623C10.7248 13.667 10.8705 13.7171 11.0161 13.7171C11.1618 13.7171 11.312 13.6625 11.4258 13.5578L12.9599 12.183L18.4314 17.3815C18.5498 17.4953 18.7045 17.5499 18.8548 17.5499C19.0186 17.5499 19.178 17.4862 19.3009 17.3587C19.533 17.1129 19.5239 16.7214 19.2781 16.4893L13.8748 11.3591Z" fill="#FFB900"/>
</g>
<defs>
<clipPath id="clip0_813_7912">
<rect width="22" height="22" fill="white" transform="translate(0 0.5)"/>
</clipPath>
</defs>
</svg>
