<?xml version="1.0" encoding="UTF-8"?>
<svg width="16px" height="16px" viewBox="0 0 16 16" version="1.1" xmlns="http://www.w3.org/2000/svg" xmlns:xlink="http://www.w3.org/1999/xlink">
    <!-- Generator: Sketch 52.3 (67297) - http://www.bohemiancoding.com/sketch -->
    <title>phone-in-talk</title>
    <desc>Created with Sketch.</desc>
    <g id="Page-1" stroke="none" stroke-width="1" fill="none" fill-rule="evenodd">
        <g id="Iteen_Index_без-сезонности" transform="translate(-1218.000000, -15.000000)" fill="#{$link-color-hover}">
            <g id="главный-экран">
                <g id="Group-44">
                    <g transform="translate(784.000000, 10.000000)">
                        <g id="Group-4" transform="translate(434.000000, 0.000000)">
                            <g id="phone-in-talk" transform="translate(0.000000, 5.000000)">
                                <path d="M15.1111111,11.1111111 C14.0444444,11.1111111 12.9777778,10.9333333 11.9111111,10.5777778 C11.6444444,10.4888889 11.2888889,10.5777778 11.0222222,10.7555556 L9.06666667,12.7111111 C6.57777778,11.4666667 4.53333333,9.33333333 3.2,6.84444444 L5.15555556,4.88888889 C5.42222222,4.62222222 5.51111111,4.26666667 5.33333333,4 C5.06666667,3.02222222 4.88888889,1.95555556 4.88888889,0.888888889 C4.88888889,0.355555556 4.53333333,0 4,0 L0.888888889,0 C0.355555556,0 0,0.355555556 0,0.888888889 C0,9.24444444 6.75555556,16 15.1111111,16 C15.6444444,16 16,15.6444444 16,15.1111111 L16,12 C16,11.4666667 15.6444444,11.1111111 15.1111111,11.1111111 L15.1111111,11.1111111 Z M14.2222222,8 L16,8 C16,3.55555556 12.4444444,0 8,0 L8,1.77777778 C11.4666667,1.77777778 14.2222222,4.53333333 14.2222222,8 L14.2222222,8 Z M10.6666667,8 L12.4444444,8 C12.4444444,5.51111111 10.4888889,3.55555556 8,3.55555556 L8,5.33333333 C9.51111111,5.33333333 10.6666667,6.48888889 10.6666667,8 L10.6666667,8 Z" id="Shape"></path>
                            </g>
                        </g>
                    </g>
                </g>
            </g>
        </g>
    </g>
</svg>