<svg xmlns="http://www.w3.org/2000/svg" width="15" height="16" viewBox="0 0 15 16">
  <defs>
    <style>
      .cls-1 {
        fill: #012d49;
        fill-rule: evenodd;
      }
    </style>
  </defs>
  <path id="Forma_1" data-name="Forma 1" class="cls-1" d="M1130,680h-13a1,1,0,0,0-1,1v14a1,1,0,0,0,1,1h13a1,1,0,0,0,1-1V681A1,1,0,0,0,1130,680Zm0,15.5V695h-13V681h13v14h0v0.5Zm-9.5-8.5h-2a0.5,0.5,0,0,0-.5.5v2a0.5,0.5,0,0,0,.5.5h2a0.5,0.5,0,0,0,.5-0.5v-2A0.5,0.5,0,0,0,1120.5,687Zm-0.5,2h-1v-1h1v1Zm4.5-2h-2a0.5,0.5,0,0,0-.5.5v2a0.5,0.5,0,0,0,.5.5h2a0.5,0.5,0,0,0,.5-0.5v-2A0.5,0.5,0,0,0,1124.5,687Zm-0.5,2h-1v-1h1v1Zm4.5-7h-10a0.5,0.5,0,0,0-.5.5v3a0.5,0.5,0,0,0,.5.5h10a0.5,0.5,0,0,0,.5-0.5v-3A0.5,0.5,0,0,0,1128.5,682Zm-0.5,3h-9v-2h9v2Zm-7.5,6h-2a0.5,0.5,0,0,0-.5.5v2a0.5,0.5,0,0,0,.5.5h2a0.5,0.5,0,0,0,.5-0.5v-2A0.5,0.5,0,0,0,1120.5,691Zm-0.5,2h-1v-1h1v1Zm4.5-2h-2a0.5,0.5,0,0,0-.5.5v2a0.5,0.5,0,0,0,.5.5h2a0.5,0.5,0,0,0,.5-0.5v-2A0.5,0.5,0,0,0,1124.5,691Zm-0.5,2h-1v-1h1v1Zm4.5-6h-2a0.5,0.5,0,0,0-.5.5v6a0.5,0.5,0,0,0,.5.5h2a0.5,0.5,0,0,0,.5-0.5v-6A0.5,0.5,0,0,0,1128.5,687Zm-0.5,6h-1v-5h1v5Z" transform="translate(-1116 -680)"/>
</svg>
