<svg xmlns="http://www.w3.org/2000/svg" id="Слой_1" viewBox="0 0 265 48" width="177" height="32"><style>.st0{fill:#2e3133}.st1{fill:#4a90e2}.st2{filter:url(#Adobe_OpacityMaskFilter)}.st3{fill:#fff}.st4{mask:url(#b);enable-background:new}</style><path class="st0" d="M73.3 19.6h-2.6c0-2.6-.6-3.8-4.1-3.8-3.7 0-4.2 1.3-4.2 4.8V28c0 3.4.6 4.8 4.2 4.8s4.2-.8 4.2-4.2h2.5c0 4.2-.4 6.7-6.7 6.7s-6.9-2.6-6.9-7.3v-7.3c0-4.7 1.1-7.3 6.9-7.3 5.6 0 6.7 2.1 6.7 6.2zm1.3-.7h11v2.5h-4.2v13.8h-2.7V21.3h-4.2l.1-2.4zM91.5 24l2.1 7.6c.3-1.6.8-3.7 2-7.7l1.6-4.9h2.8l-5.1 16.2-1 3.1c-1 3.3-2.8 4.1-6 2.8l.5-2.3c1.1.5 2.5.7 3.1-1.4l.7-2.3L87 19h3l1.5 5zm7 8.6h1.1c1-.8 1.5-2 1.9-3.2.3-1.3.4-2.9.4-4.3l.2-6.3h9.5v13.8h1.9v5.5H111V35h-10v3.1h-2.5v-5.5zm4.2 0h6.3V21.3h-4.3l-.1 3.8c0 1.6-.2 3.3-.6 5-.2 1-.7 1.8-1.3 2.5zm15.4-2l6.7-11.7h2.9v16.2H125V23.3l-6.8 11.8h-2.8V18.9h2.7v11.7zm12.3-6.2v-1.1c0-3.2 2.2-4.4 5-4.4h6v16.2h-2.7v-6h-2.4l-3.5 6h-3.1l3.8-6.3c-2-.5-3.1-1.9-3.1-4.4zm8.3-3.1h-3.1c-1.7 0-2.5.3-2.5 2.1v1c0 1.9.8 2.3 2.5 2.3h3.1v-5.4zm24.4-5.3h-8v6.1h2.9c4.4 0 7 2.1 7 6.6 0 4.4-2.6 6.4-7 6.4h-5.6V13.6h10.7V16zm-.9 12.7c0-2.4-1-4-4.2-4h-2.9v7.9h2.9c3.2 0 4.2-1.5 4.2-3.9zm11.1 4.4c2.5 0 3.5-1 3.5-3.9v-4.7c0-3-1.3-3.5-3.5-3.5s-3.5.6-3.5 3.5v4.7c0 2.9 1.1 3.9 3.5 3.9zm0 2.3c-4.4 0-6.1-1.8-6.1-6.2v-4.7c0-4.3 2.3-5.9 6.1-5.9s6.1 1.6 6.1 5.9v4.7c0 4.4-1.8 6.2-6.1 6.2zm9.2 5.2V18.8h2.2l.3 2.2c.5-1.4 2.2-2.2 4.1-2.2 3.3 0 5.5 1.5 5.5 5.9V29c0 4.4-2.1 6.3-5.5 6.3-1.8 0-3-.3-3.9-1.4v6.8h-2.7zm2.7-11.6c0 2.8 1 3.7 3.4 3.7s3.5-1 3.5-3.8v-4.3c0-2.7-1.1-3.4-3.3-3.4-2.3.1-3.5 1.1-3.5 4.3-.1 0-.1 3.5-.1 3.5zm18.5 4.1c2.5 0 3.5-1 3.5-3.9v-4.7c0-3-1.3-3.5-3.5-3.5s-3.5.6-3.5 3.5v4.7c0 2.9 1.1 3.9 3.5 3.9zm0 2.3c-4.4 0-6.1-1.8-6.1-6.2v-4.7c0-4.3 2.3-5.9 6.1-5.9s6.1 1.6 6.1 5.9v4.7c0 4.4-1.8 6.2-6.1 6.2zm8.9-.3V18.9h5.7c2.7 0 5 1.3 5 4.2 0 1.5-.4 2.6-1.9 3.2 1.8.6 2.7 2 2.7 3.9 0 3.7-2.4 4.9-5.8 4.9h-5.7zm5.7-13.9h-3.1v4.1h3.2c1.4 0 2.3-.7 2.3-2.1 0-1.3-1-2-2.4-2zm-3 11.5h3.1c2.4 0 3.1-.9 3.1-2.5 0-2-1.3-2.5-3.1-2.5h-3.2l.1 5zm17.4.4c2.5 0 3.5-1 3.5-3.9v-4.7c0-3-1.3-3.5-3.5-3.5s-3.5.6-3.5 3.5v4.7c.1 2.9 1.2 3.9 3.5 3.9zm0 2.3c-4.4 0-6.1-1.8-6.1-6.2v-4.7c0-4.3 2.3-5.9 6.1-5.9s6.1 1.6 6.1 5.9v4.7c.1 4.4-1.7 6.2-6.1 6.2zm11.7-.3h-2.6V18.9h8.7v2.5h-6.1v13.7zm14-2c2.5 0 3.5-1 3.5-3.9v-4.7c0-3-1.3-3.5-3.5-3.5s-3.5.6-3.5 3.5v4.7c0 2.9 1.1 3.9 3.5 3.9zm0 2.3c-4.4 0-6.1-1.8-6.1-6.2v-4.7c0-4.3 2.3-5.9 6.1-5.9s6.1 1.6 6.1 5.9v4.7c0 4.4-1.8 6.2-6.1 6.2z"/><circle id="a_1_" class="st1" cx="23.5" cy="23.5" r="23.5"/><defs><filter id="Adobe_OpacityMaskFilter" filterUnits="userSpaceOnUse" x="6.4" y="12.9" width="39.8" height="28.4"><feColorMatrix values="1 0 0 0 0 0 1 0 0 0 0 0 1 0 0 0 0 0 1 0"/></filter></defs><mask maskUnits="userSpaceOnUse" x="6.4" y="12.9" width="39.8" height="28.4" id="b"><g class="st2"><circle id="a" class="st3" cx="23.5" cy="23.5" r="23.5"/></g></mask><g class="st4"><path class="st3" d="M19 41.2l-.4-2.4c-.8 1.5-2.6 2.5-5.1 2.5-4.3 0-7.1-2.4-7.1-8.4v-5.6c0-5.1 2.5-8.1 7.3-8.1 1.8 0 3.6.5 4.4 1.9v-8.3h5v28.3H19zm-7.6-13.6v5.1c0 3.1 1.3 4.2 3.3 4.2 2.5 0 3.4-1.8 3.4-4.3v-5c0-2.6-1.3-3.6-3.3-3.6-2.1 0-3.4 1-3.4 3.6zm15.4-14.7h8.4c5.1 0 8.3 3.1 8.3 7.5 0 1.7-.3 3.5-2.6 5 2.9.6 5.2 3.2 5.2 7.1 0 6.4-3.2 8.8-10 8.8h-9.3V12.9zm5.1 23.7h4.4c3.9 0 4.5-1.4 4.5-4.1 0-2.8-.9-4.1-4.6-4.1h-4.3v8.2zm0-19.3v6.5h3.4c2.1 0 3.1-1.5 3.1-3.3 0-1.4-.6-3.2-3.1-3.2h-3.4z"/></g></svg>