<svg width="100" height="47" viewBox="0 0 100 47" fill="none" xmlns="http://www.w3.org/2000/svg">
    <g clip-path="url(#clip0_668_2326)">
        <path d="M23.4972 26.4199L22.8255 31.039H23.0208L25.8159 26.4199H27.9882L24.5476 31.3805C25.3645 31.8681 25.6813 33.1848 25.9255 34.7623C26.1089 36.0147 26.2303 36.8111 26.4018 37.3806H24.5952C24.4618 36.9257 24.3022 35.9013 24.1688 34.8769C23.9735 33.559 23.7163 32.7463 22.8136 32.7463H22.5944L21.9347 37.3806H20.1899L21.7644 26.4199H23.4972Z" fill="white"/>
        <path d="M29.1218 34.2257C29.1218 35.1531 29.4624 35.7705 30.0733 35.7705C31.038 35.7705 31.5739 33.9007 31.5739 32.5348C31.5739 31.8028 31.3429 31.0228 30.6343 31.0228C29.622 31.0228 29.1099 32.9897 29.1218 34.2257ZM33.3925 32.5184C33.3925 35.4302 31.9038 37.5597 29.8292 37.5597C28.3155 37.5597 27.3032 36.2429 27.3032 34.2749C27.3032 31.5104 28.7431 29.25 30.8665 29.25C32.4647 29.25 33.3925 30.7141 33.3925 32.5184Z" fill="white"/>
        <path d="M35.9426 35.3963C36.1379 35.6407 36.4058 35.7869 36.7476 35.7869C37.6873 35.7869 38.4197 33.9989 38.4197 32.4366C38.4197 31.8028 38.2232 31.1362 37.6504 31.1362C36.9918 31.1362 36.382 32.1279 36.1617 33.689L35.9426 35.3963ZM33.4404 40.6001L34.5873 32.5021C34.7207 31.5584 34.8684 30.2416 34.941 29.4289H36.5154L36.4058 30.5831H36.4309C36.9179 29.7213 37.6254 29.25 38.3459 29.25C39.6392 29.25 40.2621 30.6322 40.2621 32.2588C40.2621 35.0233 38.883 37.5597 36.8084 37.5597C36.3201 37.5597 35.9057 37.3971 35.6984 37.2346H35.6734L35.1851 40.6001H33.4404Z" fill="white"/>
        <path d="M41.9448 32.6646H44.2266C44.2266 32.6003 44.2266 32.5512 44.2266 32.5021C44.2266 31.6893 43.7622 31.0228 42.8845 31.0228C42.4081 31.0228 41.9448 31.1526 41.6399 31.3151L41.3458 29.7049C41.8353 29.4453 42.445 29.25 43.1167 29.25C44.9722 29.25 45.9594 30.7456 45.9594 32.9897C45.9594 35.6898 44.6292 37.5597 42.2866 37.5597C41.5411 37.5597 40.9433 37.3492 40.48 37.0065L40.8944 35.3647C41.2243 35.5764 41.7376 35.7553 42.3104 35.7553C43.1774 35.7553 43.8479 35.2022 44.0671 34.1614H41.7376L41.9448 32.6646Z" fill="white"/>
        <path d="M49.4001 29.4287L48.9356 32.6971H49.1071L51.1091 29.4287H53.1706L50.5589 32.9731C51.121 33.283 51.4009 34.1764 51.5604 35.3318C51.6819 36.0463 51.8034 36.8602 51.9511 37.3805H50.2171C50.0956 36.99 49.9979 36.1936 49.8765 35.4943C49.6931 34.5354 49.4608 34.063 48.8868 34.063H48.7403L48.2651 37.3805H46.5562L47.6911 29.4287H49.4001Z" fill="white"/>
        <path d="M56.9765 37.1363C56.5978 37.3807 55.9881 37.5433 55.2807 37.5433C53.8039 37.5433 52.7666 36.3564 52.7666 34.2912C52.7666 31.4613 54.3886 29.25 56.6586 29.25C57.1718 29.25 57.6113 29.3798 57.8805 29.526L57.441 31.3151C57.2326 31.2017 56.9884 31.1198 56.6359 31.1198C55.3902 31.1198 54.609 32.5348 54.609 34.0305C54.609 35.1203 55.1342 35.6734 55.7808 35.6734C56.2941 35.6734 56.6586 35.5109 56.9646 35.3484L56.9765 37.1363Z" fill="white"/>
        <path d="M58.8071 29.8031C59.2823 29.4932 60.0016 29.25 60.7341 29.25C62.0274 29.25 62.7229 30.0955 62.7229 31.4297C62.7229 32.8272 61.8071 33.5264 60.6971 34.1287C60.0385 34.5193 59.5991 34.828 59.5991 35.2829C59.5991 35.608 59.7706 35.836 60.2089 35.836C60.8317 35.836 61.4534 35.4945 61.844 35.2174L62.0405 36.8767C61.4784 37.2673 60.6483 37.5597 59.929 37.5433C58.6106 37.5433 57.7817 36.7961 57.7817 35.3647C57.7817 33.7054 58.8667 33.1031 59.904 32.5348C60.4899 32.2097 61.0151 31.9174 61.0151 31.4941C61.0151 31.1853 60.771 30.9737 60.3684 30.9573C59.8671 30.9573 59.38 31.1526 58.9881 31.3806L58.8071 29.8031Z" fill="white"/>
        <path d="M67.4684 31.0883C67.335 31.0544 67.1635 31.0228 66.9932 31.0228C65.8583 31.0228 65.0282 32.8763 65.0282 34.3567C65.0282 35.1367 65.2604 35.6734 65.7487 35.6734C66.2727 35.6734 66.9194 34.8771 67.1874 32.9242L67.4684 31.0883ZM66.9563 37.3807C66.9682 36.9095 67.0051 36.3727 67.0409 35.8032H67.0051C66.4549 37.1211 65.6987 37.5597 65.0032 37.5597C63.9302 37.5597 63.1978 36.4534 63.1978 34.7952C63.1978 32.1115 64.528 29.25 67.4684 29.25C68.1758 29.25 68.9464 29.4289 69.4465 29.6406L68.8118 33.8024C68.6653 34.828 68.5545 36.3891 68.5796 37.3807H66.9563Z" fill="white"/>
        <path d="M71.8847 35.3963C72.0812 35.6407 72.3492 35.7869 72.691 35.7869C73.6294 35.7869 74.3631 33.9989 74.3631 32.4366C74.3631 31.8028 74.1677 31.1362 73.5937 31.1362C72.9351 31.1362 72.3242 32.1279 72.1051 33.689L71.8847 35.3963ZM69.3838 40.6001L70.5307 32.5021C70.6652 31.5584 70.8105 30.2416 70.8844 29.4289H72.4588L72.3492 30.5831H72.3742C72.8625 29.7213 73.5699 29.25 74.2892 29.25C75.5826 29.25 76.2054 30.6322 76.2054 32.2588C76.2054 35.0233 74.8263 37.5597 72.7529 37.5597C72.2635 37.5597 71.849 37.3971 71.6406 37.2346H71.6168L71.1285 40.6001H69.3838Z" fill="white"/>
        <path d="M81.1713 31.0883C81.0367 31.0544 80.8652 31.0228 80.6949 31.0228C79.56 31.0228 78.7299 32.8763 78.7299 34.3567C78.7299 35.1367 78.9609 35.6734 79.4504 35.6734C79.9744 35.6734 80.6211 34.8771 80.889 32.9242L81.1713 31.0883ZM80.658 37.3807C80.6699 36.9095 80.7068 36.3727 80.7425 35.8032H80.7068C80.1566 37.1211 79.4016 37.5597 78.7061 37.5597C77.6306 37.5597 76.8994 36.4534 76.8994 34.7952C76.8994 32.1115 78.2297 29.25 81.1713 29.25C81.8787 29.25 82.6468 29.4289 83.1482 29.6406L82.5135 33.8024C82.3658 34.828 82.2562 36.3891 82.2812 37.3807H80.658Z" fill="white"/>
        <path d="M86.4519 29.4287L86.0387 32.3557H87.856L88.2717 29.4287H90.0283L88.8933 37.3805H87.1355L87.5988 34.1612H85.7814L85.3301 37.3805H83.5723L84.6965 29.4287H86.4519Z" fill="white"/>
        <path d="M90.3691 37.3807L91.1135 32.0144C91.2469 31.0064 91.3445 30.1282 91.4184 29.4289H92.9308L92.8213 30.7141H92.8463C93.3822 29.6885 94.1158 29.25 94.884 29.25C95.8355 29.25 96.2511 30.0464 96.3 30.7456C96.8371 29.7213 97.5814 29.25 98.3496 29.25C99.2773 29.25 99.8144 30.03 99.8144 31.3806C99.8144 31.7221 99.7656 32.3395 99.7048 32.7465L99.0582 37.3807H97.3611L97.9589 33.0388C98.0078 32.7137 98.0447 32.3723 98.0447 32.0635C98.0447 31.5104 97.8613 31.1198 97.4468 31.1198C96.8609 31.1198 96.2869 32.177 96.0546 33.7708L95.5556 37.3807H93.8586L94.4695 33.0061C94.5183 32.681 94.5541 32.3723 94.5541 32.0951C94.5541 31.5584 94.4195 31.1198 93.9931 31.1198C93.3953 31.1198 92.7724 32.2425 92.5521 33.8024L92.065 37.3807H90.3691Z" fill="white"/>
        <path d="M14.9428 18.9416L17.9129 18.896L19.186 20.1473L19.1956 20.1484L20.9593 21.8826L14.801 27.9295L14.9428 18.9416ZM13.0611 29.6368L13.0242 29.6731L2.32128 19.1661L2.3582 19.1287L13.2302 18.9674L13.0611 29.6368ZM24.1582 7.82192H19.354L19.3682 2.42637L19.3742 2.41936L24.9204 7.82192H24.1582ZM17.6509 4.11263L17.6414 7.82192H13.8733L17.6509 4.11263ZM42.2805 12.061C42.2758 12.0574 41.8208 11.7043 41.3123 11.1898C41.254 11.1313 41.1253 10.9278 41.0217 10.7641C40.4501 9.86133 39.2163 8.18093 36.7642 8.18093C34.5526 8.18093 33.0723 9.91045 31.979 11.0553C31.7599 11.2856 31.4824 11.5768 31.293 11.7429L19.3742 0.0419922L11.4509 7.82192H6.63363L8.34738 9.5035H24.993C24.993 9.5035 26.0113 9.48596 26.4388 9.66137C27.0545 9.91513 27.7167 10.5747 28.3645 11.2038C29.1648 11.9791 29.7091 12.5322 30.139 12.9064L30.1616 12.9286H30.164C30.6249 13.3262 30.9548 13.511 31.318 13.511C31.985 13.511 32.4792 12.9918 33.2295 12.206C34.1727 11.2178 35.2957 9.8625 36.7642 9.8625C38.2647 9.8625 39.0627 10.8553 39.5676 11.6528C39.7439 11.9311 39.8963 12.1732 40.0833 12.3615C40.2059 12.4866 40.3274 12.6024 40.4406 12.7088C40.2619 12.8795 40.0761 13.076 39.9094 13.29C36.8439 17.2308 33.0973 22.3223 28.586 22.3223H22.9339L26.8628 18.4645H19.903L18.0022 16.5993H23.3162L25.0299 14.9166H13.8602L15.5728 16.5993H15.5811L16.2325 17.239L4.09814 17.4214L10.2541 11.3757L11.9595 13.0514H23.5877L25.3003 11.3698H7.83766L-0.101074 19.1661L13.0242 32.0528L21.2201 24.0039H28.586C35.5173 24.0039 39.9666 15.6241 41.2706 14.312C41.7113 13.8688 42.2365 13.4151 42.2412 13.4128L43.1904 12.7626L42.2805 12.061Z" fill="white"/>
        <path d="M38.486 12.559C38.486 12.2877 38.2609 12.0679 37.9858 12.0679C37.7095 12.0679 37.4868 12.2877 37.4868 12.559C37.4868 12.8291 37.7095 13.049 37.9858 13.049C38.2609 13.049 38.486 12.8291 38.486 12.559Z" fill="white"/>
    </g>
    <defs>
        <clipPath id="clip0_668_2326">
            <rect width="100" height="47" fill="white"/>
        </clipPath>
    </defs>
</svg>
