<?xml version="1.0" encoding="UTF-8" standalone="no"?>
<svg width="18px" height="12px" viewBox="0 0 18 12" version="1.1" xmlns="http://www.w3.org/2000/svg" xmlns:xlink="http://www.w3.org/1999/xlink">
    <!-- Generator: Sketch 42 (36781) - http://www.bohemiancoding.com/sketch -->
    <title>mail</title>
    <desc>Created with Sketch.</desc>
    <defs></defs>
    <g id="Page-1" stroke="none" stroke-width="1" fill="none" fill-rule="evenodd">
        <g id="mail" fill-rule="nonzero" fill="#{$brand-1}">
            <g id="All_glyphs">
                <path d="M16.7,3.5 L10,7.4 C9.7,7.6 9.4,7.7 9,7.7 C8.6,7.7 8.3,7.6 8,7.4 L1.3,3.5 C0.9,3.3 0.5,3.6 0.5,4 L0.5,8.9 C0.5,10.6 1.8,12 3.3,12 L14.6,12 C16.2,12 17.4,10.6 17.4,8.9 L17.4,4 C17.5,3.5 17,3.2 16.7,3.5 Z M10,5.5 L17.1,1.4 C17.1,0.6 16.5,0.1 15.6,0.1 L2.4,0.1 C1.6,0.1 0.9,0.6 0.9,1.4 L8,5.5 C8.6,5.8 9.4,5.8 10,5.5 Z" id="Shape"></path>
            </g>
        </g>
    </g>
</svg>