<svg width="22" height="22" viewBox="0 0 22 22" fill="none" xmlns="http://www.w3.org/2000/svg">
<path d="M10.9952 0C6.13399 0 2.17676 3.95723 2.17676 8.81845C2.17676 9.37191 2.22749 9.92998 2.33357 10.4742C2.33818 10.5065 2.35663 10.6034 2.39353 10.7694C2.52728 11.3644 2.7256 11.9501 2.98389 12.5082C3.93399 14.7451 6.0233 18.1811 10.6078 21.8616C10.7231 21.9539 10.8615 22 10.9998 22C11.1382 22 11.2765 21.9539 11.3919 21.8616C15.9717 18.1811 18.0656 14.7451 19.0158 12.5082C19.274 11.9501 19.4724 11.369 19.6061 10.7694C19.643 10.6034 19.6615 10.5065 19.6661 10.4742C19.7675 9.92998 19.8229 9.37191 19.8229 8.81845C19.8137 3.95723 15.8564 0 10.9952 0ZM18.43 10.2574C18.43 10.2667 18.4254 10.2759 18.4254 10.2851C18.4208 10.3082 18.4069 10.3774 18.3839 10.4834C18.3839 10.4881 18.3839 10.4881 18.3839 10.4927C18.2686 11.0092 18.0979 11.512 17.8719 11.9962C17.8673 12.0008 17.8673 12.0101 17.8627 12.0147C17.0002 14.0579 15.1093 17.1757 10.9952 20.5748C6.88116 17.1757 4.99018 14.0579 4.1277 12.0147C4.12309 12.0101 4.12309 12.0008 4.11848 11.9962C3.89709 11.5166 3.72644 11.0092 3.60653 10.4927C3.60653 10.4881 3.60653 10.4881 3.60653 10.4834C3.57885 10.3774 3.56963 10.3082 3.56502 10.2851C3.56502 10.2759 3.56041 10.2667 3.56041 10.2528C3.46816 9.77778 3.42204 9.29811 3.42204 8.81384C3.42204 4.63983 6.8212 1.24067 10.9952 1.24067C15.1692 1.24067 18.5684 4.63983 18.5684 8.81384C18.5684 9.30273 18.5223 9.787 18.43 10.2574Z" fill="#FFB900"/>
<path d="M10.9956 3.31604C7.91011 3.31604 5.39648 5.82967 5.39648 8.9152C5.39648 12.0007 7.91011 14.5144 10.9956 14.5144C14.0812 14.5144 16.5948 12.0007 16.5948 8.9152C16.5948 5.82967 14.0812 3.31604 10.9956 3.31604ZM10.9956 13.2691C8.59271 13.2691 6.64177 11.3135 6.64177 8.9152C6.64177 6.51688 8.59732 4.56132 10.9956 4.56132C13.394 4.56132 15.3495 6.51688 15.3495 8.9152C15.3495 11.3135 13.3986 13.2691 10.9956 13.2691Z" fill="#FFB900"/>
</svg>
