<?xml version="1.0" encoding="utf-8"?>
<!-- Generator: Adobe Illustrator 17.1.0, SVG Export Plug-In . SVG Version: 6.00 Build 0)  -->
<!DOCTYPE svg PUBLIC "-//W3C//DTD SVG 1.1//EN" "http://www.w3.org/Graphics/SVG/1.1/DTD/svg11.dtd">
<svg version="1.1" id="Layer_1" xmlns="http://www.w3.org/2000/svg" xmlns:xlink="http://www.w3.org/1999/xlink" x="0px" y="0px"
	 width="16px" height="16px" viewBox="0 0 16 16" enable-background="new 0 0 16 16" xml:space="preserve">
<g>
	<path fill="#8B51A2" d="M4,15.9c0-0.1,0-0.2,0-0.3c0-0.8,0-1.6,0-2.4c0-0.1-0.1-0.3-0.2-0.3c-1.7-0.5-2.6-1.7-2.9-3.4
		C0.6,7.9,0.7,6.2,1,4.6c0.4-1.8,1.5-2.9,3.3-3.3C5.7,0.9,7.1,0.9,8.5,1c1,0,2.1,0.2,3.1,0.6c1.3,0.4,2,1.3,2.4,2.5
		c0.6,2.1,0.5,4.2,0,6.3c-0.4,1.3-1.3,2.1-2.6,2.5c-1.5,0.4-3,0.6-4.5,0.5c-0.2,0-0.4,0.1-0.5,0.2C5.6,14.3,5,15,4.3,15.7
		c-0.1,0.1-0.2,0.2-0.2,0.3C4,15.9,4,15.9,4,15.9z M3,4.6C3,4.8,3,5,3.1,5.1c1.2,3.1,3.3,5.2,6.3,6.5c0.5,0.2,0.9,0.1,1.3-0.2
		c0.3-0.3,0.5-0.5,0.7-0.9c0.2-0.4,0.2-0.7-0.2-1c-0.4-0.3-0.8-0.7-1.3-1C9.4,8.3,9.1,8.3,8.6,8.9C8.3,9.3,8.2,9.3,7.8,9.2
		c-0.9-0.4-1.6-1-2-1.8C5.4,6.7,5.5,6.5,6,6c0.4-0.3,0.5-0.6,0.2-1C5.9,4.4,5.5,3.9,5.1,3.4C4.9,3.2,4.6,3.1,4.3,3.2
		c-0.5,0.2-0.9,0.5-1.2,1C3,4.3,3,4.5,3,4.6z M7.7,3.1c-0.1,0-0.2,0-0.3,0c-0.1,0-0.2,0.1-0.2,0.2c0,0.1,0.1,0.2,0.2,0.3
		c0,0,0.1,0,0.2,0c1.3,0.1,2.4,0.7,3,1.9C10.9,6,11,6.6,11,7.3c0,0.1,0.2,0.2,0.3,0.3c0.1-0.1,0.2-0.2,0.3-0.3c0-0.2,0-0.4,0-0.6
		C11.3,4.7,9.7,3.2,7.7,3.1z M10.5,6.7C10.5,6.7,10.5,6.7,10.5,6.7c-0.1-0.4-0.1-0.8-0.3-1.1c-0.5-1-1.3-1.4-2.3-1.5
		c-0.1,0-0.2,0.1-0.4,0.2c0.1,0.1,0.2,0.2,0.3,0.3c0,0,0.1,0,0.2,0c1,0.1,1.7,0.7,1.9,1.6c0.1,0.2,0,0.5,0.1,0.7
		c0,0.1,0.2,0.2,0.3,0.3c0.1-0.1,0.2-0.2,0.2-0.3C10.5,6.9,10.5,6.8,10.5,6.7z M9.5,6.6c0-0.8-0.6-1.5-1.3-1.5
		C8,5.1,7.9,5.3,7.8,5.4C7.7,5.5,7.9,5.6,8.1,5.7c0.7,0.1,0.7,0.2,0.9,0.9c0,0.1,0.2,0.3,0.3,0.3C9.3,6.9,9.4,6.7,9.5,6.6z"/>
	<g>
		<path fill="#FFFFFF" d="M2.9,4.6C3,4.5,3,4.4,3,4.3c0.3-0.5,0.7-0.8,1.2-1c0.3-0.1,0.6,0,0.8,0.2C5.4,4,5.8,4.5,6.1,5
			c0.3,0.4,0.2,0.7-0.2,1C5.4,6.5,5.3,6.7,5.7,7.3c0.4,0.8,1.1,1.4,2,1.8c0.4,0.2,0.6,0.1,0.8-0.2C9,8.3,9.2,8.2,9.9,8.7
			c0.4,0.3,0.9,0.6,1.3,0.9c0.3,0.3,0.4,0.6,0.2,0.9c-0.2,0.3-0.4,0.6-0.7,0.8c-0.4,0.3-0.8,0.4-1.3,0.2c-3-1.3-5.1-3.4-6.3-6.4
			C3,5,3,4.8,2.9,4.6z"/>
		<path fill="#FFFFFF" d="M7.6,3.1c1.9,0.1,3.5,1.6,3.7,3.5c0,0.2,0.1,0.4,0,0.6c0,0.1-0.2,0.2-0.3,0.3c-0.1-0.1-0.3-0.2-0.3-0.3
			c0-0.6-0.1-1.2-0.4-1.8c-0.6-1.2-1.6-1.8-3-1.8c-0.1,0-0.2,0-0.2,0C7.2,3.6,7.1,3.5,7.1,3.4c0-0.1,0.1-0.2,0.2-0.2
			C7.4,3.1,7.5,3.1,7.6,3.1z"/>
		<path fill="#FFFFFF" d="M10.3,6.7c0,0.1,0,0.2,0,0.2c-0.1,0.1-0.2,0.2-0.2,0.3C10,7.1,9.9,7,9.8,6.9c-0.1-0.2,0-0.5-0.1-0.7
			C9.5,5.4,8.8,4.8,7.9,4.7c-0.1,0-0.1,0-0.2,0C7.6,4.6,7.5,4.5,7.4,4.4c0.1-0.1,0.2-0.2,0.4-0.2c1,0.1,1.8,0.5,2.3,1.5
			C10.2,5.9,10.3,6.3,10.3,6.7C10.4,6.7,10.4,6.7,10.3,6.7z"/>
		<path fill="#FFFFFF" d="M9.4,6.6c0,0-0.2,0.2-0.2,0.2C9,6.8,8.9,6.7,8.8,6.6C8.7,5.9,8.6,5.8,8,5.7c-0.2,0-0.3-0.1-0.3-0.3
			c0-0.1,0.2-0.2,0.3-0.2C8.8,5.2,9.4,5.8,9.4,6.6z"/>
	</g>
</g>
</svg>
