<svg width="24" height="25" viewBox="0 0 24 25" fill="none" xmlns="http://www.w3.org/2000/svg">
<path d="M23.3124 12.2226C22.9304 12.2226 22.6248 12.5282 22.6248 12.9102V19.1649C22.6248 20.8661 21.2394 22.2464 19.5433 22.2464H4.45671C2.75552 22.2464 1.37521 20.861 1.37521 19.1649V12.8083C1.37521 12.4263 1.06961 12.1207 0.687606 12.1207C0.305603 12.1207 0 12.4263 0 12.8083V19.1649C0 21.625 2.0017 23.6216 4.45671 23.6216H19.5433C22.0034 23.6216 24 21.6199 24 19.1649V12.9102C24 12.5333 23.6944 12.2226 23.3124 12.2226Z" fill="#022132"/>
<path d="M11.5171 18.1612C11.6496 18.2936 11.8278 18.365 12.001 18.365C12.1742 18.365 12.3524 18.2987 12.4849 18.1612L16.855 13.7911C17.1249 13.5212 17.1249 13.0882 16.855 12.8183C16.585 12.5483 16.1521 12.5483 15.8822 12.8183L12.6886 16.0169V2.06615C12.6886 1.68414 12.383 1.37854 12.001 1.37854C11.619 1.37854 11.3134 1.68414 11.3134 2.06615V16.0169L8.11475 12.8183C7.8448 12.5483 7.41186 12.5483 7.14192 12.8183C6.87197 13.0882 6.87197 13.5212 7.14192 13.7911L11.5171 18.1612Z" fill="#022132"/>
</svg>
