<?xml version="1.0" encoding="UTF-8" standalone="no"?>
<svg width="175px" height="56px" viewBox="0 0 175 56" version="1.1" xmlns="http://www.w3.org/2000/svg" xmlns:xlink="http://www.w3.org/1999/xlink">
    <!-- Generator: Sketch 42 (36781) - http://www.bohemiancoding.com/sketch -->
    <title>db_logo1</title>
    <desc>Created with Sketch.</desc>
    <defs>
        <linearGradient x1="0%" y1="0%" x2="101.999998%" y2="100.999999%" id="linearGradient-1">
            <stop stop-color="#25D3FD" offset="0%"></stop>
            <stop stop-color="#4038C9" offset="100%"></stop>
        </linearGradient>
        <circle id="path-2" cx="28" cy="28" r="28"></circle>
        <path d="M51.065,19.312 C48.072,19.312 45.074,21.131 43.019,23.187 L43.019,7.938 C46.87011,10.8366405 49.7878862,14.7997824 51.412,19.338 C51.296,19.333 51.184,19.315 51.065,19.315 L51.065,19.315 L51.065,19.312 Z M25.654,25.532 L25.654,43.139 C24.071,44.839 21.817,46.78 19.412,46.78 C13.542,46.78 12.078,38.914 12.078,34.336 C12.078,29.936 13.66,21.836 19.412,21.836 C21.817,21.836 24.339,23.829 25.922,25.536 L25.654,25.536 L25.654,25.532 Z M33.037,6.985 L33.037,8.685 C37.203,8.979 37.775,8.744 37.775,13.853 L37.775,48.953 L38.391,48.953 L42.442,44.963 C43.0452995,45.6376042 43.6970307,46.2672769 44.392,46.847 C35.6313911,54.5182611 22.7208542,55.0838165 13.323,48.208 C14.7308593,48.9421399 16.2972691,49.3198363 17.885,49.308 C20.936,49.308 23.485,47.489 25.654,45.317 L25.654,48.931 L34.94,48.931 L34.94,46.961 C30.951,46.492 30.951,46.14 30.951,40.623 L30.951,3.642 L20.937,6.985 L20.937,8.685 C25.102,8.979 25.655,8.744 25.655,13.853 L25.655,23.125 C23.249,21.071 20.82,19.31 17.475,19.31 C13.31,19.31 6.504,23.01 6.504,34.452 C6.46408067,38.1197714 7.51336359,41.716915 9.519,44.788 C1.5566077,36.0492248 0.816095504,22.9234024 7.74507012,13.3445092 C14.6740447,3.76561607 27.3721727,0.360749478 38.164,5.188 L33.037,6.985 Z M43.012,25.59 C44.479,24.006 46.312,22.423 48.601,22.423 C50.0516349,22.4108717 51.4635114,22.8910154 52.606,23.785 C54.0133298,31.6501613 51.5208173,39.709546 45.919,45.407 C44.8868434,44.7799157 43.9138383,44.0602869 43.012,43.257 L43.012,25.59 Z" id="path-3"></path>
    </defs>
    <g id="Page-1" stroke="none" stroke-width="1" fill="none" fill-rule="evenodd">
        <g id="db_logo1">
            <g id="Group">
                <g id="Oval" fill-rule="nonzero">
                    <use fill="#1173B9" fill-rule="evenodd" xlink:href="#path-2"></use>
                    <use fill="url(#linearGradient-1)" fill-rule="evenodd" xlink:href="#path-2"></use>
                </g>
                <circle id="Shape_1_copy_2" fill="#FFFFFF" fill-rule="nonzero" cx="28" cy="28" r="26"></circle>
                <g id="Shape_1_copy">
                    <use fill="#1173B9" xlink:href="#path-3"></use>
                    <use fill="url(#linearGradient-1)" xlink:href="#path-3"></use>
                </g>
                <path d="M72.639,19.371 C72.6823438,20.2807541 72.4618294,21.1836479 72.004,21.971 C71.4744921,22.5115108 70.7244897,22.7762827 69.973,22.688 C69.1316275,22.7671333 68.3163106,22.3706594 67.859,21.66 C67.3522756,20.4669317 67.1409604,19.1691956 67.243,17.877 L67.243,14.382 C67.1803429,13.196488 67.4068474,12.0135162 67.903,10.935 C68.3568204,10.215401 69.1757453,9.81096025 70.023,9.888 C70.7779476,9.79784972 71.5305098,10.073975 72.048,10.631 C72.498929,11.4562923 72.706953,12.3924006 72.648,13.331 L76.4,13.331 C76.3835083,11.5567789 75.7531251,9.84301283 74.616,8.481 C73.3978104,7.28559062 71.7255177,6.66990435 70.023,6.79 C68.1896013,6.6958038 66.4163294,7.45794129 65.223,8.853 C63.9734226,10.5451472 63.3630523,12.6249404 63.5,14.724 L63.5,17.834 C63.364586,19.9288999 63.9542746,22.0065812 65.17,23.718 C66.3553784,25.1267301 68.1372365,25.8917609 69.975,25.781 C71.6718403,25.8875054 73.3393049,25.3011323 74.596,24.156 C75.7772902,22.8458327 76.4130169,21.1336279 76.373,19.37 L72.639,19.37 L72.639,19.371 Z M89.623,7.044 L76.813,7.044 L76.813,10.154 L81.307,10.154 L81.307,25.528 L85.052,25.528 L85.052,10.154 L89.622,10.154 L89.622,7.044 L89.623,7.044 Z M94.203,7.044 L90.203,7.044 L95.484,20.285 L95.306,20.958 C95.2303194,21.4804171 95.0131454,21.9721708 94.678,22.38 C94.3708022,22.6126718 93.9893196,22.7253745 93.605,22.697 C93.3289516,22.7124127 93.0520483,22.695295 92.78,22.646 L92.843,25.746 L93.732,25.797 L94.14,25.797 C95.0131248,25.7927989 95.8581687,25.4880463 96.533,24.934 C97.3874351,24.0865389 98.0253934,23.0459123 98.393,21.9 L103.459,7.046 L99.446,7.046 L96.958,15.26 L94.203,7.044 Z M118.88,22.43 L116.963,22.43 L116.963,7.044 L106.337,7.044 L105.817,15.664 C105.740768,17.1339071 105.519357,18.5926725 105.156,20.019 C104.955119,20.9243125 104.511997,21.7580188 103.874,22.431 L102.643,22.431 L102.843,30.061 L106.372,30.061 L106.372,25.528 L115.119,25.528 L115.119,30.073 L118.547,30.073 L118.88,22.43 Z M109.587,15.245 L109.887,10.154 L113.238,10.154 L113.238,22.43 L107.881,22.43 C108.932109,20.1761279 109.510654,17.7309246 109.581,15.245 L109.581,15.245 L109.587,15.245 Z M123.753,19.295 L123.753,7.044 L120.007,7.044 L120.007,25.528 L123.753,25.528 L129.2,13.29 L129.2,25.528 L132.932,25.528 L132.932,7.044 L129.2,7.044 L123.753,19.295 Z M145.891,25.528 L145.891,7.044 L140.343,7.044 C138.746008,6.94123614 137.173322,7.47517289 135.969,8.529 C134.886397,9.66070564 134.327169,11.1940471 134.427,12.757 C134.30805,14.6368662 135.173095,16.4438061 136.712,17.53 L133.437,25.53 L137.461,25.53 L140.19,18.878 L142.146,18.878 L142.146,25.53 L145.891,25.53 L145.891,25.528 Z M140.291,10.154 L142.145,10.154 L142.145,15.969 L140.418,15.969 C139.773554,16.021654 139.142464,15.7647634 138.718,15.277 C138.298742,14.6133906 138.107072,13.8312654 138.172,13.049 C138.172,11.119 138.878667,10.154 140.292,10.154 L140.292,10.154 L140.291,10.154 Z M74.2,31.359 L63.828,31.359 L63.828,49.843 L69.985,49.843 C71.5882238,49.8807743 73.1387732,49.2695693 74.285,48.148 C75.3907077,46.9964413 75.9777568,45.4430191 75.91,43.848 C75.9837906,42.2568922 75.3794348,40.7091163 74.247,39.589 C73.0283388,38.4880771 71.42218,37.9164789 69.782,38 L67.573,38 L67.573,34.469 L74.2,34.469 L74.2,31.359 Z M69.858,41.1 C70.5154484,41.0767299 71.1463213,41.3605673 71.565,41.868 C71.9943829,42.4289757 72.2124744,43.1232573 72.181,43.829 C72.2129153,44.5795967 71.9917521,45.3191553 71.553,45.929 C71.1490345,46.4679941 70.5060668,46.7741514 69.833,46.748 L67.573,46.748 L67.573,41.1 L69.858,41.1 L69.858,41.1 Z M90.4,39.1 C90.5168701,36.9823199 89.8790832,34.8917961 88.6,33.2 C87.3314812,31.8525669 85.560833,31.091747 83.7102482,31.0989499 C81.8596635,31.1061528 80.0949914,31.8807331 78.837,33.238 C77.5691482,34.9522361 76.9443837,37.057675 77.072,39.186 L77.072,42.347 C76.9603903,44.4046303 77.6000616,46.4327437 78.872,48.054 C80.1079746,49.4384723 81.9032949,50.190412 83.757,50.1 C85.6129155,50.1966065 87.4110392,49.4388232 88.638,48.043 C89.9031143,46.3922305 90.5288946,44.3397987 90.4,42.264 L90.4,39.1 L90.4,39.1 Z M86.655,42.375 C86.7301597,43.5805447 86.4801144,44.7841466 85.931,45.86 C85.4679032,46.6041067 84.6349374,47.0353612 83.76,46.984 C82.8608829,47.0400842 82.0033187,46.5990183 81.526,45.835 C80.9672149,44.7306047 80.7170743,43.4957945 80.802,42.261 L80.802,38.976 C80.7369098,37.7412725 80.9903554,36.5105459 81.538,35.402 C82.0296903,34.660876 82.8630966,34.2189964 83.7524476,34.2278798 C84.6417987,34.2367633 85.466212,34.6952022 85.943,35.446 C86.4904951,36.6060114 86.7351083,37.8858443 86.654,39.166 L86.654,42.378 L86.655,42.375 Z M98.65,43.34 C100.290514,43.4361971 101.900857,42.8690277 103.119,41.766 C104.231006,40.6229184 104.815327,39.0675081 104.731,37.475 C104.797481,35.8447753 104.210357,34.2554744 103.1,33.06 C101.94819,31.9000062 100.358854,31.2822946 98.726,31.36 L92.426,31.36 L92.426,49.843 L96.158,49.843 L96.158,43.343 L98.646,43.343 L98.65,43.34 Z M96.162,34.466 L98.762,34.466 C99.400799,34.4587789 100.001045,34.7709066 100.362,35.298 C100.790983,35.9488148 101.001172,36.7195065 100.962,37.498 C101.011738,38.2225595 100.805005,38.9415248 100.378,39.529 C99.9659595,40.0056854 99.3560972,40.2642582 98.727,40.229 L96.158,40.229 L96.158,34.469 L96.162,34.466 Z M119.582,39.1 C119.698521,36.9823622 119.06077,34.891956 117.782,33.2 C116.513481,31.8525669 114.742833,31.091747 112.892248,31.0989499 C111.041663,31.1061528 109.276991,31.8807331 108.019,33.238 C106.750916,34.9521202 106.126126,37.0576454 106.254,39.186 L106.254,42.347 C106.14239,44.4046303 106.782062,46.4327437 108.054,48.054 C109.292162,49.436351 111.088563,50.1853413 112.942,50.092 C114.797942,50.1887561 116.596128,49.4309464 117.823,48.035 C119.085912,46.3844325 119.710207,44.333277 119.581,42.259 L119.581,39.1 L119.582,39.1 Z M115.837,42.375 C115.912271,43.5804398 115.662583,44.7839852 115.114,45.86 C114.650597,46.6037751 113.817843,47.0349197 112.943,46.984 C112.043581,47.0402386 111.185647,46.5991799 110.708,45.835 C110.149843,44.7304103 109.900065,43.4956836 109.985,42.261 L109.985,38.976 C109.919955,37.7412759 110.173398,36.5105606 110.721,35.402 C111.21269,34.660876 112.046097,34.2189964 112.935448,34.2278798 C113.824799,34.2367633 114.649212,34.6952022 115.126,35.446 C115.673537,36.6059978 115.918152,37.8858415 115.837,39.166 L115.837,42.378 L115.837,42.375 Z M127.73,49.84 C129.281068,49.9475031 130.814412,49.4569047 132.015,48.469 C133.065975,47.3886645 133.604306,45.9101654 133.494,44.407 C133.525073,43.4787149 133.291672,42.5607166 132.821,41.76 C132.387748,41.0567131 131.701878,40.5457992 130.904,40.332 C131.612492,40.0277113 132.207254,39.5081695 132.604,38.847 C133.03401,38.1127307 133.249501,37.2725924 133.226,36.422 C133.324284,35.0007294 132.772601,33.6115903 131.726,32.645 C130.460858,31.7026088 128.899665,31.2452503 127.326,31.356 L121.613,31.356 L121.613,49.843 L127.732,49.843 L127.73,49.84 Z M127.971,41.804 C129.171,41.8466667 129.771,42.6973333 129.771,44.356 C129.811742,44.9873033 129.627511,45.6126267 129.251,46.121 C128.865939,46.5520278 128.303693,46.7815011 127.727,46.743 L125.34,46.743 L125.34,41.807 L127.968,41.807 L127.971,41.804 Z M125.343,34.466 L127.324,34.466 C127.926133,34.4094372 128.524461,34.6074294 128.974,35.012 C129.360747,35.5282147 129.541805,36.1697583 129.482,36.812 C129.580957,37.4267031 129.384257,38.052079 128.951243,38.4994614 C128.518229,38.9468437 127.899605,39.1638453 127.282,39.085 L125.339,39.085 L125.339,34.469 L125.343,34.466 Z M148.557,39.1 C148.673958,36.9823093 148.036162,34.8917561 146.757,33.2 C145.488481,31.8525669 143.717833,31.091747 141.867248,31.0989499 C140.016663,31.1061528 138.251991,31.8807331 136.994,33.238 C135.726658,34.9524466 135.102268,37.0578161 135.23,39.186 L135.23,42.347 C135.11747,44.4047465 135.757241,46.4331767 137.03,48.054 C138.268162,49.436351 140.064563,50.1853413 141.918,50.092 C143.773942,50.1887561 145.572128,49.4309464 146.799,48.035 C148.062268,46.3845704 148.686923,44.3334019 148.558,42.259 L148.558,39.1 L148.557,39.1 Z M144.812,42.375 C144.887012,43.5805342 144.636975,44.7840974 144.088,45.86 C143.62475,46.6039408 142.79189,47.0351403 141.917,46.984 C141.017836,47.0403064 140.160165,46.5991853 139.683,45.835 C139.123978,44.7306868 138.873825,43.4958109 138.959,42.261 L138.959,38.976 C138.895158,37.7401715 139.150337,36.5087011 139.7,35.4 C140.191609,34.6584313 141.025276,34.2162247 141.914953,34.2251094 C142.80463,34.233994 143.629298,34.6927613 144.106,35.444 C144.65312,36.6041335 144.897715,37.883869 144.817,39.164 L144.817,42.376 L144.812,42.375 Z M161,31.359 L150.623,31.359 L150.623,49.843 L154.356,49.843 L154.356,34.469 L161,34.469 L161,31.359 Z M174.805,39.1 C174.922045,36.9822987 174.28424,34.891716 173.005,33.2 C171.736481,31.8525669 169.965833,31.091747 168.115248,31.0989499 C166.264663,31.1061528 164.499991,31.8807331 163.242,33.238 C161.974303,34.9523133 161.349556,37.0576947 161.477,39.186 L161.477,42.347 C161.36539,44.4046303 162.005062,46.4327437 163.277,48.054 C164.515162,49.436351 166.311563,50.1853413 168.165,50.092 C170.020942,50.1887561 171.819128,49.4309464 173.046,48.035 C174.308912,46.3844325 174.933207,44.333277 174.804,42.259 L174.804,39.1 L174.805,39.1 Z M171.06,42.375 C171.135764,43.5804749 170.886049,44.7841493 170.337,45.86 C169.87375,46.6039408 169.04089,47.0351403 168.166,46.984 C167.266627,47.0400167 166.4088,46.599013 165.931,45.835 C165.372843,44.7304103 165.123065,43.4956836 165.208,42.261 L165.208,38.976 C165.142955,37.7412759 165.396398,36.5105606 165.944,35.402 C166.43569,34.660876 167.269097,34.2189964 168.158448,34.2278798 C169.047799,34.2367633 169.872212,34.6952022 170.349,35.446 C170.896537,36.6059978 171.141152,37.8858415 171.06,39.166 L171.06,42.378 L171.06,42.375 Z" id="Студия_Борового" fill="#000000" fill-rule="nonzero"></path>
            </g>
        </g>
    </g>
</svg>