<?xml version="1.0" encoding="utf-8"?>
<!-- Generator: Adobe Illustrator 19.2.1, SVG Export Plug-In . SVG Version: 6.00 Build 0)  -->
<svg version="1.1" id="Слой_1" xmlns="http://www.w3.org/2000/svg" xmlns:xlink="http://www.w3.org/1999/xlink" x="0px" y="0px"
	 viewBox="0 0 20 18" style="enable-background:new 0 0 20 18;" xml:space="preserve">
<style type="text/css">
	.st0{fill-rule:evenodd;clip-rule:evenodd;fill:#3a71c0;}
</style>
<path class="st0" d="M14.5,0c-1.7,0-3.4,0.8-4.5,2.1C8.9,0.8,7.2,0,5.5,0C2.4,0,0,2.4,0,5.4c0,3.7,3.4,6.7,8.6,11.3L10,18l1.5-1.3
	C16.6,12.1,20,9.1,20,5.4C20,2.4,17.6,0,14.5,0L14.5,0L14.5,0z M10.1,15.3L10,15.4l-0.1-0.1C5.1,11,2,8.2,2,5.4C2,3.4,3.5,2,5.5,2
	c1.5,0,3,1,3.6,2.3h1.9C11.5,2.9,13,2,14.5,2c2,0,3.5,1.5,3.5,3.4C18,8.2,14.9,11,10.1,15.3L10.1,15.3L10.1,15.3z"/>
</svg>
