<svg xmlns="http://www.w3.org/2000/svg" width="18" height="18" viewBox="0 0 18 18">
  <defs>
    <style>
      .cls-1 {
        fill: #006c2b;
        fill-rule: evenodd;
      }
    </style>
  </defs>
  <path id="Ok_Circle_Icon" data-name="Ok Circle Icon" class="cls-1" d="M774.125,410.123a9,9,0,1,1,9-9A9,9,0,0,1,774.125,410.123Zm0-15.749a6.75,6.75,0,1,0,6.75,6.749A6.749,6.749,0,0,0,774.125,394.374ZM774.192,404a1.674,1.674,0,0,1-2.385,0l-1.853-2.062a1.145,1.145,0,0,1,0-1.607,1.118,1.118,0,0,1,1.591,0L773,401.992l3.705-3.912a1.12,1.12,0,0,1,1.591,0,1.148,1.148,0,0,1,0,1.608Z" transform="translate(-765.125 -392.125)"/>
</svg>
