<?xml version="1.0" encoding="UTF-8" standalone="no"?>
<svg width="26px" height="30px" viewBox="0 0 26 30" version="1.1" xmlns="http://www.w3.org/2000/svg" xmlns:xlink="http://www.w3.org/1999/xlink">
    <!-- Generator: Sketch 42 (36781) - http://www.bohemiancoding.com/sketch -->
    <title>noun_631623_cc</title>
    <desc>Created with Sketch.</desc>
    <defs></defs>
    <g id="Page-1" stroke="none" stroke-width="1" fill="none" fill-rule="evenodd">
        <g id="noun_631623_cc" fill-rule="nonzero" fill="#F7A04A">
            <g id="Group">
                <path d="M24.3995556,12.2134483 L24.3995556,7.66258621 C24.3995556,7.65931034 24.3985359,7.6562069 24.3981961,7.65293103 C24.3978562,7.6212069 24.3947974,7.58982759 24.3891895,7.55896552 C24.3878301,7.55310345 24.3857908,7.54810345 24.3846013,7.54258621 C24.3789935,7.51758621 24.3713464,7.49344828 24.3623399,7.46965517 C24.3587712,7.45982759 24.3543529,7.45086207 24.3504444,7.4412069 C24.341098,7.42103448 24.330902,7.40172414 24.3190065,7.38293103 C24.3142484,7.37517241 24.31,7.36706897 24.304732,7.35965517 C24.2879085,7.33517241 24.2695556,7.31172414 24.2483137,7.29 L17.4674118,0.329137931 C17.4670719,0.32862069 17.466732,0.328275862 17.4660523,0.327931034 C17.4636732,0.325517241 17.4611242,0.324137931 17.4587451,0.321551724 C17.4392026,0.302068966 17.4179608,0.284655172 17.3960392,0.268965517 C17.3880523,0.263275862 17.3795556,0.258275862 17.3712288,0.253103448 C17.3532157,0.241724138 17.3345229,0.231551724 17.3154902,0.222241379 C17.3059739,0.218103448 17.2971373,0.213448276 17.2871111,0.209655172 C17.2619608,0.198965517 17.2356209,0.191206897 17.209281,0.184655172 C17.2052026,0.183793103 17.2012941,0.182413793 17.1972157,0.181551724 C17.1676471,0.175689655 17.1373987,0.173103448 17.1073203,0.172413793 C17.1035817,0.172241379 17.0996732,0.171206897 17.0959346,0.171206897 L2.16462745,0.171206897 C1.8759085,0.171206897 1.6419085,0.40862069 1.6419085,0.701551724 L1.6419085,12.2131034 L0,12.2131034 L0,23.9808621 L1.64207843,23.9808621 L1.64207843,29.3253448 C1.64207843,29.617931 1.8759085,29.8555172 2.16479739,29.8555172 L23.8770065,29.8555172 C24.1653856,29.8555172 24.3993856,29.617931 24.3993856,29.3253448 L24.3993856,23.9810345 L25.9862353,23.9810345 L25.9862353,12.2134483 L24.3995556,12.2134483 Z M17.6179739,1.99293103 L22.6249281,7.13258621 L17.6179739,7.13258621 L17.6179739,1.99293103 L17.6179739,1.99293103 Z M23.3539477,28.7955172 L2.68734641,28.7955172 L2.68734641,23.9810345 L23.3539477,23.9810345 L23.3539477,28.7955172 Z M3.74298039,21.1906897 L5.46560784,15.4724138 L7.13810458,15.4724138 L8.88588235,21.1906897 L7.5145098,21.1906897 L7.07964706,19.7227586 L5.46560784,19.7227586 L5.06422222,21.1906897 L3.74298039,21.1906897 Z M10.056732,21.1906897 L10.056732,15.4724138 L11.3361699,15.4724138 L11.3361699,21.1906897 L10.056732,21.1906897 Z M23.3539477,12.2134483 L2.68734641,12.2134483 L2.68734641,1.23206897 L16.5728758,1.23206897 L16.5728758,7.66258621 C16.5728758,7.95551724 16.8067059,8.19293103 17.0954248,8.19293103 L23.3539477,8.19293103 L23.3539477,12.2134483 Z" id="Shape"></path>
                <path d="M6.54435294,17.5425862 C6.4440915,17.202931 6.34366013,16.7786207 6.26005229,16.4398276 L6.24339869,16.4398276 C6.15979085,16.7793103 6.07618301,17.212069 5.98424837,17.5425862 L5.64964706,18.7556897 L6.89577778,18.7556897 L6.54435294,17.5425862 Z" id="Shape"></path>
            </g>
        </g>
    </g>
</svg>