<?xml version="1.0" encoding="UTF-8" standalone="no"?>
<svg width="26px" height="30px" viewBox="0 0 26 30" version="1.1" xmlns="http://www.w3.org/2000/svg" xmlns:xlink="http://www.w3.org/1999/xlink">
    <!-- Generator: Sketch 42 (36781) - http://www.bohemiancoding.com/sketch -->
    <title>noun_631631_cc</title>
    <desc>Created with Sketch.</desc>
    <defs></defs>
    <g id="Page-1" stroke="none" stroke-width="1" fill="none" fill-rule="evenodd">
        <g id="noun_631631_cc" fill-rule="nonzero" fill="#00A5C4">
            <g id="Group">
                <path d="M5.85033987,18.6627586 L5.41547712,18.6627586 L5.41547712,20.275 C5.54088889,20.2918966 5.69145098,20.2918966 5.90879739,20.2918966 C6.48589542,20.2918966 6.99586928,20.0713793 6.99586928,19.4693103 C6.99586928,18.8915517 6.48589542,18.6627586 5.85033987,18.6627586 Z" id="Shape"></path>
                <path d="M6.86213072,17.0337931 C6.86213072,16.6008621 6.53602614,16.3717241 5.9589281,16.3717241 C5.68295425,16.3717241 5.52406536,16.3889655 5.41547712,16.4056897 L5.41547712,17.737931 L5.83351634,17.737931 C6.50254902,17.737931 6.86213072,17.4577586 6.86213072,17.0337931 Z" id="Shape"></path>
                <path d="M19.8996863,17.2455172 C19.8996863,16.7194828 19.5404444,16.4056897 18.9048889,16.4056897 C18.6457386,16.4056897 18.4696863,16.4312069 18.3777516,16.4565517 L18.3777516,18.1451724 C18.4866797,18.1705172 18.6204183,18.1789655 18.8042876,18.1789655 C19.4816471,18.1789655 19.8996863,17.8312069 19.8996863,17.2455172 Z" id="Shape"></path>
                <path d="M24.3995556,12.2134483 L24.3995556,7.66258621 C24.3995556,7.65931034 24.3985359,7.6562069 24.3981961,7.65293103 C24.3978562,7.6212069 24.3947974,7.58982759 24.3891895,7.55896552 C24.3878301,7.55310345 24.3857908,7.54810345 24.3846013,7.54258621 C24.3789935,7.51758621 24.3713464,7.49344828 24.3623399,7.46965517 C24.3587712,7.45982759 24.3543529,7.45068966 24.3504444,7.4412069 C24.341098,7.42103448 24.330902,7.40172414 24.3190065,7.38293103 C24.3142484,7.37517241 24.31,7.36706897 24.304732,7.35965517 C24.2879085,7.33517241 24.2695556,7.31172414 24.2483137,7.29 L17.4674118,0.329137931 C17.4670719,0.32862069 17.466732,0.328275862 17.4660523,0.327931034 C17.4636732,0.325517241 17.4611242,0.324137931 17.4587451,0.321551724 C17.4392026,0.302068966 17.4179608,0.284655172 17.3960392,0.268965517 C17.3880523,0.263275862 17.3795556,0.258275862 17.3712288,0.253103448 C17.3532157,0.241724138 17.3345229,0.231551724 17.3154902,0.222241379 C17.3059739,0.218103448 17.2971373,0.213448276 17.2871111,0.209655172 C17.2619608,0.199137931 17.2356209,0.191206897 17.209281,0.184827586 C17.2052026,0.183965517 17.2012941,0.182586207 17.1972157,0.181724138 C17.1676471,0.175862069 17.1373987,0.173275862 17.1073203,0.172586207 C17.1034118,0.172413793 17.0996732,0.17137931 17.0957647,0.17137931 L2.16462745,0.17137931 C1.8759085,0.17137931 1.6419085,0.408793103 1.6419085,0.701724138 L1.6419085,12.2132759 L0,12.2132759 L0,23.9810345 L1.64207843,23.9810345 L1.64207843,29.3255172 C1.64207843,29.6182759 1.8759085,29.8556897 2.16479739,29.8556897 L23.8770065,29.8556897 C24.1653856,29.8556897 24.3993856,29.6182759 24.3993856,29.3255172 L24.3993856,23.9810345 L25.9862353,23.9810345 L25.9862353,12.2134483 L24.3995556,12.2134483 L24.3995556,12.2134483 Z M17.6179739,1.99293103 L22.6249281,7.13258621 L17.6179739,7.13258621 L17.6179739,1.99293103 L17.6179739,1.99293103 Z M23.3539477,28.7953448 L2.68734641,28.7953448 L2.68734641,23.9808621 L23.3539477,23.9808621 L23.3539477,28.7953448 Z M8.33393464,19.5196552 C8.33393464,20.0372414 8.09976471,20.4443103 7.7485098,20.7327586 C7.33879739,21.0636207 6.65311111,21.2503448 5.53239216,21.2503448 C4.90533333,21.2503448 4.43699346,21.2081034 4.15269281,21.1656897 L4.15269281,15.5487931 C4.48712418,15.4808621 5.16448366,15.4301724 5.80003922,15.4301724 C6.57783007,15.4301724 7.05449673,15.5062069 7.46420915,15.7524138 C7.85726797,15.9644828 8.14156863,16.3548276 8.14156863,16.8724138 C8.14156863,17.3815517 7.84894118,17.8563793 7.21338562,18.0941379 L7.21338562,18.1113793 C7.85726797,18.2893103 8.33393464,18.7815517 8.33393464,19.5196552 Z M9.49645752,21.1908621 L9.85603922,15.4725862 L11.5536863,15.4725862 L12.105634,17.3815517 C12.2811765,18.0432759 12.456549,18.7560345 12.5823007,19.4262069 L12.607281,19.4262069 C12.7661699,18.7641379 12.9585359,18.0091379 13.1422353,17.3727586 L13.7443137,15.4725862 L15.4084837,15.4725862 L15.7177647,21.1908621 L14.4718039,21.1908621 L14.3881961,19.002069 C14.3633856,18.3151724 14.3380654,17.4832759 14.3380654,16.6518966 L14.3132549,16.6518966 C14.1375425,17.3815517 13.9035425,18.1960345 13.6860261,18.8663793 L13.0003399,21.0975862 L12.0052026,21.0975862 L11.4031242,18.8831034 C11.219085,18.212931 11.0268889,17.3984483 10.8929804,16.6518966 L10.8763268,16.6518966 C10.8428497,17.4241379 10.8176993,18.3063793 10.7758954,19.0189655 L10.675634,21.1910345 L9.49645752,21.1910345 L9.49645752,21.1908621 Z M17.1147974,21.1908621 L17.1147974,15.5486207 C17.5076863,15.4806897 18.0599739,15.43 18.8377647,15.43 C19.6237124,15.43 20.1841569,15.582931 20.5603922,15.887931 C20.9199739,16.1765517 21.1624706,16.6517241 21.1624706,17.2117241 C21.1624706,17.7717241 20.9786013,18.2467241 20.644,18.5691379 C20.2091373,18.9846552 19.5652549,19.1715517 18.8126144,19.1715517 C18.6457386,19.1715517 18.4950065,19.1631034 18.3777516,19.1463793 L18.3777516,21.1906897 L17.1147974,21.1906897 L17.1147974,21.1908621 Z M23.3539477,12.2134483 L2.68734641,12.2134483 L2.68734641,1.23206897 L16.5728758,1.23206897 L16.5728758,7.66258621 C16.5728758,7.95551724 16.8067059,8.19293103 17.0954248,8.19293103 L23.3539477,8.19293103 L23.3539477,12.2134483 L23.3539477,12.2134483 Z" id="Shape"></path>
            </g>
        </g>
    </g>
</svg>