<?xml version="1.0" encoding="UTF-8" standalone="no"?>
<svg width="26px" height="30px" viewBox="0 0 26 30" version="1.1" xmlns="http://www.w3.org/2000/svg" xmlns:xlink="http://www.w3.org/1999/xlink">
    <!-- Generator: Sketch 42 (36781) - http://www.bohemiancoding.com/sketch -->
    <title>noun_631635_cc</title>
    <desc>Created with Sketch.</desc>
    <defs></defs>
    <g id="Page-1" stroke="none" stroke-width="1" fill="none" fill-rule="evenodd">
        <g id="noun_631635_cc" fill-rule="nonzero" fill="#00B2E4">
            <g id="Group">
                <path d="M6.27704575,16.5094828 C6.27143791,16.4867241 6.26532026,16.4618966 6.25988235,16.4398276 L6.24339869,16.4398276 C6.23915033,16.4574138 6.23473203,16.4774138 6.23031373,16.4955172 C6.03777778,16.4375862 5.8245098,16.4063793 5.59067974,16.4063793 C5.31334641,16.4063793 5.13389542,16.4312069 5.02785621,16.4560345 L5.02785621,20.1060345 C5.13406536,20.1308621 5.30518954,20.1308621 5.46016993,20.1308621 C6.58598693,20.1391379 7.32010458,19.5101724 7.32010458,18.1775862 C7.32656209,17.292931 6.9370719,16.7277586 6.27704575,16.5094828 Z" id="Shape"></path>
                <path d="M24.3995556,12.2134483 L24.3995556,7.66258621 C24.3995556,7.65931034 24.3985359,7.6562069 24.3981961,7.65293103 C24.3978562,7.6212069 24.3947974,7.58982759 24.3891895,7.55896552 C24.3878301,7.55310345 24.3857908,7.54810345 24.3846013,7.54258621 C24.3789935,7.51758621 24.3713464,7.49344828 24.3623399,7.46965517 C24.3587712,7.45982759 24.3543529,7.45068966 24.3504444,7.4412069 C24.341098,7.42103448 24.330902,7.40172414 24.3190065,7.38293103 C24.3142484,7.37517241 24.31,7.36706897 24.304732,7.35965517 C24.2879085,7.33517241 24.2695556,7.31172414 24.2483137,7.29 L17.4674118,0.329137931 C17.4670719,0.32862069 17.466732,0.328275862 17.4660523,0.327931034 C17.4636732,0.325517241 17.4611242,0.324137931 17.4587451,0.321551724 C17.4392026,0.302068966 17.4179608,0.284655172 17.3960392,0.268965517 C17.3880523,0.263275862 17.3795556,0.258275862 17.3712288,0.253103448 C17.3532157,0.241724138 17.3345229,0.231551724 17.3154902,0.222241379 C17.3059739,0.218103448 17.2971373,0.213448276 17.2871111,0.209655172 C17.2619608,0.199137931 17.2356209,0.191206897 17.209281,0.184827586 C17.2052026,0.183965517 17.2012941,0.182586207 17.1972157,0.181724138 C17.1676471,0.175862069 17.1373987,0.173275862 17.1073203,0.172586207 C17.1034118,0.172413793 17.0996732,0.17137931 17.0957647,0.17137931 L2.16462745,0.17137931 C1.8759085,0.17137931 1.6419085,0.408793103 1.6419085,0.701724138 L1.6419085,12.2132759 L0,12.2132759 L0,23.9810345 L1.64207843,23.9810345 L1.64207843,29.3255172 C1.64207843,29.6182759 1.8759085,29.8556897 2.16479739,29.8556897 L23.8770065,29.8556897 C24.1653856,29.8556897 24.3993856,29.6182759 24.3993856,29.3255172 L24.3993856,23.9810345 L25.9862353,23.9810345 L25.9862353,12.2134483 L24.3995556,12.2134483 Z M17.6179739,1.99293103 L22.6249281,7.13258621 L17.6179739,7.13258621 L17.6179739,1.99293103 L17.6179739,1.99293103 Z M23.3539477,28.7953448 L2.68734641,28.7953448 L2.68734641,23.9808621 L23.3539477,23.9808621 L23.3539477,28.7953448 Z M3.77985621,21.032931 L3.77985621,15.5539655 C4.23664052,15.4793103 4.8320915,15.4381034 5.46033987,15.4381034 C6.50458824,15.4381034 7.18160784,15.6284483 7.71180392,16.0339655 C8.28278431,16.4643103 8.64185621,17.1512069 8.64185621,18.1362069 C8.64185621,19.2037931 8.25848366,19.9405172 7.72828758,20.3955172 C7.14915033,20.8837931 6.26803922,21.1156897 5.19133333,21.1156897 C4.54660131,21.1158621 4.08981699,21.0743103 3.77985621,21.032931 Z M9.61184314,18.31 C9.61184314,16.6381034 10.6640784,15.3884483 12.2874641,15.3884483 C13.9761046,15.3884483 14.898,16.6712069 14.898,18.2106897 C14.898,20.0398276 13.8048105,21.1487931 12.1977386,21.1487931 C10.566366,21.1487931 9.61184314,19.8991379 9.61184314,18.31 Z M18.9354771,20.0977586 C19.3106928,20.0977586 19.7266928,20.015 19.9715686,19.9155172 L20.1591765,20.9005172 C19.9307843,21.0163793 19.416902,21.1405172 18.7478693,21.1405172 C16.8471503,21.1405172 15.8683268,19.9405172 15.8683268,18.3513793 C15.8683268,16.4477586 17.2062222,15.3882759 18.8703922,15.3882759 C19.5147843,15.3882759 20.0041961,15.5206897 20.2246013,15.6363793 L19.9717386,16.637931 C19.7188758,16.5303448 19.3679608,16.4310345 18.9274902,16.4310345 C17.9403399,16.4310345 17.1735948,17.0353448 17.1735948,18.2767241 C17.1734248,19.3941379 17.8261438,20.0977586 18.9354771,20.0977586 Z M23.3539477,12.2134483 L2.68734641,12.2134483 L2.68734641,1.23206897 L16.5728758,1.23206897 L16.5728758,7.66258621 C16.5728758,7.95551724 16.8067059,8.19293103 17.0954248,8.19293103 L23.3539477,8.19293103 L23.3539477,12.2134483 Z" id="Shape"></path>
                <path d="M13.5847451,18.252069 C13.5847451,17.2505172 13.1116471,16.3898276 12.2550065,16.3898276 C11.4148497,16.3898276 10.925268,17.2008621 10.925268,18.285 C10.925268,19.3775862 11.4311634,20.1474138 12.2631634,20.1474138 C13.1034902,20.1474138 13.5847451,19.3362069 13.5847451,18.252069 Z" id="Shape"></path>
            </g>
        </g>
    </g>
</svg>