<?xml version="1.0" encoding="UTF-8" standalone="no"?>
<svg width="26px" height="30px" viewBox="0 0 26 30" version="1.1" xmlns="http://www.w3.org/2000/svg" xmlns:xlink="http://www.w3.org/1999/xlink">
    <!-- Generator: Sketch 42 (36781) - http://www.bohemiancoding.com/sketch -->
    <title>noun_631636_cc</title>
    <desc>Created with Sketch.</desc>
    <defs></defs>
    <g id="Page-1" stroke="none" stroke-width="1" fill="none" fill-rule="evenodd">
        <g id="noun_631636_cc" fill-rule="nonzero" fill="#FF9675">
            <g id="Group">
                <path d="M11.0899346,17.2091379 C11.0899346,16.6958621 10.7391895,16.3898276 10.119268,16.3898276 C9.86640523,16.3898276 9.69494118,16.4146552 9.60538562,16.4394828 L9.60538562,18.0865517 C9.71142484,18.1113793 9.84193464,18.1194828 10.0213856,18.1194828 C10.6820915,18.1196552 11.0899346,17.7803448 11.0899346,17.2091379 Z" id="Shape"></path>
                <path d="M24.3995556,12.2134483 L24.3995556,7.66258621 C24.3995556,7.65931034 24.3985359,7.6562069 24.3981961,7.65293103 C24.3978562,7.6212069 24.3947974,7.58982759 24.3891895,7.55896552 C24.3878301,7.55310345 24.3857908,7.54810345 24.3846013,7.54258621 C24.3789935,7.51758621 24.3713464,7.49344828 24.3623399,7.46965517 C24.3587712,7.45982759 24.3543529,7.45068966 24.3504444,7.4412069 C24.341098,7.42103448 24.330902,7.40172414 24.3190065,7.38293103 C24.3142484,7.37517241 24.31,7.36706897 24.304732,7.35965517 C24.2879085,7.33517241 24.2695556,7.31172414 24.2483137,7.29 L17.4674118,0.329137931 C17.4670719,0.32862069 17.466732,0.328275862 17.4660523,0.327931034 C17.4636732,0.325517241 17.4611242,0.324137931 17.4587451,0.321551724 C17.4392026,0.302068966 17.4179608,0.284655172 17.3960392,0.268965517 C17.3880523,0.263275862 17.3795556,0.258275862 17.3712288,0.253103448 C17.3532157,0.241724138 17.3345229,0.231551724 17.3154902,0.222241379 C17.3059739,0.218103448 17.2971373,0.213448276 17.2871111,0.209655172 C17.2619608,0.199137931 17.2356209,0.191206897 17.209281,0.184827586 C17.2052026,0.183965517 17.2012941,0.182586207 17.1972157,0.181724138 C17.1676471,0.175862069 17.1373987,0.173275862 17.1073203,0.172586207 C17.1034118,0.172413793 17.0996732,0.17137931 17.0957647,0.17137931 L2.16462745,0.17137931 C1.8759085,0.17137931 1.6419085,0.408793103 1.6419085,0.701724138 L1.6419085,12.2132759 L0,12.2132759 L0,23.9810345 L1.64207843,23.9810345 L1.64207843,29.3255172 C1.64207843,29.6182759 1.8759085,29.8556897 2.16479739,29.8556897 L23.8770065,29.8556897 C24.1653856,29.8556897 24.3993856,29.6182759 24.3993856,29.3255172 L24.3993856,23.9810345 L25.9862353,23.9810345 L25.9862353,12.2134483 L24.3995556,12.2134483 Z M17.6179739,1.99293103 L22.6249281,7.13258621 L17.6179739,7.13258621 L17.6179739,1.99293103 L17.6179739,1.99293103 Z M23.3539477,28.7953448 L2.68734641,28.7953448 L2.68734641,23.9808621 L23.3539477,23.9808621 L23.3539477,28.7953448 Z M6.8811634,17.6727586 L6.8811634,18.6989655 L4.85792157,18.6989655 L4.85792157,20.0232759 L7.11754248,20.0232759 L7.11754248,21.057931 L3.60992157,21.057931 L3.60992157,15.4793103 L7.00351634,15.4793103 L7.00351634,16.5139655 L4.85792157,16.5139655 L4.85792157,17.6727586 L6.8811634,17.6727586 L6.8811634,17.6727586 Z M8.37352941,21.057931 L8.37352941,15.5539655 C8.75690196,15.4877586 9.2952549,15.4381034 10.0540131,15.4381034 C10.8207582,15.4381034 11.3674379,15.5868966 11.7344967,15.885 C12.0852418,16.1663793 12.3219608,16.6298276 12.3219608,17.1760345 C12.3219608,17.7224138 12.1425098,18.1858621 11.8160654,18.5003448 C11.3919085,18.9060345 10.7638301,19.0881034 10.0295425,19.0881034 C9.86640523,19.0881034 9.7195817,19.0796552 9.60538562,19.0631034 L9.60538562,21.0577586 L8.37352941,21.0577586 L8.37352941,21.057931 Z M14.8906928,18.7156897 C13.9771242,18.3927586 13.3815033,17.8796552 13.3815033,17.0684483 C13.3815033,16.1165517 14.164732,15.3884483 15.4618431,15.3884483 C16.0817647,15.3884483 16.538549,15.5208621 16.8648235,15.6698276 L16.5874902,16.6877586 C16.3672549,16.5801724 15.9755556,16.422931 15.4372026,16.422931 C14.8988497,16.422931 14.6376601,16.6712069 14.6376601,16.9608621 C14.6376601,17.3167241 14.9476209,17.4741379 15.6576078,17.7472414 C16.6282745,18.1113793 17.0850588,18.6246552 17.0850588,19.4108621 C17.0850588,20.3460345 16.3752418,21.1405172 14.8660523,21.1405172 C14.2379739,21.1405172 13.6178824,20.975 13.3079216,20.8012069 L13.5607843,19.7582759 C13.8953856,19.9322414 14.409098,20.1060345 14.9394641,20.1060345 C15.5102745,20.1060345 15.8122484,19.8658621 15.8122484,19.5017241 C15.8125882,19.1543103 15.5515686,18.9555172 14.8906928,18.7156897 Z M23.3539477,12.2134483 L2.68734641,12.2134483 L2.68734641,1.23206897 L16.5728758,1.23206897 L16.5728758,7.66258621 C16.5728758,7.95551724 16.8067059,8.19293103 17.0954248,8.19293103 L23.3539477,8.19293103 L23.3539477,12.2134483 Z" id="Shape"></path>
            </g>
        </g>
    </g>
</svg>