<?xml version="1.0" encoding="UTF-8" standalone="no"?>
<svg width="26px" height="30px" viewBox="0 0 26 30" version="1.1" xmlns="http://www.w3.org/2000/svg" xmlns:xlink="http://www.w3.org/1999/xlink">
    <!-- Generator: Sketch 42 (36781) - http://www.bohemiancoding.com/sketch -->
    <title>noun_631642_cc</title>
    <desc>Created with Sketch.</desc>
    <defs></defs>
    <g id="Page-1" stroke="none" stroke-width="1" fill="none" fill-rule="evenodd">
        <g id="noun_631642_cc" fill-rule="nonzero" fill="#FF6676">
            <g id="Group">
                <path d="M24.3997255,12.2134483 L24.3997255,7.66258621 C24.3997255,7.65931034 24.3987059,7.6562069 24.398366,7.65293103 C24.3980261,7.6212069 24.3949673,7.58982759 24.3893595,7.55896552 C24.388,7.55310345 24.3859608,7.54810345 24.3847712,7.54258621 C24.3791634,7.51758621 24.3715163,7.49344828 24.3625098,7.46965517 C24.3589412,7.45982759 24.3545229,7.45068966 24.3506144,7.4412069 C24.341268,7.42103448 24.3310719,7.40172414 24.3191765,7.38293103 C24.3144183,7.37517241 24.3101699,7.36706897 24.304902,7.35965517 C24.2880784,7.33517241 24.2697255,7.31172414 24.2484837,7.29 L17.4675817,0.329137931 C17.4672418,0.32862069 17.466902,0.328275862 17.4662222,0.327931034 C17.4638431,0.325517241 17.4612941,0.324137931 17.458915,0.321551724 C17.4393725,0.302068966 17.4181307,0.284655172 17.3962092,0.268965517 C17.3882222,0.263275862 17.3797255,0.258275862 17.3713987,0.253103448 C17.3533856,0.241724138 17.3346928,0.231551724 17.3156601,0.222241379 C17.3061438,0.218103448 17.2973072,0.213448276 17.287281,0.209655172 C17.2621307,0.199137931 17.2357908,0.191206897 17.209451,0.184827586 C17.2053725,0.183965517 17.2014641,0.182586207 17.1973856,0.181724138 C17.167817,0.175862069 17.1375686,0.173275862 17.1074902,0.172586207 C17.1035817,0.172413793 17.0998431,0.17137931 17.0959346,0.17137931 L2.16479739,0.17137931 C1.87607843,0.17137931 1.64207843,0.408793103 1.64207843,0.701724138 L1.64207843,12.2132759 L0,12.2132759 L0,23.9810345 L1.64207843,23.9810345 L1.64207843,29.3255172 C1.64207843,29.6182759 1.8759085,29.8556897 2.16479739,29.8556897 L23.8771765,29.8556897 C24.1655556,29.8556897 24.3995556,29.6182759 24.3995556,29.3255172 L24.3995556,23.9810345 L25.9864052,23.9810345 L25.9864052,12.2134483 L24.3997255,12.2134483 Z M17.6181438,1.99293103 L22.625098,7.13258621 L17.6181438,7.13258621 L17.6181438,1.99293103 L17.6181438,1.99293103 Z M5.5419085,20.0977586 C5.82739869,20.0977586 6.05579085,20.0646552 6.15384314,20.015 L6.15384314,18.847931 L5.30535948,18.847931 L5.30535948,17.862931 L7.3530719,17.862931 L7.3530719,20.8012069 C6.96969935,20.9336207 6.24356863,21.1156897 5.51760784,21.1156897 C4.51431373,21.1156897 3.78818301,20.8591379 3.28245752,20.3625862 C2.77656209,19.8825862 2.49939869,19.1541379 2.50738562,18.3346552 C2.51554248,16.4806897 3.84528105,15.4213793 5.64794771,15.4213793 C6.35759477,15.4213793 6.90427451,15.562069 7.17345098,15.6946552 L6.91243137,16.7043103 C6.61062745,16.5717241 6.23541176,16.4641379 5.63163399,16.4641379 C4.59554248,16.4641379 3.81248366,17.06 3.81248366,18.2684483 C3.81265359,19.4191379 4.52230065,20.0977586 5.5419085,20.0977586 Z M23.3541176,28.7953448 L2.68734641,28.7953448 L2.68734641,23.9808621 L23.3541176,23.9808621 L23.3541176,28.7953448 Z M8.7310719,21.057931 L8.7310719,15.4793103 L9.9790719,15.4793103 L9.9790719,21.0577586 L8.7310719,21.0577586 L8.7310719,21.057931 Z M14.6857516,17.7886207 L14.6857516,18.8148276 L12.7116209,18.8148276 L12.7116209,21.057931 L11.463451,21.057931 L11.463451,15.4793103 L14.8242484,15.4793103 L14.8242484,16.5139655 L12.7116209,16.5139655 L12.7116209,17.7886207 L14.6857516,17.7886207 Z M23.3541176,12.2134483 L2.68734641,12.2134483 L2.68734641,1.23206897 L16.5728758,1.23206897 L16.5728758,7.66258621 C16.5728758,7.95551724 16.8067059,8.19293103 17.0954248,8.19293103 L23.3539477,8.19293103 L23.3539477,12.2134483 L23.3541176,12.2134483 Z" id="Shape"></path>
            </g>
        </g>
    </g>
</svg>