<?xml version="1.0" encoding="UTF-8" standalone="no"?>
<svg width="26px" height="30px" viewBox="0 0 26 30" version="1.1" xmlns="http://www.w3.org/2000/svg" xmlns:xlink="http://www.w3.org/1999/xlink">
    <!-- Generator: Sketch 42 (36781) - http://www.bohemiancoding.com/sketch -->
    <title>noun_631655_cc</title>
    <desc>Created with Sketch.</desc>
    <defs></defs>
    <g id="Page-1" stroke="none" stroke-width="1" fill="none" fill-rule="evenodd">
        <g id="noun_631655_cc" fill-rule="nonzero" fill="#5296B8">
            <g id="Group">
                <g id="Shape">
                    <path d="M12.7853725,17.2091379 C12.7853725,16.6958621 12.4346275,16.3898276 11.8145359,16.3898276 C11.5616732,16.3898276 11.3903791,16.4146552 11.3006536,16.4394828 L11.3006536,18.0865517 C11.4066928,18.1113793 11.5372026,18.1194828 11.7166536,18.1194828 C12.3773595,18.1196552 12.7853725,17.7803448 12.7853725,17.2091379 Z"></path>
                    <path d="M24.3997255,12.2134483 L24.3997255,7.66258621 C24.3997255,7.65931034 24.3987059,7.6562069 24.398366,7.65293103 C24.3980261,7.6212069 24.3949673,7.58982759 24.3893595,7.55896552 C24.388,7.55310345 24.3859608,7.54810345 24.3847712,7.54258621 C24.3791634,7.51758621 24.3715163,7.49344828 24.3625098,7.46965517 C24.3589412,7.45982759 24.3545229,7.45068966 24.3506144,7.4412069 C24.341268,7.42103448 24.3310719,7.40172414 24.3191765,7.38293103 C24.3144183,7.37517241 24.3101699,7.36706897 24.304902,7.35965517 C24.2880784,7.33517241 24.2697255,7.31172414 24.2484837,7.29 L17.4675817,0.329137931 C17.4672418,0.32862069 17.466902,0.328275862 17.4662222,0.327931034 C17.4638431,0.325517241 17.4612941,0.324137931 17.458915,0.321551724 C17.4393725,0.302068966 17.4181307,0.284655172 17.3962092,0.268965517 C17.3882222,0.263275862 17.3797255,0.258275862 17.3713987,0.253103448 C17.3533856,0.241724138 17.3346928,0.231551724 17.3156601,0.222241379 C17.3061438,0.218103448 17.2973072,0.213448276 17.287281,0.209655172 C17.2621307,0.199137931 17.2357908,0.191206897 17.209451,0.184827586 C17.2053725,0.183965517 17.2014641,0.182586207 17.1973856,0.181724138 C17.167817,0.175862069 17.1375686,0.173275862 17.1074902,0.172586207 C17.1035817,0.172413793 17.0998431,0.17137931 17.0959346,0.17137931 L2.16479739,0.17137931 C1.87607843,0.17137931 1.64207843,0.408793103 1.64207843,0.701724138 L1.64207843,12.2132759 L0,12.2132759 L0,23.9810345 L1.64207843,23.9810345 L1.64207843,29.3255172 C1.64207843,29.6182759 1.8759085,29.8556897 2.16479739,29.8556897 L23.8771765,29.8556897 C24.1655556,29.8556897 24.3995556,29.6182759 24.3995556,29.3255172 L24.3995556,23.9810345 L25.9864052,23.9810345 L25.9864052,12.2134483 L24.3997255,12.2134483 Z M17.6181438,1.99293103 L22.625098,7.13258621 L17.6181438,7.13258621 L17.6181438,1.99293103 L17.6181438,1.99293103 Z M23.3541176,28.7953448 L2.68734641,28.7953448 L2.68734641,23.9808621 L23.3541176,23.9808621 L23.3541176,28.7953448 Z M2.63789542,21.057931 L2.98864052,15.4794828 L4.64465359,15.4794828 L5.18300654,17.3418966 C5.35430065,17.9874138 5.52576471,18.6825862 5.64794771,19.3363793 L5.6724183,19.3363793 C5.82739869,18.6908621 6.01500654,17.9541379 6.19445752,17.3334483 L6.78192157,15.4794828 L8.40530719,15.4794828 L8.70711111,21.057931 L7.49173856,21.057931 L7.41016993,18.9224138 C7.38569935,18.252069 7.36122876,17.4408621 7.36122876,16.6298276 L7.33675817,16.6298276 C7.16546405,17.3417241 6.9370719,18.1362069 6.72499346,18.79 L6.05596078,20.9667241 L5.08529412,20.9667241 L4.49783007,18.8065517 C4.31837908,18.1527586 4.13077124,17.3582759 4.00026144,16.6298276 L3.98394771,16.6298276 C3.95132026,17.382931 3.92684967,18.2437931 3.88606536,18.9391379 L3.78818301,21.057931 L2.63789542,21.057931 Z M10.0687974,21.057931 L10.0687974,15.5539655 C10.4521699,15.4877586 10.9905229,15.4381034 11.749281,15.4381034 C12.5160261,15.4381034 13.0627059,15.5868966 13.4297647,15.885 C13.7805098,16.1663793 14.0170588,16.6298276 14.0170588,17.1760345 C14.0170588,17.7224138 13.8376078,18.1858621 13.5113333,18.5003448 C13.0870065,18.9060345 12.4589281,19.0881034 11.7246405,19.0881034 C11.5615033,19.0881034 11.4146797,19.0796552 11.3004837,19.0631034 L11.3004837,21.0577586 L10.0687974,21.0577586 L10.0687974,21.057931 Z M16.3740523,18.6660345 L15.8683268,18.6660345 L15.8683268,17.7639655 L16.3495817,17.7639655 C16.7655817,17.7555172 17.2957778,17.5982759 17.2957778,17.1431034 C17.2957778,16.8203448 17.0347582,16.5801724 16.512719,16.5801724 C16.0804052,16.5801724 15.6236209,16.7705172 15.4033856,16.902931 L15.1505229,15.9925862 C15.4686405,15.7856897 16.1048758,15.5868966 16.7900523,15.5868966 C17.9240261,15.5868966 18.5521046,16.1912069 18.5521046,16.9277586 C18.5521046,17.4987931 18.2339869,17.9456897 17.581268,18.1774138 L17.581268,18.1941379 C18.2176732,18.31 18.7315556,18.7982759 18.7315556,19.5017241 C18.7315556,20.4536207 17.9077124,21.1487931 16.5616601,21.1487931 C15.8764837,21.1487931 15.2973464,20.9667241 14.9872157,20.7681034 L15.2400784,19.8244828 C15.4603137,19.9405172 15.9658693,20.1556897 16.4717647,20.1556897 C17.1161569,20.1556897 17.4426013,19.8412069 17.4426013,19.4355172 C17.4427712,18.9058621 16.920732,18.6660345 16.3740523,18.6660345 Z M23.3541176,12.2134483 L2.68734641,12.2134483 L2.68734641,1.23206897 L16.5728758,1.23206897 L16.5728758,7.66258621 C16.5728758,7.95551724 16.8067059,8.19293103 17.0954248,8.19293103 L23.3539477,8.19293103 L23.3539477,12.2134483 L23.3541176,12.2134483 Z"></path>
                </g>
            </g>
        </g>
    </g>
</svg>