<?xml version="1.0" encoding="UTF-8" standalone="no"?>
<svg width="26px" height="30px" viewBox="0 0 26 30" version="1.1" xmlns="http://www.w3.org/2000/svg" xmlns:xlink="http://www.w3.org/1999/xlink">
    <!-- Generator: Sketch 42 (36781) - http://www.bohemiancoding.com/sketch -->
    <title>noun_631678_cc</title>
    <desc>Created with Sketch.</desc>
    <defs></defs>
    <g id="Page-1" stroke="none" stroke-width="1" fill="none" fill-rule="evenodd">
        <g id="noun_631678_cc" fill-rule="nonzero" fill="#00BA7A">
            <g id="Group">
                <path d="M24.3997255,12.2134483 L24.3997255,7.66258621 C24.3997255,7.65931034 24.3987059,7.6562069 24.398366,7.65293103 C24.3980261,7.6212069 24.3949673,7.58982759 24.3893595,7.55896552 C24.388,7.55310345 24.3859608,7.54810345 24.3847712,7.54258621 C24.3791634,7.51758621 24.3715163,7.49344828 24.3625098,7.46965517 C24.3589412,7.45982759 24.3545229,7.45068966 24.3506144,7.4412069 C24.341268,7.42103448 24.3310719,7.40172414 24.3191765,7.38293103 C24.3144183,7.37517241 24.3101699,7.36706897 24.304902,7.35965517 C24.2880784,7.33517241 24.2697255,7.31172414 24.2484837,7.29 L17.4675817,0.329137931 C17.4672418,0.32862069 17.466902,0.328275862 17.4662222,0.327931034 C17.4638431,0.325517241 17.4612941,0.324137931 17.458915,0.321551724 C17.4393725,0.302068966 17.4181307,0.284655172 17.3962092,0.268965517 C17.3882222,0.263275862 17.3797255,0.258275862 17.3713987,0.253103448 C17.3533856,0.241724138 17.3346928,0.231551724 17.3156601,0.222241379 C17.3061438,0.218103448 17.2973072,0.213448276 17.287281,0.209655172 C17.2621307,0.199137931 17.2357908,0.191206897 17.209451,0.184827586 C17.2053725,0.183965517 17.2014641,0.182586207 17.1973856,0.181724138 C17.167817,0.175862069 17.1375686,0.173275862 17.1074902,0.172586207 C17.1035817,0.172413793 17.0998431,0.17137931 17.0959346,0.17137931 L2.16479739,0.17137931 C1.87607843,0.17137931 1.64207843,0.408793103 1.64207843,0.701724138 L1.64207843,12.2132759 L0,12.2132759 L0,23.9810345 L1.64207843,23.9810345 L1.64207843,29.3255172 C1.64207843,29.6182759 1.8759085,29.8556897 2.16479739,29.8556897 L23.8771765,29.8556897 C24.1655556,29.8556897 24.3995556,29.6182759 24.3995556,29.3255172 L24.3995556,23.9810345 L25.9864052,23.9810345 L25.9864052,12.2134483 L24.3997255,12.2134483 Z M17.6181438,1.99293103 L22.625098,7.13258621 L17.6181438,7.13258621 L17.6181438,1.99293103 L17.6181438,1.99293103 Z M23.3541176,28.7953448 L2.68734641,28.7953448 L2.68734641,23.9808621 L23.3541176,23.9808621 L23.3541176,28.7953448 Z M2.74937255,15.4793103 L4.17699346,15.4793103 L4.65824837,16.4974138 C4.82138562,16.8367241 4.94373856,17.1098276 5.07424837,17.4243103 L5.09056209,17.4243103 C5.2210719,17.0684483 5.32711111,16.8201724 5.46577778,16.4974138 L5.93071895,15.4793103 L7.35018301,15.4793103 L5.80020915,18.2024138 L7.43175163,21.057931 L5.99597386,21.057931 L5.49840523,20.0482759 C5.29448366,19.6591379 5.16397386,19.3694828 5.00899346,19.0467241 L4.99267974,19.0467241 C4.87848366,19.3694828 4.73981699,19.6591379 4.56852288,20.0482759 L4.11173856,21.057931 L2.69227451,21.057931 L4.28303268,18.2355172 L2.74937255,15.4793103 Z M11.9423268,19.9984483 L11.9423268,21.057931 L8.50811765,21.057931 L8.50811765,15.4793103 L9.75611765,15.4793103 L9.75611765,19.9984483 L11.9423268,19.9984483 Z M14.4543007,18.7156897 C13.540732,18.3927586 12.9451111,17.8796552 12.9451111,17.0684483 C12.9451111,16.1165517 13.7281699,15.3884483 15.025281,15.3884483 C15.6452026,15.3884483 16.1021569,15.5208621 16.4284314,15.6698276 L16.151098,16.6877586 C15.9308627,16.5801724 15.5391634,16.422931 15.0008105,16.422931 C14.4622876,16.422931 14.201268,16.6712069 14.201268,16.9608621 C14.201268,17.3167241 14.5112288,17.4741379 15.2210458,17.7472414 C16.1918824,18.1113793 16.6484967,18.6246552 16.6484967,19.4108621 C16.6484967,20.3460345 15.9388497,21.1405172 14.4296601,21.1405172 C13.8015817,21.1405172 13.1814902,20.975 12.8715294,20.8012069 L13.1243922,19.7582759 C13.4588235,19.9322414 13.9727059,20.1060345 14.502902,20.1060345 C15.0738824,20.1060345 15.3758562,19.8658621 15.3758562,19.5017241 C15.3761961,19.1543103 15.1151765,18.9555172 14.4543007,18.7156897 Z M23.3541176,12.2134483 L2.68734641,12.2134483 L2.68734641,1.23206897 L16.5728758,1.23206897 L16.5728758,7.66258621 C16.5728758,7.95551724 16.8067059,8.19293103 17.0954248,8.19293103 L23.3539477,8.19293103 L23.3539477,12.2134483 L23.3541176,12.2134483 Z" id="Shape"></path>
            </g>
        </g>
    </g>
</svg>