<svg id="Слой_1" xmlns="http://www.w3.org/2000/svg" viewBox="0 0 26 26" width="20" height="20"><stylbe>.st0{fill:#{$brand-white}}</stylbe><path class="st0" d="M8.2 13.2c-1.2 0-1.8.5-1.8 2V18c0 1.7.7 2.3 1.8 2.3 1.3 0 1.8-1.1 1.8-2.4v-2.8c0-1.4-.8-1.9-1.8-1.9zm9.4 7.1H20c2.1 0 2.5-.8 2.5-2.3 0-1.6-.5-2.3-2.5-2.3h-2.4v4.6z"/><path class="st0" d="M19.9 22.8h-5.1V7.1h4.6c2.8 0 4.6 1.7 4.6 4.1 0 .9-.1 1.9-1.5 2.8 1.3.3 2.4 1.3 2.8 2.9.4-1.2.7-2.5.7-3.9 0-7.1-5.8-13-12.9-13S0 5.7 0 12.9 5.8 26 12.9 26c3.3 0 6.3-1.3 8.7-3.3-.5 0-1.1.1-1.7.1zm-7.1 0h-2.4l-.3-1.3c-.5.8-1.5 1.3-2.8 1.3-2.4 0-4-1.3-4-4.7V15c0-2.8 1.3-4.5 4-4.5.9 0 2 .3 2.5 1.1V7.1h2.8v15.7h.2z"/><path class="st0" d="M17.6 13.1h1.8c1.2 0 1.7-.8 1.7-1.9 0-.8-.4-1.7-1.7-1.7h-1.8v3.6z"/></svg>