<svg width="22" height="23" viewBox="0 0 22 23" fill="none" xmlns="http://www.w3.org/2000/svg">
<g clip-path="url(#clip0_813_8014)">
<path d="M17.387 14.1281C16.9367 13.6592 16.3934 13.4084 15.8176 13.4084C15.2465 13.4084 14.6986 13.6545 14.2296 14.1235L12.7624 15.5861C12.6416 15.5211 12.5209 15.4608 12.4048 15.4004C12.2377 15.3168 12.0798 15.2379 11.9452 15.1543C10.5708 14.2814 9.32172 13.1438 8.12376 11.6719C7.54336 10.9382 7.15332 10.3207 6.87008 9.69385C7.25083 9.3456 7.60372 8.98343 7.94732 8.63518C8.07733 8.50517 8.20734 8.37052 8.33735 8.24051C9.31243 7.26543 9.31243 6.00246 8.33735 5.02738L7.06974 3.75977C6.9258 3.61583 6.77722 3.46725 6.63792 3.31866C6.35933 3.03078 6.0668 2.73361 5.76499 2.45502C5.3146 2.00927 4.77598 1.77246 4.2095 1.77246C3.64303 1.77246 3.09512 2.00927 2.6308 2.45502C2.62615 2.45966 2.62615 2.45966 2.62151 2.46431L1.0428 4.05694C0.448469 4.65128 0.109512 5.37562 0.0352196 6.21605C-0.0762184 7.57188 0.323101 8.83484 0.629556 9.66134C1.38176 11.6904 2.50543 13.571 4.18164 15.5861C6.21539 18.0146 8.66238 19.9322 11.4576 21.2834C12.5256 21.7895 13.951 22.3885 15.5437 22.4906C15.6412 22.4953 15.7433 22.4999 15.8362 22.4999C16.9088 22.4999 17.8096 22.1145 18.5154 21.3484C18.52 21.3391 18.5293 21.3345 18.5339 21.3252C18.7754 21.0327 19.054 20.768 19.3465 20.4848C19.5462 20.2944 19.7505 20.0947 19.9501 19.8858C20.4098 19.4075 20.6513 18.8503 20.6513 18.2792C20.6513 17.7035 20.4052 17.1509 19.9362 16.6866L17.387 14.1281ZM19.0493 19.0175C19.0447 19.0175 19.0447 19.0221 19.0493 19.0175C18.8682 19.2125 18.6825 19.389 18.4829 19.584C18.181 19.8719 17.8746 20.1737 17.5867 20.5126C17.1177 21.0141 16.5652 21.2509 15.8408 21.2509C15.7712 21.2509 15.6969 21.2509 15.6273 21.2463C14.2482 21.158 12.9667 20.6194 12.0055 20.1597C9.37744 18.8875 7.06974 17.0813 5.15208 14.7921C3.56873 12.8838 2.51007 11.1193 1.80894 9.22488C1.37712 8.06871 1.21925 7.16792 1.2889 6.3182C1.33533 5.77494 1.54428 5.32455 1.92967 4.93916L3.51301 3.35581C3.74053 3.14222 3.98198 3.02614 4.21879 3.02614C4.51131 3.02614 4.74812 3.20258 4.8967 3.35117C4.90135 3.35581 4.90599 3.36045 4.91063 3.3651C5.19387 3.62976 5.46318 3.90371 5.74642 4.19624C5.89036 4.34482 6.03894 4.49341 6.18753 4.64663L7.45513 5.91424C7.94732 6.40642 7.94732 6.86146 7.45513 7.35365C7.32048 7.4883 7.19047 7.62296 7.05581 7.75297C6.66578 8.15229 6.29432 8.52375 5.89036 8.88592C5.88107 8.89521 5.87179 8.89985 5.86714 8.90914C5.46782 9.30846 5.54211 9.69849 5.62569 9.96315C5.63034 9.97708 5.63498 9.99101 5.63962 10.0049C5.96929 10.8036 6.43362 11.5558 7.13939 12.4519L7.14404 12.4566C8.42557 14.0353 9.77676 15.2657 11.2672 16.2083C11.4576 16.3291 11.6526 16.4266 11.8384 16.5194C12.0055 16.603 12.1634 16.6819 12.298 16.7655C12.3166 16.7748 12.3352 16.7887 12.3538 16.798C12.5116 16.877 12.6602 16.9141 12.8134 16.9141C13.1988 16.9141 13.4403 16.6727 13.5192 16.5937L15.1072 15.0057C15.2651 14.8479 15.5158 14.6575 15.8083 14.6575C16.0962 14.6575 16.333 14.8386 16.477 14.9964C16.4816 15.0011 16.4816 15.0011 16.4863 15.0057L19.0447 17.5642C19.5229 18.0378 19.5229 18.5253 19.0493 19.0175Z" fill="#FFB900"/>
<path d="M11.8895 5.73324C13.106 5.93755 14.2111 6.51331 15.0933 7.39553C15.9756 8.27774 16.5467 9.38284 16.7556 10.5994C16.8067 10.9058 17.0714 11.1194 17.3732 11.1194C17.4103 11.1194 17.4428 11.1148 17.48 11.1101C17.8236 11.0544 18.0511 10.7294 17.9954 10.3858C17.7446 8.91387 17.0482 7.57197 15.9848 6.50867C14.9215 5.44536 13.5796 4.74887 12.1077 4.49814C11.7641 4.44242 11.4438 4.66994 11.3834 5.0089C11.323 5.34785 11.5459 5.67752 11.8895 5.73324Z" fill="#FFB900"/>
<path d="M21.9745 10.2047C21.5612 7.78089 20.419 5.57534 18.6638 3.82019C16.9087 2.06505 14.7031 0.922806 12.2794 0.509556C11.9404 0.449194 11.62 0.681357 11.5597 1.02031C11.5039 1.36391 11.7315 1.6843 12.0751 1.74466C14.2388 2.11148 16.2122 3.13764 17.7816 4.70241C19.351 6.27183 20.3725 8.24521 20.7394 10.409C20.7904 10.7154 21.0551 10.929 21.3569 10.929C21.3941 10.929 21.4266 10.9244 21.4637 10.9197C21.8027 10.8686 22.0348 10.5436 21.9745 10.2047Z" fill="#FFB900"/>
</g>
<defs>
<clipPath id="clip0_813_8014">
<rect width="22" height="22" fill="white" transform="translate(0 0.5)"/>
</clipPath>
</defs>
</svg>
