<?xml version="1.0" encoding="UTF-8" standalone="no"?>
<svg width="11px" height="13px" viewBox="0 0 11 13" version="1.1" xmlns="http://www.w3.org/2000/svg" xmlns:xlink="http://www.w3.org/1999/xlink">
    <!-- Generator: Sketch 42 (36781) - http://www.bohemiancoding.com/sketch -->
    <title>noun_653744_cc</title>
    <desc>Created with Sketch.</desc>
    <defs></defs>
    <g id="Page-1" stroke="none" stroke-width="1" fill="none" fill-rule="evenodd">
        <g id="noun_653744_cc" fill-rule="nonzero" fill="#{$link-color-hover}">
            <g id="Page-1">
                <g>
                    <g id="noun_653744_cc">
                        <g id="Page-1">
                            <g id="noun_653744_cc">
                                <g id="Group">
                                    <path d="M5.59166666,7.27380952 C7.0125,7.27380952 8.58611109,5.64880952 8.58611109,3.29642857 C8.58611109,1.40833333 7.33333334,0.0464285714 5.59166666,0.0464285714 C3.85,0.0464285714 2.59722222,1.42380952 2.59722222,3.29642857 C2.59722222,5.64880952 4.17083334,7.27380952 5.59166666,7.27380952 L5.59166666,7.27380952 Z" id="Shape"></path>
                                    <path d="M0.534722222,12.9535714 L10.4652778,12.9535714 C10.7097222,12.9535714 10.9083334,12.752381 10.9083334,12.5047619 L10.9083334,11.4833333 C10.9083334,10.6166667 10.45,9.79642861 9.73194445,9.34761904 L7.57777778,8.01666667 C7.18055555,7.76904762 6.72222222,7.6452381 6.26388889,7.6452381 L4.675,7.6452381 C4.21666666,7.6452381 3.75833334,7.76904762 3.36111111,8.03214286 L1.26805555,9.34761904 C0.534722222,9.81190478 0.106944445,10.6011904 0.106944445,11.4678571 L0.106944445,12.5047619 C0.0916666664,12.752381 0.290277778,12.9535714 0.534722222,12.9535714 L0.534722222,12.9535714 Z" id="Shape"></path>
                                </g>
                            </g>
                        </g>
                    </g>
                </g>
            </g>
        </g>
    </g>
</svg>