<?xml version="1.0" encoding="UTF-8" standalone="no"?>
<svg width="17px" height="18px" viewBox="0 0 17 18" version="1.1" xmlns="http://www.w3.org/2000/svg" xmlns:xlink="http://www.w3.org/1999/xlink" xmlns:sketch="http://www.bohemiancoding.com/sketch/ns">
    <!-- Generator: Sketch 3.2.2 (9983) - http://www.bohemiancoding.com/sketch -->
    <title>noun_769733_cc</title>
    <desc>Created with Sketch.</desc>
    <defs></defs>
    <g id="Page-1" stroke="none" stroke-width="1" fill="none" fill-rule="evenodd" sketch:type="MSPage">
        <g id="noun_769733_cc" sketch:type="MSLayerGroup" fill="#{$link-color}">
            <g id="Page-1" sketch:type="MSShapeGroup">
                <g id="noun_769733_cc">
                    <g id="Page-1">
                        <g id="noun_769733_cc">
                            <g id="Group">
                                <path d="M16.3145162,4.70769231 L4.11290322,4.70769231 L4.11290322,1.93846153 C4.11290322,1.35692308 3.59193548,0.858461535 2.98870968,0.830769233 L0.74032258,0.276923077 C0.438709678,0.193846154 0.137096774,0.387692308 0.0822580643,0.692307692 C1.09634524e-15,0.996923077 0.191935484,1.30153846 0.493548387,1.35692308 L2.7967742,1.91076923 C2.8516129,1.91076923 2.87903226,1.93846153 2.93387096,1.93846153 C2.96129032,1.93846153 3.01612903,1.96615384 3.01612903,1.99384615 L3.01612903,13.5692308 C3.01612903,13.8738461 3.26290322,14.1230769 3.56451613,14.1230769 L14.532258,14.1230769 C14.833871,14.1230769 15.0806452,13.8738461 15.0806452,13.5692308 C15.0806452,13.2646153 14.833871,13.0153846 14.532258,13.0153846 L4.11290322,13.0153846 L4.11290322,11.9076923 L14.6693548,11.9076923 C14.916129,11.9076923 15.1354838,11.7415385 15.1903226,11.4923077 L16.8354838,5.4 C16.8903226,5.23384615 16.8354838,5.06769231 16.7532258,4.92923077 C16.6435484,4.79076923 16.4790322,4.70769231 16.3145162,4.70769231 L16.3145162,4.70769231 L16.3145162,4.70769231 Z M14.2580645,10.8 L4.11290322,10.8 L4.11290322,5.81538461 L15.6016129,5.81538461 L14.2580645,10.8 L14.2580645,10.8 Z" id="Shape"></path>
                                <path d="M5.89516129,14.6769231 C4.99032258,14.6769231 4.25,15.4246153 4.25,16.3384615 C4.25,17.2523077 4.99032258,18 5.89516129,18 C6.8,18 7.54032259,17.2523077 7.54032259,16.3384615 C7.54032259,15.4246153 6.8,14.6769231 5.89516129,14.6769231 L5.89516129,14.6769231 L5.89516129,14.6769231 Z M5.89516129,16.8923077 C5.59354838,16.8923077 5.3467742,16.6430769 5.3467742,16.3384615 C5.3467742,16.0338461 5.59354838,15.7846153 5.89516129,15.7846153 C6.1967742,15.7846153 6.44354838,16.0338461 6.44354838,16.3384615 C6.44354838,16.6430769 6.1967742,16.8923077 5.89516129,16.8923077 L5.89516129,16.8923077 L5.89516129,16.8923077 Z" id="Shape"></path>
                                <path d="M11.9274194,14.6769231 C11.0225806,14.6769231 10.282258,15.4246153 10.282258,16.3384615 C10.282258,17.2523077 11.0225806,18 11.9274194,18 C12.832258,18 13.5725806,17.2523077 13.5725806,16.3384615 C13.5725806,15.4246153 12.832258,14.6769231 11.9274194,14.6769231 L11.9274194,14.6769231 L11.9274194,14.6769231 Z M11.9274194,16.8923077 C11.6258064,16.8923077 11.3790322,16.6430769 11.3790322,16.3384615 C11.3790322,16.0338461 11.6258064,15.7846153 11.9274194,15.7846153 C12.2290322,15.7846153 12.4758064,16.0338461 12.4758064,16.3384615 C12.4758064,16.6430769 12.2290322,16.8923077 11.9274194,16.8923077 L11.9274194,16.8923077 L11.9274194,16.8923077 Z" id="Shape"></path>
                            </g>
                        </g>
                    </g>
                </g>
            </g>
        </g>
    </g>
</svg>