<?xml version="1.0" encoding="UTF-8" standalone="no"?>
<svg width="17px" height="18px" viewBox="0 0 17 18" version="1.1" xmlns="http://www.w3.org/2000/svg" xmlns:xlink="http://www.w3.org/1999/xlink" xmlns:sketch="http://www.bohemiancoding.com/sketch/ns">
    <!-- Generator: Sketch 3.2.2 (9983) - http://www.bohemiancoding.com/sketch -->
    <title>noun_769735_cc</title>
    <desc>Created with Sketch.</desc>
    <defs></defs>
    <g id="Page-1" stroke="none" stroke-width="1" fill="none" fill-rule="evenodd" sketch:type="MSPage">
        <g id="noun_769735_cc" sketch:type="MSLayerGroup" fill="#{$link-color-hover}">
            <g id="Page-1" sketch:type="MSShapeGroup">
                <g id="noun_769735_cc">
                    <g id="Page-1">
                        <g id="noun_769735_cc">
                            <g id="Group">
                                <path d="M16.3253968,4.70769231 L4.31746032,4.70769231 L4.31746032,1.93846153 C4.31746032,1.27384615 3.83174603,0.775384612 3.18412699,0.72 L1.05238096,0.221538461 C0.674603174,0.138461539 0.323809524,0.36 0.242857143,0.747692308 C0.161904762,1.13538461 0.377777778,1.49538461 0.755555558,1.57846153 L2.96825397,2.10461539 L2.9952381,2.10461539 L2.9952381,13.7076923 C2.9952381,14.0953847 3.29206349,14.4 3.66984127,14.4 L14.5714286,14.4 C14.9492063,14.4 15.2460317,14.0953847 15.2460317,13.7076923 C15.2460317,13.32 14.9492063,13.0153847 14.5714286,13.0153847 L4.31746032,13.0153847 L4.31746032,11.9076923 L14.7063492,11.9076923 C14.9492063,11.9076923 15.1650794,11.7415384 15.2190476,11.4923077 L16.8380953,5.4 C16.8920635,5.23384615 16.8380953,5.06769231 16.7571429,4.92923077 C16.6492063,4.79076923 16.4873016,4.70769231 16.3253968,4.70769231 L16.3253968,4.70769231 L16.3253968,4.70769231 Z" id="Shape"></path>
                                <ellipse id="Oval" cx="6.07142857" cy="16.3384615" rx="1.61904762" ry="1.66153847"></ellipse>
                                <ellipse id="Oval" cx="12.0079365" cy="16.3384615" rx="1.61904762" ry="1.66153847"></ellipse>
                            </g>
                        </g>
                    </g>
                </g>
            </g>
        </g>
    </g>
</svg>