<svg width="22" height="23" viewBox="0 0 22 23" fill="none" xmlns="http://www.w3.org/2000/svg">
<g clip-path="url(#clip0_813_8025)">
<path d="M10.9952 0.5C6.13399 0.5 2.17676 4.45723 2.17676 9.31845C2.17676 9.87191 2.22749 10.43 2.33357 10.9742C2.33818 11.0065 2.35663 11.1034 2.39353 11.2694C2.52728 11.8644 2.7256 12.4501 2.98389 13.0082C3.93399 15.2451 6.0233 18.6811 10.6078 22.3616C10.7231 22.4539 10.8615 22.5 10.9998 22.5C11.1382 22.5 11.2765 22.4539 11.3919 22.3616C15.9717 18.6811 18.0656 15.2451 19.0158 13.0082C19.274 12.4501 19.4724 11.869 19.6061 11.2694C19.643 11.1034 19.6615 11.0065 19.6661 10.9742C19.7675 10.43 19.8229 9.87191 19.8229 9.31845C19.8137 4.45723 15.8564 0.5 10.9952 0.5ZM18.43 10.7574C18.43 10.7667 18.4254 10.7759 18.4254 10.7851C18.4208 10.8082 18.4069 10.8774 18.3839 10.9834C18.3839 10.9881 18.3839 10.9881 18.3839 10.9927C18.2686 11.5092 18.0979 12.012 17.8719 12.4962C17.8673 12.5008 17.8673 12.5101 17.8627 12.5147C17.0002 14.5579 15.1093 17.6757 10.9952 21.0748C6.88116 17.6757 4.99018 14.5579 4.1277 12.5147C4.12309 12.5101 4.12309 12.5008 4.11848 12.4962C3.89709 12.0166 3.72644 11.5092 3.60653 10.9927C3.60653 10.9881 3.60653 10.9881 3.60653 10.9834C3.57885 10.8774 3.56963 10.8082 3.56502 10.7851C3.56502 10.7759 3.56041 10.7667 3.56041 10.7528C3.46816 10.2778 3.42204 9.79811 3.42204 9.31384C3.42204 5.13983 6.8212 1.74067 10.9952 1.74067C15.1692 1.74067 18.5684 5.13983 18.5684 9.31384C18.5684 9.80273 18.5223 10.287 18.43 10.7574Z" fill="#FFB900"/>
<path d="M10.9952 3.81592C7.90962 3.81592 5.396 6.32954 5.396 9.41508C5.396 12.5006 7.90962 15.0142 10.9952 15.0142C14.0807 15.0142 16.5943 12.5006 16.5943 9.41508C16.5943 6.32954 14.0807 3.81592 10.9952 3.81592ZM10.9952 13.769C8.59222 13.769 6.64128 11.8134 6.64128 9.41508C6.64128 7.01676 8.59683 5.0612 10.9952 5.0612C13.3935 5.0612 15.349 7.01676 15.349 9.41508C15.349 11.8134 13.3981 13.769 10.9952 13.769Z" fill="#FFB900"/>
</g>
<defs>
<clipPath id="clip0_813_8025">
<rect width="22" height="22" fill="white" transform="translate(0 0.5)"/>
</clipPath>
</defs>
</svg>
