<svg width="22" height="23" viewBox="0 0 22 23" fill="none" xmlns="http://www.w3.org/2000/svg">
<g clip-path="url(#clip0_813_7976)">
<path d="M18.7778 3.72222C16.6991 1.64352 13.9398 0.5 11 0.5C8.06019 0.5 5.30093 1.64352 3.22222 3.72222C1.14352 5.80093 0 8.56019 0 11.5C0 14.4398 1.14352 17.1991 3.22222 19.2778C5.30093 21.3565 8.06019 22.5 11 22.5C13.9398 22.5 16.6991 21.3565 18.7778 19.2778C20.8565 17.1991 22 14.4398 22 11.5C22 8.56019 20.8565 5.80093 18.7778 3.72222ZM17.8935 18.3935C16.0509 20.2361 13.6019 21.25 11 21.25C8.39815 21.25 5.94907 20.2361 4.10648 18.3935C0.305555 14.5926 0.305555 8.40741 4.10648 4.60648C5.94907 2.76389 8.39815 1.75 11 1.75C13.6019 1.75 16.0509 2.76389 17.8935 4.60648C21.6944 8.40741 21.6944 14.5926 17.8935 18.3935Z" fill="#FFB900"/>
<path d="M9.7085 13.3149L17.2455 13.3196C17.4307 13.3196 17.6113 13.2455 17.7316 13.1205C17.8566 12.9955 17.9353 12.8242 17.9307 12.6344C17.9307 12.2548 17.6251 11.9446 17.2409 11.9446L11.0835 11.9353V5.77327C11.0835 5.39827 10.7872 5.09271 10.4122 5.08808C10.0233 5.07882 9.7085 5.40753 9.7085 5.79642V13.3149Z" fill="#FFB900"/>
</g>
<defs>
<clipPath id="clip0_813_7976">
<rect width="22" height="22" fill="white" transform="translate(0 0.5)"/>
</clipPath>
</defs>
</svg>
