<?xml version="1.0" encoding="utf-8"?>
<svg version="1.1" id="Layer_1" xmlns="http://www.w3.org/2000/svg" xmlns:xlink="http://www.w3.org/1999/xlink" x="0px" y="0px"
	 width="50px" height="50px" viewBox="0 0 50 50" style="enable-background:new 0 0 50 50;" xml:space="preserve">
<style type="text/css">
	.st0{fill:#FFFFFF;}
</style>
<g>
	<g id="Icon_Search">
		<path class="st0" d="M22.1,36.5c-7.1,0-12.9-5.8-12.9-12.9S15,10.7,22.1,10.7S35,16.5,35,23.6S29.2,36.5,22.1,36.5z M22.1,12.5
			c-6.1,0-11.1,5-11.1,11.1s5,11.1,11.1,11.1s11.1-5,11.1-11.1S28.2,12.5,22.1,12.5z"/>
		
			<rect x="34.6" y="30.6" transform="matrix(0.7071 -0.7071 0.7071 0.7071 -15.7109 35.9982)" class="st0" width="2" height="12.7"/>
	</g>
	<rect x="15.1" y="22.5" class="st0" width="14" height="2"/>
	<rect x="21.1" y="16.5" class="st0" width="2" height="14"/>
</g>
</svg>
