<?xml version="1.0" encoding="UTF-8" standalone="no"?>
<svg width="16px" height="17px" viewBox="0 0 16 17" version="1.1" xmlns="http://www.w3.org/2000/svg" xmlns:xlink="http://www.w3.org/1999/xlink" xmlns:sketch="http://www.bohemiancoding.com/sketch/ns">
    <!-- Generator: Sketch 3.2.2 (9983) - http://www.bohemiancoding.com/sketch -->
    <title>noun_737351_cc</title>
    <desc>Created with Sketch.</desc>
    <defs></defs>
    <g id="Page-1" stroke="none" stroke-width="1" fill="none" fill-rule="evenodd" sketch:type="MSPage">
        <g id="noun_737351_cc" sketch:type="MSLayerGroup" fill="#fff">
            <g id="Page-1" sketch:type="MSShapeGroup">
                <g id="noun_737351_cc">
                    <path d="M11.0956522,10.9791667 C12.1391304,9.84583333 12.7652174,8.32291667 12.7652174,6.65833333 C12.7652174,3.15208333 9.94782609,0.283333333 6.50434783,0.283333333 C3.06086957,0.283333333 0.243478261,3.15208333 0.243478261,6.65833333 C0.243478261,10.1645833 3.06086957,13.0333333 6.50434783,13.0333333 C7.82608696,13.0333333 9.04347826,12.6083333 10.0173913,11.9354167 L14.5043478,16.5041667 C14.6434783,16.6458333 14.8173913,16.7166667 14.9913043,16.7166667 C15.1652174,16.7166667 15.3391304,16.6458333 15.4782609,16.5041667 C15.7565217,16.2208333 15.7565217,15.7958333 15.4782609,15.5125 L11.0956522,10.9791667 L11.0956522,10.9791667 Z M6.53913043,11.6166667 C3.86086957,11.6166667 1.66956522,9.38541667 1.66956522,6.65833333 C1.66956522,3.93125 3.86086957,1.7 6.53913043,1.7 C9.2173913,1.7 11.4086957,3.93125 11.4086957,6.65833333 C11.4086957,9.38541667 9.2173913,11.6166667 6.53913043,11.6166667 L6.53913043,11.6166667 Z" id="Shape"></path>
                </g>
            </g>
        </g>
    </g>
</svg>