<?xml version="1.0" encoding="utf-8"?>
<!-- Generator: Adobe Illustrator 17.0.0, SVG Export Plug-In . SVG Version: 6.00 Build 0)  -->
<!DOCTYPE svg PUBLIC "-//W3C//DTD SVG 1.1//EN" "http://www.w3.org/Graphics/SVG/1.1/DTD/svg11.dtd">
<svg version="1.1" id="Layer_1" xmlns="http://www.w3.org/2000/svg" xmlns:xlink="http://www.w3.org/1999/xlink" x="0px" y="0px"
	 width="40px" height="40px" viewBox="0 0 40 40" enable-background="new 0 0 40 40" xml:space="preserve">
<g>
	<circle fill="#3a71c0" cx="20.011" cy="20.038" r="19.364"/>
</g>
<g>
	<path fill="#FFFFFF" d="M19.288,29.487l8.107-8.107c0.105-0.105,0.18-0.27,0.18-0.435c0-0.165-0.075-0.33-0.18-0.435l-8.107-8.107
		c-0.24-0.24-0.631-0.24-0.871,0c-0.12,0.12-0.18,0.27-0.18,0.435c0,0.165,0.06,0.315,0.18,0.435l7.056,7.056H10.746
		c-0.345,0-0.616,0.27-0.616,0.616c0,0.345,0.27,0.616,0.616,0.616h14.728l-7.056,7.056c-0.24,0.24-0.24,0.631,0,0.871
		C18.658,29.727,19.048,29.712,19.288,29.487z"/>
</g>
</svg>
