<?xml version="1.0" encoding="UTF-8" standalone="no"?>
<svg width="14px" height="14px" viewBox="0 0 14 14" version="1.1" xmlns="http://www.w3.org/2000/svg" xmlns:xlink="http://www.w3.org/1999/xlink" xmlns:sketch="http://www.bohemiancoding.com/sketch/ns">
    <!-- Generator: Sketch 3.2.2 (9983) - http://www.bohemiancoding.com/sketch -->
    <title>noun_149007_cc</title>
    <desc>Created with Sketch.</desc>
    <defs></defs>
    <g id="Page-1" stroke="none" stroke-width="1" fill="none" fill-rule="evenodd" sketch:type="MSPage">
        <g id="noun_149007_cc" sketch:type="MSLayerGroup" fill="#{$link-color}">
            <g id="Group" sketch:type="MSShapeGroup">
                <path d="M13.2951304,14 C13.1537609,14 13.0122391,13.9453846 12.9043478,13.8363077 L0.313934783,1.10769231 C0.098,0.889692308 0.098,0.535538462 0.313934783,0.317538462 C0.529869565,0.0992307692 0.879717391,0.0992307692 1.09565217,0.317538462 L13.6860652,13.0461538 C13.902,13.2641538 13.902,13.6183077 13.6860652,13.8363077 C13.5780217,13.9455385 13.4365,14 13.2951304,14 L13.2951304,14 Z" id="Shape"></path>
                <path d="M0.704869565,14 C0.5635,14 0.421978261,13.9453846 0.314086957,13.8363077 C0.0981521739,13.6183077 0.0981521739,13.2641538 0.314086957,13.0461538 L12.9043478,0.317384615 C13.1202826,0.0990769231 13.4701304,0.0990769231 13.6860652,0.317384615 C13.902,0.535384615 13.902,0.889538462 13.6860652,1.10753846 L1.09565217,13.8363077 C0.98776087,13.9455385 0.84623913,14 0.704869565,14 L0.704869565,14 Z" id="Shape"></path>
            </g>
        </g>
    </g>
</svg>