<?xml version="1.0" encoding="UTF-8" standalone="no"?>
<svg width="17px" height="19px" viewBox="0 0 17 19" version="1.1" xmlns="http://www.w3.org/2000/svg" xmlns:xlink="http://www.w3.org/1999/xlink" xmlns:sketch="http://www.bohemiancoding.com/sketch/ns">
    <!-- Generator: Sketch 3.2.2 (9983) - http://www.bohemiancoding.com/sketch -->
    <title>noun_631258_cc</title>
    <desc>Created with Sketch.</desc>
    <defs></defs>
    <g id="Page-1" stroke="none" stroke-width="1" fill="none" fill-rule="evenodd" sketch:type="MSPage">
        <g id="noun_631258_cc" sketch:type="MSLayerGroup" fill="#{$link-color}">
            <g id="Page-1" sketch:type="MSShapeGroup">
                <g id="noun_631258_cc">
                    <g id="Group" transform="translate(0.000000, 0.147189)">
                        <path d="M3.26241987,0.0865384615 C2.74582649,0.0984461538 2.35286909,0.357844615 2.07051282,0.699519231 L0.544871795,2.54567308 C0.112905718,3.06838615 0,3.78264 0,4.47115385 C0,6.79869692 1.55694238,10.2296769 4.48838141,13.3341231 C7.42037381,16.4380154 10.6607299,18.0865154 12.8589744,18.0865385 C13.509222,18.0865385 14.1769859,17.967 14.6706731,17.5096154 L16.4142628,15.8942308 C16.7369479,15.5952462 16.98871,15.1791462 17,14.6322 C17.0107231,14.1088846 16.7354682,13.6886769 16.4346955,13.3701923 L14.0372596,10.8317308 C13.7436193,10.5208385 13.361014,10.2403615 12.8589744,10.2403846 C12.3237788,10.2403615 11.9401259,10.5570462 11.6806891,10.8317308 C11.6806891,10.8317308 10.7652012,11.7978923 10.7450056,11.8163769 C10.5680005,11.9951077 10.4260296,12.0167077 10.2640224,11.9134615 L5.82331731,7.21153846 C5.6691916,7.04834769 5.79298277,6.87837692 5.88813526,6.74437385 C5.91087363,6.71235231 6.84495192,5.71876154 6.84495192,5.71876154 C7.10440244,5.44403769 7.41025641,5.03779846 7.41025641,4.47115385 C7.41025641,3.93960923 7.13860208,3.52726846 6.84495192,3.21634615 L4.44751603,0.677884615 C4.14673699,0.359413846 3.75670969,0.0751523077 3.26241987,0.0865384615 L3.26241987,0.0865384615 Z M3.83453526,1.33413462 L6.23197115,3.87259615 C6.47646341,4.13147077 6.53846154,4.21593231 6.53846154,4.47115385 C6.53846154,4.72276615 6.44870067,4.83302308 6.23197115,5.0625 C6.23197115,5.0625 5.29675473,6.05640231 5.27004294,6.08871231 C5.08705123,6.31006154 4.9556214,6.54764077 4.91065705,6.81489231 C4.87055994,7.20952154 4.9208309,7.55455846 5.14222756,7.79566154 L9.71915064,12.6418154 C9.95638019,12.8741538 10.3789126,12.9325385 10.6454327,12.8870077 C10.8935296,12.8402077 11.1095373,12.7049538 11.3141109,12.5163692 C11.3480453,12.4850769 12.2936699,11.4880385 12.2936699,11.4880385 C12.5104188,11.2585615 12.6213625,11.1635077 12.8589744,11.1635308 C13.0999502,11.1635077 13.1797846,11.2291846 13.4242788,11.4880385 L15.8217147,14.0265 C16.0316682,14.2488231 16.1312,14.4644769 16.1282051,14.6106462 C16.1207295,14.9727923 16.106359,14.9499692 15.8421474,15.1947923 L14.0985577,16.8101769 C13.8633368,17.0280923 13.3945373,17.1635308 12.8589744,17.1635308 C11.0979424,17.1635077 7.90987094,15.6511154 5.10136218,12.6779538 C2.29338326,9.70416923 0.871794872,6.33574154 0.871794872,4.47115385 C0.871794872,3.90408462 0.992911154,3.40769769 1.19871795,3.15865385 L2.72435897,1.3125 C2.90283783,1.09793538 3.08527769,1.00665692 3.26923077,1.00665692 C3.46245996,1.00665692 3.65474936,1.14752077 3.83453526,1.33413462 L3.83453526,1.33413462 Z" id="Shape"></path>
                    </g>
                </g>
            </g>
        </g>
    </g>
</svg>