<svg width="24" height="24" viewBox="0 0 24 24" fill="none" xmlns="http://www.w3.org/2000/svg">
    <path fill-rule="evenodd" clip-rule="evenodd" d="M11.1056 0C4.97498 0 0 4.91085 0 10.975C0 17.0391 4.97498 21.95 11.1056 21.95C13.8327 21.95 16.331 20.9783 18.2643 19.3659L22.9548 24L24 22.9674L19.3284 18.3519C21.1191 16.4036 22.2112 13.8153 22.2112 10.975C22.2112 4.91085 17.2362 0 11.1056 0ZM1.47512 10.975C1.47512 5.72466 5.784 1.46333 11.1056 1.46333C16.4272 1.46333 20.7361 5.72466 20.7361 10.975C20.7361 16.2253 16.4272 20.4866 11.1056 20.4866C5.784 20.4866 1.47512 16.2253 1.47512 10.975Z" fill="#{$brand-1}"/>
</svg>