<svg width="84" height="178" viewBox="0 0 84 178" fill="none" xmlns="http://www.w3.org/2000/svg">
    <path fill-rule="evenodd" clip-rule="evenodd" d="M3.88485 178C2.75462 178 1.82414 177.634 1.08292 176.908C0.352212 176.183 0 175.237 0 174.114V61.7923C0 61.1447 0.23656 60.4553 0.714938 59.7293C1.21434 58.9982 1.8662 58.4811 2.67051 58.1469L69.5961 35.1048C73.8174 33.4858 77.2396 33.6477 79.8365 35.5801C82.6069 37.5333 84 40.3588 84 44.0772V112.979C84 113.95 83.6162 114.801 82.896 115.522C82.1548 116.253 81.2086 116.614 80.0678 116.614C79.1058 116.614 78.2542 116.253 77.5235 115.522C76.7928 114.801 76.4353 113.95 76.4353 112.979V44.0772C76.4353 42.7873 76.183 42.0561 75.6888 41.889C74.8688 41.4033 73.749 41.4973 72.2719 42.1397L7.55416 64.461V174.114C7.55416 175.237 7.19144 176.183 6.45022 176.908C5.73002 177.634 4.86263 178 3.88485 178ZM38.1132 34C33.3794 34 29.346 32.3679 26.0181 29.0985C22.6692 25.8448 21 21.8489 21 17.1158C21 12.3933 22.6692 8.35522 26.0181 5.00681C29.346 1.6742 33.3794 0 38.1132 0C42.8417 0 46.833 1.6742 50.103 5.00681C53.3677 8.35522 55 12.3933 55 17.1158C55 21.6909 53.3677 25.6395 50.103 28.9774C46.833 32.3205 42.8417 34 38.1132 34ZM67.0695 177.951C66.2397 177.951 65.4897 177.706 64.8461 177.225C64.1865 176.74 63.7769 176.171 63.6067 175.529L41.8622 119.761L33.7134 174.804C33.3836 175.926 32.8038 176.782 31.99 177.346C31.1602 177.904 30.256 178.102 29.2613 177.951C28.2666 177.784 27.4475 177.257 26.7932 176.38C26.1336 175.487 25.8783 174.558 26.0539 173.588L34.9474 115.398C35.2612 113.138 36.5112 112 38.6442 112H44.5803C46.3888 112.329 47.6335 113.216 48.2877 114.672L70.7875 172.862C71.1067 173.828 71.0694 174.804 70.6545 175.775C70.2343 176.74 69.5322 177.387 68.5588 177.706C68.3833 177.873 68.1918 177.951 67.9365 177.951H67.0695ZM38.1275 7C35.3273 7 32.9522 7.98857 30.9756 9.9604C28.9936 11.9375 28 14.3239 28 17.1196C28 19.9205 28.9936 22.2697 30.9756 24.1565C32.9522 26.0486 35.3273 27 38.1275 27C40.9171 27 43.2604 26.0167 45.152 24.029C47.0489 22.0518 48 19.7558 48 17.1196C48 14.3239 47.0489 11.9375 45.152 9.9604C43.2604 7.98857 40.9171 7 38.1275 7Z" fill="#{$brand-1}"/>
</svg>