<svg xmlns="http://www.w3.org/2000/svg" width="48" height="54"><g fill="none" fill-rule="evenodd"><path fill="#000" fill-rule="nonzero" stroke="#000" stroke-width=".3" d="M46.225 43.37h-6.704v-7.34a.77.77 0 0 0-.775-.764H27.193V23.51a.77.77 0 0 0-.774-.764.77.77 0 0 0-.775.764v11.756h-6.661V16.529h6.661v3.924a.77.77 0 0 0 .775.765.77.77 0 0 0 .774-.765v-4.689A.77.77 0 0 0 26.42 15H1.775a.77.77 0 0 0-.775.764l.011 25.65a.77.77 0 0 0 .775.765.77.77 0 0 0 .775-.765v-8.68h6.661V51.47H2.561v-7a.77.77 0 0 0-.775-.763.77.77 0 0 0-.775.764v7.764a.77.77 0 0 0 .775.764h44.44a.77.77 0 0 0 .774-.764v-8.102a.77.77 0 0 0-.775-.765zm-8.253-6.574v6.573h-18.99v-6.573h18.99zm-27.2 6.573V24.631h6.661V43.37h-6.662zM2.548 16.53h14.884v6.573H2.55V16.53zm0 14.675v-6.573h6.673v6.573H2.55zm8.222 13.694h18.99v6.573H10.77v-6.573zm34.68 6.573H31.31v-6.573h14.14v6.573z"/><path fill="#3a71c0" d="M25.5 2h20.645v28.31h-7.87V9.978H25.822z"/><path fill="#000" fill-rule="nonzero" stroke="#000" stroke-width=".3" d="M46.228 1H25.772a.77.77 0 0 0-.772.767v8.13a.77.77 0 0 0 .772.767h11.507v19.569c0 .424.345.767.771.767h8.178a.769.769 0 0 0 .772-.767V1.767A.769.769 0 0 0 46.228 1zM26.543 2.534h18.914V9.13H26.543V2.534zm18.914 26.932h-6.635V10.664h6.635v18.802z"/></g></svg>