<svg xmlns="http://www.w3.org/2000/svg" width="57" height="58"><g fill="none"><path fill="#000" d="M28.048 16.313c4.49 0 8.142-3.66 8.142-8.157S32.538 0 28.048 0c-4.49 0-8.143 3.66-8.143 8.156 0 4.497 3.652 8.156 8.143 8.156zm0-1.8c-3.496 0-6.343-2.853-6.343-6.357 0-3.503 2.847-6.356 6.343-6.356 3.495 0 6.342 2.853 6.342 6.356 0 3.504-2.847 6.356-6.342 6.356z"/><path fill="#033550" d="M28.048 14.512c-3.496 0-6.343-2.852-6.343-6.356 0-3.503 2.847-6.356 6.343-6.356 3.495 0 6.342 2.853 6.342 6.356 0 3.504-2.847 6.356-6.342 6.356z"/><path fill="#000" d="M17.971 46.676a.904.904 0 0 0 .008-.901l-8.143-14.5c-.32-.571-1.257-.571-1.576 0l-8.143 14.5a.904.904 0 0 0 .788 1.35H17.19c.323 0 .62-.17.781-.449zm-15.52-1.364l6.597-11.744 6.595 11.745H2.452zM57 31.719c0-.5-.405-.907-.905-.907H41.62c-.5 0-.905.406-.905.907v14.5c0 .5.406.906.905.906h14.476c.5 0 .905-.406.905-.906v-14.5zm-1.81 13.593H42.524V32.626H55.19v12.688zm-27.142 6.344a21.606 21.606 0 0 1-11.785-3.479L15.28 49.7a23.41 23.41 0 0 0 12.769 3.77c4.722 0 9.278-1.397 13.174-4.04l-1.014-1.5a21.577 21.577 0 0 1-12.16 3.727zm21.698-22.621l1.807-.07A23.542 23.542 0 0 0 38.398 8.742l-.797 1.627a21.733 21.733 0 0 1 12.145 18.666zM6.402 31.647a22.164 22.164 0 0 1-.069-1.74c0-8.365 4.66-15.851 12.16-19.538l-.796-1.627C9.571 12.736 4.524 20.846 4.524 29.906c0 .632.024 1.265.074 1.885l1.804-.144zM14.741 6.61l1.28 1.28 2.714-2.718a.906.906 0 0 0 0-1.281L16.02 1.17l-1.28 1.282 1.17 1.172H9.952v1.813h5.96l-1.17 1.171zm38.64 14.234a.902.902 0 0 0 .64-.266l2.714-2.719-1.28-1.281-1.17 1.172v-5.97h-1.809v5.969l-1.17-1.172-1.279 1.281 2.714 2.72a.902.902 0 0 0 .64.265zM8.408 49.203l-2.714 2.719 1.279 1.281 1.17-1.172V58h1.81v-5.969l1.17 1.172 1.279-1.281-2.715-2.719a.903.903 0 0 0-1.279 0zM36.19 29c0-2.903-1.56-5.61-4.07-7.064l-.907 1.569A6.37 6.37 0 0 1 34.381 29c0 2.955-2.032 5.438-4.767 6.14l1.053-2.109-1.619-.811-1.81 3.625a.907.907 0 0 0 .17 1.046l2.715 2.718 1.28-1.281-1.414-1.416c3.554-.875 6.201-4.086 6.201-7.912zm-12.212 7.066l.905-1.569A6.371 6.371 0 0 1 21.714 29c0-2.955 2.032-5.438 4.767-6.14l-1.053 2.109 1.619.811 1.81-3.625a.907.907 0 0 0-.17-1.046l-2.715-2.718-1.28 1.281 1.414 1.416c-3.553.875-6.201 4.086-6.201 7.912a8.188 8.188 0 0 0 4.073 7.066z"/></g></svg>