<svg width="100" height="100" fill="none" xmlns="http://www.w3.org/2000/svg"><path d="M65.332 4.805c-3.379.527-6.738 2.812-8.184 5.566l-.566 1.074-.898-.156c-1.797-.293-7.5-.41-9.688-.176-9.687 1.036-18.242 4.922-24.98 11.368C9.805 33.164 5.332 48.77 9.219 63.77a41.932 41.932 0 0 0 27.383 29.297A42.192 42.192 0 0 0 86.055 75c5.117-8.379 7.148-18.887 5.546-28.613-.722-4.453-1.757-7.715-3.71-11.719-2.247-4.61-5.157-8.613-8.809-12.09l-1.758-1.68.313-1.21c1.074-4.063.234-8.125-2.246-11.094-1.055-1.27-3.418-2.813-5.02-3.32-1.27-.391-3.926-.625-5.039-.47zm5 3.75c1.543.742 3.3 2.5 3.984 4.004 1.993 4.336-.273 10.82-5.937 16.972l-1.504 1.641-1.504-1.68c-4.687-5.175-7.11-10.586-6.562-14.629.234-1.718.937-3.125 2.148-4.414 1.914-2.03 3.477-2.675 6.23-2.578 1.602.059 2.032.137 3.145.684zM48.438 22.949v8.887h-6.641c-4.317 0-6.64-.078-6.64-.195 0-.45 1.679-4.766 2.636-6.738 2.598-5.41 6.055-9.22 9.473-10.45a34.507 34.507 0 0 0 1.132-.39c.02 0 .04 4.004.04 8.886zm5.996-8.77l1.172.138.117 2.168c.058 1.503.254 2.695.605 3.886.918 3.067 3.047 6.856 5.566 9.844.665.781 1.192 1.465 1.192 1.523 0 .059-2.598.098-5.762.098h-5.761V14.063h.859c.45 0 1.367.058 2.012.117zm-14.668 2.052c-2.793 3.007-5.84 8.847-7.364 14.082l-.449 1.523H17.148l.332-.547c.196-.293.899-1.23 1.563-2.09 5.039-6.484 11.816-11.152 19.727-13.593.976-.293 1.835-.547 1.933-.547.078-.02-.332.508-.937 1.172zm37.89 9.199c1.719 1.777 3.281 3.633 4.356 5.195l.82 1.211H70.43l.683-.742c1.426-1.504 3.575-4.531 4.453-6.25.235-.45.489-.82.567-.82.078 0 .761.644 1.523 1.406zm-46.601 9.668c0 .195-.137.879-.274 1.523-.468 1.992-1.074 6.309-1.289 9.278-.117 1.562-.254 3.476-.312 4.238l-.117 1.426H10.936v-.938c0-3.457 1.622-9.785 3.516-13.867l.957-1.992h7.813c7.324 0 7.832.02 7.832.332zm17.383 8.066v8.399h-16.27l.137-2.754c.058-1.524.293-4.14.508-5.82.37-2.872 1.269-7.696 1.484-8.067.058-.078 3.262-.156 7.129-.156h7.011v8.398zm17.265-8.242c.215.371 1.113 5.195 1.484 8.066.215 1.68.45 4.297.508 5.82l.137 2.755h-16.27V34.766h7.012c3.867 0 7.07.078 7.13.156zm19.746 1.66c1.797 3.75 3.242 9.18 3.535 13.164l.137 1.817H70.937l-.117-1.23c-.039-.665-.195-2.599-.312-4.317-.235-3.125-.703-6.64-1.27-9.258-.156-.781-.293-1.563-.293-1.719 0-.234 1.153-.273 7.832-.273h7.813l.86 1.816zM29.18 56.094c.43 5.86.567 7.383.919 9.629.215 1.386.547 3.261.742 4.14l.351 1.621h-15.78l-.9-1.894c-1.796-3.867-3.222-9.2-3.515-13.125l-.117-1.777h18.183l.118 1.406zm19.259 6.992v8.398h-7.012c-3.867 0-7.07-.058-7.11-.156-.058-.078-.332-1.23-.605-2.578-.664-3.262-1.25-7.93-1.406-11.308l-.137-2.754h16.27v8.398zm19.257-5.644c-.156 3.379-.742 8.046-1.406 11.308-.273 1.348-.547 2.5-.605 2.578-.04.098-3.243.156-7.11.156h-7.011V54.688h16.269l-.137 2.754zm21.368-1.973c0 1.367-.587 5.098-1.172 7.305a37.798 37.798 0 0 1-2.5 6.992l-.801 1.718H68.809l.273-1.19c.527-2.266 1.211-7.227 1.426-10.196.117-1.64.254-3.516.312-4.2l.118-1.21h18.125v.78zm-56.68 20.41c1.523 5.156 4.492 10.898 7.265 14.023.567.606.938 1.114.84 1.114-.097 0-.879-.215-1.738-.469-8.438-2.559-16.035-8.066-20.977-15.254l-.605-.879h14.785l.43 1.465zm16.054 7.324c0 7.735-.039 8.79-.292 8.79-.567 0-2.735-1.114-3.946-2.032-3.164-2.383-6.23-7.324-8.34-13.36-.39-1.113-.703-2.07-.703-2.109 0-.039 2.989-.078 6.64-.078h6.642v8.79zm16.407-8.71c0 .038-.313.976-.703 2.07-2.637 7.617-6.387 12.793-10.723 14.863-2.05.977-1.855 1.816-1.855-8.223v-8.789h6.64c3.652 0 6.64.04 6.64.078zm17.558.546c-5.293 7.617-12.91 13.125-21.601 15.664l-1.602.45.977-1.094c1.27-1.406 3.008-3.965 4.12-6.075 1.016-1.874 2.891-6.503 3.4-8.359l.331-1.21h14.805l-.43.624z" fill="#033550"/><path d="M64.727 10.918c-1.21.547-2.324 1.66-2.812 2.793-.352.82-.41 1.27-.352 2.48.078 1.7.45 2.579 1.485 3.633 1.054 1.074 2.207 1.543 3.847 1.543 3.125 0 5.39-2.246 5.41-5.351.02-2.246-1.093-4.082-3.066-5-1.25-.606-3.32-.645-4.512-.098zm3.145 2.832a2.36 2.36 0 0 1 1.172 3.242c-.957 1.856-3.34 1.836-4.317-.039-.586-1.113 0-2.676 1.153-3.183.8-.352 1.172-.352 1.992-.02z" fill="#fff"/></svg>