<svg width="100" height="100" fill="none" xmlns="http://www.w3.org/2000/svg"><path d="M96.875 21.875H68.684a18.748 18.748 0 0 0-37.368 0H25a1.563 1.563 0 0 0-1.563 1.562v25.871l-5.334 5.38H3.126a1.563 1.563 0 0 0-1.563 1.562v26.562a1.563 1.563 0 0 0 1.563 1.563h14.979l2.666 2.668c.293.293.69.457 1.105.457h1.563v7.812A1.563 1.563 0 0 0 25 96.875h71.875a1.563 1.563 0 0 0 1.563-1.563V23.437a1.562 1.562 0 0 0-1.563-1.562zM70.312 25v26.994l-8.6-4.914a1.568 1.568 0 0 0-1.55 0l-8.6 4.914v-9.873A18.777 18.777 0 0 0 68.684 25h1.629zM50 7.812a15.625 15.625 0 1 1-15.625 15.625A15.643 15.643 0 0 1 50 7.812zm-45.313 50H18.75c.415 0 .812-.164 1.105-.457l3.582-3.591v3.357L18.104 62.5H4.688v-4.688zm17.834 26.563l-2.666-2.668a1.564 1.564 0 0 0-1.105-.457H4.687V65.625H18.75c.415 0 .812-.164 1.105-.457l10.418-10.541a1.563 1.563 0 0 1 2.211 2.207l-.029.031-2.842 2.996a1.563 1.563 0 0 0 1.133 2.639h17.692a1.563 1.563 0 0 1 0 3.125h-12.5a1.563 1.563 0 0 0 0 3.125h18.75a1.562 1.562 0 1 1 0 3.125h-18.75a1.563 1.563 0 0 0 0 3.125h12.5a1.563 1.563 0 0 1 0 3.125h-12.5a1.563 1.563 0 0 0 0 3.125h9.374a1.563 1.563 0 0 1 0 3.125h-22.79zm72.791 9.375h-68.75V87.5h18.75a4.685 4.685 0 0 0 4.358-6.414A4.69 4.69 0 0 0 52.857 75h1.83a4.687 4.687 0 1 0 0-9.375h-1.83a4.688 4.688 0 0 0-4.42-6.25H34.382l.326-.344a4.688 4.688 0 0 0-6.652-6.605l-1.492 1.517V25h4.753a18.777 18.777 0 0 0 17.122 17.12v12.567a1.561 1.561 0 0 0 2.337 1.358l10.163-5.809L71.1 56.045a1.562 1.562 0 0 0 2.338-1.358V25h21.874v68.75z" fill="#033550"/><path d="M70.313 76.563a1.563 1.563 0 0 0-1.563 1.562v10.938a1.563 1.563 0 0 0 1.563 1.562h20.312a1.563 1.563 0 0 0 1.563-1.563V78.126a1.563 1.563 0 0 0-1.563-1.563H70.312zM89.063 87.5H71.874v-7.813h17.188V87.5z" fill="#033550"/><path d="M41.25 26.25l6.25 4.688a1.563 1.563 0 0 0 2.114-.221l10.937-12.5a1.562 1.562 0 1 0-2.352-2.058l-9.983 11.409-5.091-3.818a1.563 1.563 0 1 0-1.875 2.5z" fill="#fff"/></svg>