<svg width="100" height="100" fill="none" xmlns="http://www.w3.org/2000/svg"><path d="M75 64.331v-3.394a1.563 1.563 0 0 0-3.125 0v3.394a4.687 4.687 0 1 0 3.125 0zm-1.563 5.981a1.563 1.563 0 1 1 0-3.125 1.563 1.563 0 0 1 0 3.126z" fill="#033550"/><path d="M73.438 50a18.75 18.75 0 1 0 18.75 18.75A18.771 18.771 0 0 0 73.438 50zm0 34.375A15.625 15.625 0 1 1 89.061 68.75a15.642 15.642 0 0 1-15.624 15.625z" fill="#fff"/><path d="M91.04 51.014l2.71-2.711 1.238 1.24a1.564 1.564 0 0 0 2.211-2.211l-4.687-4.688a1.563 1.563 0 1 0-2.211 2.212l1.24 1.238-2.857 2.857a24.867 24.867 0 0 0-13.686-5.15L75 43.75v-1.563h3.125a1.563 1.563 0 0 0 1.563-1.562v-4.688a1.563 1.563 0 0 0-1.563-1.562H68.75a1.563 1.563 0 0 0-1.563 1.563v4.687a1.563 1.563 0 0 0 1.563 1.563h3.125v1.562l.002.05a24.813 24.813 0 0 0-7.814 1.776V7.812A1.563 1.563 0 0 0 62.5 6.25H3.125a1.562 1.562 0 0 0-1.563 1.563v56.25a1.563 1.563 0 0 0 1.563 1.562h45.508a25.002 25.002 0 1 0 42.406-14.611zM70.311 39.062V37.5h6.25v1.563h-6.25zM23.438 9.375h18.75v30.12l-8.6-4.915a1.568 1.568 0 0 0-1.55 0l-8.6 4.914V9.375zM48.906 62.5H4.688V9.375h15.625v32.813a1.561 1.561 0 0 0 2.337 1.357l10.163-5.809 10.162 5.809a1.562 1.562 0 0 0 2.337-1.358V9.376h15.626v37.73A25.101 25.101 0 0 0 49.22 62.532a1.66 1.66 0 0 0-.315-.031zm24.532 28.125A21.875 21.875 0 1 1 95.311 68.75a21.899 21.899 0 0 1-21.874 21.875z" fill="#033550"/></svg>