<svg width="100" height="100" fill="none" xmlns="http://www.w3.org/2000/svg"><path d="M16.172.488c-1.817.957-2.5 2.383-2.5 5.176v1.953H10c-4.14 0-5.137.195-6.348 1.172-.39.352-.957 1.035-1.27 1.523l-.527.918-.058 34.942c-.02 23.008.02 35.176.156 35.644.293 1.094 1.23 2.266 2.285 2.891l.938.547 21.797.058 21.796.04.938 1.62c2.734 4.708 6.387 8.106 11.347 10.528 3.516 1.7 6.094 2.324 10.235 2.441 3.75.118 6.094-.175 9.043-1.113 2.285-.723 5.176-2.187 7.187-3.633 1.934-1.406 4.864-4.414 6.172-6.328 6.035-8.965 6.035-20.644.02-29.434-1.27-1.855-4.043-4.785-5.625-5.937l-1.172-.86V32.325c0-23.047.098-21.504-1.563-23.164-1.347-1.348-2.168-1.543-6.66-1.543H75.04l-.08-2.208c-.059-2.07-.098-2.285-.645-3.183a4.84 4.84 0 0 0-1.66-1.602C71.738.078 71.426 0 70.273 0c-1.562 0-2.52.352-3.437 1.23-1.153 1.094-1.465 1.934-1.563 4.278l-.097 2.11h-41.68l-.098-2.11c-.097-2.344-.41-3.184-1.562-4.278C20.918.332 19.96 0 18.418 0c-1.016.02-1.543.137-2.246.488zm3.066 2.95c.762.292.879 1.035.879 5.82 0 2.52-.078 4.804-.195 5.078-.215.586-1.192 1.133-1.7.957-.195-.059-.546-.293-.78-.508-.45-.39-.45-.469-.45-5.488 0-4.942.02-5.078.43-5.528.41-.449 1.152-.585 1.816-.332zm51.992.312c.45.41.45.45.45 5.527 0 5.04 0 5.118-.43 5.508-.684.625-1.153.684-1.856.254-.43-.254-.664-.566-.742-1.016-.058-.351-.097-2.734-.058-5.293.058-4.629.058-4.668.527-5.039.605-.488 1.543-.468 2.11.059zm-57.558 9.18c0 1.699.078 2.168.468 2.988.801 1.738 2.305 2.676 4.317 2.695 1.387 0 2.46-.41 3.379-1.289 1.152-1.094 1.465-1.933 1.562-4.297l.098-2.09h41.7l.077 2.09c.078 2.344.39 3.184 1.563 4.297.918.88 1.992 1.29 3.379 1.29 2.011-.02 3.515-.958 4.316-2.696.39-.82.469-1.29.469-2.988v-1.993h7.266l.663.665.665.664v10H5.078v-10l.664-.665.664-.664h7.266v1.993zm69.922 25.156c0 7.012-.078 12.5-.176 12.5-.098 0-.684-.234-1.309-.508-.644-.293-2.168-.781-3.398-1.094-2.93-.761-7.578-.957-10.645-.468-5.332.879-10.195 3.379-14.062 7.246-2.871 2.851-4.844 5.957-6.23 9.824-1.7 4.746-1.856 10.703-.391 15.996l.117.45H6.21l-.567-.567-.566-.567V25.586h78.516v12.5zM70.703 53.164c0 1.875.371 2.5 1.484 2.5 1.407 0 1.836-.645 1.836-2.734v-1.407l1.035.137c3.848.488 8.575 2.461 11.172 4.688l.782.664-1.075 1.074c-.937.976-1.074 1.191-1.074 1.894 0 .997.586 1.543 1.621 1.543.606 0 .88-.175 1.817-1.093l1.093-1.094.88 1.152c1.679 2.207 3.007 4.805 3.73 7.305.254.82.918 4.219.918 4.59 0 .039-.703.078-1.543.078-1.367 0-1.621.058-2.09.469-.762.644-.762 1.738 0 2.382.469.41.723.47 2.09.47h1.582l-.117.546a22.62 22.62 0 0 0-.215 1.406c-.469 3.301-2.246 7.422-4.414 10.157l-.801 1.015-1.113-1.094c-.88-.859-1.23-1.093-1.72-1.093-.878 0-1.21.175-1.542.82-.43.84-.215 1.465.937 2.637 1.172 1.191 1.192 1.113-.937 2.597-2.813 1.954-6.582 3.399-9.883 3.809l-1.133.137v-1.407c0-1.972-.468-2.714-1.738-2.734-.43 0-.84.156-1.133.43-.39.37-.449.605-.449 2.05 0 1.895.137 1.817-2.54 1.31-3.26-.606-6.835-2.208-9.51-4.24-.567-.429-1.036-.82-1.036-.878 0-.059.488-.606 1.074-1.23.84-.88 1.075-1.27 1.075-1.739 0-.86-.762-1.562-1.66-1.562-.606 0-.9.175-1.856 1.074l-1.133 1.094-.996-1.348c-1.29-1.738-2.598-4.238-3.242-6.172-.547-1.66-1.075-4.082-1.075-5.02v-.566h1.524c1.035 0 1.64-.098 1.934-.293.879-.625.722-2.363-.254-2.812-.274-.118-1.114-.215-1.875-.215h-1.387l.137-1.23c.332-3.262 2.011-7.461 4.12-10.352l1.134-1.543 1.093 1.094c.977.976 1.192 1.093 1.914 1.093.645 0 .899-.097 1.211-.507.703-.899.547-1.524-.703-2.852l-1.113-1.172.469-.371c.8-.625 2.578-1.816 3.515-2.363 2.13-1.211 6.719-2.637 8.653-2.676l.527-.02v1.602z" fill="#fff"/><path d="M10 30.527c-.43.45-.43.567-.43 6.602V43.3l.45.41c.449.43.566.43 6.562.43h6.094l.469-.489.488-.468V31.035l-.488-.469-.47-.488H10.41l-.41.45zm10.313 6.582v3.711H12.89v-7.422h7.423v3.711zm8.437-6.894c-.137.058-.371.351-.527.644-.235.47-.293 1.621-.293 6.25 0 5.938.078 6.602.879 6.914.175.059 3.027.118 6.347.118 5.625 0 6.035-.02 6.465-.371l.469-.372V30.82l-.469-.37c-.43-.352-.82-.372-6.543-.352-3.34 0-6.191.058-6.328.117zm10.117 6.894v3.711H31.25v-7.422h7.617v3.711zm8.183-6.659l-.468.37v12.578l.469.371c.43.352.84.372 6.543.372 6.543-.02 6.543-.02 6.953-1.055.273-.723.273-11.23 0-11.953-.41-1.035-.41-1.035-6.953-1.055-5.703 0-6.114.02-6.543.371zm10.372 6.66v3.71h-7.617v-7.422h7.617v3.711zm8.105-6.544l-.488.47v12.148l.488.468.47.489h12.265l.41-.45c.43-.449.43-.566.43-6.601v-6.172l-.45-.41c-.449-.43-.566-.43-6.562-.43h-6.094l-.469.488zm10.254 6.543v3.711H68.36v-7.422h7.422v3.711zM10.45 46.895c-.88.488-.88.547-.88 6.933 0 5.703.02 6.114.371 6.543l.371.47 5.918.058c6.31.058 6.797 0 7.188-.86.137-.332.215-2.402.215-6.328v-5.84l-.469-.547-.469-.546-5.937-.04c-4.082-.039-6.035.02-6.309.157zm9.863 6.914v3.808H12.89V50h7.423v3.809zm8.594-6.875c-.938.488-.977.78-.938 7.129L28.028 60l.547.469.546.468h11.934l.566-.566.567-.566V47.87l-.469-.547-.469-.547-5.937-.058c-4.492-.04-6.035.02-6.407.215zm9.96 6.875v3.808H31.25V50h7.618v3.809zM10.078 63.887l-.508.39v6.25c0 5.977.02 6.25.39 6.621.372.371.645.391 6.622.391h6.25l.39-.508c.391-.508.41-.742.41-6.562v-6.035l-.488-.47-.468-.487H16.64c-5.82 0-6.055.02-6.563.41zm10.235 6.62v3.712H12.89v-7.422h7.423v3.71zm8.261-6.562l-.547.47-.058 5.741c-.04 3.145 0 5.918.058 6.172.059.234.274.606.489.82.37.371.683.391 6.523.391 5.742 0 6.152-.02 6.582-.371l.469-.371.058-5.84c.04-3.203 0-6.016-.058-6.25-.059-.234-.293-.625-.527-.84-.41-.37-.665-.39-6.426-.39H29.12l-.547.468zm10.293 6.563v3.71H31.25v-7.42h7.617v3.71z" fill="#fff"/><path d="M71.21 59.98l-.507.39v9.337l-.684.332c-1.504.703-2.617 2.93-2.363 4.707.312 2.383 2.148 3.984 4.59 3.984 1.816.02 3.183-.762 4.16-2.324l.39-.625h3.692c3.672 0 3.71 0 4.18-.488.605-.586.644-1.622.117-2.266-.371-.469-.45-.469-4.297-.527-3.008-.04-3.926-.118-3.926-.313 0-.371-1.328-1.855-1.973-2.187l-.566-.293V60.78l-.508-.606c-.605-.742-1.523-.8-2.305-.195z" fill="#FFB900"/></svg>