<svg width="100" height="100" fill="none" xmlns="http://www.w3.org/2000/svg"><path d="M42.286 8.203L35.43 15.04h-8.027c-4.414 0-8.184.059-8.36.117-.84.332-.878.82-.878 9.121v7.891l-4.688 4.629c-3.71 3.672-4.687 4.746-4.785 5.254-.059.332-.078 13.047-.059 28.222l.059 27.618.469.37c.449.372 1.367.372 40.84.372 39.472 0 40.39 0 40.84-.371l.468-.371.059-27.618c.02-15.175 0-27.89-.059-28.222-.098-.508-1.074-1.582-4.785-5.254l-4.688-4.629v-7.89c0-8.301-.039-8.79-.879-9.122-.175-.058-3.945-.117-8.359-.117h-8.027l-6.856-6.836-6.855-6.836h-1.72l-6.855 6.836zm12.695 1.953l4.883 4.883H40.137l4.883-4.883c2.676-2.695 4.922-4.883 4.98-4.883.06 0 2.305 2.188 4.981 4.883zM78.497 34.61v16.465L64.356 65.04c-7.773 7.676-14.238 13.965-14.355 13.965-.118 0-6.582-6.29-14.356-13.965l-14.14-13.965V34.61l-.02-16.445h57.031l-.02 16.445zm-60.332 7.715v5.43L15.39 44.96l-2.793-2.793 2.734-2.617c1.504-1.446 2.754-2.617 2.793-2.637.02 0 .04 2.441.04 5.41zm69.14-.156c0 .078-1.23 1.348-2.734 2.852l-2.735 2.734v-10.88l2.735 2.598c1.504 1.425 2.734 2.636 2.734 2.695zM31.114 65.195l5.254 5.254L24.57 81.465c-6.485 6.054-11.992 11.191-12.227 11.387l-.43.37V46.25l6.993 6.836c3.828 3.77 9.336 9.219 12.207 12.11zm56.933 16.27l-.058 11.758L75.8 81.816 63.614 70.41 75.8 58.34l12.19-12.07.058 11.738c.02 6.445.02 17.011 0 23.457zm-38.046 1.64c.761 0 .898-.136 6.015-5.214l5.215-5.196 12.148 11.348L85.51 95.41l-17.755.059c-9.765.02-25.742.02-35.507 0l-17.754-.059 12.129-11.367L38.77 72.695l5.215 5.196c5.117 5.078 5.254 5.215 6.016 5.215z" fill="#fff"/><path d="M27.422 24.648c-.684.313-1.035 1.407-.742 2.207.351.899-.176.88 23.32.88 22.793 0 22.597 0 23.183-.762.528-.664.157-1.973-.664-2.344-.644-.293-44.492-.274-45.097.02zm-.372 9.043c-.605.586-.624 1.426-.078 2.13l.391.507h45.273l.391-.508c.547-.703.528-1.543-.078-2.129l-.469-.488H27.52l-.47.488zm-.077 8.809c-.547.703-.528 1.543.078 2.129l.468.488H72.48l.469-.488c.606-.586.625-1.426.078-2.129l-.39-.508H27.362l-.39.508z" fill="#FFB900"/></svg>