<svg width="60" height="60" fill="none" xmlns="http://www.w3.org/2000/svg"><path d="M58.281 29.305c-.955 0-1.719.765-1.719 1.72V46.66c0 4.253-3.463 7.704-7.704 7.704H11.142c-4.253 0-7.704-3.464-7.704-7.704V30.77c0-.955-.764-1.72-1.719-1.72-.955 0-1.719.765-1.719 1.72v15.89c0 6.15 5.004 11.142 11.142 11.142h37.716C55.008 57.803 60 52.799 60 46.66V31.024a1.72 1.72 0 0 0-1.719-1.719z" fill="#033550"/><path d="M28.79 44.153c.331.331.777.51 1.21.51a1.68 1.68 0 0 0 1.21-.51l10.925-10.925a1.714 1.714 0 0 0 0-2.432 1.714 1.714 0 0 0-2.432 0l-7.984 7.996V3.915c0-.955-.764-1.719-1.72-1.719-.954 0-1.718.764-1.718 1.72v34.876l-7.997-7.996a1.714 1.714 0 0 0-2.432 0 1.714 1.714 0 0 0 0 2.432L28.79 44.153z" fill="#fff"/></svg>