<svg width="100" height="100" fill="none" xmlns="http://www.w3.org/2000/svg"><path d="M23.438 50a4.687 4.687 0 1 0-9.375 0 4.687 4.687 0 0 0 9.374 0zm-6.25 0a1.563 1.563 0 1 1 3.125 0 1.563 1.563 0 0 1-3.125 0zm43.75 12.5a4.687 4.687 0 1 0-9.375 0 4.687 4.687 0 0 0 9.374 0zm-6.25 0a1.563 1.563 0 1 1 3.125 0 1.563 1.563 0 0 1-3.126 0zM76.563 25a6.25 6.25 0 1 0-6.25-6.25 6.257 6.257 0 0 0 6.25 6.25zm0-9.375a3.125 3.125 0 1 1 0 6.25 3.125 3.125 0 0 1 0-6.25z" fill="#fff"/><path d="M96.875 26.563h-9.121c1.908-3.069 2.871-5.684 2.871-7.813a14.063 14.063 0 0 0-28.125 0c0 2.129.963 4.744 2.871 7.813H3.125a1.563 1.563 0 0 0-1.563 1.562v62.5a1.563 1.563 0 0 0 1.563 1.563h93.75a1.563 1.563 0 0 0 1.563-1.563v-62.5a1.563 1.563 0 0 0-1.563-1.563zM76.562 7.813A10.95 10.95 0 0 1 87.5 18.75c0 2.418-2.088 6.307-5.877 10.951a82.517 82.517 0 0 1-5.06 5.604 82.517 82.517 0 0 1-5.061-5.604c-3.79-4.644-5.877-8.533-5.877-10.951A10.95 10.95 0 0 1 76.563 7.812zM42.188 29.688h25.335a61.33 61.33 0 0 0 1.58 2.015c.31.379.62.75.926 1.11H42.188v-3.126zm-37.5 0h28.125v31.25h-8.29c2.541-3.506 5.165-7.87 5.165-10.938a10.937 10.937 0 1 0-21.875 0c0 3.068 2.622 7.432 5.164 10.938h-8.29v-31.25zM20.24 61.412a1.52 1.52 0 0 0-.197.25 77.43 77.43 0 0 1-1.293 1.58 70.492 70.492 0 0 1-1.29-1.574 1.532 1.532 0 0 0-.208-.266C14.178 57.496 10.938 52.56 10.938 50a7.813 7.813 0 0 1 15.624 0c0 2.559-3.244 7.502-6.322 11.412zm12.573 27.65H4.686v-18.75h28.125v18.75zm62.5 0H42.187v-6.25h53.126v6.25zm0-15.624h-33.29c2.541-3.506 5.164-7.87 5.164-10.938a10.937 10.937 0 1 0-21.874 0c0 3.068 2.622 7.432 5.164 10.938h-8.29v-31.25h53.126v31.25zm-37.573.474a1.52 1.52 0 0 0-.197.25 77.43 77.43 0 0 1-1.293 1.58 70.492 70.492 0 0 1-1.29-1.574 1.528 1.528 0 0 0-.208-.266c-3.074-3.906-6.315-8.843-6.315-11.402a7.813 7.813 0 0 1 15.626 0c0 2.559-3.245 7.502-6.323 11.412zm37.572-34.85H40.626a1.563 1.563 0 0 0-1.563 1.563V75a1.563 1.563 0 0 0 1.563 1.563h12.252a68.093 68.093 0 0 0 2.21 2.605 1.56 1.56 0 0 0 2.325 0 68.093 68.093 0 0 0 2.211-2.606h35.69v3.126h-54.69a1.563 1.563 0 0 0-1.563 1.562v7.813h-3.124V68.75a1.563 1.563 0 0 0-1.563-1.563H4.687v-3.124h10.69a68.191 68.191 0 0 0 2.21 2.605 1.56 1.56 0 0 0 2.325 0 68.191 68.191 0 0 0 2.211-2.606h12.252a1.563 1.563 0 0 0 1.563-1.562V29.687h3.124v4.688a1.563 1.563 0 0 0 1.563 1.563h32.203a72.704 72.704 0 0 0 2.66 2.697 1.563 1.563 0 0 0 2.149 0 72.704 72.704 0 0 0 2.66-2.697h15.016v3.124zm0-6.25H83.097a64.607 64.607 0 0 0 2.506-3.125h9.71v3.125z" fill="#033550"/></svg>