<svg width="64" height="64" fill="none" xmlns="http://www.w3.org/2000/svg"><g clip-path="url(#clip0)" fill="#3a71c0"><path d="M47.71 36.21C42.217 39.38 35.17 37.492 32 32c-3.17-5.491-1.282-12.538 4.21-15.709 5.49-3.17 12.538-1.282 15.709 4.21 3.17 5.49 1.282 12.538-4.21 15.709zM36.975 17.619c-4.76 2.748-6.396 8.855-3.648 13.615 2.748 4.759 8.855 6.395 13.615 3.648 4.759-2.748 6.395-8.856 3.648-13.615-2.748-4.76-8.856-6.396-13.615-3.648zM17.242 49.374a.766.766 0 0 1-1.15-.654c-.004-.196-.103-1.967-1.931-2.213a.767.767 0 0 1-.57-1.13c.023-.043.63-1.237-.182-2.643-.828-1.433-2.185-1.479-2.199-1.479a.768.768 0 0 1-.693-1.058c.722-1.758-.882-2.739-.95-2.78a.766.766 0 0 1 .097-1.366c4.232-1.767 8.016 1.98 8.175 2.14a.76.76 0 0 1 .12.157l1.58 2.736c.033.058.058.12.076.186.057.214 1.353 5.27-2.29 8.05a.71.71 0 0 1-.083.054zm-1.987-4.168c1.072.4 1.699 1.197 2.036 1.987 1.515-2.045.982-4.899.863-5.44l-1.469-2.544c-.408-.378-2.652-2.334-5.192-2.062.513.686.889 1.626.699 2.753.756.237 1.805.787 2.545 2.068.74 1.28.69 2.465.518 3.238z"/><path d="M47.709 36.21l-14.607 8.433c-5.492 3.17-12.539 1.282-15.71-4.21-3.17-5.49-1.282-12.538 4.21-15.708l14.607-8.434a.767.767 0 0 1 .766 1.328c-4.759 2.748-6.395 8.856-3.648 13.615 2.748 4.76 8.856 6.396 13.615 3.648a.767.767 0 0 1 .767 1.328zm-25.34-10.158c-4.76 2.748-6.396 8.856-3.648 13.615 2.747 4.76 8.855 6.396 13.614 3.648l9.642-5.566C38 37.748 34.127 35.684 32 32c-2.128-3.685-1.978-8.071.01-11.515l-9.641 5.566z"/><path d="M28.576 26.01l-6.002 3.466a.767.767 0 0 1-.767-1.328l6.003-3.465a.767.767 0 0 1 .766 1.328zm-7.48 13.172h-.002a.767.767 0 0 1-1.046-.282c-1.555-2.704-1.693-5.185-.424-7.585a.768.768 0 0 1 1.356.716c-1.018 1.924-.891 3.864.397 6.105a.767.767 0 0 1-.281 1.046zM46.07 20.338a4.221 4.221 0 0 1-5.76-1.544 4.212 4.212 0 0 1-.333-3.445l.155-.461.483-.057a11.59 11.59 0 0 1 7.164 1.509l.42.246-.044.486a4.224 4.224 0 0 1-2.085 3.266zm-4.753-4.031a2.615 2.615 0 0 0 .321 1.72 2.686 2.686 0 0 0 3.666.983 2.68 2.68 0 0 0 1.236-1.602 10.064 10.064 0 0 0-5.223-1.101zm2.987 21.2l-.407.07a11.595 11.595 0 0 1-7.038-1.02l-.37-.182-.051-.41a4.209 4.209 0 0 1 2.075-4.182 4.221 4.221 0 0 1 5.76 1.543 4.176 4.176 0 0 1 .198 3.804l-.167.377zM37.94 35.37c1.64.718 3.48.984 5.265.76a2.64 2.64 0 0 0-.26-2.036 2.686 2.686 0 0 0-3.665-.983 2.677 2.677 0 0 0-1.34 2.259zm.316-7.865a3.07 3.07 0 0 1-4.19-1.123 3.07 3.07 0 0 1 1.123-4.189 3.07 3.07 0 0 1 4.19 1.123 3.07 3.07 0 0 1-1.123 4.189zm-2.3-3.984a1.535 1.535 0 0 0-.562 2.095 1.535 1.535 0 0 0 2.095.561 1.535 1.535 0 0 0 .561-2.095 1.535 1.535 0 0 0-2.094-.56zm12.39 6.124a3.07 3.07 0 0 1-4.19-1.122 3.07 3.07 0 0 1 1.123-4.19 3.07 3.07 0 0 1 4.189 1.123 3.07 3.07 0 0 1-1.123 4.19zm-2.3-3.983a1.535 1.535 0 0 0-.562 2.094 1.535 1.535 0 0 0 2.095.562 1.535 1.535 0 0 0 .561-2.095 1.535 1.535 0 0 0-2.095-.561z"/></g><defs><clipPath id="clip0"><path fill="#fff" transform="rotate(-30 44.295 10.707)" d="M0 0h46v46H0z"/></clipPath></defs></svg>