<svg width="40" height="40" fill="none" xmlns="http://www.w3.org/2000/svg"><g clip-path="url(#clip0)" fill="#3a71c0"><path d="M18.45 26.054h.005a11.707 11.707 0 0 0 2.886-1.418c5.507-3.686 6.984-11.138 3.299-16.645-3.686-5.508-11.138-6.984-16.645-3.299C2.487 8.378 1.01 15.83 4.696 21.337a11.997 11.997 0 0 0 4.155 3.821h.003c.939.525 1.946.918 2.992 1.169h.005c.922.227 1.868.342 2.818.34a11.831 11.831 0 0 0 3.782-.613zm-6.285-1.022A10.69 10.69 0 0 1 4.003 14.67C4 8.779 8.773 4 14.664 3.997c5.89-.004 10.668 4.768 10.671 10.658a10.666 10.666 0 0 1-4.736 8.873c-.792.535-1.654.96-2.562 1.259h-.005a10.653 10.653 0 0 1-5.858.245h-.008z"/><path d="M28.793 10.77C26.643 2.965 18.573-1.618 10.768.532 2.963 2.682-1.62 10.753.53 18.558a14.658 14.658 0 0 0 6.235 8.455A9.3 9.3 0 0 0 15.335 40a9.274 9.274 0 0 0 8.066-4.639c1.269.422 2.597.638 3.933.64 6.99.005 12.66-5.658 12.666-12.648A12.656 12.656 0 0 0 28.793 10.77zM1.337 14.669C1.34 7.306 7.31 1.339 14.673 1.34a13.332 13.332 0 0 1 13.328 13.33 13.331 13.331 0 0 1-5.68 10.91 13.174 13.174 0 0 1-5.876 2.3l-.026.004c-.58.08-1.165.119-1.75.117C7.306 28 1.337 22.032 1.337 14.67zm13.999 23.997a7.974 7.974 0 0 1-7.407-10.99 14.05 14.05 0 0 0 6.74 1.658c.495-.002.989-.03 1.48-.084a12.704 12.704 0 0 0 4.19 4.638c.257.172.52.33.787.48l.21.116c.234.126.472.246.71.356.03.014.059.031.088.044a7.949 7.949 0 0 1-6.798 3.782zm11.998-4a11.156 11.156 0 0 1-4.02-.738 10.929 10.929 0 0 1-3.174-1.853c-.052-.043-.105-.084-.156-.128a11.603 11.603 0 0 1-1.694-1.799c-.022-.028-.041-.06-.063-.088-.22-.298-.425-.607-.615-.927l-.052-.085.046-.011c.067-.013.127-.03.191-.043.247-.054.494-.114.738-.18l.3-.087c.218-.064.436-.135.652-.21.093-.033.186-.064.28-.098a14.018 14.018 0 0 0 3.324-1.751h.003a14.64 14.64 0 0 0 6.02-14.51c6.176.998 10.372 6.814 9.374 12.99a11.327 11.327 0 0 1-11.154 9.518z"/><path d="M15.336 35.999a5.339 5.339 0 0 1-5.333-5.333H8.67a6.673 6.673 0 0 0 6.666 6.666 6.587 6.587 0 0 0 2.965-.696l-.595-1.193a5.272 5.272 0 0 1-2.37.556zm12.665-5.333h-1.333v2.666h1.333v-2.666zm-6.245.994l1.154.666 1.333-2.31-1.155-.666-1.332 2.31zm8.668-1.64l1.333 2.308 1.154-.667-1.333-2.309-1.154.667zm2.927-2.44l2.31 1.334.666-1.155-2.31-1.333-.666 1.155zm3.982-4.912h-2.666v1.333h2.666v-1.333zm-1.007-3.754l-.667-1.154-2.31 1.333.667 1.154 2.31-1.333zm-5.904-2.262l1.154.666 1.333-2.309-1.155-.666-1.332 2.309zm-12.419 4.682a.667.667 0 0 0-.667-.666h-2V8.002a.667.667 0 0 0-1.138-.47l-3 2.999a.667.667 0 0 0 .943.942l1.862-1.862v11.056h-2a.667.667 0 0 0 0 1.334h5.333a.666.666 0 0 0 .667-.667z"/></g><defs><clipPath id="clip0"><path fill="#fff" d="M0 0h40v40H0z"/></clipPath></defs></svg>