<svg width="42" height="42" fill="none" xmlns="http://www.w3.org/2000/svg"><path d="M28.675 17.312a.538.538 0 0 0-.026-.063.729.729 0 0 0-.042-.103.72.72 0 0 0-.049-.065.668.668 0 0 0-.06-.079.774.774 0 0 0-.066-.052.795.795 0 0 0-.07-.056l-7-4.2a.7.7 0 0 0-.72 0l-7 4.2a.612.612 0 0 0-.074.056.8.8 0 0 0-.066.052.728.728 0 0 0-.06.079.609.609 0 0 0-.05.065.75.75 0 0 0-.041.1.693.693 0 0 0-.027.066.673.673 0 0 0-.024.182v7a.7.7 0 0 0 .34.6l7 4.2.007.003.008.006a.686.686 0 0 0 .114.046c.017.006.032.015.049.02a.69.69 0 0 0 .364 0c.017-.005.032-.014.048-.02a.69.69 0 0 0 .115-.046l.008-.006.007-.003 7-4.2a.7.7 0 0 0 .34-.6v-7a.683.683 0 0 0-.025-.182zM21 14.11l2.139 1.284-5.64 3.383-2.138-1.283L21 14.11zm-.7 13.347l-5.6-3.36V18.73l5.6 3.36v5.367zm.7-6.58l-2.14-1.283 5.64-3.384 2.139 1.284-5.64 3.383zm6.3 3.22l-5.6 3.36V22.09l5.6-3.36v5.367zM21.56.272a.725.725 0 0 0-1.12 0l-2.1 2.8 1.12.84.84-1.12v5.6h1.4v-5.6l.84 1.12 1.12-.84-2.1-2.8zm.98 37.802l-.84 1.12v-5.6h-1.4v5.6l-.84-1.12-1.12.84 2.1 2.8a.7.7 0 0 0 1.12 0l2.1-2.8-1.12-.84zM21.7 9.793h-1.4v1.4h1.4v-1.4zm0 21h-1.4v1.4h1.4v-1.4zM8.4 20.292H2.8l1.12-.84-.84-1.12-2.8 2.1a.7.7 0 0 0 0 1.12l2.8 2.1.84-1.12-1.12-.84h5.6v-1.4zm33.46.28a.703.703 0 0 0-.14-.14l-2.8-2.1-.84 1.12 1.12.84h-5.6v1.4h5.6l-1.12.84.84 1.12 2.8-2.1a.7.7 0 0 0 .14-.98zm-30.66-.279H9.8v1.4h1.4v-1.4zm21 0h-1.4v1.4h1.4v-1.4zm-19.615-8.704l-3.959-3.96 1.385.198.199-1.386-3.465-.498a.7.7 0 0 0-.795.795l.495 3.465 1.386-.198-.198-1.386 3.96 3.96.992-.99zm23.464 23.658l-.495-3.464-1.387.2.197 1.384-3.96-3.959-.989.99 3.96 3.96-1.385-.2-.198 1.386 3.465.495a.7.7 0 0 0 .792-.792zM13.576 12.578l-.99.99.99.99.99-.99-.99-.99zm14.848 14.848l-.99.99.99.99.99-.99-.99-.99zM8.623 34.357l3.959-3.959-.987-.99-3.96 3.96.198-1.386-1.386-.198-.497 3.464a.7.7 0 0 0 .792.793l3.464-.495-.198-1.386-1.385.197zM35.85 6.143a.693.693 0 0 0-.595-.198l-3.464.495.198 1.386 1.385-.197-3.959 3.959.99.99 3.959-3.96-.197 1.384 1.386.2.495-3.465a.7.7 0 0 0-.199-.594zM13.576 27.426l-.99.99.99.99.99-.99-.99-.99zm14.848-14.851l-.99.99.99.99.99-.99-.99-.99z" fill="#3a71c0"/></svg>