<svg width="40" height="40" fill="none" xmlns="http://www.w3.org/2000/svg"><g clip-path="url(#clip0)" fill="#033550" stroke="#033550" stroke-width=".2"><path d="M7.035 30.933c-.56 0-1.098.14-1.576.403A18.471 18.471 0 0 1 1.563 20C1.563 9.833 9.832 1.562 20 1.562c1.236 0 2.471.123 3.672.366a.781.781 0 0 0 .31-1.532A20.149 20.149 0 0 0 20 0 19.87 19.87 0 0 0 5.858 5.858 19.87 19.87 0 0 0 0 20c0 4.494 1.526 8.88 4.304 12.395a3.258 3.258 0 0 0-.55 1.82c0 .876.341 1.7.961 2.32a3.26 3.26 0 0 0 2.32.961c.877 0 1.7-.342 2.32-.961a3.26 3.26 0 0 0 .961-2.32c0-.877-.34-1.701-.96-2.32a3.26 3.26 0 0 0-2.32-.962zM8.25 35.43a1.707 1.707 0 0 1-1.215.504c-.459 0-.89-.18-1.215-.504a1.707 1.707 0 0 1-.504-1.215c0-.46.18-.891.504-1.216a1.707 1.707 0 0 1 1.215-.503c.46 0 .89.179 1.215.503.325.325.504.756.504 1.216 0 .459-.179.89-.504 1.215zM35.695 7.604a3.287 3.287 0 0 0-.41-4.14 3.26 3.26 0 0 0-2.32-.96c-.877 0-1.701.341-2.321.96a3.26 3.26 0 0 0-.961 2.321c0 .877.341 1.7.96 2.32a3.26 3.26 0 0 0 2.321.961c.56 0 1.098-.14 1.576-.402A18.472 18.472 0 0 1 38.437 20c0 10.167-8.271 18.437-18.438 18.437a18.57 18.57 0 0 1-3.636-.358.782.782 0 0 0-.307 1.532 20.16 20.16 0 0 0 3.943.389 19.87 19.87 0 0 0 14.143-5.858A19.87 19.87 0 0 0 39.998 20a20.04 20.04 0 0 0-4.304-12.396zm-3.946-.603a1.708 1.708 0 0 1-.504-1.216c0-.459.18-.89.504-1.215a1.707 1.707 0 0 1 1.215-.504A1.721 1.721 0 0 1 34.18 7a1.709 1.709 0 0 1-1.215.504c-.46 0-.89-.179-1.215-.503z"/><path d="M16.776 33.438c0 .431.35.78.782.78h4.885a.78.78 0 0 0 .78-.78v-1.515a12.234 12.234 0 0 0 2.933-1.215l1.07 1.069a.781.781 0 0 0 1.104 0l3.453-3.456a.781.781 0 0 0 0-1.104l-1.068-1.068c.532-.923.939-1.905 1.215-2.932h1.509c.431 0 .781-.35.781-.782V17.55a.781.781 0 0 0-.781-.78h-1.51a12.236 12.236 0 0 0-1.214-2.933l1.062-1.062a.782.782 0 0 0 0-1.105l-3.456-3.453a.781.781 0 0 0-1.104 0l-1.061 1.061a12.233 12.233 0 0 0-2.932-1.215v-1.5a.781.781 0 0 0-.781-.782h-4.885a.781.781 0 0 0-.782.782v1.5a12.225 12.225 0 0 0-2.931 1.215l-1.062-1.06a.781.781 0 0 0-1.104-.001L8.224 11.67a.78.78 0 0 0 0 1.105l1.062 1.062A12.232 12.232 0 0 0 8.07 16.77H6.564a.781.781 0 0 0-.781.781l-.003 4.885a.78.78 0 0 0 .782.782H8.07a12.247 12.247 0 0 0 1.216 2.932l-1.069 1.068a.781.781 0 0 0 0 1.105l3.453 3.455a.784.784 0 0 0 .553.229h0a.781.781 0 0 0 .552-.229l1.07-1.07c.922.532 1.904.94 2.931 1.216v1.515zm-2.625-4.373a.781.781 0 0 0-.977.103l-.951.952-2.348-2.35.95-.951a.78.78 0 0 0 .104-.976 10.694 10.694 0 0 1-1.48-3.572.781.781 0 0 0-.764-.617H7.343l.002-3.322h1.34a.781.781 0 0 0 .764-.617 10.694 10.694 0 0 1 1.48-3.572.781.781 0 0 0-.104-.976l-.944-.944 2.35-2.349.943.944c.26.26.667.303.977.104a10.69 10.69 0 0 1 3.57-1.48.782.782 0 0 0 .618-.764V7.344h3.322v1.334c0 .368.257.686.617.764a10.67 10.67 0 0 1 3.572 1.48c.309.2.715.156.976-.104l.943-.944 2.35 2.349-.944.944a.781.781 0 0 0-.103.976 10.702 10.702 0 0 1 1.48 3.572.78.78 0 0 0 .763.617h1.343v3.322h-1.343a.781.781 0 0 0-.764.617 10.692 10.692 0 0 1-1.48 3.571c-.2.31-.156.716.104.977l.95.95-2.348 2.35-.95-.95a.781.781 0 0 0-.978-.104 10.699 10.699 0 0 1-3.57 1.48.781.781 0 0 0-.618.763v1.348H18.34v-1.348a.782.782 0 0 0-.617-.764 10.694 10.694 0 0 1-3.571-1.48z"/><path d="M26.456 20A6.463 6.463 0 0 0 20 13.545 6.463 6.463 0 0 0 13.545 20 6.463 6.463 0 0 0 20 26.456 6.463 6.463 0 0 0 26.456 20zm-11.349 0A4.898 4.898 0 0 1 20 15.107 4.899 4.899 0 0 1 24.893 20 4.898 4.898 0 0 1 20 24.893 4.898 4.898 0 0 1 15.107 20zM27.193 2.954a.787.787 0 0 0 .553-.229.79.79 0 0 0 .229-.553.79.79 0 0 0-.23-.552.787.787 0 0 0-.552-.23.785.785 0 0 0-.78.782.79.79 0 0 0 .228.553.785.785 0 0 0 .552.229zM12.84 37.059a.787.787 0 0 0-.551.229.787.787 0 0 0-.23.552.787.787 0 0 0 .781.781.787.787 0 0 0 .553-.229.787.787 0 0 0 .23-.552.787.787 0 0 0-.23-.553.787.787 0 0 0-.552-.228z"/></g><defs><clipPath id="clip0"><path fill="#fff" d="M0 0h40v40H0z"/></clipPath></defs></svg>