<svg width="40" height="40" fill="none" xmlns="http://www.w3.org/2000/svg"><path d="M27.603 19.4H12.368a.586.586 0 0 1-.586-.586v-1.907c0-1.639 1.812-2.78 3.439-2.78h2.235a.586.586 0 1 1 0 1.172h-2.235c-1.144 0-2.267.796-2.267 1.608v1.321h14.063v-1.572c0-.685-.977-1.357-1.974-1.357h-2.528a.586.586 0 0 1 0-1.172h2.528c1.488 0 3.146 1.038 3.146 2.529v2.158a.586.586 0 0 1-.586.586zm-2.343-9.082a.586.586 0 0 1-.585-.634l.294-3.576c-.002-2.018-1.564-3.7-3.482-3.7h-3.001c-1.919 0-3.48 1.682-3.48 3.748l.29 3.528a.586.586 0 0 1-1.167.097l-.293-3.577c-.002-2.76 2.085-4.968 4.65-4.968h3c2.566 0 4.652 2.207 4.652 4.92l-.295 3.625a.585.585 0 0 1-.583.537z" fill="#033550" stroke="#033550" stroke-width=".4"/><path d="M19.986 15.885c-1.69 0-3.225-.626-4.104-1.674-1.066-1.271-1.755-3.039-1.755-4.503V7.346c0-.996.022-1.572.486-1.828.414-.23.804.017 1.149.234.458.289 1.15.725 2.281.725.913 0 2.011-.28 3.073-.55 1.715-.435 3.196-.811 4.09-.115.425.33.64.846.64 1.534v2.362c0 1.464-.69 3.232-1.756 4.503-.879 1.048-2.413 1.674-4.104 1.674zm-4.68-9.037c-.004.13-.007.294-.007.498v2.362c0 1.187.595 2.694 1.48 3.75.65.774 1.88 1.255 3.207 1.255 1.328 0 2.557-.48 3.207-1.255.885-1.056 1.48-2.563 1.48-3.75V7.346c0-.308-.062-.513-.186-.609-.443-.344-1.845.013-3.083.327-1.132.287-2.301.584-3.36.584-1.32 0-2.207-.474-2.739-.8zm1.75 31.888H1.822a.586.586 0 0 1-.586-.586v-1.907c0-1.639 1.812-2.78 3.439-2.78H6.91a.586.586 0 1 1 0 1.172H4.675c-1.144 0-2.267.797-2.267 1.608v1.322h14.063V35.99c0-.685-.978-1.356-1.973-1.356h-2.53a.586.586 0 0 1 0-1.172h2.53c1.487 0 3.145 1.038 3.145 2.528v2.16a.586.586 0 0 1-.587.585zm-2.343-9.082l-.048-.001a.586.586 0 0 1-.536-.633l.293-3.576c-.002-2.019-1.564-3.7-3.482-3.7H7.939c-1.92 0-3.48 1.681-3.48 3.748l.29 3.528a.586.586 0 0 1-1.167.096l-.293-3.576c-.002-2.76 2.085-4.968 4.65-4.968h3c2.566 0 4.653 2.207 4.653 4.92l-.296 3.624a.586.586 0 0 1-.583.538z" fill="#033550" stroke="#033550" stroke-width=".4"/><path d="M9.44 35.22c-1.691 0-3.225-.625-4.105-1.673-1.066-1.272-1.755-3.04-1.755-4.503v-2.362c0-.996.022-1.572.486-1.828.413-.23.805.017 1.15.234.457.288 1.15.725 2.28.725.913 0 2.011-.28 3.073-.55 1.715-.435 3.195-.812 4.09-.115.424.33.64.846.64 1.535v2.36c0 1.465-.69 3.232-1.756 4.504-.88 1.048-2.414 1.674-4.104 1.674zm-4.682-9.036c-.003.131-.006.294-.006.498v2.362c0 1.187.595 2.694 1.48 3.75.65.774 1.88 1.255 3.207 1.255 1.328 0 2.557-.48 3.207-1.255.885-1.056 1.48-2.563 1.48-3.75v-2.362c0-.308-.062-.513-.186-.609-.443-.345-1.845.013-3.083.326-1.131.288-2.3.585-3.36.585-1.32 0-2.208-.474-2.739-.8zM38.15 38.736H22.916a.586.586 0 0 1-.586-.586v-1.907c0-1.639 1.812-2.78 3.438-2.78h2.235a.586.586 0 1 1 0 1.172h-2.235c-1.144 0-2.266.797-2.266 1.608v1.322h14.062V35.99c0-.685-.977-1.356-1.973-1.356h-2.529a.586.586 0 0 1 0-1.172h2.529c1.488 0 3.145 1.038 3.145 2.528v2.16a.586.586 0 0 1-.586.585zm-2.343-9.082l-.048-.001a.587.587 0 0 1-.536-.633l.293-3.576c-.002-2.019-1.563-3.7-3.482-3.7h-3c-1.92 0-3.48 1.681-3.48 3.748l.29 3.528a.586.586 0 1 1-1.168.096l-.293-3.576c-.002-2.76 2.085-4.968 4.65-4.968h3c2.566 0 4.653 2.207 4.653 4.92l-.295 3.624a.586.586 0 0 1-.584.538z" fill="#033550" stroke="#033550" stroke-width=".4"/><path d="M30.533 35.22c-1.69 0-3.224-.625-4.104-1.673-1.066-1.272-1.755-3.04-1.755-4.503v-2.362c0-.996.022-1.572.486-1.828.414-.23.805.017 1.15.234.457.288 1.15.725 2.28.725.913 0 2.011-.28 3.072-.55 1.716-.435 3.196-.812 4.092-.115.424.33.639.846.639 1.535v2.36c0 1.465-.69 3.232-1.755 4.504-.88 1.048-2.414 1.674-4.105 1.674zm-4.68-9.036a16.42 16.42 0 0 0-.007.498v2.362c0 1.187.595 2.694 1.48 3.75.65.774 1.88 1.255 3.207 1.255 1.328 0 2.557-.48 3.207-1.255.886-1.056 1.48-2.563 1.48-3.75v-2.362c0-.308-.062-.513-.186-.609-.443-.345-1.845.013-3.082.326-1.132.288-2.302.585-3.361.585-1.32 0-2.207-.474-2.739-.8zm-5.868.248a.586.586 0 0 1-.586-.586v-5.274a.586.586 0 1 1 1.172 0v5.274a.586.586 0 0 1-.586.586z" fill="#033550" stroke="#033550" stroke-width=".4"/><path d="M22.916 29.361c-.15 0-.3-.057-.414-.171l-2.516-2.516-2.515 2.516a.586.586 0 0 1-.829-.829l2.93-2.93a.586.586 0 0 1 .829 0l2.93 2.93a.586.586 0 0 1-.415 1z" fill="#033550" stroke="#033550" stroke-width=".4"/></svg>