<svg width="36" height="36" fill="none" xmlns="http://www.w3.org/2000/svg"><g clip-path="url(#clip0)" fill="#3a71c0" stroke="#3a71c0" stroke-width=".4"><path d="M31.793 5.399a.6.6 0 0 0-.6-.6h-16.8a.6.6 0 0 0-.6.6v2.4a.6.6 0 0 0 1.2 0v-1.8h15.6v3.6h-13.2a.6.6 0 0 0 0 1.2h13.8a.6.6 0 0 0 .6-.6v-4.8zm-7.2 9.001a.6.6 0 0 0 0-1.2h-3.6a.6.6 0 0 0-.6.6v3.599a.6.6 0 0 0 .6.6h3.6a.6.6 0 0 0 0-1.2h-3v-2.4h3zm7.2-.6a.6.6 0 0 0-.6-.6h-3.6a.6.6 0 0 0-.6.6v3.599a.6.6 0 0 0 .6.6h3.6a.6.6 0 0 0 .6-.6v-3.6zm-1.2 3h-2.4v-2.4h2.4v2.4zm-5.4 3.599a.6.6 0 0 0-.6-.6h-3.6a.6.6 0 0 0-.6.6v3.6a.6.6 0 0 0 .6.6h3.6a.6.6 0 0 0 .6-.6v-3.6zm-1.2 3h-2.4v-2.4h2.4v2.4zm.6 2.999h-3.6a.6.6 0 0 0-.6.6v3.6a.6.6 0 0 0 .6.6h3.6a.6.6 0 0 0 .6-.6v-3.6a.6.6 0 0 0-.6-.6zm-.6 3.6h-2.4v-2.4h2.4v2.4zm7.2-10.199h-3.6a.6.6 0 0 0-.6.6v10.2a.6.6 0 0 0 .6.6h3.6a.6.6 0 0 0 .6-.6v-10.2a.6.6 0 0 0-.6-.6zm-.6 10.2h-2.4v-9h2.4v9z"/><path d="M28.794 8.4a.6.6 0 1 0 0-1.2h-2.4a.6.6 0 0 0 0 1.2h2.4zm-4.801 0a.6.6 0 1 0 0-1.2h-2.4a.6.6 0 0 0 0 1.2h2.4z"/><path d="M32.993 0h-20.4a3 3 0 0 0-3 3v4.8a.6.6 0 0 0 1.2 0V3a1.8 1.8 0 0 1 1.8-1.8h20.4a1.8 1.8 0 0 1 1.8 1.8v29.999a1.8 1.8 0 0 1-1.8 1.8h-16.2a.6.6 0 0 0 0 1.2h16.2a3 3 0 0 0 3-3v-30a3 3 0 0 0-3-2.999z"/><path d="M17.394 13.8v3.599a.6.6 0 1 0 1.2 0v-3.6a.6.6 0 0 0-1.2 0zm-7.8 9.598a1.2 1.2 0 0 1 1.2 1.2.6.6 0 0 0 1.2 0 2.4 2.4 0 0 0-1.8-2.322v-1.278a.6.6 0 0 0-1.2 0v1.278a2.4 2.4 0 0 0 .6 4.722 1.2 1.2 0 1 1-1.2 1.2.6.6 0 0 0-1.2 0 2.4 2.4 0 0 0 1.8 2.322v1.278a.6.6 0 0 0 1.2 0V30.52a2.4 2.4 0 0 0-.6-4.722 1.2 1.2 0 0 1 0-2.4z"/><path d="M17.916 31.2a.602.602 0 0 0-1.045-.6A8.4 8.4 0 1 1 5.28 19.2h8.628a8.4 8.4 0 0 1 4.085 7.2.6.6 0 1 0 1.2 0 9.6 9.6 0 0 0-3.708-7.572 1.8 1.8 0 0 0-.557-3.144c.43-.534.665-1.198.665-1.884V12a2.4 2.4 0 0 0-4.2-1.584 2.4 2.4 0 0 0-3.6 0A2.4 2.4 0 0 0 3.595 12v1.8a3 3 0 0 0 .666 1.884 1.8 1.8 0 0 0-.558 3.144 9.6 9.6 0 1 0 14.214 12.371zM4.794 12a1.2 1.2 0 0 1 2.4 0 .6.6 0 0 0 1.2 0 1.2 1.2 0 0 1 2.4 0 .6.6 0 0 0 1.2 0 1.2 1.2 0 1 1 2.4 0v1.8a1.8 1.8 0 0 1-1.8 1.8h-6a1.8 1.8 0 0 1-1.8-1.8V12zm0 4.8h9.6a.6.6 0 0 1 0 1.2h-9.6a.6.6 0 0 1 0-1.2z"/></g><defs><clipPath id="clip0"><path fill="#fff" d="M0 0h36v36H0z"/></clipPath></defs></svg>