<svg width="84" height="178" fill="none" xmlns="http://www.w3.org/2000/svg"><path fill-rule="evenodd" clip-rule="evenodd" d="M3.885 178c-1.13 0-2.06-.366-2.802-1.092-.73-.725-1.083-1.671-1.083-2.794V61.792c0-.647.237-1.337.715-2.063a4.31 4.31 0 0 1 1.956-1.582l66.925-23.042c4.221-1.62 7.644-1.457 10.24.475C82.606 37.533 84 40.36 84 44.077v68.902c0 .971-.384 1.822-1.104 2.543-.741.731-1.687 1.092-2.828 1.092-.962 0-1.814-.361-2.544-1.092-.731-.721-1.089-1.572-1.089-2.543V44.077c0-1.29-.252-2.02-.746-2.188-.82-.486-1.94-.392-3.417.25L7.554 64.462v109.653c0 1.123-.363 2.069-1.104 2.794-.72.726-1.587 1.092-2.565 1.092zM38.113 34c-4.734 0-8.767-1.632-12.095-4.901C22.67 25.845 21 21.849 21 17.116c0-4.723 1.67-8.76 5.018-12.11C29.346 1.675 33.38 0 38.113 0c4.729 0 8.72 1.674 11.99 5.007C53.368 8.355 55 12.393 55 17.116c0 4.575-1.632 8.524-4.897 11.861C46.833 32.321 42.842 34 38.113 34zM67.07 177.951c-.83 0-1.58-.245-2.224-.726-.66-.485-1.07-1.054-1.24-1.696l-21.744-55.768-8.149 55.043c-.33 1.122-.91 1.978-1.723 2.542-.83.558-1.734.756-2.729.605-.994-.167-1.813-.694-2.468-1.571-.66-.893-.915-1.822-.74-2.792l8.894-58.19c.314-2.26 1.564-3.398 3.697-3.398h5.936c1.809.329 3.053 1.216 3.708 2.672l22.5 58.19c.319.966.281 1.942-.133 2.913-.42.965-1.123 1.612-2.096 1.931a.842.842 0 0 1-.623.245h-.867zM38.128 7c-2.8 0-5.176.989-7.152 2.96C28.994 11.937 28 14.324 28 17.12c0 2.8.994 5.15 2.976 7.037C32.952 26.049 35.327 27 38.127 27c2.79 0 5.133-.983 7.025-2.971C47.049 22.052 48 19.756 48 17.119c0-2.795-.951-5.181-2.848-7.159C43.26 7.99 40.917 7 38.127 7z" fill="#3a71c0"/></svg>