<?xml version="1.0" encoding="UTF-8" standalone="no"?>
<svg width="97px" height="31px" viewBox="0 0 97 31" version="1.1" xmlns="http://www.w3.org/2000/svg" xmlns:xlink="http://www.w3.org/1999/xlink">
    <!-- Generator: Sketch 42 (36781) - http://www.bohemiancoding.com/sketch -->
    <title>db_logo1</title>
    <desc>Created with Sketch.</desc>
    <defs>
        <linearGradient x1="0%" y1="0%" x2="101.999998%" y2="100.999999%" id="linearGradient-1">
            <stop stop-color="#25D3FD" offset="0%"></stop>
            <stop stop-color="#4038C9" offset="100%"></stop>
        </linearGradient>
        <ellipse id="path-2" cx="15.5007996" cy="15.5007996" rx="15.5007996" ry="15.5007996"></ellipse>
        <path d="M28.2695832,10.6911229 C26.6126584,10.6911229 24.9529657,11.6981213 23.8153177,12.8363228 L23.8153177,4.39447668 C25.9472921,5.99916402 27.562573,8.19315928 28.4616824,10.7055165 C28.3974648,10.7027485 28.3354616,10.6927837 28.2695832,10.6927837 L28.2695832,10.6927837 L28.2695832,10.6911229 Z M14.202054,14.1345148 L14.202054,23.8817497 C13.3257052,24.8228697 12.0778909,25.8974073 10.7464829,25.8974073 C7.49685099,25.8974073 6.68638061,21.5427898 6.68638061,19.0084091 C6.68638061,16.5725691 7.56217579,12.0884093 10.7464829,12.0884093 C12.0778909,12.0884093 13.47407,13.191734 14.3504188,14.1367292 L14.202054,14.1367292 L14.202054,14.1345148 Z M18.2892827,3.86689589 L18.2892827,4.80801586 C20.5955802,4.97077426 20.9122394,4.84067826 20.9122394,7.66902058 L20.9122394,27.10038 L21.253257,27.10038 L23.4958905,24.8915161 C23.8298771,25.264977 24.1906755,25.6135638 24.5754105,25.9344985 C19.7255375,30.1813085 12.5782645,30.4943999 7.37561259,26.687948 C8.1550035,27.0943679 9.02216794,27.3034606 9.90113572,27.296908 C11.5901693,27.296908 13.0012956,26.2899097 14.202054,25.0874905 L14.202054,27.0882008 L19.3427835,27.0882008 L19.3427835,25.9976089 C17.1344731,25.7379705 17.1344731,25.5431033 17.1344731,22.4888922 L17.1344731,2.01621114 L11.5907229,3.86689589 L11.5907229,4.80801586 C13.8964668,4.97077426 14.2026076,4.84067826 14.2026076,7.66902058 L14.2026076,12.8019996 C12.870646,11.6649053 11.5259517,10.6900157 9.67415973,10.6900157 C7.36841579,10.6900157 3.6006143,12.7383356 3.6006143,19.0726267 C3.57851496,21.1031048 4.15939797,23.0944835 5.26971825,24.7946361 C0.861737999,19.9568503 0.451790458,12.6903952 4.2876707,7.38752011 C8.12355094,2.084645 15.1532344,0.199710905 21.1275898,2.87207672 L18.2892827,3.86689589 Z M23.8114425,14.1666236 C24.6235737,13.2897212 25.6383225,12.4133724 26.9055128,12.4133724 C27.7085843,12.4066582 28.4901991,12.6724658 29.1226808,13.1673756 C29.9017785,17.5215288 28.5219236,21.983204 25.4207577,25.1373145 C24.8493558,24.7901606 24.3107002,24.3917741 23.8114425,23.9470745 L23.8114425,14.1666236 Z" id="path-3"></path>
    </defs>
    <g id="Page-1" stroke="none" stroke-width="1" fill="none" fill-rule="evenodd">
        <g id="db_logo1">
            <g id="Group">
                <g id="Oval" fill-rule="nonzero">
                    <use fill="#1173B9" fill-rule="evenodd" xlink:href="#path-2"></use>
                    <use fill="url(#linearGradient-1)" fill-rule="evenodd" xlink:href="#path-2"></use>
                </g>
                <ellipse id="Shape_1_copy_2" fill="#FFFFFF" fill-rule="nonzero" cx="15.5007996" cy="15.5007996" rx="14.3935996" ry="14.3935996"></ellipse>
                <g id="Shape_1_copy">
                    <use fill="#1173B9" xlink:href="#path-3"></use>
                    <use fill="url(#linearGradient-1)" xlink:href="#path-3"></use>
                </g>
                <path d="M40.2129493,10.7237853 C40.2369444,11.2274251 40.1148676,11.7272671 39.8614133,12.1631453 C39.5682777,12.462372 39.1530764,12.6089498 38.7370517,12.5600764 C38.2712679,12.6038846 37.8199085,12.3843967 37.5667413,11.9909757 C37.2862187,11.3304931 37.1692346,10.6120664 37.2257237,9.89670692 L37.2257237,7.96187497 C37.1910367,7.30557554 37.3164297,6.6506824 37.5910997,6.05361583 C37.8423347,5.65524583 38.2956915,5.43134744 38.7647317,5.47399664 C39.1826707,5.42408945 39.5992891,5.57695241 39.8857717,5.88532143 C40.1354059,6.34220324 40.2505681,6.86043277 40.2179317,7.38004139 L42.2950388,7.38004139 C42.285909,6.39783263 41.9369289,5.44909175 41.3074164,4.69508147 C40.6330267,4.03330285 39.7072455,3.69245894 38.7647317,3.75894389 C37.7497622,3.70679688 36.7680789,4.12871618 36.1074518,4.90102066 C35.4156857,5.8377933 35.0777848,6.98916683 35.153599,8.15120617 L35.153599,9.87290212 C35.0786338,11.0326387 35.4050854,12.182843 36.078111,13.1302844 C36.7343365,13.9101574 37.7207731,14.3336785 38.7381589,14.2723612 C39.6775297,14.3313226 40.6006381,14.0067064 41.2963444,13.3727612 C41.9503067,12.6474526 42.3022449,11.6995761 42.2800916,10.7232317 L40.2129493,10.7232317 L40.2129493,10.7237853 Z M49.6152914,3.89955829 L42.5236756,3.89955829 L42.5236756,5.62125424 L45.0115539,5.62125424 L45.0115539,14.1323004 L47.0847859,14.1323004 L47.0847859,5.62125424 L49.6147378,5.62125424 L49.6147378,3.89955829 L49.6152914,3.89955829 Z M52.1507793,3.89955829 L49.9363794,3.89955829 L52.8599409,11.2297757 L52.7614001,11.6023485 C52.7195033,11.8915586 52.5992758,12.1637934 52.4137393,12.3895676 C52.2436746,12.5183748 52.0324859,12.580767 51.8197265,12.5650588 C51.6669061,12.5735913 51.5136125,12.564115 51.3630065,12.5368252 L51.3978833,14.2529852 L51.8900337,14.2812188 L52.1159025,14.2812188 C52.5992644,14.2788931 53.0670807,14.1101821 53.4406673,13.803462 C53.9136826,13.3343076 54.2668563,12.7582167 54.4703633,12.1238397 L57.2749008,3.90066549 L55.053304,3.90066549 L53.6759473,8.44793576 L52.1507793,3.89955829 Z M65.8119661,12.4172476 L64.750715,12.4172476 L64.750715,3.89955829 L58.8681615,3.89955829 L58.5802895,8.67159015 C58.5380872,9.48533069 58.4155142,10.2929032 58.2143599,11.0825181 C58.1031524,11.5836991 57.8578398,12.0452388 57.5046448,12.4178012 L56.8231632,12.4178012 L56.9338832,16.6417691 L58.8875375,16.6417691 L58.8875375,14.1323004 L63.7298766,14.1323004 L63.7298766,16.6484123 L65.6276173,16.6484123 L65.8119661,12.4172476 Z M60.6673615,8.43963176 L60.8334415,5.62125424 L62.688555,5.62125424 L62.688555,12.4172476 L59.7229199,12.4172476 C60.3048138,11.1695041 60.6250963,9.81583956 60.6640399,8.43963176 L60.6640399,8.43963176 L60.6673615,8.43963176 Z M68.5096589,10.6817117 L68.5096589,3.89955829 L66.4358733,3.89955829 L66.4358733,14.1323004 L68.5096589,14.1323004 L71.525118,7.35734379 L71.525118,14.1323004 L73.5911531,14.1323004 L73.5911531,3.89955829 L71.525118,3.89955829 L68.5096589,10.6817117 Z M80.7652553,14.1323004 L80.7652553,3.89955829 L77.6938826,3.89955829 C76.809788,3.84266822 75.9391488,4.1382556 75.2724363,4.72165427 C74.673107,5.34816649 74.3635188,6.1970243 74.4187851,7.062275 C74.3529346,8.10296892 74.8318232,9.10329078 75.6837611,9.70460772 L73.8707211,14.1334076 L76.0984074,14.1334076 L77.6091818,10.4508605 L78.6920234,10.4508605 L78.6920234,14.1334076 L80.7652553,14.1334076 L80.7652553,14.1323004 Z M77.6650954,5.62125424 L78.6914698,5.62125424 L78.6914698,8.84043815 L77.7354026,8.84043815 C77.3786373,8.86958739 77.0292661,8.72737275 76.7942826,8.45734696 C76.5621813,8.08997281 76.4560729,7.65698832 76.492017,7.2239262 C76.492017,6.15547823 76.8832277,5.62125424 77.665649,5.62125424 L77.665649,5.62125424 L77.6650954,5.62125424 Z M41.0771188,17.3603419 L35.3351798,17.3603419 L35.3351798,27.593084 L38.7436949,27.593084 C39.6312396,27.6139959 40.4896237,27.2756328 41.1241748,26.654732 C41.7362946,26.0172292 42.061285,25.1572547 42.0237748,24.2742521 C42.0646253,23.3934149 41.7300539,22.5365661 41.103138,21.9164698 C40.4284872,21.3069989 39.5393178,20.9905621 38.6313141,21.0367994 L37.4084117,21.0367994 L37.4084117,19.0820379 L41.0771188,19.0820379 L41.0771188,17.3603419 Z M38.6733877,22.7529594 C39.0373511,22.740077 39.3866023,22.8972094 39.6183829,23.1781241 C39.8560892,23.4886803 39.9768247,23.8730346 39.9594005,24.2637337 C39.9770688,24.679264 39.8546328,25.0886836 39.6117397,25.4262937 C39.3881044,25.7246808 39.0321575,25.8941695 38.6595477,25.8796921 L37.4084117,25.8796921 L37.4084117,22.7529594 L38.6733877,22.7529594 L38.6733877,22.7529594 Z M50.0454386,21.6457594 C50.1101379,20.4734117 49.757059,19.3160978 49.0489586,18.3795195 C48.3467066,17.6335805 47.3664758,17.2123906 46.3419921,17.2163782 C45.3175084,17.2203657 44.340586,17.6491734 43.644162,18.4005563 C42.9422792,19.3495573 42.5964096,20.5151283 42.667058,21.693369 L42.667058,23.4432985 C42.6052709,24.5824026 42.9593929,25.7051662 43.663538,26.6026936 C44.3477735,27.3691375 45.3416628,27.7854113 46.3678739,27.7353592 C47.3953087,27.7888406 48.3907499,27.3693317 49.0699954,26.596604 C49.7703627,25.6827381 50.1167947,24.5465119 50.0454386,23.3973497 L50.0454386,21.6457594 L50.0454386,21.6457594 Z M47.9722066,23.4587993 C48.0138151,24.1261889 47.87539,24.7925029 47.5714003,25.3880953 C47.3150299,25.8000327 46.8539,26.0387752 46.3695347,26.0103417 C45.8717834,26.0413899 45.3970359,25.7972158 45.1327923,25.3742553 C44.8234489,24.7628621 44.684971,24.0792711 44.7319859,23.3956889 L44.7319859,21.577113 C44.695952,20.8935679 44.8362595,20.2122377 45.1394355,19.5985466 C45.4116353,19.1882604 45.873009,18.9436359 46.3653537,18.9485537 C46.8576984,18.9534716 47.3140936,19.2072634 47.5780435,19.622905 C47.8811367,20.2650873 48.0165546,20.9736028 47.971653,21.682297 L47.971653,23.4604601 L47.9722066,23.4587993 Z M54.6126385,23.9930233 C55.5208272,24.046278 56.4123131,23.7322931 57.0866768,23.1216569 C57.7022834,22.488847 58.0257634,21.6277719 57.97908,20.7461594 C58.0158836,19.8436671 57.6908521,18.9638301 57.0761584,18.3020155 C56.4385164,17.659843 55.5586602,17.3178778 54.6547121,17.3608955 L51.1670321,17.3608955 L51.1670321,27.593084 L53.2330673,27.593084 L53.2330673,23.9946841 L54.6104241,23.9946841 L54.6126385,23.9930233 Z M53.2352817,19.0803771 L54.6746416,19.0803771 C55.0282808,19.0763795 55.3605767,19.2491733 55.5604016,19.5409722 C55.7978868,19.9012633 55.9142472,20.3279182 55.8925616,20.7588922 C55.9200968,21.1600083 55.8056491,21.5580275 55.5692592,21.8832538 C55.3411536,22.1471468 55.0035338,22.2902927 54.6552657,22.2707738 L53.2330673,22.2707738 L53.2330673,19.0820379 L53.2352817,19.0803771 Z M66.2005933,21.6457594 C66.2650991,20.4734351 65.9120402,19.3161863 65.2041134,18.3795195 C64.5018614,17.6335805 63.5216305,17.2123906 62.4971469,17.2163782 C61.4726632,17.2203657 60.4957407,17.6491734 59.7993167,18.4005563 C59.0973054,19.3494932 58.7514215,20.5151119 58.8222127,21.693369 L58.8222127,23.4432985 C58.7604256,24.5824026 59.1145476,25.7051662 59.8186927,26.6026936 C60.5041394,27.3679631 61.4986268,27.7826042 62.5246894,27.7309304 C63.5521387,27.7844946 64.5476146,27.3649712 65.226811,26.5921752 C65.9259589,25.6784211 66.271569,24.5429015 66.2000397,23.3945817 L66.2000397,21.6457594 L66.2005933,21.6457594 Z M64.1273614,23.4587993 C64.1690313,24.1261308 64.0308039,24.7924135 63.7271086,25.3880953 C63.4705687,25.7998492 63.0095563,26.0385308 62.525243,26.0103417 C62.0273246,26.0414754 61.5523724,25.7973053 61.2879471,25.3742553 C60.9789514,24.7627544 60.8406741,24.0792098 60.8876943,23.3956889 L60.8876943,21.577113 C60.8516853,20.8935698 60.9919915,20.2122458 61.2951439,19.5985466 C61.5673436,19.1882604 62.0287173,18.9436359 62.521062,18.9485537 C63.0134068,18.9534716 63.4698019,19.2072634 63.7337518,19.622905 C64.0368682,20.2650798 64.1722872,20.9736013 64.1273614,21.682297 L64.1273614,23.4604601 L64.1273614,23.4587993 Z M70.711326,27.5914232 C71.5699971,27.6509369 72.4188562,27.3793417 73.0835019,26.8324376 C73.6653218,26.2343639 73.9633418,25.4158669 73.9022763,24.5837145 C73.9194782,24.0698159 73.7902673,23.561612 73.5297035,23.1183353 C73.2898552,22.7289957 72.9101577,22.4461538 72.4684523,22.3277946 C72.8606736,22.1593403 73.1899336,21.871722 73.4095723,21.5056986 C73.6476257,21.0992071 73.7669216,20.6341066 73.7539115,20.1632186 C73.8083216,19.3764033 73.5029096,18.6073759 72.9235115,18.0722715 C72.2231287,17.5505637 71.3588524,17.2973701 70.4876716,17.3586811 L67.3249549,17.3586811 L67.3249549,27.593084 L70.7124332,27.593084 L70.711326,27.5914232 Z M70.8447436,23.1426937 C71.5090636,23.166314 71.8412236,23.6372431 71.8412236,24.5554809 C71.8637783,24.9049704 71.7617879,25.2511494 71.5533516,25.5325849 C71.3401819,25.7712019 71.0289223,25.8982383 70.7096652,25.8769241 L69.388222,25.8769241 L69.388222,23.1443545 L70.8430828,23.1443545 L70.8447436,23.1426937 Z M69.3898828,19.0803771 L70.4865644,19.0803771 C70.819905,19.0490639 71.1511394,19.1586724 71.4000044,19.3826427 C71.6141077,19.6684191 71.7143413,20.0235776 71.6812332,20.3791226 C71.7360156,20.7194222 71.6271229,21.0656303 71.3874062,21.3133012 C71.1476896,21.5609721 70.8052192,21.6811042 70.4633132,21.6374554 L69.3876684,21.6374554 L69.3876684,19.0820379 L69.3898828,19.0803771 Z M82.2411529,21.6457594 C82.3059006,20.4734058 81.9528168,19.3160756 81.2446729,18.3795195 C80.5424209,17.6335805 79.5621901,17.2123906 78.5377064,17.2163782 C77.5132227,17.2203657 76.5363003,17.6491734 75.8398762,18.4005563 C75.1382759,19.3496739 74.7926136,20.5152064 74.8633259,21.693369 L74.8633259,23.4432985 C74.8010291,24.582467 75.1552065,25.7054059 75.8598058,26.6026936 C76.5452526,27.3679631 77.53974,27.7826042 78.5658026,27.7309304 C79.5932519,27.7844946 80.5887278,27.3649712 81.2679241,26.5921752 C81.9672693,25.6784974 82.3130782,24.5429706 82.2417065,23.3945817 L82.2417065,21.6457594 L82.2411529,21.6457594 Z M80.1679209,23.4587993 C80.2094475,24.126183 80.0710268,24.7924756 79.7671145,25.3880953 C79.5106593,25.7999409 79.0495883,26.038653 78.565249,26.0103417 C78.067472,26.0415129 77.5926651,25.7973083 77.3285066,25.3742553 C77.0190323,24.7629075 76.8805471,24.0792802 76.9277002,23.3956889 L76.9277002,21.577113 C76.8923572,20.8929583 77.0336242,20.2112164 77.3379178,19.5974394 C77.6100728,19.186907 78.0715904,18.9421015 78.5641155,18.94702 C79.0566407,18.9519386 79.5131773,19.2059121 79.7770793,19.6217978 C80.079965,20.2640477 80.2153726,20.9725093 80.1706889,21.6811898 L80.1706889,23.4593529 L80.1679209,23.4587993 Z M89.1295975,17.3603419 L83.3848904,17.3603419 L83.3848904,27.593084 L85.4514792,27.593084 L85.4514792,19.0820379 L89.1295975,19.0820379 L89.1295975,17.3603419 Z M96.7720453,21.6457594 C96.8368414,20.4734 96.4837526,19.3160534 95.7755653,18.3795195 C95.0733133,17.6335805 94.0930825,17.2123906 93.0685988,17.2163782 C92.0441151,17.2203657 91.0671927,17.6491734 90.3707686,18.4005563 C89.6689716,19.3496001 89.3231114,20.5151392 89.3936647,21.693369 L89.3936647,23.4432985 C89.3318776,24.5824026 89.6859996,25.7051662 90.3901446,26.6026936 C91.0755914,27.3679631 92.0700788,27.7826042 93.0961414,27.7309304 C94.1235907,27.7844946 95.1190666,27.3649712 95.7982629,26.5921752 C96.4974109,25.6784211 96.8430209,24.5429015 96.7714917,23.3945817 L96.7714917,21.6457594 L96.7720453,21.6457594 Z M94.6988133,23.4587993 C94.7407564,24.1261502 94.6025142,24.7925043 94.2985605,25.3880953 C94.0421053,25.7999409 93.5810343,26.038653 93.096695,26.0103417 C92.5988023,26.0413525 92.1239093,25.7972129 91.859399,25.3742553 C91.5504033,24.7627544 91.4121261,24.0792098 91.4591462,23.3956889 L91.4591462,21.577113 C91.4231372,20.8935698 91.5634434,20.2122458 91.8665958,19.5985466 C92.1387956,19.1882604 92.6001692,18.9436359 93.092514,18.9485537 C93.5848587,18.9534716 94.0412539,19.2072634 94.3052037,19.622905 C94.6083201,20.2650798 94.7437391,20.9736013 94.6988133,21.682297 L94.6988133,23.4604601 L94.6988133,23.4587993 Z" id="Студия_Борового" fill="#000000" fill-rule="nonzero"></path>
            </g>
        </g>
    </g>
</svg>