<svg width="20" height="20" xmlns="http://www.w3.org/2000/svg" xmlns:xlink="http://www.w3.org/1999/xlink">
<defs>
    <circle id="a" cx="9.804" cy="9.804" r="9.804"/>
</defs>
<g fill="none" fill-rule="evenodd">
    <circle cx="9.804" cy="9.804" r="9.804" fill="#fff" fill-rule="nonzero"/>
    <g>
        <mask id="b" fill="#fff">
            <use xlink:href="#a"/>
        </mask>
        <path d="M9.65 17.181H7.92l-.153-.995c-.353.643-1.103 1.041-2.13 1.041-1.777 0-2.972-.98-2.972-3.492v-2.329c0-2.129 1.027-3.37 3.034-3.37.735 0 1.5.2 1.853.797V5.386h2.099v11.795zm-3.461-7.2c-.904 0-1.425.43-1.425 1.517v2.13c0 1.302.536 1.73 1.363 1.73 1.042 0 1.425-.765 1.425-1.807v-2.068c0-1.088-.52-1.501-1.363-1.501zm4.983 7.2V5.386h3.508c2.13 0 3.478 1.287 3.478 3.125 0 .72-.138 1.44-1.073 2.068 1.226.26 2.16 1.317 2.16 2.941 0 2.65-1.332 3.661-4.182 3.661h-3.89zm2.099-5.315v3.4h1.823c1.639 0 1.884-.582 1.884-1.7 0-1.164-.383-1.7-1.915-1.7h-1.792zm1.41-4.672h-1.395V9.92h1.41c.873 0 1.286-.628 1.286-1.378 0-.598-.26-1.348-1.302-1.348z"
              fill="#4A90E2" fill-rule="nonzero" mask="url(#b)"/>
    </g>
</g>
</svg>